# https://github.com/mikedh/trimesh

o floor
v 310.10000000 1581.27000000 0.00000000
v 310.10000000 697.63000000 0.00000000
v 1269.80000000 697.63000000 0.00000000
v 310.10000000 1581.27000000 0.00000000
v 1269.80000000 697.63000000 0.00000000
v 1269.80000000 1581.27000000 0.00000000
v 307.18000000 1681.30000000 0.00000000
v 307.18000000 122.52000000 0.00000000
v 2217.13000000 122.52000000 0.00000000
v 307.18000000 1681.30000000 0.00000000
v 2217.13000000 122.52000000 0.00000000
v 2217.13000000 1681.30000000 0.00000000
v 1287.70000000 2153.68000000 0.00000000
v 1287.70000000 1681.63000000 0.00000000
v 1765.13000000 1681.63000000 0.00000000
v 1287.70000000 2153.68000000 0.00000000
v 1765.13000000 1681.63000000 0.00000000
v 1765.13000000 2153.68000000 0.00000000
v 1295.56000000 1464.99000000 0.00000000
v 1295.56000000 1190.16000000 0.00000000
v 1751.82000000 1190.16000000 0.00000000
v 1295.56000000 1464.99000000 0.00000000
v 1751.82000000 1190.16000000 0.00000000
v 1751.82000000 1464.99000000 0.00000000
v 1296.75000000 1659.11000000 0.00000000
v 1296.75000000 1483.21000000 0.00000000
v 1753.18000000 1483.21000000 0.00000000
v 1296.75000000 1659.11000000 0.00000000
v 1753.18000000 1483.21000000 0.00000000
v 1753.18000000 1659.11000000 0.00000000
v 793.95000000 2155.89000000 0.00000000
v 793.95000000 1956.24000000 0.00000000
v 1024.60000000 1956.24000000 0.00000000
v 793.95000000 2155.89000000 0.00000000
v 1024.60000000 1956.24000000 0.00000000
v 1024.60000000 2155.89000000 0.00000000
v 2351.75000000 2161.58000000 0.00000000
v 2351.75000000 692.89000000 0.00000000
v 3554.60000000 692.89000000 0.00000000
v 2351.75000000 2161.58000000 0.00000000
v 3554.60000000 692.89000000 0.00000000
v 3554.60000000 2161.58000000 0.00000000
v 1286.80000000 977.67000000 0.00000000
v 1286.80000000 697.40000000 0.00000000
v 1745.11000000 697.40000000 0.00000000
v 1286.80000000 977.67000000 0.00000000
v 1745.11000000 697.40000000 0.00000000
v 1745.11000000 977.67000000 0.00000000
v 3074.93000000 661.04000000 0.00000000
v 3074.93000000 434.55000000 0.00000000
v 3801.31000000 434.55000000 0.00000000
v 3074.93000000 661.04000000 0.00000000
v 3801.31000000 434.55000000 0.00000000
v 3801.31000000 661.04000000 0.00000000
v 1025.33000000 660.11000000 0.00000000
v 1025.33000000 411.36000000 0.00000000
v 1765.24000000 411.36000000 0.00000000
v 1025.33000000 660.11000000 0.00000000
v 1765.24000000 411.36000000 0.00000000
v 1765.24000000 660.11000000 0.00000000
v 1036.96000000 2151.78000000 0.00000000
v 1036.96000000 1953.35000000 0.00000000
v 1271.44000000 1953.35000000 0.00000000
v 1036.96000000 2151.78000000 0.00000000
v 1271.44000000 1953.35000000 0.00000000
v 1271.44000000 2151.78000000 0.00000000
v 1285.20000000 1171.85000000 0.00000000
v 1285.20000000 993.46000000 0.00000000
v 1758.35000000 993.46000000 0.00000000
v 1285.20000000 1171.85000000 0.00000000
v 1758.35000000 993.46000000 0.00000000
v 1758.35000000 1171.85000000 0.00000000
v 309.08000000 2162.45000000 0.00000000
v 309.08000000 1601.05000000 0.00000000
v 783.87000000 1601.05000000 0.00000000
v 309.08000000 2162.45000000 0.00000000
v 783.87000000 1601.05000000 0.00000000
v 783.87000000 2162.45000000 0.00000000
v 782.18000000 1942.13000000 0.00000000
v 782.18000000 1580.14000000 0.00000000
v 1269.04000000 1580.14000000 0.00000000
v 782.18000000 1942.13000000 0.00000000
v 1269.04000000 1580.14000000 0.00000000
v 1269.04000000 1942.13000000 0.00000000
v 796.66000000 2364.94000000 0.00000000
v 796.66000000 2182.36000000 0.00000000
v 1281.32000000 2182.36000000 0.00000000
v 796.66000000 2364.94000000 0.00000000
v 1281.32000000 2182.36000000 0.00000000
v 1281.32000000 2364.94000000 0.00000000
v 1791.86000000 1667.93000000 0.00000000
v 1791.86000000 1000.92000000 0.00000000
v 2192.80000000 1000.92000000 0.00000000
v 1791.86000000 1667.93000000 0.00000000
v 2192.80000000 1000.92000000 0.00000000
v 2192.80000000 1667.93000000 0.00000000
v 3566.79000000 2176.93000000 0.00000000
v 3566.79000000 694.80000000 0.00000000
v 3814.05000000 694.80000000 0.00000000
v 3566.79000000 2176.93000000 0.00000000
v 3814.05000000 694.80000000 0.00000000
v 3814.05000000 2176.93000000 0.00000000
v 310.95000000 2167.48000000 0.00000000
v 310.95000000 1570.45000000 0.00000000
v 1270.54000000 1570.45000000 0.00000000
v 310.95000000 2167.48000000 0.00000000
v 1270.54000000 1570.45000000 0.00000000
v 1270.54000000 2167.48000000 0.00000000
v 1286.58000000 1178.56000000 0.00000000
v 1286.58000000 991.64000000 0.00000000
v 1533.45000000 991.64000000 0.00000000
v 1286.58000000 1178.56000000 0.00000000
v 1533.45000000 991.64000000 0.00000000
v 1533.45000000 1178.56000000 0.00000000
v 1286.28000000 1486.31000000 0.00000000
v 1286.28000000 1187.52000000 0.00000000
v 1434.96000000 1187.52000000 0.00000000
v 1286.28000000 1486.31000000 0.00000000
v 1434.96000000 1187.52000000 0.00000000
v 1434.96000000 1486.31000000 0.00000000
v 303.48000000 658.44000000 0.00000000
v 303.48000000 134.09000000 0.00000000
v 1774.73000000 658.44000000 0.00000000
v 1774.73000000 658.44000000 0.00000000
v 303.48000000 134.09000000 0.00000000
v 1774.73000000 134.09000000 0.00000000
v 298.33000000 824.07000000 0.00000000
v 298.33000000 127.97000000 0.00000000
v 2230.02000000 127.97000000 0.00000000
v 298.33000000 824.07000000 0.00000000
v 2230.02000000 127.97000000 0.00000000
v 2230.02000000 824.07000000 0.00000000
f 1 2 3
f 4 5 6
f 7 8 9
f 10 11 12
f 13 14 15
f 16 17 18
f 19 20 21
f 22 23 24
f 25 26 27
f 28 29 30
f 31 32 33
f 34 35 36
f 37 38 39
f 40 41 42
f 43 44 45
f 46 47 48
f 49 50 51
f 52 53 54
f 55 56 57
f 58 59 60
f 61 62 63
f 64 65 66
f 67 68 69
f 70 71 72
f 73 74 75
f 76 77 78
f 79 80 81
f 82 83 84
f 85 86 87
f 88 89 90
f 91 92 93
f 94 95 96
f 97 98 99
f 100 101 102
f 103 104 105
f 106 107 108
f 109 110 111
f 112 113 114
f 115 116 117
f 118 119 120
f 121 122 123
f 124 125 126
f 127 128 129
f 130 131 132

o walls
v 278.24863465 2154.10576769 0.00000000
v 462.18369670 2146.38247288 0.00000000
v 463.68642739 2182.17093750 0.00000000
v 279.75136535 2189.89423231 0.00000000
v 278.24863465 2154.10576769 260.00000000
v 462.18369670 2146.38247288 260.00000000
v 463.68642739 2182.17093750 260.00000000
v 279.75136535 2189.89423231 260.00000000
v 462.18369670 2146.38247288 0.00000000
v 638.66818559 2138.97202203 0.00000000
v 640.17091628 2174.76048665 0.00000000
v 463.68642739 2182.17093750 0.00000000
v 462.18369670 2146.38247288 90.00000000
v 638.66818559 2138.97202203 90.00000000
v 640.17091628 2174.76048665 90.00000000
v 463.68642739 2182.17093750 90.00000000
v 462.18369670 2146.38247288 210.00000000
v 638.66818559 2138.97202203 210.00000000
v 640.17091628 2174.76048665 210.00000000
v 463.68642739 2182.17093750 210.00000000
v 462.18369670 2146.38247288 260.00000000
v 638.66818559 2138.97202203 260.00000000
v 640.17091628 2174.76048665 260.00000000
v 463.68642739 2182.17093750 260.00000000
v 638.66818559 2138.97202203 0.00000000
v 1766.24863465 2091.62576769 0.00000000
v 1767.75136535 2127.41423231 0.00000000
v 640.17091628 2174.76048665 0.00000000
v 638.66818559 2138.97202203 260.00000000
v 1766.24863465 2091.62576769 260.00000000
v 1767.75136535 2127.41423231 260.00000000
v 640.17091628 2174.76048665 260.00000000
v 256.95504582 2172.04494746 0.00000000
v 253.91504582 681.04494746 0.00000000
v 298.00495418 680.95505254 0.00000000
v 301.04495418 2171.95505254 0.00000000
v 256.95504582 2172.04494746 260.00000000
v 253.91504582 681.04494746 260.00000000
v 298.00495418 680.95505254 260.00000000
v 301.04495418 2171.95505254 260.00000000
v 1744.86500000 2109.52000000 0.00000000
v 1744.86500000 963.43000000 0.00000000
v 1789.13500000 963.43000000 0.00000000
v 1789.13500000 2109.52000000 0.00000000
v 1744.86500000 2109.52000000 260.00000000
v 1744.86500000 963.43000000 260.00000000
v 1789.13500000 963.43000000 260.00000000
v 1789.13500000 2109.52000000 260.00000000
v 1744.86500000 963.43000000 0.00000000
v 1744.86500000 832.83000000 0.00000000
v 1789.13500000 832.83000000 0.00000000
v 1789.13500000 963.43000000 0.00000000
v 1744.86500000 963.43000000 90.00000000
v 1744.86500000 832.83000000 90.00000000
v 1789.13500000 832.83000000 90.00000000
v 1789.13500000 963.43000000 90.00000000
v 1744.86500000 963.43000000 210.00000000
v 1744.86500000 832.83000000 210.00000000
v 1789.13500000 832.83000000 210.00000000
v 1789.13500000 963.43000000 210.00000000
v 1744.86500000 963.43000000 260.00000000
v 1744.86500000 832.83000000 260.00000000
v 1789.13500000 832.83000000 260.00000000
v 1789.13500000 963.43000000 260.00000000
v 1744.86500000 832.83000000 0.00000000
v 1744.86500000 681.00000000 0.00000000
v 1789.13500000 681.00000000 0.00000000
v 1789.13500000 832.83000000 0.00000000
v 1744.86500000 832.83000000 260.00000000
v 1744.86500000 681.00000000 260.00000000
v 1789.13500000 681.00000000 260.00000000
v 1789.13500000 832.83000000 260.00000000
v 1761.01854305 2109.04864799 0.00000000
v 1764.01854305 2070.97864799 0.00000000
v 1775.98145695 2071.92135201 0.00000000
v 1772.98145695 2109.99135201 0.00000000
v 1761.01854305 2109.04864799 260.00000000
v 1764.01854305 2070.97864799 260.00000000
v 1775.98145695 2071.92135201 260.00000000
v 1772.98145695 2109.99135201 260.00000000
v 3821.48105278 2174.67850811 0.00000000
v 3816.99105278 2165.67850811 0.00000000
v 3827.72894722 2160.32149189 0.00000000
v 3832.21894722 2169.32149189 0.00000000
v 3821.48105278 2174.67850811 260.00000000
v 3816.99105278 2165.67850811 260.00000000
v 3827.72894722 2160.32149189 260.00000000
v 3832.21894722 2169.32149189 260.00000000
v 3826.85000000 2184.47500000 0.00000000
v 3550.79000000 2184.47500000 0.00000000
v 3550.79000000 2159.52500000 0.00000000
v 3826.85000000 2159.52500000 0.00000000
v 3826.85000000 2184.47500000 260.00000000
v 3550.79000000 2184.47500000 260.00000000
v 3550.79000000 2159.52500000 260.00000000
v 3826.85000000 2159.52500000 260.00000000
v 275.96000000 660.86000000 0.00000000
v 542.32000000 660.86000000 0.00000000
v 542.32000000 701.14000000 0.00000000
v 275.96000000 701.14000000 0.00000000
v 275.96000000 660.86000000 260.00000000
v 542.32000000 660.86000000 260.00000000
v 542.32000000 701.14000000 260.00000000
v 275.96000000 701.14000000 260.00000000
v 542.32000000 660.86000000 0.00000000
v 729.42000000 660.86000000 0.00000000
v 729.42000000 701.14000000 0.00000000
v 542.32000000 701.14000000 0.00000000
v 542.32000000 660.86000000 90.00000000
v 729.42000000 660.86000000 90.00000000
v 729.42000000 701.14000000 90.00000000
v 542.32000000 701.14000000 90.00000000
v 542.32000000 660.86000000 210.00000000
v 729.42000000 660.86000000 210.00000000
v 729.42000000 701.14000000 210.00000000
v 542.32000000 701.14000000 210.00000000
v 542.32000000 660.86000000 260.00000000
v 729.42000000 660.86000000 260.00000000
v 729.42000000 701.14000000 260.00000000
v 542.32000000 701.14000000 260.00000000
v 729.42000000 660.86000000 0.00000000
v 731.71000000 660.86000000 0.00000000
v 731.71000000 701.14000000 0.00000000
v 729.42000000 701.14000000 0.00000000
v 729.42000000 660.86000000 260.00000000
v 731.71000000 660.86000000 260.00000000
v 731.71000000 701.14000000 260.00000000
v 729.42000000 701.14000000 260.00000000
v 731.71000000 660.86000000 0.00000000
v 926.10000000 660.86000000 0.00000000
v 926.10000000 701.14000000 0.00000000
v 731.71000000 701.14000000 0.00000000
v 731.71000000 660.86000000 90.00000000
v 926.10000000 660.86000000 90.00000000
v 926.10000000 701.14000000 90.00000000
v 731.71000000 701.14000000 90.00000000
v 731.71000000 660.86000000 210.00000000
v 926.10000000 660.86000000 210.00000000
v 926.10000000 701.14000000 210.00000000
v 731.71000000 701.14000000 210.00000000
v 731.71000000 660.86000000 260.00000000
v 926.10000000 660.86000000 260.00000000
v 926.10000000 701.14000000 260.00000000
v 731.71000000 701.14000000 260.00000000
v 926.10000000 660.86000000 0.00000000
v 1058.67500000 660.86000000 0.00000000
v 1058.67500000 701.14000000 0.00000000
v 926.10000000 701.14000000 0.00000000
v 926.10000000 660.86000000 260.00000000
v 1058.67500000 660.86000000 260.00000000
v 1058.67500000 701.14000000 260.00000000
v 926.10000000 701.14000000 260.00000000
v 1058.67500000 660.86000000 210.00000000
v 1237.50500000 660.86000000 210.00000000
v 1237.50500000 701.14000000 210.00000000
v 1058.67500000 701.14000000 210.00000000
v 1058.67500000 660.86000000 260.00000000
v 1237.50500000 660.86000000 260.00000000
v 1237.50500000 701.14000000 260.00000000
v 1058.67500000 701.14000000 260.00000000
v 1237.50500000 660.86000000 0.00000000
v 1315.02500000 660.86000000 0.00000000
v 1315.02500000 701.14000000 0.00000000
v 1237.50500000 701.14000000 0.00000000
v 1237.50500000 660.86000000 260.00000000
v 1315.02500000 660.86000000 260.00000000
v 1315.02500000 701.14000000 260.00000000
v 1237.50500000 701.14000000 260.00000000
v 1315.02500000 660.86000000 210.00000000
v 1484.78500000 660.86000000 210.00000000
v 1484.78500000 701.14000000 210.00000000
v 1315.02500000 701.14000000 210.00000000
v 1315.02500000 660.86000000 260.00000000
v 1484.78500000 660.86000000 260.00000000
v 1484.78500000 701.14000000 260.00000000
v 1315.02500000 701.14000000 260.00000000
v 1484.78500000 660.86000000 0.00000000
v 1773.06000000 660.86000000 0.00000000
v 1773.06000000 701.14000000 0.00000000
v 1484.78500000 701.14000000 0.00000000
v 1484.78500000 660.86000000 260.00000000
v 1773.06000000 660.86000000 260.00000000
v 1773.06000000 701.14000000 260.00000000
v 1484.78500000 701.14000000 260.00000000
v 275.96000000 675.00000000 0.00000000
v 300.00000000 675.00000000 0.00000000
v 300.00000000 687.00000000 0.00000000
v 275.96000000 687.00000000 0.00000000
v 275.96000000 675.00000000 260.00000000
v 300.00000000 675.00000000 260.00000000
v 300.00000000 687.00000000 260.00000000
v 275.96000000 687.00000000 260.00000000
v 1273.61000000 1172.05500000 0.00000000
v 1786.98000000 1172.05500000 0.00000000
v 1786.98000000 1191.94500000 0.00000000
v 1273.61000000 1191.94500000 0.00000000
v 1273.61000000 1172.05500000 260.00000000
v 1786.98000000 1172.05500000 260.00000000
v 1786.98000000 1191.94500000 260.00000000
v 1273.61000000 1191.94500000 260.00000000
v 1268.02007267 1184.18007166 0.00000000
v 1265.68007267 1178.18007166 0.00000000
v 1276.85992733 1173.81992834 0.00000000
v 1279.19992733 1179.81992834 0.00000000
v 1268.02007267 1184.18007166 260.00000000
v 1265.68007267 1178.18007166 260.00000000
v 1276.85992733 1173.81992834 260.00000000
v 1279.19992733 1179.81992834 260.00000000
v 1279.48187466 1180.76667605 0.00000000
v 1292.87187466 1244.51667605 0.00000000
v 1281.12812534 1246.98332395 0.00000000
v 1267.73812534 1183.23332395 0.00000000
v 1279.48187466 1180.76667605 260.00000000
v 1292.87187466 1244.51667605 260.00000000
v 1281.12812534 1246.98332395 260.00000000
v 1267.73812534 1183.23332395 260.00000000
v 1278.95000000 1660.56000000 0.00000000
v 1773.00000000 1660.56000000 0.00000000
v 1773.00000000 1687.44000000 0.00000000
v 1278.95000000 1687.44000000 0.00000000
v 1278.95000000 1660.56000000 260.00000000
v 1773.00000000 1660.56000000 260.00000000
v 1773.00000000 1687.44000000 260.00000000
v 1278.95000000 1687.44000000 260.00000000
v 1272.98971458 1673.31079918 0.00000000
v 1283.04971458 1586.31079918 0.00000000
v 1294.97028542 1587.68920082 0.00000000
v 1284.91028542 1674.68920082 0.00000000
v 1272.98971458 1673.31079918 260.00000000
v 1283.04971458 1586.31079918 260.00000000
v 1294.97028542 1587.68920082 260.00000000
v 1284.91028542 1674.68920082 260.00000000
v 2334.00000000 661.94500000 0.00000000
v 2803.41000000 661.94500000 0.00000000
v 2803.41000000 694.05500000 0.00000000
v 2334.00000000 694.05500000 0.00000000
v 2334.00000000 661.94500000 260.00000000
v 2803.41000000 661.94500000 260.00000000
v 2803.41000000 694.05500000 260.00000000
v 2334.00000000 694.05500000 260.00000000
v 2803.41000000 661.94500000 0.00000000
v 2939.54000000 661.94500000 0.00000000
v 2939.54000000 694.05500000 0.00000000
v 2803.41000000 694.05500000 0.00000000
v 2803.41000000 661.94500000 90.00000000
v 2939.54000000 661.94500000 90.00000000
v 2939.54000000 694.05500000 90.00000000
v 2803.41000000 694.05500000 90.00000000
v 2803.41000000 661.94500000 210.00000000
v 2939.54000000 661.94500000 210.00000000
v 2939.54000000 694.05500000 210.00000000
v 2803.41000000 694.05500000 210.00000000
v 2803.41000000 661.94500000 260.00000000
v 2939.54000000 661.94500000 260.00000000
v 2939.54000000 694.05500000 260.00000000
v 2803.41000000 694.05500000 260.00000000
v 2939.54000000 661.94500000 0.00000000
v 3094.13000000 661.94500000 0.00000000
v 3094.13000000 694.05500000 0.00000000
v 2939.54000000 694.05500000 0.00000000
v 2939.54000000 661.94500000 260.00000000
v 3094.13000000 661.94500000 260.00000000
v 3094.13000000 694.05500000 260.00000000
v 2939.54000000 694.05500000 260.00000000
v 3094.13000000 661.94500000 210.00000000
v 3262.92000000 661.94500000 210.00000000
v 3262.92000000 694.05500000 210.00000000
v 3094.13000000 694.05500000 210.00000000
v 3094.13000000 661.94500000 260.00000000
v 3262.92000000 661.94500000 260.00000000
v 3262.92000000 694.05500000 260.00000000
v 3094.13000000 694.05500000 260.00000000
v 3262.92000000 661.94500000 0.00000000
v 3584.29000000 661.94500000 0.00000000
v 3584.29000000 694.05500000 0.00000000
v 3262.92000000 694.05500000 0.00000000
v 3262.92000000 661.94500000 260.00000000
v 3584.29000000 661.94500000 260.00000000
v 3584.29000000 694.05500000 260.00000000
v 3262.92000000 694.05500000 260.00000000
v 2328.00000000 678.00000000 0.00000000
v 2328.00000000 661.75000000 0.00000000
v 2340.00000000 661.75000000 0.00000000
v 2340.00000000 678.00000000 0.00000000
v 2328.00000000 678.00000000 260.00000000
v 2328.00000000 661.75000000 260.00000000
v 2340.00000000 661.75000000 260.00000000
v 2340.00000000 678.00000000 260.00000000
v 3584.96028998 683.96244173 0.00000000
v 3552.67028998 687.59244173 0.00000000
v 3551.32971002 675.66755827 0.00000000
v 3583.61971002 672.03755827 0.00000000
v 3584.96028998 683.96244173 260.00000000
v 3552.67028998 687.59244173 260.00000000
v 3551.32971002 675.66755827 260.00000000
v 3583.61971002 672.03755827 260.00000000
v 3554.50563852 670.11328278 0.00000000
v 3557.69563852 679.74328278 0.00000000
v 3546.30436148 683.51671722 0.00000000
v 3543.11436148 673.88671722 0.00000000
v 3554.50563852 670.11328278 260.00000000
v 3557.69563852 679.74328278 260.00000000
v 3546.30436148 683.51671722 260.00000000
v 3543.11436148 673.88671722 260.00000000
v 3548.80552629 660.93000090 0.00000000
v 3820.99552629 660.82000090 0.00000000
v 3821.00447371 682.95999910 0.00000000
v 3548.81447371 683.06999910 0.00000000
v 3548.80552629 660.93000090 260.00000000
v 3820.99552629 660.82000090 260.00000000
v 3821.00447371 682.95999910 260.00000000
v 3548.81447371 683.06999910 260.00000000
v 1267.20000000 975.23000000 0.00000000
v 1429.66000000 975.23000000 0.00000000
v 1429.66000000 992.77000000 0.00000000
v 1267.20000000 992.77000000 0.00000000
v 1267.20000000 975.23000000 260.00000000
v 1429.66000000 975.23000000 260.00000000
v 1429.66000000 992.77000000 260.00000000
v 1267.20000000 992.77000000 260.00000000
v 1429.66000000 975.23000000 210.00000000
v 1534.73000000 975.23000000 210.00000000
v 1534.73000000 992.77000000 210.00000000
v 1429.66000000 992.77000000 210.00000000
v 1429.66000000 975.23000000 260.00000000
v 1534.73000000 975.23000000 260.00000000
v 1534.73000000 992.77000000 260.00000000
v 1429.66000000 992.77000000 260.00000000
v 1534.73000000 975.23000000 0.00000000
v 1782.14000000 975.23000000 0.00000000
v 1782.14000000 992.77000000 0.00000000
v 1534.73000000 992.77000000 0.00000000
v 1534.73000000 975.23000000 260.00000000
v 1782.14000000 975.23000000 260.00000000
v 1782.14000000 992.77000000 260.00000000
v 1534.73000000 992.77000000 260.00000000
v 1273.09812149 982.89901732 0.00000000
v 1274.77812149 991.89901732 0.00000000
v 1262.98187851 994.10098268 0.00000000
v 1261.30187851 985.10098268 0.00000000
v 1273.09812149 982.89901732 260.00000000
v 1274.77812149 991.89901732 260.00000000
v 1262.98187851 994.10098268 260.00000000
v 1261.30187851 985.10098268 260.00000000
v 1776.17953979 984.68768753 0.00000000
v 1767.03953979 905.46768753 0.00000000
v 1778.96046021 904.09231247 0.00000000
v 1788.10046021 983.31231247 0.00000000
v 1776.17953979 984.68768753 260.00000000
v 1767.03953979 905.46768753 260.00000000
v 1778.96046021 904.09231247 260.00000000
v 1788.10046021 983.31231247 260.00000000
v 1065.00000000 1576.45000000 0.00000000
v 1289.01000000 1576.45000000 0.00000000
v 1289.01000000 1597.55000000 0.00000000
v 1065.00000000 1597.55000000 0.00000000
v 1065.00000000 1576.45000000 260.00000000
v 1289.01000000 1576.45000000 260.00000000
v 1289.01000000 1597.55000000 260.00000000
v 1065.00000000 1597.55000000 260.00000000
v 1052.99500000 1587.00000000 0.00000000
v 1052.99500000 1579.91000000 0.00000000
v 1077.00500000 1579.91000000 0.00000000
v 1077.00500000 1587.00000000 0.00000000
v 1052.99500000 1587.00000000 260.00000000
v 1052.99500000 1579.91000000 260.00000000
v 1077.00500000 1579.91000000 260.00000000
v 1077.00500000 1587.00000000 260.00000000
v 1283.15005218 1588.28880236 0.00000000
v 1275.14005218 1551.86880236 0.00000000
v 1286.85994782 1549.29119764 0.00000000
v 1294.86994782 1585.71119764 0.00000000
v 1283.15005218 1588.28880236 260.00000000
v 1275.14005218 1551.86880236 260.00000000
v 1286.85994782 1549.29119764 260.00000000
v 1294.86994782 1585.71119764 260.00000000
v 788.97158473 1940.53004263 0.00000000
v 1288.87658473 1939.03004263 0.00000000
v 1288.93341527 1957.96995737 0.00000000
v 789.02841527 1959.46995737 0.00000000
v 788.97158473 1940.53004263 260.00000000
v 1288.87658473 1939.03004263 260.00000000
v 1288.93341527 1957.96995737 260.00000000
v 789.02841527 1959.46995737 260.00000000
v 783.00000000 1950.00000000 0.00000000
v 783.00000000 1942.97000000 0.00000000
v 795.00000000 1942.97000000 0.00000000
v 795.00000000 1950.00000000 0.00000000
v 783.00000000 1950.00000000 260.00000000
v 783.00000000 1942.97000000 260.00000000
v 795.00000000 1942.97000000 260.00000000
v 795.00000000 1950.00000000 260.00000000
v 1356.22083417 1461.49007243 0.00000000
v 1779.02583417 1462.99007243 0.00000000
v 1778.94416583 1486.00992757 0.00000000
v 1356.13916583 1484.50992757 0.00000000
v 1356.22083417 1461.49007243 260.00000000
v 1779.02583417 1462.99007243 260.00000000
v 1778.94416583 1486.00992757 260.00000000
v 1356.13916583 1484.50992757 260.00000000
v 1271.27000000 1161.68500000 0.00000000
v 1782.20000000 1161.68500000 0.00000000
v 1782.20000000 1190.31500000 0.00000000
v 1271.27000000 1190.31500000 0.00000000
v 1271.27000000 1161.68500000 260.00000000
v 1782.20000000 1161.68500000 260.00000000
v 1782.20000000 1190.31500000 260.00000000
v 1271.27000000 1190.31500000 260.00000000
v 1269.10683041 1170.40351027 0.00000000
v 1284.83683041 1164.32351027 0.00000000
v 1289.16316959 1175.51648973 0.00000000
v 1273.43316959 1181.59648973 0.00000000
v 1269.10683041 1170.40351027 260.00000000
v 1284.83683041 1164.32351027 260.00000000
v 1289.16316959 1175.51648973 260.00000000
v 1273.43316959 1181.59648973 260.00000000
v 1776.46632942 1177.76777309 0.00000000
v 1764.26632942 1138.19777309 0.00000000
v 1775.73367058 1134.66222691 0.00000000
v 1787.93367058 1174.23222691 0.00000000
v 1776.46632942 1177.76777309 260.00000000
v 1764.26632942 1138.19777309 260.00000000
v 1775.73367058 1134.66222691 260.00000000
v 1787.93367058 1174.23222691 260.00000000
v 1779.04651346 1484.73481515 0.00000000
v 1279.89651346 1487.73481515 0.00000000
v 1279.77348654 1467.26518485 0.00000000
v 1778.92348654 1464.26518485 0.00000000
v 1779.04651346 1484.73481515 260.00000000
v 1279.89651346 1487.73481515 260.00000000
v 1279.77348654 1467.26518485 260.00000000
v 1778.92348654 1464.26518485 260.00000000
v 849.81642231 1939.26504513 0.00000000
v 1143.63056746 1940.26870298 0.00000000
v 1143.57772284 1955.73861272 0.00000000
v 849.76357769 1954.73495487 0.00000000
v 849.81642231 1939.26504513 260.00000000
v 1143.63056746 1940.26870298 260.00000000
v 1143.57772284 1955.73861272 260.00000000
v 849.76357769 1954.73495487 260.00000000
v 1143.63056746 1940.26870298 210.00000000
v 1274.08980631 1940.71434674 210.00000000
v 1274.03696169 1956.18425648 210.00000000
v 1143.57772284 1955.73861272 210.00000000
v 1143.63056746 1940.26870298 260.00000000
v 1274.08980631 1940.71434674 260.00000000
v 1274.03696169 1956.18425648 260.00000000
v 1143.57772284 1955.73861272 260.00000000
v 1274.08980631 1940.71434674 0.00000000
v 1288.93142231 1940.76504513 0.00000000
v 1288.87857769 1956.23495487 0.00000000
v 1274.03696169 1956.18425648 0.00000000
v 1274.08980631 1940.71434674 260.00000000
v 1288.93142231 1940.76504513 260.00000000
v 1288.87857769 1956.23495487 260.00000000
v 1274.03696169 1956.18425648 260.00000000
v 1282.90883868 1948.71459116 0.00000000
v 1281.00383868 1895.48459116 0.00000000
v 1292.99616132 1895.05540884 0.00000000
v 1294.90116132 1948.28540884 0.00000000
v 1282.90883868 1948.71459116 260.00000000
v 1281.00383868 1895.48459116 260.00000000
v 1292.99616132 1895.05540884 260.00000000
v 1294.90116132 1948.28540884 260.00000000
v 2496.62656402 2158.05069449 0.00000000
v 3004.32207266 2153.45470925 0.00000000
v 3004.62894462 2187.35332028 0.00000000
v 2496.93343598 2191.94930551 0.00000000
v 2496.62656402 2158.05069449 260.00000000
v 3004.32207266 2153.45470925 260.00000000
v 3004.62894462 2187.35332028 260.00000000
v 2496.93343598 2191.94930551 260.00000000
v 3004.32207266 2153.45470925 0.00000000
v 3142.13642582 2152.20712538 0.00000000
v 3142.44329778 2186.10573640 0.00000000
v 3004.62894462 2187.35332028 0.00000000
v 3004.32207266 2153.45470925 90.00000000
v 3142.13642582 2152.20712538 90.00000000
v 3142.44329778 2186.10573640 90.00000000
v 3004.62894462 2187.35332028 90.00000000
v 3004.32207266 2153.45470925 210.00000000
v 3142.13642582 2152.20712538 210.00000000
v 3142.44329778 2186.10573640 210.00000000
v 3004.62894462 2187.35332028 210.00000000
v 3004.32207266 2153.45470925 260.00000000
v 3142.13642582 2152.20712538 260.00000000
v 3142.44329778 2186.10573640 260.00000000
v 3004.62894462 2187.35332028 260.00000000
v 3142.13642582 2152.20712538 0.00000000
v 3822.20656402 2146.05069449 0.00000000
v 3822.51343598 2179.94930551 0.00000000
v 3142.44329778 2186.10573640 0.00000000
v 3142.13642582 2152.20712538 260.00000000
v 3822.20656402 2146.05069449 260.00000000
v 3822.51343598 2179.94930551 260.00000000
v 3142.44329778 2186.10573640 260.00000000
v 1268.88000000 979.74500000 0.00000000
v 1785.80000000 979.74500000 0.00000000
v 1785.80000000 1006.25500000 0.00000000
v 1268.88000000 1006.25500000 0.00000000
v 1268.88000000 979.74500000 260.00000000
v 1785.80000000 979.74500000 260.00000000
v 1785.80000000 1006.25500000 260.00000000
v 1268.88000000 1006.25500000 260.00000000
v 1279.86148581 1468.61003945 0.00000000
v 1783.33648581 1470.11003945 0.00000000
v 1783.28351419 1487.88996055 0.00000000
v 1279.80851419 1486.38996055 0.00000000
v 1279.86148581 1468.61003945 260.00000000
v 1783.33648581 1470.11003945 260.00000000
v 1783.28351419 1487.88996055 260.00000000
v 1279.80851419 1486.38996055 260.00000000
v 1285.83423776 1477.40436355 0.00000000
v 1286.99923776 1550.48436355 0.00000000
v 1275.00076224 1550.67563645 0.00000000
v 1273.83576224 1477.59563645 0.00000000
v 1285.83423776 1477.40436355 260.00000000
v 1286.99923776 1550.48436355 260.00000000
v 1275.00076224 1550.67563645 260.00000000
v 1273.83576224 1477.59563645 260.00000000
v 2324.95000000 2160.20000000 0.00000000
v 2589.21000000 2160.20000000 0.00000000
v 2589.21000000 2189.80000000 0.00000000
v 2324.95000000 2189.80000000 0.00000000
v 2324.95000000 2160.20000000 260.00000000
v 2589.21000000 2160.20000000 260.00000000
v 2589.21000000 2189.80000000 260.00000000
v 2324.95000000 2189.80000000 260.00000000
v 2324.95000000 2169.00000000 0.00000000
v 2334.00000000 2169.00000000 0.00000000
v 2334.00000000 2181.00000000 0.00000000
v 2324.95000000 2181.00000000 0.00000000
v 2324.95000000 2169.00000000 260.00000000
v 2334.00000000 2169.00000000 260.00000000
v 2334.00000000 2181.00000000 260.00000000
v 2324.95000000 2181.00000000 260.00000000
v 3569.03499439 681.64383035 0.00000000
v 3567.82499439 2172.01383035 0.00000000
v 3533.75500561 2171.98616965 0.00000000
v 3534.96500561 681.61616965 0.00000000
v 3569.03499439 681.64383035 260.00000000
v 3567.82499439 2172.01383035 260.00000000
v 3533.75500561 2171.98616965 260.00000000
v 3534.96500561 681.61616965 260.00000000
v 799.99973281 1943.04666934 0.00000000
v 798.55220660 2150.72293374 0.00000000
v 776.55274098 2150.56959507 0.00000000
v 778.00026719 1942.89333066 0.00000000
v 799.99973281 1943.04666934 260.00000000
v 798.55220660 2150.72293374 260.00000000
v 776.55274098 2150.56959507 260.00000000
v 778.00026719 1942.89333066 260.00000000
v 2351.53000000 661.75000000 0.00000000
v 2351.53000000 2175.00000000 0.00000000
v 2316.47000000 2175.00000000 0.00000000
v 2316.47000000 661.75000000 0.00000000
v 2351.53000000 661.75000000 260.00000000
v 2351.53000000 2175.00000000 260.00000000
v 2316.47000000 2175.00000000 260.00000000
v 2316.47000000 661.75000000 260.00000000
v 2329.44170749 657.84846576 0.00000000
v 2335.44170749 650.83846576 0.00000000
v 2344.55829251 658.64153424 0.00000000
v 2338.55829251 665.65153424 0.00000000
v 2329.44170749 657.84846576 260.00000000
v 2335.44170749 650.83846576 260.00000000
v 2344.55829251 658.64153424 260.00000000
v 2338.55829251 665.65153424 260.00000000
v 1791.27500000 1136.43000000 0.00000000
v 1791.27500000 2071.45000000 0.00000000
v 1748.72500000 2071.45000000 0.00000000
v 1748.72500000 1136.43000000 0.00000000
v 1791.27500000 1136.43000000 260.00000000
v 1791.27500000 2071.45000000 260.00000000
v 1748.72500000 2071.45000000 260.00000000
v 1748.72500000 1136.43000000 260.00000000
v 3186.33000000 938.40000000 0.00000000
v 3186.33000000 1597.84000000 0.00000000
v 3167.67000000 1597.84000000 0.00000000
v 3167.67000000 938.40000000 0.00000000
v 3186.33000000 938.40000000 260.00000000
v 3186.33000000 1597.84000000 260.00000000
v 3167.67000000 1597.84000000 260.00000000
v 3167.67000000 938.40000000 260.00000000
v 3811.26000234 2186.22709224 0.00000000
v 3810.26000234 671.89709224 0.00000000
v 3831.73999766 671.88290776 0.00000000
v 3832.73999766 2186.21290776 0.00000000
v 3811.26000234 2186.22709224 260.00000000
v 3810.26000234 671.89709224 260.00000000
v 3831.73999766 671.88290776 260.00000000
v 3832.73999766 2186.21290776 260.00000000
v 3816.57496637 2188.78300802 0.00000000
v 3813.57496637 2182.43300802 0.00000000
v 3824.42503363 2177.30699198 0.00000000
v 3827.42503363 2183.65699198 0.00000000
v 3816.57496637 2188.78300802 260.00000000
v 3813.57496637 2182.43300802 260.00000000
v 3824.42503363 2177.30699198 260.00000000
v 3827.42503363 2183.65699198 260.00000000
v 3080.83500000 417.94000000 0.00000000
v 3080.83500000 676.66000000 0.00000000
v 3057.16500000 676.66000000 0.00000000
v 3057.16500000 417.94000000 0.00000000
v 3080.83500000 417.94000000 260.00000000
v 3080.83500000 676.66000000 260.00000000
v 3057.16500000 676.66000000 260.00000000
v 3057.16500000 417.94000000 260.00000000
v 1299.83500000 1169.92000000 0.00000000
v 1299.83500000 1702.88500000 0.00000000
v 1274.16500000 1702.88500000 0.00000000
v 1274.16500000 1169.92000000 0.00000000
v 1299.83500000 1169.92000000 260.00000000
v 1299.83500000 1702.88500000 260.00000000
v 1274.16500000 1702.88500000 260.00000000
v 1274.16500000 1169.92000000 260.00000000
v 1299.83500000 1702.88500000 210.00000000
v 1299.83500000 1850.42500000 210.00000000
v 1274.16500000 1850.42500000 210.00000000
v 1274.16500000 1702.88500000 210.00000000
v 1299.83500000 1702.88500000 260.00000000
v 1299.83500000 1850.42500000 260.00000000
v 1274.16500000 1850.42500000 260.00000000
v 1274.16500000 1702.88500000 260.00000000
v 1299.83500000 1850.42500000 0.00000000
v 1299.83500000 1895.27000000 0.00000000
v 1274.16500000 1895.27000000 0.00000000
v 1274.16500000 1850.42500000 0.00000000
v 1299.83500000 1850.42500000 260.00000000
v 1299.83500000 1895.27000000 260.00000000
v 1274.16500000 1895.27000000 260.00000000
v 1274.16500000 1850.42500000 260.00000000
v 312.66819788 681.21368753 0.00000000
v 310.88800901 786.74995969 0.00000000
v 285.55161324 786.32258464 0.00000000
v 287.33180212 680.78631247 0.00000000
v 312.66819788 681.21368753 260.00000000
v 310.88800901 786.74995969 260.00000000
v 285.55161324 786.32258464 260.00000000
v 287.33180212 680.78631247 260.00000000
v 310.88800901 786.74995969 0.00000000
v 304.36252829 1173.60492761 0.00000000
v 279.02613252 1173.17755255 0.00000000
v 285.55161324 786.32258464 0.00000000
v 310.88800901 786.74995969 90.00000000
v 304.36252829 1173.60492761 90.00000000
v 279.02613252 1173.17755255 90.00000000
v 285.55161324 786.32258464 90.00000000
v 310.88800901 786.74995969 210.00000000
v 304.36252829 1173.60492761 210.00000000
v 279.02613252 1173.17755255 210.00000000
v 285.55161324 786.32258464 210.00000000
v 310.88800901 786.74995969 260.00000000
v 304.36252829 1173.60492761 260.00000000
v 279.02613252 1173.17755255 260.00000000
v 285.55161324 786.32258464 260.00000000
v 304.36252829 1173.60492761 0.00000000
v 301.68611557 1332.27270966 0.00000000
v 276.34971981 1331.84533461 0.00000000
v 279.02613252 1173.17755255 0.00000000
v 304.36252829 1173.60492761 260.00000000
v 301.68611557 1332.27270966 260.00000000
v 276.34971981 1331.84533461 260.00000000
v 279.02613252 1173.17755255 260.00000000
v 301.68611557 1332.27270966 0.00000000
v 298.66767386 1511.21725389 0.00000000
v 273.33127809 1510.78987884 0.00000000
v 276.34971981 1331.84533461 0.00000000
v 301.68611557 1332.27270966 90.00000000
v 298.66767386 1511.21725389 90.00000000
v 273.33127809 1510.78987884 90.00000000
v 276.34971981 1331.84533461 90.00000000
v 301.68611557 1332.27270966 210.00000000
v 298.66767386 1511.21725389 210.00000000
v 273.33127809 1510.78987884 210.00000000
v 276.34971981 1331.84533461 210.00000000
v 301.68611557 1332.27270966 260.00000000
v 298.66767386 1511.21725389 260.00000000
v 273.33127809 1510.78987884 260.00000000
v 276.34971981 1331.84533461 260.00000000
v 298.66767386 1511.21725389 0.00000000
v 288.66819788 2104.02368753 0.00000000
v 263.33180212 2103.59631247 0.00000000
v 273.33127809 1510.78987884 0.00000000
v 298.66767386 1511.21725389 260.00000000
v 288.66819788 2104.02368753 260.00000000
v 263.33180212 2103.59631247 260.00000000
v 273.33127809 1510.78987884 260.00000000
v 2362.13000000 654.74000000 0.00000000
v 2362.13000000 2157.58000000 0.00000000
v 2317.87000000 2157.58000000 0.00000000
v 2317.87000000 654.74000000 0.00000000
v 2362.13000000 654.74000000 260.00000000
v 2362.13000000 2157.58000000 260.00000000
v 2317.87000000 2157.58000000 260.00000000
v 2317.87000000 654.74000000 260.00000000
v 1455.60000000 1182.00000000 0.00000000
v 1455.60000000 1488.34000000 0.00000000
v 1436.40000000 1488.34000000 0.00000000
v 1436.40000000 1182.00000000 0.00000000
v 1455.60000000 1182.00000000 260.00000000
v 1455.60000000 1488.34000000 260.00000000
v 1436.40000000 1488.34000000 260.00000000
v 1436.40000000 1182.00000000 260.00000000
v 1286.87236431 676.03981847 0.00000000
v 1288.80099256 767.56287224 0.00000000
v 1265.05626395 768.06323529 0.00000000
v 1263.12763569 676.54018153 0.00000000
v 1286.87236431 676.03981847 260.00000000
v 1288.80099256 767.56287224 260.00000000
v 1265.05626395 768.06323529 260.00000000
v 1263.12763569 676.54018153 260.00000000
v 1288.80099256 767.56287224 210.00000000
v 1291.61440232 901.07323260 210.00000000
v 1267.86967371 901.57359565 210.00000000
v 1265.05626395 768.06323529 210.00000000
v 1288.80099256 767.56287224 260.00000000
v 1291.61440232 901.07323260 260.00000000
v 1267.86967371 901.57359565 260.00000000
v 1265.05626395 768.06323529 260.00000000
v 1291.61440232 901.07323260 0.00000000
v 1298.87236431 1245.49981847 0.00000000
v 1275.12763569 1246.00018153 0.00000000
v 1267.86967371 901.57359565 0.00000000
v 1291.61440232 901.07323260 260.00000000
v 1298.87236431 1245.49981847 260.00000000
v 1275.12763569 1246.00018153 260.00000000
v 1267.86967371 901.57359565 260.00000000
v 3831.90957395 425.61511659 0.00000000
v 3833.90957395 671.78511659 0.00000000
v 3808.09042605 671.99488341 0.00000000
v 3806.09042605 425.82488341 0.00000000
v 3831.90957395 425.61511659 260.00000000
v 3833.90957395 671.78511659 260.00000000
v 3808.09042605 671.99488341 260.00000000
v 3806.09042605 425.82488341 260.00000000
v 3830.50000000 701.68000000 0.00000000
v 3830.50000000 2179.87000000 0.00000000
v 3807.50000000 2179.87000000 0.00000000
v 3807.50000000 701.68000000 0.00000000
v 3830.50000000 701.68000000 260.00000000
v 3830.50000000 2179.87000000 260.00000000
v 3807.50000000 2179.87000000 260.00000000
v 3807.50000000 701.68000000 260.00000000
v 1791.76000000 904.78000000 0.00000000
v 1791.76000000 1475.26500000 0.00000000
v 1754.24000000 1475.26500000 0.00000000
v 1754.24000000 904.78000000 0.00000000
v 1791.76000000 904.78000000 260.00000000
v 1791.76000000 1475.26500000 260.00000000
v 1754.24000000 1475.26500000 260.00000000
v 1754.24000000 904.78000000 260.00000000
v 1791.76000000 1475.26500000 210.00000000
v 1791.76000000 1654.29500000 210.00000000
v 1754.24000000 1654.29500000 210.00000000
v 1754.24000000 1475.26500000 210.00000000
v 1791.76000000 1475.26500000 260.00000000
v 1791.76000000 1654.29500000 260.00000000
v 1754.24000000 1654.29500000 260.00000000
v 1754.24000000 1475.26500000 260.00000000
v 1791.76000000 1654.29500000 0.00000000
v 1791.76000000 1702.44000000 0.00000000
v 1754.24000000 1702.44000000 0.00000000
v 1754.24000000 1654.29500000 0.00000000
v 1791.76000000 1654.29500000 260.00000000
v 1791.76000000 1702.44000000 260.00000000
v 1754.24000000 1702.44000000 260.00000000
v 1754.24000000 1654.29500000 260.00000000
v 1791.76000000 1702.44000000 0.00000000
v 1791.76000000 1872.31000000 0.00000000
v 1754.24000000 1872.31000000 0.00000000
v 1754.24000000 1702.44000000 0.00000000
v 1791.76000000 1702.44000000 90.00000000
v 1791.76000000 1872.31000000 90.00000000
v 1754.24000000 1872.31000000 90.00000000
v 1754.24000000 1702.44000000 90.00000000
v 1791.76000000 1702.44000000 210.00000000
v 1791.76000000 1872.31000000 210.00000000
v 1754.24000000 1872.31000000 210.00000000
v 1754.24000000 1702.44000000 210.00000000
v 1791.76000000 1702.44000000 260.00000000
v 1791.76000000 1872.31000000 260.00000000
v 1754.24000000 1872.31000000 260.00000000
v 1754.24000000 1702.44000000 260.00000000
v 1292.11000000 1550.58000000 0.00000000
v 1292.11000000 2122.62000000 0.00000000
v 1269.89000000 2122.62000000 0.00000000
v 1269.89000000 1550.58000000 0.00000000
v 1292.11000000 1550.58000000 260.00000000
v 1292.11000000 2122.62000000 260.00000000
v 1269.89000000 2122.62000000 260.00000000
v 1269.89000000 1550.58000000 260.00000000
f 133 134 135
f 133 135 136
f 137 139 138
f 137 140 139
f 133 137 138
f 133 138 134
f 134 138 139
f 134 139 135
f 135 139 140
f 135 140 136
f 136 140 137
f 136 137 133
f 141 142 143
f 141 143 144
f 145 147 146
f 145 148 147
f 141 145 146
f 141 146 142
f 142 146 147
f 142 147 143
f 143 147 148
f 143 148 144
f 144 148 145
f 144 145 141
f 149 150 151
f 149 151 152
f 153 155 154
f 153 156 155
f 149 153 154
f 149 154 150
f 150 154 155
f 150 155 151
f 151 155 156
f 151 156 152
f 152 156 153
f 152 153 149
f 157 158 159
f 157 159 160
f 161 163 162
f 161 164 163
f 157 161 162
f 157 162 158
f 158 162 163
f 158 163 159
f 159 163 164
f 159 164 160
f 160 164 161
f 160 161 157
f 165 166 167
f 165 167 168
f 169 171 170
f 169 172 171
f 165 169 170
f 165 170 166
f 166 170 171
f 166 171 167
f 167 171 172
f 167 172 168
f 168 172 169
f 168 169 165
f 173 174 175
f 173 175 176
f 177 179 178
f 177 180 179
f 173 177 178
f 173 178 174
f 174 178 179
f 174 179 175
f 175 179 180
f 175 180 176
f 176 180 177
f 176 177 173
f 181 182 183
f 181 183 184
f 185 187 186
f 185 188 187
f 181 185 186
f 181 186 182
f 182 186 187
f 182 187 183
f 183 187 188
f 183 188 184
f 184 188 185
f 184 185 181
f 189 190 191
f 189 191 192
f 193 195 194
f 193 196 195
f 189 193 194
f 189 194 190
f 190 194 195
f 190 195 191
f 191 195 196
f 191 196 192
f 192 196 193
f 192 193 189
f 197 198 199
f 197 199 200
f 201 203 202
f 201 204 203
f 197 201 202
f 197 202 198
f 198 202 203
f 198 203 199
f 199 203 204
f 199 204 200
f 200 204 201
f 200 201 197
f 205 206 207
f 205 207 208
f 209 211 210
f 209 212 211
f 205 209 210
f 205 210 206
f 206 210 211
f 206 211 207
f 207 211 212
f 207 212 208
f 208 212 209
f 208 209 205
f 213 214 215
f 213 215 216
f 217 219 218
f 217 220 219
f 213 217 218
f 213 218 214
f 214 218 219
f 214 219 215
f 215 219 220
f 215 220 216
f 216 220 217
f 216 217 213
f 221 222 223
f 221 223 224
f 225 227 226
f 225 228 227
f 221 225 226
f 221 226 222
f 222 226 227
f 222 227 223
f 223 227 228
f 223 228 224
f 224 228 225
f 224 225 221
f 229 230 231
f 229 231 232
f 233 235 234
f 233 236 235
f 229 233 234
f 229 234 230
f 230 234 235
f 230 235 231
f 231 235 236
f 231 236 232
f 232 236 233
f 232 233 229
f 237 238 239
f 237 239 240
f 241 243 242
f 241 244 243
f 237 241 242
f 237 242 238
f 238 242 243
f 238 243 239
f 239 243 244
f 239 244 240
f 240 244 241
f 240 241 237
f 245 246 247
f 245 247 248
f 249 251 250
f 249 252 251
f 245 249 250
f 245 250 246
f 246 250 251
f 246 251 247
f 247 251 252
f 247 252 248
f 248 252 249
f 248 249 245
f 253 254 255
f 253 255 256
f 257 259 258
f 257 260 259
f 253 257 258
f 253 258 254
f 254 258 259
f 254 259 255
f 255 259 260
f 255 260 256
f 256 260 257
f 256 257 253
f 261 262 263
f 261 263 264
f 265 267 266
f 265 268 267
f 261 265 266
f 261 266 262
f 262 266 267
f 262 267 263
f 263 267 268
f 263 268 264
f 264 268 265
f 264 265 261
f 269 270 271
f 269 271 272
f 273 275 274
f 273 276 275
f 269 273 274
f 269 274 270
f 270 274 275
f 270 275 271
f 271 275 276
f 271 276 272
f 272 276 273
f 272 273 269
f 277 278 279
f 277 279 280
f 281 283 282
f 281 284 283
f 277 281 282
f 277 282 278
f 278 282 283
f 278 283 279
f 279 283 284
f 279 284 280
f 280 284 281
f 280 281 277
f 285 286 287
f 285 287 288
f 289 291 290
f 289 292 291
f 285 289 290
f 285 290 286
f 286 290 291
f 286 291 287
f 287 291 292
f 287 292 288
f 288 292 289
f 288 289 285
f 293 294 295
f 293 295 296
f 297 299 298
f 297 300 299
f 293 297 298
f 293 298 294
f 294 298 299
f 294 299 295
f 295 299 300
f 295 300 296
f 296 300 297
f 296 297 293
f 301 302 303
f 301 303 304
f 305 307 306
f 305 308 307
f 301 305 306
f 301 306 302
f 302 306 307
f 302 307 303
f 303 307 308
f 303 308 304
f 304 308 305
f 304 305 301
f 309 310 311
f 309 311 312
f 313 315 314
f 313 316 315
f 309 313 314
f 309 314 310
f 310 314 315
f 310 315 311
f 311 315 316
f 311 316 312
f 312 316 313
f 312 313 309
f 317 318 319
f 317 319 320
f 321 323 322
f 321 324 323
f 317 321 322
f 317 322 318
f 318 322 323
f 318 323 319
f 319 323 324
f 319 324 320
f 320 324 321
f 320 321 317
f 325 326 327
f 325 327 328
f 329 331 330
f 329 332 331
f 325 329 330
f 325 330 326
f 326 330 331
f 326 331 327
f 327 331 332
f 327 332 328
f 328 332 329
f 328 329 325
f 333 334 335
f 333 335 336
f 337 339 338
f 337 340 339
f 333 337 338
f 333 338 334
f 334 338 339
f 334 339 335
f 335 339 340
f 335 340 336
f 336 340 337
f 336 337 333
f 341 342 343
f 341 343 344
f 345 347 346
f 345 348 347
f 341 345 346
f 341 346 342
f 342 346 347
f 342 347 343
f 343 347 348
f 343 348 344
f 344 348 345
f 344 345 341
f 349 350 351
f 349 351 352
f 353 355 354
f 353 356 355
f 349 353 354
f 349 354 350
f 350 354 355
f 350 355 351
f 351 355 356
f 351 356 352
f 352 356 353
f 352 353 349
f 357 358 359
f 357 359 360
f 361 363 362
f 361 364 363
f 357 361 362
f 357 362 358
f 358 362 363
f 358 363 359
f 359 363 364
f 359 364 360
f 360 364 361
f 360 361 357
f 365 366 367
f 365 367 368
f 369 371 370
f 369 372 371
f 365 369 370
f 365 370 366
f 366 370 371
f 366 371 367
f 367 371 372
f 367 372 368
f 368 372 369
f 368 369 365
f 373 374 375
f 373 375 376
f 377 379 378
f 377 380 379
f 373 377 378
f 373 378 374
f 374 378 379
f 374 379 375
f 375 379 380
f 375 380 376
f 376 380 377
f 376 377 373
f 381 382 383
f 381 383 384
f 385 387 386
f 385 388 387
f 381 385 386
f 381 386 382
f 382 386 387
f 382 387 383
f 383 387 388
f 383 388 384
f 384 388 385
f 384 385 381
f 389 390 391
f 389 391 392
f 393 395 394
f 393 396 395
f 389 393 394
f 389 394 390
f 390 394 395
f 390 395 391
f 391 395 396
f 391 396 392
f 392 396 393
f 392 393 389
f 397 398 399
f 397 399 400
f 401 403 402
f 401 404 403
f 397 401 402
f 397 402 398
f 398 402 403
f 398 403 399
f 399 403 404
f 399 404 400
f 400 404 401
f 400 401 397
f 405 406 407
f 405 407 408
f 409 411 410
f 409 412 411
f 405 409 410
f 405 410 406
f 406 410 411
f 406 411 407
f 407 411 412
f 407 412 408
f 408 412 409
f 408 409 405
f 413 414 415
f 413 415 416
f 417 419 418
f 417 420 419
f 413 417 418
f 413 418 414
f 414 418 419
f 414 419 415
f 415 419 420
f 415 420 416
f 416 420 417
f 416 417 413
f 421 422 423
f 421 423 424
f 425 427 426
f 425 428 427
f 421 425 426
f 421 426 422
f 422 426 427
f 422 427 423
f 423 427 428
f 423 428 424
f 424 428 425
f 424 425 421
f 429 430 431
f 429 431 432
f 433 435 434
f 433 436 435
f 429 433 434
f 429 434 430
f 430 434 435
f 430 435 431
f 431 435 436
f 431 436 432
f 432 436 433
f 432 433 429
f 437 438 439
f 437 439 440
f 441 443 442
f 441 444 443
f 437 441 442
f 437 442 438
f 438 442 443
f 438 443 439
f 439 443 444
f 439 444 440
f 440 444 441
f 440 441 437
f 445 446 447
f 445 447 448
f 449 451 450
f 449 452 451
f 445 449 450
f 445 450 446
f 446 450 451
f 446 451 447
f 447 451 452
f 447 452 448
f 448 452 449
f 448 449 445
f 453 454 455
f 453 455 456
f 457 459 458
f 457 460 459
f 453 457 458
f 453 458 454
f 454 458 459
f 454 459 455
f 455 459 460
f 455 460 456
f 456 460 457
f 456 457 453
f 461 462 463
f 461 463 464
f 465 467 466
f 465 468 467
f 461 465 466
f 461 466 462
f 462 466 467
f 462 467 463
f 463 467 468
f 463 468 464
f 464 468 465
f 464 465 461
f 469 470 471
f 469 471 472
f 473 475 474
f 473 476 475
f 469 473 474
f 469 474 470
f 470 474 475
f 470 475 471
f 471 475 476
f 471 476 472
f 472 476 473
f 472 473 469
f 477 478 479
f 477 479 480
f 481 483 482
f 481 484 483
f 477 481 482
f 477 482 478
f 478 482 483
f 478 483 479
f 479 483 484
f 479 484 480
f 480 484 481
f 480 481 477
f 485 486 487
f 485 487 488
f 489 491 490
f 489 492 491
f 485 489 490
f 485 490 486
f 486 490 491
f 486 491 487
f 487 491 492
f 487 492 488
f 488 492 489
f 488 489 485
f 493 494 495
f 493 495 496
f 497 499 498
f 497 500 499
f 493 497 498
f 493 498 494
f 494 498 499
f 494 499 495
f 495 499 500
f 495 500 496
f 496 500 497
f 496 497 493
f 501 502 503
f 501 503 504
f 505 507 506
f 505 508 507
f 501 505 506
f 501 506 502
f 502 506 507
f 502 507 503
f 503 507 508
f 503 508 504
f 504 508 505
f 504 505 501
f 509 510 511
f 509 511 512
f 513 515 514
f 513 516 515
f 509 513 514
f 509 514 510
f 510 514 515
f 510 515 511
f 511 515 516
f 511 516 512
f 512 516 513
f 512 513 509
f 517 518 519
f 517 519 520
f 521 523 522
f 521 524 523
f 517 521 522
f 517 522 518
f 518 522 523
f 518 523 519
f 519 523 524
f 519 524 520
f 520 524 521
f 520 521 517
f 525 526 527
f 525 527 528
f 529 531 530
f 529 532 531
f 525 529 530
f 525 530 526
f 526 530 531
f 526 531 527
f 527 531 532
f 527 532 528
f 528 532 529
f 528 529 525
f 533 534 535
f 533 535 536
f 537 539 538
f 537 540 539
f 533 537 538
f 533 538 534
f 534 538 539
f 534 539 535
f 535 539 540
f 535 540 536
f 536 540 537
f 536 537 533
f 541 542 543
f 541 543 544
f 545 547 546
f 545 548 547
f 541 545 546
f 541 546 542
f 542 546 547
f 542 547 543
f 543 547 548
f 543 548 544
f 544 548 545
f 544 545 541
f 549 550 551
f 549 551 552
f 553 555 554
f 553 556 555
f 549 553 554
f 549 554 550
f 550 554 555
f 550 555 551
f 551 555 556
f 551 556 552
f 552 556 553
f 552 553 549
f 557 558 559
f 557 559 560
f 561 563 562
f 561 564 563
f 557 561 562
f 557 562 558
f 558 562 563
f 558 563 559
f 559 563 564
f 559 564 560
f 560 564 561
f 560 561 557
f 565 566 567
f 565 567 568
f 569 571 570
f 569 572 571
f 565 569 570
f 565 570 566
f 566 570 571
f 566 571 567
f 567 571 572
f 567 572 568
f 568 572 569
f 568 569 565
f 573 574 575
f 573 575 576
f 577 579 578
f 577 580 579
f 573 577 578
f 573 578 574
f 574 578 579
f 574 579 575
f 575 579 580
f 575 580 576
f 576 580 577
f 576 577 573
f 581 582 583
f 581 583 584
f 585 587 586
f 585 588 587
f 581 585 586
f 581 586 582
f 582 586 587
f 582 587 583
f 583 587 588
f 583 588 584
f 584 588 585
f 584 585 581
f 589 590 591
f 589 591 592
f 593 595 594
f 593 596 595
f 589 593 594
f 589 594 590
f 590 594 595
f 590 595 591
f 591 595 596
f 591 596 592
f 592 596 593
f 592 593 589
f 597 598 599
f 597 599 600
f 601 603 602
f 601 604 603
f 597 601 602
f 597 602 598
f 598 602 603
f 598 603 599
f 599 603 604
f 599 604 600
f 600 604 601
f 600 601 597
f 605 606 607
f 605 607 608
f 609 611 610
f 609 612 611
f 605 609 610
f 605 610 606
f 606 610 611
f 606 611 607
f 607 611 612
f 607 612 608
f 608 612 609
f 608 609 605
f 613 614 615
f 613 615 616
f 617 619 618
f 617 620 619
f 613 617 618
f 613 618 614
f 614 618 619
f 614 619 615
f 615 619 620
f 615 620 616
f 616 620 617
f 616 617 613
f 621 622 623
f 621 623 624
f 625 627 626
f 625 628 627
f 621 625 626
f 621 626 622
f 622 626 627
f 622 627 623
f 623 627 628
f 623 628 624
f 624 628 625
f 624 625 621
f 629 630 631
f 629 631 632
f 633 635 634
f 633 636 635
f 629 633 634
f 629 634 630
f 630 634 635
f 630 635 631
f 631 635 636
f 631 636 632
f 632 636 633
f 632 633 629
f 637 638 639
f 637 639 640
f 641 643 642
f 641 644 643
f 637 641 642
f 637 642 638
f 638 642 643
f 638 643 639
f 639 643 644
f 639 644 640
f 640 644 641
f 640 641 637
f 645 646 647
f 645 647 648
f 649 651 650
f 649 652 651
f 645 649 650
f 645 650 646
f 646 650 651
f 646 651 647
f 647 651 652
f 647 652 648
f 648 652 649
f 648 649 645
f 653 654 655
f 653 655 656
f 657 659 658
f 657 660 659
f 653 657 658
f 653 658 654
f 654 658 659
f 654 659 655
f 655 659 660
f 655 660 656
f 656 660 657
f 656 657 653
f 661 662 663
f 661 663 664
f 665 667 666
f 665 668 667
f 661 665 666
f 661 666 662
f 662 666 667
f 662 667 663
f 663 667 668
f 663 668 664
f 664 668 665
f 664 665 661
f 669 670 671
f 669 671 672
f 673 675 674
f 673 676 675
f 669 673 674
f 669 674 670
f 670 674 675
f 670 675 671
f 671 675 676
f 671 676 672
f 672 676 673
f 672 673 669
f 677 678 679
f 677 679 680
f 681 683 682
f 681 684 683
f 677 681 682
f 677 682 678
f 678 682 683
f 678 683 679
f 679 683 684
f 679 684 680
f 680 684 681
f 680 681 677
f 685 686 687
f 685 687 688
f 689 691 690
f 689 692 691
f 685 689 690
f 685 690 686
f 686 690 691
f 686 691 687
f 687 691 692
f 687 692 688
f 688 692 689
f 688 689 685
f 693 694 695
f 693 695 696
f 697 699 698
f 697 700 699
f 693 697 698
f 693 698 694
f 694 698 699
f 694 699 695
f 695 699 700
f 695 700 696
f 696 700 697
f 696 697 693
f 701 702 703
f 701 703 704
f 705 707 706
f 705 708 707
f 701 705 706
f 701 706 702
f 702 706 707
f 702 707 703
f 703 707 708
f 703 708 704
f 704 708 705
f 704 705 701
f 709 710 711
f 709 711 712
f 713 715 714
f 713 716 715
f 709 713 714
f 709 714 710
f 710 714 715
f 710 715 711
f 711 715 716
f 711 716 712
f 712 716 713
f 712 713 709
f 717 718 719
f 717 719 720
f 721 723 722
f 721 724 723
f 717 721 722
f 717 722 718
f 718 722 723
f 718 723 719
f 719 723 724
f 719 724 720
f 720 724 721
f 720 721 717
f 725 726 727
f 725 727 728
f 729 731 730
f 729 732 731
f 725 729 730
f 725 730 726
f 726 730 731
f 726 731 727
f 727 731 732
f 727 732 728
f 728 732 729
f 728 729 725
f 733 734 735
f 733 735 736
f 737 739 738
f 737 740 739
f 733 737 738
f 733 738 734
f 734 738 739
f 734 739 735
f 735 739 740
f 735 740 736
f 736 740 737
f 736 737 733
f 741 742 743
f 741 743 744
f 745 747 746
f 745 748 747
f 741 745 746
f 741 746 742
f 742 746 747
f 742 747 743
f 743 747 748
f 743 748 744
f 744 748 745
f 744 745 741
f 749 750 751
f 749 751 752
f 753 755 754
f 753 756 755
f 749 753 754
f 749 754 750
f 750 754 755
f 750 755 751
f 751 755 756
f 751 756 752
f 752 756 753
f 752 753 749
f 757 758 759
f 757 759 760
f 761 763 762
f 761 764 763
f 757 761 762
f 757 762 758
f 758 762 763
f 758 763 759
f 759 763 764
f 759 764 760
f 760 764 761
f 760 761 757
f 765 766 767
f 765 767 768
f 769 771 770
f 769 772 771
f 765 769 770
f 765 770 766
f 766 770 771
f 766 771 767
f 767 771 772
f 767 772 768
f 768 772 769
f 768 769 765
f 773 774 775
f 773 775 776
f 777 779 778
f 777 780 779
f 773 777 778
f 773 778 774
f 774 778 779
f 774 779 775
f 775 779 780
f 775 780 776
f 776 780 777
f 776 777 773
f 781 782 783
f 781 783 784
f 785 787 786
f 785 788 787
f 781 785 786
f 781 786 782
f 782 786 787
f 782 787 783
f 783 787 788
f 783 788 784
f 784 788 785
f 784 785 781
f 789 790 791
f 789 791 792
f 793 795 794
f 793 796 795
f 789 793 794
f 789 794 790
f 790 794 795
f 790 795 791
f 791 795 796
f 791 796 792
f 792 796 793
f 792 793 789
f 797 798 799
f 797 799 800
f 801 803 802
f 801 804 803
f 797 801 802
f 797 802 798
f 798 802 803
f 798 803 799
f 799 803 804
f 799 804 800
f 800 804 801
f 800 801 797
f 805 806 807
f 805 807 808
f 809 811 810
f 809 812 811
f 805 809 810
f 805 810 806
f 806 810 811
f 806 811 807
f 807 811 812
f 807 812 808
f 808 812 809
f 808 809 805
f 813 814 815
f 813 815 816
f 817 819 818
f 817 820 819
f 813 817 818
f 813 818 814
f 814 818 819
f 814 819 815
f 815 819 820
f 815 820 816
f 816 820 817
f 816 817 813
f 821 822 823
f 821 823 824
f 825 827 826
f 825 828 827
f 821 825 826
f 821 826 822
f 822 826 827
f 822 827 823
f 823 827 828
f 823 828 824
f 824 828 825
f 824 825 821
f 829 830 831
f 829 831 832
f 833 835 834
f 833 836 835
f 829 833 834
f 829 834 830
f 830 834 835
f 830 835 831
f 831 835 836
f 831 836 832
f 832 836 833
f 832 833 829
f 837 838 839
f 837 839 840
f 841 843 842
f 841 844 843
f 837 841 842
f 837 842 838
f 838 842 843
f 838 843 839
f 839 843 844
f 839 844 840
f 840 844 841
f 840 841 837
f 845 846 847
f 845 847 848
f 849 851 850
f 849 852 851
f 845 849 850
f 845 850 846
f 846 850 851
f 846 851 847
f 847 851 852
f 847 852 848
f 848 852 849
f 848 849 845
f 853 854 855
f 853 855 856
f 857 859 858
f 857 860 859
f 853 857 858
f 853 858 854
f 854 858 859
f 854 859 855
f 855 859 860
f 855 860 856
f 856 860 857
f 856 857 853
f 861 862 863
f 861 863 864
f 865 867 866
f 865 868 867
f 861 865 866
f 861 866 862
f 862 866 867
f 862 867 863
f 863 867 868
f 863 868 864
f 864 868 865
f 864 865 861
f 869 870 871
f 869 871 872
f 873 875 874
f 873 876 875
f 869 873 874
f 869 874 870
f 870 874 875
f 870 875 871
f 871 875 876
f 871 876 872
f 872 876 873
f 872 873 869
f 877 878 879
f 877 879 880
f 881 883 882
f 881 884 883
f 877 881 882
f 877 882 878
f 878 882 883
f 878 883 879
f 879 883 884
f 879 884 880
f 880 884 881
f 880 881 877
f 885 886 887
f 885 887 888
f 889 891 890
f 889 892 891
f 885 889 890
f 885 890 886
f 886 890 891
f 886 891 887
f 887 891 892
f 887 892 888
f 888 892 889
f 888 889 885
f 893 894 895
f 893 895 896
f 897 899 898
f 897 900 899
f 893 897 898
f 893 898 894
f 894 898 899
f 894 899 895
f 895 899 900
f 895 900 896
f 896 900 897
f 896 897 893
f 901 902 903
f 901 903 904
f 905 907 906
f 905 908 907
f 901 905 906
f 901 906 902
f 902 906 907
f 902 907 903
f 903 907 908
f 903 908 904
f 904 908 905
f 904 905 901
f 909 910 911
f 909 911 912
f 913 915 914
f 913 916 915
f 909 913 914
f 909 914 910
f 910 914 915
f 910 915 911
f 911 915 916
f 911 916 912
f 912 916 913
f 912 913 909
f 917 918 919
f 917 919 920
f 921 923 922
f 921 924 923
f 917 921 922
f 917 922 918
f 918 922 923
f 918 923 919
f 919 923 924
f 919 924 920
f 920 924 921
f 920 921 917

o doors_windows
v 465.55673822 2155.20373219 90.00000000
v 636.04650941 2148.04499502 90.00000000
v 636.79787476 2165.93922734 90.00000000
v 466.30810356 2173.09796451 90.00000000
v 465.55673822 2155.20373219 210.00000000
v 636.04650941 2148.04499502 210.00000000
v 636.79787476 2165.93922734 210.00000000
v 466.30810356 2173.09796451 210.00000000
v 1755.93250000 960.43000000 90.00000000
v 1755.93250000 835.83000000 90.00000000
v 1778.06750000 835.83000000 90.00000000
v 1778.06750000 960.43000000 90.00000000
v 1755.93250000 960.43000000 210.00000000
v 1755.93250000 835.83000000 210.00000000
v 1778.06750000 835.83000000 210.00000000
v 1778.06750000 960.43000000 210.00000000
v 545.32000000 670.93000000 90.00000000
v 726.42000000 670.93000000 90.00000000
v 726.42000000 691.07000000 90.00000000
v 545.32000000 691.07000000 90.00000000
v 545.32000000 670.93000000 210.00000000
v 726.42000000 670.93000000 210.00000000
v 726.42000000 691.07000000 210.00000000
v 545.32000000 691.07000000 210.00000000
v 734.71000000 670.93000000 90.00000000
v 923.10000000 670.93000000 90.00000000
v 923.10000000 691.07000000 90.00000000
v 734.71000000 691.07000000 90.00000000
v 734.71000000 670.93000000 210.00000000
v 923.10000000 670.93000000 210.00000000
v 923.10000000 691.07000000 210.00000000
v 734.71000000 691.07000000 210.00000000
v 1061.67500000 670.93000000 0.00000000
v 1234.50500000 670.93000000 0.00000000
v 1234.50500000 691.07000000 0.00000000
v 1061.67500000 691.07000000 0.00000000
v 1061.67500000 670.93000000 210.00000000
v 1234.50500000 670.93000000 210.00000000
v 1234.50500000 691.07000000 210.00000000
v 1061.67500000 691.07000000 210.00000000
v 1318.02500000 670.93000000 0.00000000
v 1481.78500000 670.93000000 0.00000000
v 1481.78500000 691.07000000 0.00000000
v 1318.02500000 691.07000000 0.00000000
v 1318.02500000 670.93000000 210.00000000
v 1481.78500000 670.93000000 210.00000000
v 1481.78500000 691.07000000 210.00000000
v 1318.02500000 691.07000000 210.00000000
v 2806.41000000 669.97250000 90.00000000
v 2936.54000000 669.97250000 90.00000000
v 2936.54000000 686.02750000 90.00000000
v 2806.41000000 686.02750000 90.00000000
v 2806.41000000 669.97250000 210.00000000
v 2936.54000000 669.97250000 210.00000000
v 2936.54000000 686.02750000 210.00000000
v 2806.41000000 686.02750000 210.00000000
v 3097.13000000 669.97250000 0.00000000
v 3259.92000000 669.97250000 0.00000000
v 3259.92000000 686.02750000 0.00000000
v 3097.13000000 686.02750000 0.00000000
v 3097.13000000 669.97250000 210.00000000
v 3259.92000000 669.97250000 210.00000000
v 3259.92000000 686.02750000 210.00000000
v 3097.13000000 686.02750000 210.00000000
v 1432.66000000 979.61500000 0.00000000
v 1531.73000000 979.61500000 0.00000000
v 1531.73000000 988.38500000 0.00000000
v 1432.66000000 988.38500000 0.00000000
v 1432.66000000 979.61500000 210.00000000
v 1531.73000000 979.61500000 210.00000000
v 1531.73000000 988.38500000 210.00000000
v 1432.66000000 988.38500000 210.00000000
v 1146.61733880 1944.14642824 0.00000000
v 1271.07661266 1944.57157635 0.00000000
v 1271.05019035 1952.30653122 0.00000000
v 1146.59091649 1951.88138311 0.00000000
v 1146.61733880 1944.14642824 210.00000000
v 1271.07661266 1944.57157635 210.00000000
v 1271.05019035 1952.30653122 210.00000000
v 1146.59091649 1951.88138311 210.00000000
v 3007.39866774 2161.90220520 90.00000000
v 3139.21326672 2160.70893494 90.00000000
v 3139.36670270 2177.65824046 90.00000000
v 3007.55210372 2178.85151071 90.00000000
v 3007.39866774 2161.90220520 210.00000000
v 3139.21326672 2160.70893494 210.00000000
v 3139.36670270 2177.65824046 210.00000000
v 3007.55210372 2178.85151071 210.00000000
v 1293.41750000 1705.88500000 0.00000000
v 1293.41750000 1847.42500000 0.00000000
v 1280.58250000 1847.42500000 0.00000000
v 1280.58250000 1705.88500000 0.00000000
v 1293.41750000 1705.88500000 210.00000000
v 1293.41750000 1847.42500000 210.00000000
v 1280.58250000 1847.42500000 210.00000000
v 1280.58250000 1705.88500000 210.00000000
v 304.50331318 789.64268922 90.00000000
v 298.07902623 1170.49851055 90.00000000
v 285.41082835 1170.28482302 90.00000000
v 291.83511530 789.42900170 90.00000000
v 304.50331318 789.64268922 210.00000000
v 298.07902623 1170.49851055 210.00000000
v 285.41082835 1170.28482302 210.00000000
v 291.83511530 789.42900170 210.00000000
v 295.30141974 1335.16543920 90.00000000
v 292.38417180 1508.11083683 90.00000000
v 279.71597392 1507.89714931 90.00000000
v 282.63322186 1334.95175167 90.00000000
v 295.30141974 1335.16543920 210.00000000
v 292.38417180 1508.11083683 210.00000000
v 279.71597392 1507.89714931 210.00000000
v 282.63322186 1334.95175167 210.00000000
v 1282.92801416 770.68729714 0.00000000
v 1285.61501642 898.19898923 0.00000000
v 1273.74265211 898.44917075 0.00000000
v 1271.05564985 770.93747866 0.00000000
v 1282.92801416 770.68729714 210.00000000
v 1285.61501642 898.19898923 210.00000000
v 1273.74265211 898.44917075 210.00000000
v 1271.05564985 770.93747866 210.00000000
v 1782.38000000 1478.26500000 0.00000000
v 1782.38000000 1651.29500000 0.00000000
v 1763.62000000 1651.29500000 0.00000000
v 1763.62000000 1478.26500000 0.00000000
v 1782.38000000 1478.26500000 210.00000000
v 1782.38000000 1651.29500000 210.00000000
v 1763.62000000 1651.29500000 210.00000000
v 1763.62000000 1478.26500000 210.00000000
v 1782.38000000 1705.44000000 90.00000000
v 1782.38000000 1869.31000000 90.00000000
v 1763.62000000 1869.31000000 90.00000000
v 1763.62000000 1705.44000000 90.00000000
v 1782.38000000 1705.44000000 210.00000000
v 1782.38000000 1869.31000000 210.00000000
v 1763.62000000 1869.31000000 210.00000000
v 1763.62000000 1705.44000000 210.00000000
f 925 926 927
f 925 927 928
f 929 931 930
f 929 932 931
f 925 929 930
f 925 930 926
f 926 930 931
f 926 931 927
f 927 931 932
f 927 932 928
f 928 932 929
f 928 929 925
f 933 934 935
f 933 935 936
f 937 939 938
f 937 940 939
f 933 937 938
f 933 938 934
f 934 938 939
f 934 939 935
f 935 939 940
f 935 940 936
f 936 940 937
f 936 937 933
f 941 942 943
f 941 943 944
f 945 947 946
f 945 948 947
f 941 945 946
f 941 946 942
f 942 946 947
f 942 947 943
f 943 947 948
f 943 948 944
f 944 948 945
f 944 945 941
f 949 950 951
f 949 951 952
f 953 955 954
f 953 956 955
f 949 953 954
f 949 954 950
f 950 954 955
f 950 955 951
f 951 955 956
f 951 956 952
f 952 956 953
f 952 953 949
f 957 958 959
f 957 959 960
f 961 963 962
f 961 964 963
f 957 961 962
f 957 962 958
f 958 962 963
f 958 963 959
f 959 963 964
f 959 964 960
f 960 964 961
f 960 961 957
f 965 966 967
f 965 967 968
f 969 971 970
f 969 972 971
f 965 969 970
f 965 970 966
f 966 970 971
f 966 971 967
f 967 971 972
f 967 972 968
f 968 972 969
f 968 969 965
f 973 974 975
f 973 975 976
f 977 979 978
f 977 980 979
f 973 977 978
f 973 978 974
f 974 978 979
f 974 979 975
f 975 979 980
f 975 980 976
f 976 980 977
f 976 977 973
f 981 982 983
f 981 983 984
f 985 987 986
f 985 988 987
f 981 985 986
f 981 986 982
f 982 986 987
f 982 987 983
f 983 987 988
f 983 988 984
f 984 988 985
f 984 985 981
f 989 990 991
f 989 991 992
f 993 995 994
f 993 996 995
f 989 993 994
f 989 994 990
f 990 994 995
f 990 995 991
f 991 995 996
f 991 996 992
f 992 996 993
f 992 993 989
f 997 998 999
f 997 999 1000
f 1001 1003 1002
f 1001 1004 1003
f 997 1001 1002
f 997 1002 998
f 998 1002 1003
f 998 1003 999
f 999 1003 1004
f 999 1004 1000
f 1000 1004 1001
f 1000 1001 997
f 1005 1006 1007
f 1005 1007 1008
f 1009 1011 1010
f 1009 1012 1011
f 1005 1009 1010
f 1005 1010 1006
f 1006 1010 1011
f 1006 1011 1007
f 1007 1011 1012
f 1007 1012 1008
f 1008 1012 1009
f 1008 1009 1005
f 1013 1014 1015
f 1013 1015 1016
f 1017 1019 1018
f 1017 1020 1019
f 1013 1017 1018
f 1013 1018 1014
f 1014 1018 1019
f 1014 1019 1015
f 1015 1019 1020
f 1015 1020 1016
f 1016 1020 1017
f 1016 1017 1013
f 1021 1022 1023
f 1021 1023 1024
f 1025 1027 1026
f 1025 1028 1027
f 1021 1025 1026
f 1021 1026 1022
f 1022 1026 1027
f 1022 1027 1023
f 1023 1027 1028
f 1023 1028 1024
f 1024 1028 1025
f 1024 1025 1021
f 1029 1030 1031
f 1029 1031 1032
f 1033 1035 1034
f 1033 1036 1035
f 1029 1033 1034
f 1029 1034 1030
f 1030 1034 1035
f 1030 1035 1031
f 1031 1035 1036
f 1031 1036 1032
f 1032 1036 1033
f 1032 1033 1029
f 1037 1038 1039
f 1037 1039 1040
f 1041 1043 1042
f 1041 1044 1043
f 1037 1041 1042
f 1037 1042 1038
f 1038 1042 1043
f 1038 1043 1039
f 1039 1043 1044
f 1039 1044 1040
f 1040 1044 1041
f 1040 1041 1037
f 1045 1046 1047
f 1045 1047 1048
f 1049 1051 1050
f 1049 1052 1051
f 1045 1049 1050
f 1045 1050 1046
f 1046 1050 1051
f 1046 1051 1047
f 1047 1051 1052
f 1047 1052 1048
f 1048 1052 1049
f 1048 1049 1045
f 1053 1054 1055
f 1053 1055 1056
f 1057 1059 1058
f 1057 1060 1059
f 1053 1057 1058
f 1053 1058 1054
f 1054 1058 1059
f 1054 1059 1055
f 1055 1059 1060
f 1055 1060 1056
f 1056 1060 1057
f 1056 1057 1053

