# https://github.com/mikedh/trimesh

o floor
v 41.28000000 198.17000000 0.00000000
v 41.28000000 89.81000000 0.00000000
v 160.57000000 89.81000000 0.00000000
v 41.28000000 198.17000000 0.00000000
v 160.57000000 89.81000000 0.00000000
v 160.57000000 198.17000000 0.00000000
v 163.29000000 125.46000000 0.00000000
v 163.29000000 89.92000000 0.00000000
v 220.49000000 89.92000000 0.00000000
v 163.29000000 125.46000000 0.00000000
v 220.49000000 89.92000000 0.00000000
v 220.49000000 125.46000000 0.00000000
v 102.03000000 270.29000000 0.00000000
v 102.03000000 247.20000000 0.00000000
v 131.23000000 247.20000000 0.00000000
v 102.03000000 270.29000000 0.00000000
v 131.23000000 247.20000000 0.00000000
v 131.23000000 270.29000000 0.00000000
v 163.65000000 270.67000000 0.00000000
v 163.65000000 213.02000000 0.00000000
v 222.27000000 270.67000000 0.00000000
v 222.27000000 270.67000000 0.00000000
v 163.65000000 213.02000000 0.00000000
v 222.27000000 213.02000000 0.00000000
v 164.20000000 209.11000000 0.00000000
v 164.20000000 151.29000000 0.00000000
v 221.94000000 151.29000000 0.00000000
v 164.20000000 209.11000000 0.00000000
v 221.94000000 151.29000000 0.00000000
v 221.94000000 209.11000000 0.00000000
v 134.38000000 270.35000000 0.00000000
v 134.38000000 247.24000000 0.00000000
v 161.35000000 247.24000000 0.00000000
v 134.38000000 270.35000000 0.00000000
v 161.35000000 247.24000000 0.00000000
v 161.35000000 270.35000000 0.00000000
v 163.75000000 148.55000000 0.00000000
v 163.75000000 128.39000000 0.00000000
v 220.13000000 128.39000000 0.00000000
v 163.75000000 148.55000000 0.00000000
v 220.13000000 128.39000000 0.00000000
v 220.13000000 148.55000000 0.00000000
v 40.05000000 84.99000000 0.00000000
v 40.05000000 21.18000000 0.00000000
v 224.32000000 84.99000000 0.00000000
v 224.32000000 84.99000000 0.00000000
v 40.05000000 21.18000000 0.00000000
v 224.32000000 21.18000000 0.00000000
v 42.65000000 271.11000000 0.00000000
v 42.65000000 200.23000000 0.00000000
v 100.63000000 200.23000000 0.00000000
v 42.65000000 271.11000000 0.00000000
v 100.63000000 200.23000000 0.00000000
v 100.63000000 271.11000000 0.00000000
v 100.95000000 244.98000000 0.00000000
v 100.95000000 199.82000000 0.00000000
v 161.03000000 244.98000000 0.00000000
v 161.03000000 244.98000000 0.00000000
v 100.95000000 199.82000000 0.00000000
v 161.03000000 199.82000000 0.00000000
v 102.26000000 297.84000000 0.00000000
v 102.26000000 275.76000000 0.00000000
v 162.52000000 275.76000000 0.00000000
v 102.26000000 297.84000000 0.00000000
v 162.52000000 275.76000000 0.00000000
v 162.52000000 297.84000000 0.00000000
v 38.59000000 85.22000000 0.00000000
v 38.59000000 53.67000000 0.00000000
v 224.80000000 53.67000000 0.00000000
v 38.59000000 85.22000000 0.00000000
v 224.80000000 53.67000000 0.00000000
v 224.80000000 85.22000000 0.00000000
v 42.81000000 271.88000000 0.00000000
v 42.81000000 199.09000000 0.00000000
v 160.96000000 199.09000000 0.00000000
v 42.81000000 271.88000000 0.00000000
v 160.96000000 199.09000000 0.00000000
v 160.96000000 271.88000000 0.00000000
v 127.76000000 244.64000000 0.00000000
v 127.76000000 200.14000000 0.00000000
v 161.01000000 200.14000000 0.00000000
v 127.76000000 244.64000000 0.00000000
v 161.01000000 200.14000000 0.00000000
v 161.01000000 244.64000000 0.00000000
f 1 2 3
f 4 5 6
f 7 8 9
f 10 11 12
f 13 14 15
f 16 17 18
f 19 20 21
f 22 23 24
f 25 26 27
f 28 29 30
f 31 32 33
f 34 35 36
f 37 38 39
f 40 41 42
f 43 44 45
f 46 47 48
f 49 50 51
f 52 53 54
f 55 56 57
f 58 59 60
f 61 62 63
f 64 65 66
f 67 68 69
f 70 71 72
f 73 74 75
f 76 77 78
f 79 80 81
f 82 83 84

o walls
v 162.03000000 208.00000000 0.00000000
v 225.19000000 208.00000000 0.00000000
v 225.19000000 212.00000000 0.00000000
v 162.03000000 212.00000000 0.00000000
v 162.03000000 208.00000000 260.00000000
v 225.19000000 208.00000000 260.00000000
v 225.19000000 212.00000000 260.00000000
v 162.03000000 212.00000000 260.00000000
v 156.21682328 208.51441039 0.00000000
v 158.51682328 199.51441039 0.00000000
v 170.14317672 202.48558961 0.00000000
v 167.84317672 211.48558961 0.00000000
v 156.21682328 208.51441039 260.00000000
v 158.51682328 199.51441039 260.00000000
v 170.14317672 202.48558961 260.00000000
v 167.84317672 211.48558961 260.00000000
v 168.02103656 209.67215717 0.00000000
v 168.31764274 215.09237166 0.00000000
v 156.33556962 215.74805732 0.00000000
v 156.03896344 210.32784283 0.00000000
v 168.02103656 209.67215717 260.00000000
v 168.31764274 215.09237166 260.00000000
v 156.33556962 215.74805732 260.00000000
v 156.03896344 210.32784283 260.00000000
v 168.31764274 215.09237166 210.00000000
v 169.32138822 233.43492859 210.00000000
v 157.33931510 234.09061426 210.00000000
v 156.33556962 215.74805732 210.00000000
v 168.31764274 215.09237166 260.00000000
v 169.32138822 233.43492859 260.00000000
v 157.33931510 234.09061426 260.00000000
v 156.33556962 215.74805732 260.00000000
v 169.32138822 233.43492859 0.00000000
v 169.99103656 245.67215717 0.00000000
v 158.00896344 246.32784283 0.00000000
v 157.33931510 234.09061426 0.00000000
v 169.32138822 233.43492859 260.00000000
v 169.99103656 245.67215717 260.00000000
v 158.00896344 246.32784283 260.00000000
v 157.33931510 234.09061426 260.00000000
v 161.80000000 124.00000000 0.00000000
v 178.77500000 124.00000000 0.00000000
v 178.77500000 128.00000000 0.00000000
v 161.80000000 128.00000000 0.00000000
v 161.80000000 124.00000000 260.00000000
v 178.77500000 124.00000000 260.00000000
v 178.77500000 128.00000000 260.00000000
v 161.80000000 128.00000000 260.00000000
v 178.77500000 124.00000000 210.00000000
v 195.53500000 124.00000000 210.00000000
v 195.53500000 128.00000000 210.00000000
v 178.77500000 128.00000000 210.00000000
v 178.77500000 124.00000000 260.00000000
v 195.53500000 124.00000000 260.00000000
v 195.53500000 128.00000000 260.00000000
v 178.77500000 128.00000000 260.00000000
v 195.53500000 124.00000000 0.00000000
v 224.88000000 124.00000000 0.00000000
v 224.88000000 128.00000000 0.00000000
v 195.53500000 128.00000000 0.00000000
v 195.53500000 124.00000000 260.00000000
v 224.88000000 124.00000000 260.00000000
v 224.88000000 128.00000000 260.00000000
v 195.53500000 128.00000000 260.00000000
v 155.80007156 125.97069632 0.00000000
v 155.85247921 115.24022922 0.00000000
v 167.85233609 115.29883658 0.00000000
v 167.79992844 126.02930368 0.00000000
v 155.80007156 125.97069632 260.00000000
v 155.85247921 115.24022922 260.00000000
v 167.85233609 115.29883658 260.00000000
v 167.79992844 126.02930368 260.00000000
v 155.85247921 115.24022922 210.00000000
v 155.94029257 97.26044366 210.00000000
v 167.94014945 97.31905102 210.00000000
v 167.85233609 115.29883658 210.00000000
v 155.85247921 115.24022922 260.00000000
v 155.94029257 97.26044366 260.00000000
v 167.94014945 97.31905102 260.00000000
v 167.85233609 115.29883658 260.00000000
v 155.94029257 97.26044366 0.00000000
v 156.00007156 85.02069632 0.00000000
v 167.99992844 85.07930368 0.00000000
v 167.94014945 97.31905102 0.00000000
v 155.94029257 97.26044366 260.00000000
v 156.00007156 85.02069632 260.00000000
v 167.99992844 85.07930368 260.00000000
v 167.94014945 97.31905102 260.00000000
v 230.87276104 125.70535592 0.00000000
v 232.05276104 149.70535592 0.00000000
v 220.06723896 150.29464408 0.00000000
v 218.88723896 126.29464408 0.00000000
v 230.87276104 125.70535592 260.00000000
v 232.05276104 149.70535592 260.00000000
v 220.06723896 150.29464408 260.00000000
v 218.88723896 126.29464408 260.00000000
v 218.88025750 126.05558748 0.00000000
v 218.86121522 124.00029045 0.00000000
v 230.86070021 123.88911548 0.00000000
v 230.87974250 125.94441252 0.00000000
v 218.88025750 126.05558748 90.00000000
v 218.86121522 124.00029045 90.00000000
v 230.86070021 123.88911548 90.00000000
v 230.87974250 125.94441252 90.00000000
v 218.88025750 126.05558748 210.00000000
v 218.86121522 124.00029045 210.00000000
v 230.86070021 123.88911548 210.00000000
v 230.87974250 125.94441252 210.00000000
v 218.88025750 126.05558748 260.00000000
v 218.86121522 124.00029045 260.00000000
v 230.86070021 123.88911548 260.00000000
v 230.87974250 125.94441252 260.00000000
v 218.86121522 124.00029045 0.00000000
v 218.85621636 123.46074689 0.00000000
v 230.85570136 123.34957192 0.00000000
v 230.86070021 123.88911548 0.00000000
v 218.86121522 124.00029045 260.00000000
v 218.85621636 123.46074689 260.00000000
v 230.85570136 123.34957192 260.00000000
v 230.86070021 123.88911548 260.00000000
v 218.85621636 123.46074689 0.00000000
v 218.71956379 108.71137992 0.00000000
v 230.71904879 108.60020495 0.00000000
v 230.85570136 123.34957192 0.00000000
v 218.85621636 123.46074689 90.00000000
v 218.71956379 108.71137992 90.00000000
v 230.71904879 108.60020495 90.00000000
v 230.85570136 123.34957192 90.00000000
v 218.85621636 123.46074689 210.00000000
v 218.71956379 108.71137992 210.00000000
v 230.71904879 108.60020495 210.00000000
v 230.85570136 123.34957192 210.00000000
v 218.85621636 123.46074689 260.00000000
v 218.71956379 108.71137992 260.00000000
v 230.71904879 108.60020495 260.00000000
v 230.85570136 123.34957192 260.00000000
v 218.71956379 108.71137992 0.00000000
v 218.50525750 85.58058748 0.00000000
v 230.50474250 85.46941252 0.00000000
v 230.71904879 108.60020495 0.00000000
v 218.71956379 108.71137992 260.00000000
v 218.50525750 85.58058748 260.00000000
v 230.50474250 85.46941252 260.00000000
v 230.71904879 108.60020495 260.00000000
v 33.72121496 270.19502242 0.00000000
v 58.72195564 270.29498124 0.00000000
v 58.69952572 275.90493641 0.00000000
v 33.69878504 275.80497758 0.00000000
v 33.72121496 270.19502242 260.00000000
v 58.72195564 270.29498124 260.00000000
v 58.69952572 275.90493641 260.00000000
v 33.69878504 275.80497758 260.00000000
v 58.72195564 270.29498124 0.00000000
v 83.52175742 270.39413667 0.00000000
v 83.49932750 276.00409183 0.00000000
v 58.69952572 275.90493641 0.00000000
v 58.72195564 270.29498124 90.00000000
v 83.52175742 270.39413667 90.00000000
v 83.49932750 276.00409183 90.00000000
v 58.69952572 275.90493641 90.00000000
v 58.72195564 270.29498124 210.00000000
v 83.52175742 270.39413667 210.00000000
v 83.49932750 276.00409183 210.00000000
v 58.69952572 275.90493641 210.00000000
v 58.72195564 270.29498124 260.00000000
v 83.52175742 270.39413667 260.00000000
v 83.49932750 276.00409183 260.00000000
v 58.69952572 275.90493641 260.00000000
v 83.52175742 270.39413667 0.00000000
v 84.25108336 270.39705269 0.00000000
v 84.22865345 276.00700785 0.00000000
v 83.49932750 276.00409183 0.00000000
v 83.52175742 270.39413667 260.00000000
v 84.25108336 270.39705269 260.00000000
v 84.22865345 276.00700785 260.00000000
v 83.49932750 276.00409183 260.00000000
v 84.25108336 270.39705269 0.00000000
v 100.14095636 270.46058412 0.00000000
v 100.11852644 276.07053928 0.00000000
v 84.22865345 276.00700785 0.00000000
v 84.25108336 270.39705269 90.00000000
v 100.14095636 270.46058412 90.00000000
v 100.11852644 276.07053928 90.00000000
v 84.22865345 276.00700785 90.00000000
v 84.25108336 270.39705269 210.00000000
v 100.14095636 270.46058412 210.00000000
v 100.11852644 276.07053928 210.00000000
v 84.22865345 276.00700785 210.00000000
v 84.25108336 270.39705269 260.00000000
v 100.14095636 270.46058412 260.00000000
v 100.11852644 276.07053928 260.00000000
v 84.22865345 276.00700785 260.00000000
v 100.14095636 270.46058412 0.00000000
v 110.62318567 270.50249454 0.00000000
v 110.60075575 276.11244970 0.00000000
v 100.11852644 276.07053928 0.00000000
v 100.14095636 270.46058412 260.00000000
v 110.62318567 270.50249454 260.00000000
v 110.60075575 276.11244970 260.00000000
v 100.11852644 276.07053928 260.00000000
v 110.62318567 270.50249454 210.00000000
v 131.95301518 270.58777620 210.00000000
v 131.93058527 276.19773136 210.00000000
v 110.60075575 276.11244970 210.00000000
v 110.62318567 270.50249454 260.00000000
v 131.95301518 270.58777620 260.00000000
v 131.93058527 276.19773136 260.00000000
v 110.60075575 276.11244970 260.00000000
v 131.95301518 270.58777620 0.00000000
v 137.87934353 270.61147105 0.00000000
v 137.85691361 276.22142621 0.00000000
v 131.93058527 276.19773136 0.00000000
v 131.95301518 270.58777620 260.00000000
v 137.87934353 270.61147105 260.00000000
v 137.85691361 276.22142621 260.00000000
v 131.93058527 276.19773136 260.00000000
v 137.87934353 270.61147105 0.00000000
v 149.49925065 270.65793016 0.00000000
v 149.47682074 276.26788532 0.00000000
v 137.85691361 276.22142621 0.00000000
v 137.87934353 270.61147105 90.00000000
v 149.49925065 270.65793016 90.00000000
v 149.47682074 276.26788532 90.00000000
v 137.85691361 276.22142621 90.00000000
v 137.87934353 270.61147105 210.00000000
v 149.49925065 270.65793016 210.00000000
v 149.47682074 276.26788532 210.00000000
v 137.85691361 276.22142621 210.00000000
v 137.87934353 270.61147105 260.00000000
v 149.49925065 270.65793016 260.00000000
v 149.47682074 276.26788532 260.00000000
v 137.85691361 276.22142621 260.00000000
v 149.49925065 270.65793016 0.00000000
v 226.30621496 270.96502242 0.00000000
v 226.28378504 276.57497758 0.00000000
v 149.47682074 276.26788532 0.00000000
v 149.49925065 270.65793016 260.00000000
v 226.30621496 270.96502242 260.00000000
v 226.28378504 276.57497758 260.00000000
v 149.47682074 276.26788532 260.00000000
v 164.27079485 202.99912350 0.00000000
v 134.44412818 202.11579016 0.00000000
v 134.56253849 198.11754317 0.00000000
v 164.38920515 199.00087650 0.00000000
v 164.27079485 202.99912350 260.00000000
v 134.44412818 202.11579016 260.00000000
v 134.56253849 198.11754317 260.00000000
v 164.38920515 199.00087650 260.00000000
v 163.99373240 247.99999018 0.00000000
v 130.50568115 247.89504486 0.00000000
v 130.51821634 243.89506450 0.00000000
v 164.00626760 244.00000982 0.00000000
v 163.99373240 247.99999018 260.00000000
v 130.50568115 247.89504486 260.00000000
v 130.51821634 243.89506450 260.00000000
v 164.00626760 244.00000982 260.00000000
v 130.50568115 247.89504486 210.00000000
v 112.12577140 247.83744564 210.00000000
v 112.13830660 243.83746529 210.00000000
v 130.51821634 243.89506450 210.00000000
v 130.50568115 247.89504486 260.00000000
v 112.12577140 247.83744564 260.00000000
v 112.13830660 243.83746529 260.00000000
v 130.51821634 243.89506450 260.00000000
v 112.12577140 247.83744564 0.00000000
v 100.17373240 247.79999018 0.00000000
v 100.18626760 243.80000982 0.00000000
v 112.13830660 243.83746529 0.00000000
v 112.12577140 247.83744564 260.00000000
v 100.17373240 247.79999018 260.00000000
v 100.18626760 243.80000982 260.00000000
v 112.13830660 243.83746529 260.00000000
v 169.98467597 246.42854823 0.00000000
v 167.89543022 275.60486507 0.00000000
v 155.92607829 274.74776862 0.00000000
v 158.01532403 245.57145177 0.00000000
v 169.98467597 246.42854823 260.00000000
v 167.89543022 275.60486507 260.00000000
v 155.92607829 274.74776862 260.00000000
v 158.01532403 245.57145177 260.00000000
v 158.92000000 148.00000000 0.00000000
v 226.06000000 148.00000000 0.00000000
v 226.06000000 152.00000000 0.00000000
v 158.92000000 152.00000000 0.00000000
v 158.92000000 148.00000000 260.00000000
v 226.06000000 148.00000000 260.00000000
v 226.06000000 152.00000000 260.00000000
v 158.92000000 152.00000000 260.00000000
v 41.32999996 84.54041963 0.00000000
v 41.31484223 167.44022100 0.00000000
v 36.72484231 167.43938175 0.00000000
v 36.74000004 84.53958037 0.00000000
v 41.32999996 84.54041963 260.00000000
v 41.31484223 167.44022100 260.00000000
v 36.72484231 167.43938175 260.00000000
v 36.74000004 84.53958037 260.00000000
v 41.31484223 167.44022100 0.00000000
v 41.31022725 192.68022058 0.00000000
v 36.72022732 192.67938133 0.00000000
v 36.72484231 167.43938175 0.00000000
v 41.31484223 167.44022100 90.00000000
v 41.31022725 192.68022058 90.00000000
v 36.72022732 192.67938133 90.00000000
v 36.72484231 167.43938175 90.00000000
v 41.31484223 167.44022100 210.00000000
v 41.31022725 192.68022058 210.00000000
v 36.72022732 192.67938133 210.00000000
v 36.72484231 167.43938175 210.00000000
v 41.31484223 167.44022100 260.00000000
v 41.31022725 192.68022058 260.00000000
v 36.72022732 192.67938133 260.00000000
v 36.72484231 167.43938175 260.00000000
v 41.31022725 192.68022058 0.00000000
v 41.29499996 275.96041963 0.00000000
v 36.70500004 275.95958037 0.00000000
v 36.72022732 192.67938133 0.00000000
v 41.31022725 192.68022058 260.00000000
v 41.29499996 275.96041963 260.00000000
v 36.70500004 275.95958037 260.00000000
v 36.72022732 192.67938133 260.00000000
v 39.04912661 81.88003751 0.00000000
v 69.30760294 82.04073519 0.00000000
v 69.27934971 87.36066017 0.00000000
v 39.02087339 87.19996249 0.00000000
v 39.04912661 81.88003751 260.00000000
v 69.30760294 82.04073519 260.00000000
v 69.27934971 87.36066017 260.00000000
v 39.02087339 87.19996249 260.00000000
v 69.30760294 82.04073519 0.00000000
v 93.24726534 82.16787472 0.00000000
v 93.21901211 87.48779969 0.00000000
v 69.27934971 87.36066017 0.00000000
v 69.30760294 82.04073519 90.00000000
v 93.24726534 82.16787472 90.00000000
v 93.21901211 87.48779969 90.00000000
v 69.27934971 87.36066017 90.00000000
v 69.30760294 82.04073519 210.00000000
v 93.24726534 82.16787472 210.00000000
v 93.21901211 87.48779969 210.00000000
v 69.27934971 87.36066017 210.00000000
v 69.30760294 82.04073519 260.00000000
v 93.24726534 82.16787472 260.00000000
v 93.21901211 87.48779969 260.00000000
v 69.27934971 87.36066017 260.00000000
v 93.24726534 82.16787472 0.00000000
v 94.17637403 82.17280906 0.00000000
v 94.14812080 87.49273403 0.00000000
v 93.21901211 87.48779969 0.00000000
v 93.24726534 82.16787472 260.00000000
v 94.17637403 82.17280906 260.00000000
v 94.14812080 87.49273403 260.00000000
v 93.21901211 87.48779969 260.00000000
v 94.17637403 82.17280906 0.00000000
v 117.60604362 82.29724010 0.00000000
v 117.57779039 87.61716507 0.00000000
v 94.14812080 87.49273403 0.00000000
v 94.17637403 82.17280906 90.00000000
v 117.60604362 82.29724010 90.00000000
v 117.57779039 87.61716507 90.00000000
v 94.14812080 87.49273403 90.00000000
v 94.17637403 82.17280906 210.00000000
v 117.60604362 82.29724010 210.00000000
v 117.57779039 87.61716507 210.00000000
v 94.14812080 87.49273403 210.00000000
v 94.17637403 82.17280906 260.00000000
v 117.60604362 82.29724010 260.00000000
v 117.57779039 87.61716507 260.00000000
v 94.14812080 87.49273403 260.00000000
v 117.60604362 82.29724010 0.00000000
v 134.65262257 82.38777161 0.00000000
v 134.62436934 87.70769659 0.00000000
v 117.57779039 87.61716507 0.00000000
v 117.60604362 82.29724010 260.00000000
v 134.65262257 82.38777161 260.00000000
v 134.62436934 87.70769659 260.00000000
v 117.57779039 87.61716507 260.00000000
v 134.65262257 82.38777161 210.00000000
v 156.72231133 82.50498002 210.00000000
v 156.69405810 87.82490500 210.00000000
v 134.62436934 87.70769659 210.00000000
v 134.65262257 82.38777161 260.00000000
v 156.72231133 82.50498002 260.00000000
v 156.69405810 87.82490500 260.00000000
v 134.62436934 87.70769659 260.00000000
v 156.72231133 82.50498002 0.00000000
v 165.57087726 82.55197327 0.00000000
v 165.54262404 87.87189824 0.00000000
v 156.69405810 87.82490500 0.00000000
v 156.72231133 82.50498002 260.00000000
v 165.57087726 82.55197327 260.00000000
v 165.54262404 87.87189824 260.00000000
v 156.69405810 87.82490500 260.00000000
v 165.57087726 82.55197327 210.00000000
v 187.21057209 82.66689805 210.00000000
v 187.18231886 87.98682303 210.00000000
v 165.54262404 87.87189824 210.00000000
v 165.57087726 82.55197327 260.00000000
v 187.21057209 82.66689805 260.00000000
v 187.18231886 87.98682303 260.00000000
v 165.54262404 87.87189824 260.00000000
v 187.21057209 82.66689805 0.00000000
v 221.99106692 82.85161141 0.00000000
v 221.96281369 88.17153639 0.00000000
v 187.18231886 87.98682303 0.00000000
v 187.21057209 82.66689805 90.00000000
v 221.99106692 82.85161141 90.00000000
v 221.96281369 88.17153639 90.00000000
v 187.18231886 87.98682303 90.00000000
v 187.21057209 82.66689805 210.00000000
v 221.99106692 82.85161141 210.00000000
v 221.96281369 88.17153639 210.00000000
v 187.18231886 87.98682303 210.00000000
v 187.21057209 82.66689805 260.00000000
v 221.99106692 82.85161141 260.00000000
v 221.96281369 88.17153639 260.00000000
v 187.18231886 87.98682303 260.00000000
v 221.99106692 82.85161141 0.00000000
v 224.51912661 82.86503751 0.00000000
v 224.49087339 88.18496249 0.00000000
v 221.96281369 88.17153639 0.00000000
v 221.99106692 82.85161141 260.00000000
v 224.51912661 82.86503751 260.00000000
v 224.49087339 88.18496249 260.00000000
v 221.96281369 88.17153639 260.00000000
v 102.17652639 245.68217646 0.00000000
v 103.77887765 272.83410660 0.00000000
v 99.78582487 273.06975368 0.00000000
v 98.18347361 245.91782354 0.00000000
v 102.17652639 245.68217646 260.00000000
v 103.77887765 272.83410660 260.00000000
v 99.78582487 273.06975368 260.00000000
v 98.18347361 245.91782354 260.00000000
v 103.77887765 272.83410660 210.00000000
v 103.99652639 276.52217646 210.00000000
v 100.00347361 276.75782354 210.00000000
v 99.78582487 273.06975368 210.00000000
v 103.77887765 272.83410660 260.00000000
v 103.99652639 276.52217646 260.00000000
v 100.00347361 276.75782354 260.00000000
v 99.78582487 273.06975368 260.00000000
v 164.00000000 85.05000000 0.00000000
v 164.00000000 220.29000000 0.00000000
v 160.00000000 220.29000000 0.00000000
v 160.00000000 85.05000000 0.00000000
v 164.00000000 85.05000000 260.00000000
v 164.00000000 220.29000000 260.00000000
v 160.00000000 220.29000000 260.00000000
v 160.00000000 85.05000000 260.00000000
v 164.00000000 220.29000000 210.00000000
v 164.00000000 244.56000000 210.00000000
v 160.00000000 244.56000000 210.00000000
v 160.00000000 220.29000000 210.00000000
v 164.00000000 220.29000000 260.00000000
v 164.00000000 244.56000000 260.00000000
v 160.00000000 244.56000000 260.00000000
v 160.00000000 220.29000000 260.00000000
v 164.00000000 244.56000000 210.00000000
v 164.00000000 244.95000000 210.00000000
v 160.00000000 244.95000000 210.00000000
v 160.00000000 244.56000000 210.00000000
v 164.00000000 244.56000000 260.00000000
v 164.00000000 244.95000000 260.00000000
v 160.00000000 244.95000000 260.00000000
v 160.00000000 244.56000000 260.00000000
v 164.00000000 244.95000000 0.00000000
v 164.00000000 273.93000000 0.00000000
v 160.00000000 273.93000000 0.00000000
v 160.00000000 244.95000000 0.00000000
v 164.00000000 244.95000000 260.00000000
v 164.00000000 273.93000000 260.00000000
v 160.00000000 273.93000000 260.00000000
v 160.00000000 244.95000000 260.00000000
v 162.13596508 279.92845926 0.00000000
v 132.13596508 280.60845926 0.00000000
v 131.86403492 268.61154074 0.00000000
v 161.86403492 267.93154074 0.00000000
v 162.13596508 279.92845926 260.00000000
v 132.13596508 280.60845926 260.00000000
v 131.86403492 268.61154074 260.00000000
v 161.86403492 267.93154074 260.00000000
v 230.99920109 55.29290981 0.00000000
v 230.50420109 85.62290981 0.00000000
v 218.50579891 85.42709019 0.00000000
v 219.00079891 55.09709019 0.00000000
v 230.99920109 55.29290981 260.00000000
v 230.50420109 85.62290981 260.00000000
v 218.50579891 85.42709019 260.00000000
v 219.00079891 55.09709019 260.00000000
v 226.77489738 85.50341581 0.00000000
v 227.47343671 158.96516797 0.00000000
v 222.93364195 159.00833635 0.00000000
v 222.23510262 85.54658419 0.00000000
v 226.77489738 85.50341581 260.00000000
v 227.47343671 158.96516797 260.00000000
v 222.93364195 159.00833635 260.00000000
v 222.23510262 85.54658419 260.00000000
v 227.47343671 158.96516797 0.00000000
v 227.59210223 171.44460379 0.00000000
v 223.05230747 171.48777218 0.00000000
v 222.93364195 159.00833635 0.00000000
v 227.47343671 158.96516797 90.00000000
v 227.59210223 171.44460379 90.00000000
v 223.05230747 171.48777218 90.00000000
v 222.93364195 159.00833635 90.00000000
v 227.47343671 158.96516797 210.00000000
v 227.59210223 171.44460379 210.00000000
v 223.05230747 171.48777218 210.00000000
v 222.93364195 159.00833635 210.00000000
v 227.47343671 158.96516797 260.00000000
v 227.59210223 171.44460379 260.00000000
v 223.05230747 171.48777218 260.00000000
v 222.93364195 159.00833635 260.00000000
v 227.59210223 171.44460379 0.00000000
v 227.74006115 187.00467438 0.00000000
v 223.20026638 187.04784276 0.00000000
v 223.05230747 171.48777218 0.00000000
v 227.59210223 171.44460379 260.00000000
v 227.74006115 187.00467438 260.00000000
v 223.20026638 187.04784276 260.00000000
v 223.05230747 171.48777218 260.00000000
v 227.74006115 187.00467438 210.00000000
v 227.93042041 207.02376934 210.00000000
v 223.39062565 207.06693773 210.00000000
v 223.20026638 187.04784276 210.00000000
v 227.74006115 187.00467438 260.00000000
v 227.93042041 207.02376934 260.00000000
v 223.39062565 207.06693773 260.00000000
v 223.20026638 187.04784276 260.00000000
v 227.93042041 207.02376934 0.00000000
v 227.93879170 207.90413398 0.00000000
v 223.39899693 207.94730237 0.00000000
v 223.39062565 207.06693773 0.00000000
v 227.93042041 207.02376934 90.00000000
v 227.93879170 207.90413398 90.00000000
v 223.39899693 207.94730237 90.00000000
v 223.39062565 207.06693773 90.00000000
v 227.93042041 207.02376934 210.00000000
v 227.93879170 207.90413398 210.00000000
v 223.39899693 207.94730237 210.00000000
v 223.39062565 207.06693773 210.00000000
v 227.93042041 207.02376934 260.00000000
v 227.93879170 207.90413398 260.00000000
v 223.39899693 207.94730237 260.00000000
v 223.39062565 207.06693773 260.00000000
v 227.93879170 207.90413398 0.00000000
v 228.01562881 215.98469346 0.00000000
v 223.47583404 216.02786184 0.00000000
v 223.39899693 207.94730237 0.00000000
v 227.93879170 207.90413398 260.00000000
v 228.01562881 215.98469346 260.00000000
v 223.47583404 216.02786184 260.00000000
v 223.39899693 207.94730237 260.00000000
v 228.01562881 215.98469346 0.00000000
v 228.26513066 242.22350724 0.00000000
v 223.72533590 242.26667563 0.00000000
v 223.47583404 216.02786184 0.00000000
v 228.01562881 215.98469346 90.00000000
v 228.26513066 242.22350724 90.00000000
v 223.72533590 242.26667563 90.00000000
v 223.47583404 216.02786184 90.00000000
v 228.01562881 215.98469346 210.00000000
v 228.26513066 242.22350724 210.00000000
v 223.72533590 242.26667563 210.00000000
v 223.47583404 216.02786184 210.00000000
v 228.01562881 215.98469346 260.00000000
v 228.26513066 242.22350724 260.00000000
v 223.72533590 242.26667563 260.00000000
v 223.47583404 216.02786184 260.00000000
v 228.26513066 242.22350724 0.00000000
v 228.56489738 273.74841581 0.00000000
v 224.02510262 273.79158419 0.00000000
v 223.72533590 242.26667563 0.00000000
v 228.26513066 242.22350724 260.00000000
v 228.56489738 273.74841581 260.00000000
v 224.02510262 273.79158419 260.00000000
v 223.72533590 242.26667563 260.00000000
v 134.00000000 244.60000000 0.00000000
v 134.00000000 249.13000000 0.00000000
v 130.00000000 249.13000000 0.00000000
v 130.00000000 244.60000000 0.00000000
v 134.00000000 244.60000000 260.00000000
v 134.00000000 249.13000000 260.00000000
v 130.00000000 249.13000000 260.00000000
v 130.00000000 244.60000000 260.00000000
v 134.00000000 249.13000000 210.00000000
v 134.00000000 264.75000000 210.00000000
v 130.00000000 264.75000000 210.00000000
v 130.00000000 249.13000000 210.00000000
v 134.00000000 249.13000000 260.00000000
v 134.00000000 264.75000000 260.00000000
v 130.00000000 264.75000000 260.00000000
v 130.00000000 249.13000000 260.00000000
v 134.00000000 264.75000000 0.00000000
v 134.00000000 274.61000000 0.00000000
v 130.00000000 274.61000000 0.00000000
v 130.00000000 264.75000000 0.00000000
v 134.00000000 264.75000000 260.00000000
v 134.00000000 274.61000000 260.00000000
v 130.00000000 274.61000000 260.00000000
v 130.00000000 264.75000000 260.00000000
f 85 86 87
f 85 87 88
f 89 91 90
f 89 92 91
f 85 89 90
f 85 90 86
f 86 90 91
f 86 91 87
f 87 91 92
f 87 92 88
f 88 92 89
f 88 89 85
f 93 94 95
f 93 95 96
f 97 99 98
f 97 100 99
f 93 97 98
f 93 98 94
f 94 98 99
f 94 99 95
f 95 99 100
f 95 100 96
f 96 100 97
f 96 97 93
f 101 102 103
f 101 103 104
f 105 107 106
f 105 108 107
f 101 105 106
f 101 106 102
f 102 106 107
f 102 107 103
f 103 107 108
f 103 108 104
f 104 108 105
f 104 105 101
f 109 110 111
f 109 111 112
f 113 115 114
f 113 116 115
f 109 113 114
f 109 114 110
f 110 114 115
f 110 115 111
f 111 115 116
f 111 116 112
f 112 116 113
f 112 113 109
f 117 118 119
f 117 119 120
f 121 123 122
f 121 124 123
f 117 121 122
f 117 122 118
f 118 122 123
f 118 123 119
f 119 123 124
f 119 124 120
f 120 124 121
f 120 121 117
f 125 126 127
f 125 127 128
f 129 131 130
f 129 132 131
f 125 129 130
f 125 130 126
f 126 130 131
f 126 131 127
f 127 131 132
f 127 132 128
f 128 132 129
f 128 129 125
f 133 134 135
f 133 135 136
f 137 139 138
f 137 140 139
f 133 137 138
f 133 138 134
f 134 138 139
f 134 139 135
f 135 139 140
f 135 140 136
f 136 140 137
f 136 137 133
f 141 142 143
f 141 143 144
f 145 147 146
f 145 148 147
f 141 145 146
f 141 146 142
f 142 146 147
f 142 147 143
f 143 147 148
f 143 148 144
f 144 148 145
f 144 145 141
f 149 150 151
f 149 151 152
f 153 155 154
f 153 156 155
f 149 153 154
f 149 154 150
f 150 154 155
f 150 155 151
f 151 155 156
f 151 156 152
f 152 156 153
f 152 153 149
f 157 158 159
f 157 159 160
f 161 163 162
f 161 164 163
f 157 161 162
f 157 162 158
f 158 162 163
f 158 163 159
f 159 163 164
f 159 164 160
f 160 164 161
f 160 161 157
f 165 166 167
f 165 167 168
f 169 171 170
f 169 172 171
f 165 169 170
f 165 170 166
f 166 170 171
f 166 171 167
f 167 171 172
f 167 172 168
f 168 172 169
f 168 169 165
f 173 174 175
f 173 175 176
f 177 179 178
f 177 180 179
f 173 177 178
f 173 178 174
f 174 178 179
f 174 179 175
f 175 179 180
f 175 180 176
f 176 180 177
f 176 177 173
f 181 182 183
f 181 183 184
f 185 187 186
f 185 188 187
f 181 185 186
f 181 186 182
f 182 186 187
f 182 187 183
f 183 187 188
f 183 188 184
f 184 188 185
f 184 185 181
f 189 190 191
f 189 191 192
f 193 195 194
f 193 196 195
f 189 193 194
f 189 194 190
f 190 194 195
f 190 195 191
f 191 195 196
f 191 196 192
f 192 196 193
f 192 193 189
f 197 198 199
f 197 199 200
f 201 203 202
f 201 204 203
f 197 201 202
f 197 202 198
f 198 202 203
f 198 203 199
f 199 203 204
f 199 204 200
f 200 204 201
f 200 201 197
f 205 206 207
f 205 207 208
f 209 211 210
f 209 212 211
f 205 209 210
f 205 210 206
f 206 210 211
f 206 211 207
f 207 211 212
f 207 212 208
f 208 212 209
f 208 209 205
f 213 214 215
f 213 215 216
f 217 219 218
f 217 220 219
f 213 217 218
f 213 218 214
f 214 218 219
f 214 219 215
f 215 219 220
f 215 220 216
f 216 220 217
f 216 217 213
f 221 222 223
f 221 223 224
f 225 227 226
f 225 228 227
f 221 225 226
f 221 226 222
f 222 226 227
f 222 227 223
f 223 227 228
f 223 228 224
f 224 228 225
f 224 225 221
f 229 230 231
f 229 231 232
f 233 235 234
f 233 236 235
f 229 233 234
f 229 234 230
f 230 234 235
f 230 235 231
f 231 235 236
f 231 236 232
f 232 236 233
f 232 233 229
f 237 238 239
f 237 239 240
f 241 243 242
f 241 244 243
f 237 241 242
f 237 242 238
f 238 242 243
f 238 243 239
f 239 243 244
f 239 244 240
f 240 244 241
f 240 241 237
f 245 246 247
f 245 247 248
f 249 251 250
f 249 252 251
f 245 249 250
f 245 250 246
f 246 250 251
f 246 251 247
f 247 251 252
f 247 252 248
f 248 252 249
f 248 249 245
f 253 254 255
f 253 255 256
f 257 259 258
f 257 260 259
f 253 257 258
f 253 258 254
f 254 258 259
f 254 259 255
f 255 259 260
f 255 260 256
f 256 260 257
f 256 257 253
f 261 262 263
f 261 263 264
f 265 267 266
f 265 268 267
f 261 265 266
f 261 266 262
f 262 266 267
f 262 267 263
f 263 267 268
f 263 268 264
f 264 268 265
f 264 265 261
f 269 270 271
f 269 271 272
f 273 275 274
f 273 276 275
f 269 273 274
f 269 274 270
f 270 274 275
f 270 275 271
f 271 275 276
f 271 276 272
f 272 276 273
f 272 273 269
f 277 278 279
f 277 279 280
f 281 283 282
f 281 284 283
f 277 281 282
f 277 282 278
f 278 282 283
f 278 283 279
f 279 283 284
f 279 284 280
f 280 284 281
f 280 281 277
f 285 286 287
f 285 287 288
f 289 291 290
f 289 292 291
f 285 289 290
f 285 290 286
f 286 290 291
f 286 291 287
f 287 291 292
f 287 292 288
f 288 292 289
f 288 289 285
f 293 294 295
f 293 295 296
f 297 299 298
f 297 300 299
f 293 297 298
f 293 298 294
f 294 298 299
f 294 299 295
f 295 299 300
f 295 300 296
f 296 300 297
f 296 297 293
f 301 302 303
f 301 303 304
f 305 307 306
f 305 308 307
f 301 305 306
f 301 306 302
f 302 306 307
f 302 307 303
f 303 307 308
f 303 308 304
f 304 308 305
f 304 305 301
f 309 310 311
f 309 311 312
f 313 315 314
f 313 316 315
f 309 313 314
f 309 314 310
f 310 314 315
f 310 315 311
f 311 315 316
f 311 316 312
f 312 316 313
f 312 313 309
f 317 318 319
f 317 319 320
f 321 323 322
f 321 324 323
f 317 321 322
f 317 322 318
f 318 322 323
f 318 323 319
f 319 323 324
f 319 324 320
f 320 324 321
f 320 321 317
f 325 326 327
f 325 327 328
f 329 331 330
f 329 332 331
f 325 329 330
f 325 330 326
f 326 330 331
f 326 331 327
f 327 331 332
f 327 332 328
f 328 332 329
f 328 329 325
f 333 334 335
f 333 335 336
f 337 339 338
f 337 340 339
f 333 337 338
f 333 338 334
f 334 338 339
f 334 339 335
f 335 339 340
f 335 340 336
f 336 340 337
f 336 337 333
f 341 342 343
f 341 343 344
f 345 347 346
f 345 348 347
f 341 345 346
f 341 346 342
f 342 346 347
f 342 347 343
f 343 347 348
f 343 348 344
f 344 348 345
f 344 345 341
f 349 350 351
f 349 351 352
f 353 355 354
f 353 356 355
f 349 353 354
f 349 354 350
f 350 354 355
f 350 355 351
f 351 355 356
f 351 356 352
f 352 356 353
f 352 353 349
f 357 358 359
f 357 359 360
f 361 363 362
f 361 364 363
f 357 361 362
f 357 362 358
f 358 362 363
f 358 363 359
f 359 363 364
f 359 364 360
f 360 364 361
f 360 361 357
f 365 366 367
f 365 367 368
f 369 371 370
f 369 372 371
f 365 369 370
f 365 370 366
f 366 370 371
f 366 371 367
f 367 371 372
f 367 372 368
f 368 372 369
f 368 369 365
f 373 374 375
f 373 375 376
f 377 379 378
f 377 380 379
f 373 377 378
f 373 378 374
f 374 378 379
f 374 379 375
f 375 379 380
f 375 380 376
f 376 380 377
f 376 377 373
f 381 382 383
f 381 383 384
f 385 387 386
f 385 388 387
f 381 385 386
f 381 386 382
f 382 386 387
f 382 387 383
f 383 387 388
f 383 388 384
f 384 388 385
f 384 385 381
f 389 390 391
f 389 391 392
f 393 395 394
f 393 396 395
f 389 393 394
f 389 394 390
f 390 394 395
f 390 395 391
f 391 395 396
f 391 396 392
f 392 396 393
f 392 393 389
f 397 398 399
f 397 399 400
f 401 403 402
f 401 404 403
f 397 401 402
f 397 402 398
f 398 402 403
f 398 403 399
f 399 403 404
f 399 404 400
f 400 404 401
f 400 401 397
f 405 406 407
f 405 407 408
f 409 411 410
f 409 412 411
f 405 409 410
f 405 410 406
f 406 410 411
f 406 411 407
f 407 411 412
f 407 412 408
f 408 412 409
f 408 409 405
f 413 414 415
f 413 415 416
f 417 419 418
f 417 420 419
f 413 417 418
f 413 418 414
f 414 418 419
f 414 419 415
f 415 419 420
f 415 420 416
f 416 420 417
f 416 417 413
f 421 422 423
f 421 423 424
f 425 427 426
f 425 428 427
f 421 425 426
f 421 426 422
f 422 426 427
f 422 427 423
f 423 427 428
f 423 428 424
f 424 428 425
f 424 425 421
f 429 430 431
f 429 431 432
f 433 435 434
f 433 436 435
f 429 433 434
f 429 434 430
f 430 434 435
f 430 435 431
f 431 435 436
f 431 436 432
f 432 436 433
f 432 433 429
f 437 438 439
f 437 439 440
f 441 443 442
f 441 444 443
f 437 441 442
f 437 442 438
f 438 442 443
f 438 443 439
f 439 443 444
f 439 444 440
f 440 444 441
f 440 441 437
f 445 446 447
f 445 447 448
f 449 451 450
f 449 452 451
f 445 449 450
f 445 450 446
f 446 450 451
f 446 451 447
f 447 451 452
f 447 452 448
f 448 452 449
f 448 449 445
f 453 454 455
f 453 455 456
f 457 459 458
f 457 460 459
f 453 457 458
f 453 458 454
f 454 458 459
f 454 459 455
f 455 459 460
f 455 460 456
f 456 460 457
f 456 457 453
f 461 462 463
f 461 463 464
f 465 467 466
f 465 468 467
f 461 465 466
f 461 466 462
f 462 466 467
f 462 467 463
f 463 467 468
f 463 468 464
f 464 468 465
f 464 465 461
f 469 470 471
f 469 471 472
f 473 475 474
f 473 476 475
f 469 473 474
f 469 474 470
f 470 474 475
f 470 475 471
f 471 475 476
f 471 476 472
f 472 476 473
f 472 473 469
f 477 478 479
f 477 479 480
f 481 483 482
f 481 484 483
f 477 481 482
f 477 482 478
f 478 482 483
f 478 483 479
f 479 483 484
f 479 484 480
f 480 484 481
f 480 481 477
f 485 486 487
f 485 487 488
f 489 491 490
f 489 492 491
f 485 489 490
f 485 490 486
f 486 490 491
f 486 491 487
f 487 491 492
f 487 492 488
f 488 492 489
f 488 489 485
f 493 494 495
f 493 495 496
f 497 499 498
f 497 500 499
f 493 497 498
f 493 498 494
f 494 498 499
f 494 499 495
f 495 499 500
f 495 500 496
f 496 500 497
f 496 497 493
f 501 502 503
f 501 503 504
f 505 507 506
f 505 508 507
f 501 505 506
f 501 506 502
f 502 506 507
f 502 507 503
f 503 507 508
f 503 508 504
f 504 508 505
f 504 505 501
f 509 510 511
f 509 511 512
f 513 515 514
f 513 516 515
f 509 513 514
f 509 514 510
f 510 514 515
f 510 515 511
f 511 515 516
f 511 516 512
f 512 516 513
f 512 513 509
f 517 518 519
f 517 519 520
f 521 523 522
f 521 524 523
f 517 521 522
f 517 522 518
f 518 522 523
f 518 523 519
f 519 523 524
f 519 524 520
f 520 524 521
f 520 521 517
f 525 526 527
f 525 527 528
f 529 531 530
f 529 532 531
f 525 529 530
f 525 530 526
f 526 530 531
f 526 531 527
f 527 531 532
f 527 532 528
f 528 532 529
f 528 529 525
f 533 534 535
f 533 535 536
f 537 539 538
f 537 540 539
f 533 537 538
f 533 538 534
f 534 538 539
f 534 539 535
f 535 539 540
f 535 540 536
f 536 540 537
f 536 537 533
f 541 542 543
f 541 543 544
f 545 547 546
f 545 548 547
f 541 545 546
f 541 546 542
f 542 546 547
f 542 547 543
f 543 547 548
f 543 548 544
f 544 548 545
f 544 545 541
f 549 550 551
f 549 551 552
f 553 555 554
f 553 556 555
f 549 553 554
f 549 554 550
f 550 554 555
f 550 555 551
f 551 555 556
f 551 556 552
f 552 556 553
f 552 553 549
f 557 558 559
f 557 559 560
f 561 563 562
f 561 564 563
f 557 561 562
f 557 562 558
f 558 562 563
f 558 563 559
f 559 563 564
f 559 564 560
f 560 564 561
f 560 561 557
f 565 566 567
f 565 567 568
f 569 571 570
f 569 572 571
f 565 569 570
f 565 570 566
f 566 570 571
f 566 571 567
f 567 571 572
f 567 572 568
f 568 572 569
f 568 569 565
f 573 574 575
f 573 575 576
f 577 579 578
f 577 580 579
f 573 577 578
f 573 578 574
f 574 578 579
f 574 579 575
f 575 579 580
f 575 580 576
f 576 580 577
f 576 577 573
f 581 582 583
f 581 583 584
f 585 587 586
f 585 588 587
f 581 585 586
f 581 586 582
f 582 586 587
f 582 587 583
f 583 587 588
f 583 588 584
f 584 588 585
f 584 585 581
f 589 590 591
f 589 591 592
f 593 595 594
f 593 596 595
f 589 593 594
f 589 594 590
f 590 594 595
f 590 595 591
f 591 595 596
f 591 596 592
f 592 596 593
f 592 593 589
f 597 598 599
f 597 599 600
f 601 603 602
f 601 604 603
f 597 601 602
f 597 602 598
f 598 602 603
f 598 603 599
f 599 603 604
f 599 604 600
f 600 604 601
f 600 601 597
f 605 606 607
f 605 607 608
f 609 611 610
f 609 612 611
f 605 609 610
f 605 610 606
f 606 610 611
f 606 611 607
f 607 611 612
f 607 612 608
f 608 612 609
f 608 609 605
f 613 614 615
f 613 615 616
f 617 619 618
f 617 620 619
f 613 617 618
f 613 618 614
f 614 618 619
f 614 619 615
f 615 619 620
f 615 620 616
f 616 620 617
f 616 617 613
f 621 622 623
f 621 623 624
f 625 627 626
f 625 628 627
f 621 625 626
f 621 626 622
f 622 626 627
f 622 627 623
f 623 627 628
f 623 628 624
f 624 628 625
f 624 625 621
f 629 630 631
f 629 631 632
f 633 635 634
f 633 636 635
f 629 633 634
f 629 634 630
f 630 634 635
f 630 635 631
f 631 635 636
f 631 636 632
f 632 636 633
f 632 633 629
f 637 638 639
f 637 639 640
f 641 643 642
f 641 644 643
f 637 641 642
f 637 642 638
f 638 642 643
f 638 643 639
f 639 643 644
f 639 644 640
f 640 644 641
f 640 641 637
f 645 646 647
f 645 647 648
f 649 651 650
f 649 652 651
f 645 649 650
f 645 650 646
f 646 650 651
f 646 651 647
f 647 651 652
f 647 652 648
f 648 652 649
f 648 649 645
f 653 654 655
f 653 655 656
f 657 659 658
f 657 660 659
f 653 657 658
f 653 658 654
f 654 658 659
f 654 659 655
f 655 659 660
f 655 660 656
f 656 660 657
f 656 657 653
f 661 662 663
f 661 663 664
f 665 667 666
f 665 668 667
f 661 665 666
f 661 666 662
f 662 666 667
f 662 667 663
f 663 667 668
f 663 668 664
f 664 668 665
f 664 665 661
f 669 670 671
f 669 671 672
f 673 675 674
f 673 676 675
f 669 673 674
f 669 674 670
f 670 674 675
f 670 675 671
f 671 675 676
f 671 676 672
f 672 676 673
f 672 673 669
f 677 678 679
f 677 679 680
f 681 683 682
f 681 684 683
f 677 681 682
f 677 682 678
f 678 682 683
f 678 683 679
f 679 683 684
f 679 684 680
f 680 684 681
f 680 681 677

o doors_windows
v 165.48604588 218.25181135 0.00000000
v 166.16194852 230.60333173 0.00000000
v 160.17091196 230.93117456 0.00000000
v 159.49500932 218.57965419 0.00000000
v 165.48604588 218.25181135 210.00000000
v 166.16194852 230.60333173 210.00000000
v 160.17091196 230.93117456 210.00000000
v 159.49500932 218.57965419 210.00000000
v 181.77500000 125.00000000 0.00000000
v 192.53500000 125.00000000 0.00000000
v 192.53500000 127.00000000 0.00000000
v 181.77500000 127.00000000 0.00000000
v 181.77500000 125.00000000 210.00000000
v 192.53500000 125.00000000 210.00000000
v 192.53500000 127.00000000 210.00000000
v 181.77500000 127.00000000 210.00000000
v 158.86709527 112.25491684 0.00000000
v 158.92560495 100.27505972 0.00000000
v 164.92553339 100.30436340 0.00000000
v 164.86702371 112.28422052 0.00000000
v 158.86709527 112.25491684 210.00000000
v 158.92560495 100.27505972 210.00000000
v 164.92553339 100.30436340 210.00000000
v 164.86702371 112.28422052 210.00000000
v 221.82829387 120.43308190 90.00000000
v 221.74722879 111.68345742 90.00000000
v 227.74697128 111.62786994 90.00000000
v 227.82803636 120.37749441 90.00000000
v 221.82829387 120.43308190 210.00000000
v 221.74722879 111.68345742 210.00000000
v 227.74697128 111.62786994 210.00000000
v 227.82803636 120.37749441 210.00000000
v 61.71632418 271.70946464 90.00000000
v 80.51617392 271.78463085 90.00000000
v 80.50495896 274.58960843 90.00000000
v 61.70510922 274.51444222 90.00000000
v 61.71632418 271.70946464 210.00000000
v 80.51617392 271.78463085 210.00000000
v 80.50495896 274.58960843 210.00000000
v 61.70510922 274.51444222 210.00000000
v 87.24545191 271.81153608 90.00000000
v 97.13537286 271.85107831 90.00000000
v 97.12415790 274.65605589 90.00000000
v 87.23423695 274.61651366 90.00000000
v 87.24545191 271.81153608 210.00000000
v 97.13537286 271.85107831 210.00000000
v 97.12415790 274.65605589 210.00000000
v 87.23423695 274.61651366 210.00000000
v 113.61755421 271.91697793 0.00000000
v 128.94743168 271.97827038 0.00000000
v 128.93621672 274.78324796 0.00000000
v 113.60633925 274.72195551 0.00000000
v 113.61755421 271.91697793 210.00000000
v 128.94743168 271.97827038 210.00000000
v 128.93621672 274.78324796 210.00000000
v 113.60633925 274.72195551 210.00000000
v 140.87371207 272.02595445 90.00000000
v 146.49366715 272.04842434 90.00000000
v 146.48245220 274.85340192 90.00000000
v 140.86249711 274.83093203 90.00000000
v 140.87371207 272.02595445 210.00000000
v 146.49366715 272.04842434 210.00000000
v 146.48245220 274.85340192 210.00000000
v 140.86249711 274.83093203 210.00000000
v 127.50882968 246.88564838 0.00000000
v 115.12889047 246.84685195 0.00000000
v 115.13515807 244.84686177 0.00000000
v 127.51509728 244.88565820 0.00000000
v 127.50882968 246.88564838 210.00000000
v 115.12889047 246.84685195 210.00000000
v 115.13515807 244.84686177 210.00000000
v 127.51509728 244.88565820 210.00000000
v 40.16679372 170.44001114 90.00000000
v 40.16327580 189.68001082 90.00000000
v 37.86827584 189.67959119 90.00000000
v 37.87179376 170.43959151 90.00000000
v 40.16679372 170.44001114 210.00000000
v 40.16327580 189.68001082 210.00000000
v 37.86827584 189.67959119 210.00000000
v 37.87179376 170.43959151 210.00000000
v 72.30049733 83.38664871 90.00000000
v 90.24024433 83.48192369 90.00000000
v 90.22611772 86.14188618 90.00000000
v 72.28637071 86.04661120 90.00000000
v 72.30049733 83.38664871 210.00000000
v 90.24024433 83.48192369 210.00000000
v 90.22611772 86.14188618 210.00000000
v 72.28637071 86.04661120 210.00000000
v 97.16926842 83.51872257 90.00000000
v 114.59902262 83.61128907 90.00000000
v 114.58489600 86.27125156 90.00000000
v 97.15514180 86.17868506 90.00000000
v 97.16926842 83.51872257 210.00000000
v 114.59902262 83.61128907 210.00000000
v 114.58489600 86.27125156 210.00000000
v 97.15514180 86.17868506 210.00000000
v 137.64551695 83.73368513 0.00000000
v 153.71529033 83.81902899 0.00000000
v 153.70116372 86.47899148 0.00000000
v 137.63139034 86.39364762 0.00000000
v 137.64551695 83.73368513 210.00000000
v 153.71529033 83.81902899 210.00000000
v 153.70116372 86.47899148 210.00000000
v 137.63139034 86.39364762 210.00000000
v 168.56377165 83.89788678 0.00000000
v 184.20355109 83.98094702 0.00000000
v 184.18942448 86.64090951 0.00000000
v 168.54964504 86.55784927 0.00000000
v 168.56377165 83.89788678 210.00000000
v 184.20355109 83.98094702 210.00000000
v 184.18942448 86.64090951 210.00000000
v 168.54964504 86.55784927 210.00000000
v 190.20346648 84.01281156 90.00000000
v 218.98404592 84.16566038 90.00000000
v 218.96991930 86.82562287 90.00000000
v 190.18933986 86.67277405 90.00000000
v 190.20346648 84.01281156 210.00000000
v 218.98404592 84.16566038 210.00000000
v 218.96991930 86.82562287 210.00000000
v 190.18933986 86.67277405 210.00000000
v 163.00000000 223.29000000 0.00000000
v 163.00000000 241.56000000 0.00000000
v 161.00000000 241.56000000 0.00000000
v 161.00000000 223.29000000 0.00000000
v 163.00000000 223.29000000 210.00000000
v 163.00000000 241.56000000 210.00000000
v 161.00000000 241.56000000 210.00000000
v 161.00000000 223.29000000 210.00000000
v 226.36701339 161.97582445 90.00000000
v 226.42862817 168.45553151 90.00000000
v 224.15873079 168.47711570 90.00000000
v 224.09711600 161.99740864 90.00000000
v 226.36701339 161.97582445 210.00000000
v 226.42862817 168.45553151 210.00000000
v 224.15873079 168.47711570 210.00000000
v 224.09711600 161.99740864 210.00000000
v 226.63363782 190.01533085 0.00000000
v 226.76694636 204.03469706 0.00000000
v 224.49704897 204.05628125 0.00000000
v 224.36374044 190.03691505 0.00000000
v 226.63363782 190.01533085 210.00000000
v 226.76694636 204.03469706 210.00000000
v 224.49704897 204.05628125 210.00000000
v 224.36374044 190.03691505 210.00000000
v 226.90920548 218.99534993 90.00000000
v 227.10165661 239.23443496 90.00000000
v 224.83175922 239.25601915 90.00000000
v 224.63930810 219.01693413 90.00000000
v 226.90920548 218.99534993 210.00000000
v 227.10165661 239.23443496 210.00000000
v 224.83175922 239.25601915 210.00000000
v 224.63930810 219.01693413 210.00000000
v 133.00000000 252.13000000 0.00000000
v 133.00000000 261.75000000 0.00000000
v 131.00000000 261.75000000 0.00000000
v 131.00000000 252.13000000 0.00000000
v 133.00000000 252.13000000 210.00000000
v 133.00000000 261.75000000 210.00000000
v 131.00000000 261.75000000 210.00000000
v 131.00000000 252.13000000 210.00000000
f 685 686 687
f 685 687 688
f 689 691 690
f 689 692 691
f 685 689 690
f 685 690 686
f 686 690 691
f 686 691 687
f 687 691 692
f 687 692 688
f 688 692 689
f 688 689 685
f 693 694 695
f 693 695 696
f 697 699 698
f 697 700 699
f 693 697 698
f 693 698 694
f 694 698 699
f 694 699 695
f 695 699 700
f 695 700 696
f 696 700 697
f 696 697 693
f 701 702 703
f 701 703 704
f 705 707 706
f 705 708 707
f 701 705 706
f 701 706 702
f 702 706 707
f 702 707 703
f 703 707 708
f 703 708 704
f 704 708 705
f 704 705 701
f 709 710 711
f 709 711 712
f 713 715 714
f 713 716 715
f 709 713 714
f 709 714 710
f 710 714 715
f 710 715 711
f 711 715 716
f 711 716 712
f 712 716 713
f 712 713 709
f 717 718 719
f 717 719 720
f 721 723 722
f 721 724 723
f 717 721 722
f 717 722 718
f 718 722 723
f 718 723 719
f 719 723 724
f 719 724 720
f 720 724 721
f 720 721 717
f 725 726 727
f 725 727 728
f 729 731 730
f 729 732 731
f 725 729 730
f 725 730 726
f 726 730 731
f 726 731 727
f 727 731 732
f 727 732 728
f 728 732 729
f 728 729 725
f 733 734 735
f 733 735 736
f 737 739 738
f 737 740 739
f 733 737 738
f 733 738 734
f 734 738 739
f 734 739 735
f 735 739 740
f 735 740 736
f 736 740 737
f 736 737 733
f 741 742 743
f 741 743 744
f 745 747 746
f 745 748 747
f 741 745 746
f 741 746 742
f 742 746 747
f 742 747 743
f 743 747 748
f 743 748 744
f 744 748 745
f 744 745 741
f 749 750 751
f 749 751 752
f 753 755 754
f 753 756 755
f 749 753 754
f 749 754 750
f 750 754 755
f 750 755 751
f 751 755 756
f 751 756 752
f 752 756 753
f 752 753 749
f 757 758 759
f 757 759 760
f 761 763 762
f 761 764 763
f 757 761 762
f 757 762 758
f 758 762 763
f 758 763 759
f 759 763 764
f 759 764 760
f 760 764 761
f 760 761 757
f 765 766 767
f 765 767 768
f 769 771 770
f 769 772 771
f 765 769 770
f 765 770 766
f 766 770 771
f 766 771 767
f 767 771 772
f 767 772 768
f 768 772 769
f 768 769 765
f 773 774 775
f 773 775 776
f 777 779 778
f 777 780 779
f 773 777 778
f 773 778 774
f 774 778 779
f 774 779 775
f 775 779 780
f 775 780 776
f 776 780 777
f 776 777 773
f 781 782 783
f 781 783 784
f 785 787 786
f 785 788 787
f 781 785 786
f 781 786 782
f 782 786 787
f 782 787 783
f 783 787 788
f 783 788 784
f 784 788 785
f 784 785 781
f 789 790 791
f 789 791 792
f 793 795 794
f 793 796 795
f 789 793 794
f 789 794 790
f 790 794 795
f 790 795 791
f 791 795 796
f 791 796 792
f 792 796 793
f 792 793 789
f 797 798 799
f 797 799 800
f 801 803 802
f 801 804 803
f 797 801 802
f 797 802 798
f 798 802 803
f 798 803 799
f 799 803 804
f 799 804 800
f 800 804 801
f 800 801 797
f 805 806 807
f 805 807 808
f 809 811 810
f 809 812 811
f 805 809 810
f 805 810 806
f 806 810 811
f 806 811 807
f 807 811 812
f 807 812 808
f 808 812 809
f 808 809 805
f 813 814 815
f 813 815 816
f 817 819 818
f 817 820 819
f 813 817 818
f 813 818 814
f 814 818 819
f 814 819 815
f 815 819 820
f 815 820 816
f 816 820 817
f 816 817 813
f 821 822 823
f 821 823 824
f 825 827 826
f 825 828 827
f 821 825 826
f 821 826 822
f 822 826 827
f 822 827 823
f 823 827 828
f 823 828 824
f 824 828 825
f 824 825 821
f 829 830 831
f 829 831 832
f 833 835 834
f 833 836 835
f 829 833 834
f 829 834 830
f 830 834 835
f 830 835 831
f 831 835 836
f 831 836 832
f 832 836 833
f 832 833 829
f 837 838 839
f 837 839 840
f 841 843 842
f 841 844 843
f 837 841 842
f 837 842 838
f 838 842 843
f 838 843 839
f 839 843 844
f 839 844 840
f 840 844 841
f 840 841 837

