# https://github.com/mikedh/trimesh
v 878.08500000 2159.04500000 0.00000000
v 1026.37500000 2159.04500000 0.00000000
v 1026.37500000 2176.95500000 0.00000000
v 878.08500000 2176.95500000 0.00000000
v 878.08500000 2159.04500000 210.00000000
v 1026.37500000 2159.04500000 210.00000000
v 1026.37500000 2176.95500000 210.00000000
v 878.08500000 2176.95500000 210.00000000
v 545.32000000 669.93000000 90.00000000
v 726.42000000 669.93000000 90.00000000
v 726.42000000 690.07000000 90.00000000
v 545.32000000 690.07000000 90.00000000
v 545.32000000 669.93000000 210.00000000
v 726.42000000 669.93000000 210.00000000
v 726.42000000 690.07000000 210.00000000
v 545.32000000 690.07000000 210.00000000
v 734.71000000 669.93000000 90.00000000
v 923.10000000 669.93000000 90.00000000
v 923.10000000 690.07000000 90.00000000
v 734.71000000 690.07000000 90.00000000
v 734.71000000 669.93000000 210.00000000
v 923.10000000 669.93000000 210.00000000
v 923.10000000 690.07000000 210.00000000
v 734.71000000 690.07000000 210.00000000
v 1061.67500000 669.93000000 0.00000000
v 1234.50500000 669.93000000 0.00000000
v 1234.50500000 690.07000000 0.00000000
v 1061.67500000 690.07000000 0.00000000
v 1061.67500000 669.93000000 210.00000000
v 1234.50500000 669.93000000 210.00000000
v 1234.50500000 690.07000000 210.00000000
v 1061.67500000 690.07000000 210.00000000
v 1318.02500000 669.93000000 0.00000000
v 1481.78500000 669.93000000 0.00000000
v 1481.78500000 690.07000000 0.00000000
v 1318.02500000 690.07000000 0.00000000
v 1318.02500000 669.93000000 210.00000000
v 1481.78500000 669.93000000 210.00000000
v 1481.78500000 690.07000000 210.00000000
v 1318.02500000 690.07000000 210.00000000
v 2806.41000000 671.97250000 90.00000000
v 2936.54000000 671.97250000 90.00000000
v 2936.54000000 688.02750000 90.00000000
v 2806.41000000 688.02750000 90.00000000
v 2806.41000000 671.97250000 210.00000000
v 2936.54000000 671.97250000 210.00000000
v 2936.54000000 688.02750000 210.00000000
v 2806.41000000 688.02750000 210.00000000
v 3097.13000000 671.97250000 0.00000000
v 3259.92000000 671.97250000 0.00000000
v 3259.92000000 688.02750000 0.00000000
v 3097.13000000 688.02750000 0.00000000
v 3097.13000000 671.97250000 210.00000000
v 3259.92000000 671.97250000 210.00000000
v 3259.92000000 688.02750000 210.00000000
v 3097.13000000 688.02750000 210.00000000
v 1432.66000000 979.61500000 0.00000000
v 1531.73000000 979.61500000 0.00000000
v 1531.73000000 988.38500000 0.00000000
v 1432.66000000 988.38500000 0.00000000
v 1432.66000000 979.61500000 210.00000000
v 1531.73000000 979.61500000 210.00000000
v 1531.73000000 988.38500000 210.00000000
v 1432.66000000 988.38500000 210.00000000
v 1146.82000000 1947.26500000 0.00000000
v 1271.28000000 1947.26500000 0.00000000
v 1271.28000000 1956.73500000 0.00000000
v 1146.82000000 1956.73500000 0.00000000
v 1146.82000000 1947.26500000 210.00000000
v 1271.28000000 1947.26500000 210.00000000
v 1271.28000000 1956.73500000 210.00000000
v 1146.82000000 1956.73500000 210.00000000
v 1779.06750000 835.83000000 90.00000000
v 1779.06750000 960.43000000 90.00000000
v 1756.93250000 960.43000000 90.00000000
v 1756.93250000 835.83000000 90.00000000
v 1779.06750000 835.83000000 210.00000000
v 1779.06750000 960.43000000 210.00000000
v 1756.93250000 960.43000000 210.00000000
v 1756.93250000 835.83000000 210.00000000
v 1779.06750000 1478.26500000 0.00000000
v 1779.06750000 1651.29500000 0.00000000
v 1756.93250000 1651.29500000 0.00000000
v 1756.93250000 1478.26500000 0.00000000
v 1779.06750000 1478.26500000 210.00000000
v 1779.06750000 1651.29500000 210.00000000
v 1756.93250000 1651.29500000 210.00000000
v 1756.93250000 1478.26500000 210.00000000
v 1779.06750000 1705.44000000 90.00000000
v 1779.06750000 1919.35000000 90.00000000
v 1756.93250000 1919.35000000 90.00000000
v 1756.93250000 1705.44000000 90.00000000
v 1779.06750000 1705.44000000 210.00000000
v 1779.06750000 1919.35000000 210.00000000
v 1756.93250000 1919.35000000 210.00000000
v 1756.93250000 1705.44000000 210.00000000
v 1294.41750000 1705.88500000 0.00000000
v 1294.41750000 1847.42500000 0.00000000
v 1281.58250000 1847.42500000 0.00000000
v 1281.58250000 1705.88500000 0.00000000
v 1294.41750000 1705.88500000 210.00000000
v 1294.41750000 1847.42500000 210.00000000
v 1281.58250000 1847.42500000 210.00000000
v 1281.58250000 1705.88500000 210.00000000
v 310.33500000 1335.32000000 90.00000000
v 310.33500000 1508.29000000 90.00000000
v 297.66500000 1508.29000000 90.00000000
v 297.66500000 1335.32000000 90.00000000
v 310.33500000 1335.32000000 210.00000000
v 310.33500000 1508.29000000 210.00000000
v 297.66500000 1508.29000000 210.00000000
v 297.66500000 1335.32000000 210.00000000
f 1 2 3
f 1 3 4
f 5 7 6
f 5 8 7
f 1 5 6
f 1 6 2
f 2 6 7
f 2 7 3
f 3 7 8
f 3 8 4
f 4 8 5
f 4 5 1
f 9 10 11
f 9 11 12
f 13 15 14
f 13 16 15
f 9 13 14
f 9 14 10
f 10 14 15
f 10 15 11
f 11 15 16
f 11 16 12
f 12 16 13
f 12 13 9
f 17 18 19
f 17 19 20
f 21 23 22
f 21 24 23
f 17 21 22
f 17 22 18
f 18 22 23
f 18 23 19
f 19 23 24
f 19 24 20
f 20 24 21
f 20 21 17
f 25 26 27
f 25 27 28
f 29 31 30
f 29 32 31
f 25 29 30
f 25 30 26
f 26 30 31
f 26 31 27
f 27 31 32
f 27 32 28
f 28 32 29
f 28 29 25
f 33 34 35
f 33 35 36
f 37 39 38
f 37 40 39
f 33 37 38
f 33 38 34
f 34 38 39
f 34 39 35
f 35 39 40
f 35 40 36
f 36 40 37
f 36 37 33
f 41 42 43
f 41 43 44
f 45 47 46
f 45 48 47
f 41 45 46
f 41 46 42
f 42 46 47
f 42 47 43
f 43 47 48
f 43 48 44
f 44 48 45
f 44 45 41
f 49 50 51
f 49 51 52
f 53 55 54
f 53 56 55
f 49 53 54
f 49 54 50
f 50 54 55
f 50 55 51
f 51 55 56
f 51 56 52
f 52 56 53
f 52 53 49
f 57 58 59
f 57 59 60
f 61 63 62
f 61 64 63
f 57 61 62
f 57 62 58
f 58 62 63
f 58 63 59
f 59 63 64
f 59 64 60
f 60 64 61
f 60 61 57
f 65 66 67
f 65 67 68
f 69 71 70
f 69 72 71
f 65 69 70
f 65 70 66
f 66 70 71
f 66 71 67
f 67 71 72
f 67 72 68
f 68 72 69
f 68 69 65
f 73 74 75
f 73 75 76
f 77 79 78
f 77 80 79
f 73 77 78
f 73 78 74
f 74 78 79
f 74 79 75
f 75 79 80
f 75 80 76
f 76 80 77
f 76 77 73
f 81 82 83
f 81 83 84
f 85 87 86
f 85 88 87
f 81 85 86
f 81 86 82
f 82 86 87
f 82 87 83
f 83 87 88
f 83 88 84
f 84 88 85
f 84 85 81
f 89 90 91
f 89 91 92
f 93 95 94
f 93 96 95
f 89 93 94
f 89 94 90
f 90 94 95
f 90 95 91
f 91 95 96
f 91 96 92
f 92 96 93
f 92 93 89
f 97 98 99
f 97 99 100
f 101 103 102
f 101 104 103
f 97 101 102
f 97 102 98
f 98 102 103
f 98 103 99
f 99 103 104
f 99 104 100
f 100 104 101
f 100 101 97
f 105 106 107
f 105 107 108
f 109 111 110
f 109 112 111
f 105 109 110
f 105 110 106
f 106 110 111
f 106 111 107
f 107 111 112
f 107 112 108
f 108 112 109
f 108 109 105

