# https://github.com/mikedh/trimesh
v 165.48604588 218.25181135 0.00000000
v 166.16194852 230.60333173 0.00000000
v 160.17091196 230.93117456 0.00000000
v 159.49500932 218.57965419 0.00000000
v 165.48604588 218.25181135 210.00000000
v 166.16194852 230.60333173 210.00000000
v 160.17091196 230.93117456 210.00000000
v 159.49500932 218.57965419 210.00000000
v 181.77500000 125.00000000 0.00000000
v 192.53500000 125.00000000 0.00000000
v 192.53500000 127.00000000 0.00000000
v 181.77500000 127.00000000 0.00000000
v 181.77500000 125.00000000 210.00000000
v 192.53500000 125.00000000 210.00000000
v 192.53500000 127.00000000 210.00000000
v 181.77500000 127.00000000 210.00000000
v 158.86709527 112.25491684 0.00000000
v 158.92560495 100.27505972 0.00000000
v 164.92553339 100.30436340 0.00000000
v 164.86702371 112.28422052 0.00000000
v 158.86709527 112.25491684 210.00000000
v 158.92560495 100.27505972 210.00000000
v 164.92553339 100.30436340 210.00000000
v 164.86702371 112.28422052 210.00000000
v 221.82829387 120.43308190 90.00000000
v 221.74722879 111.68345742 90.00000000
v 227.74697128 111.62786994 90.00000000
v 227.82803636 120.37749441 90.00000000
v 221.82829387 120.43308190 210.00000000
v 221.74722879 111.68345742 210.00000000
v 227.74697128 111.62786994 210.00000000
v 227.82803636 120.37749441 210.00000000
v 61.71632418 271.70946464 90.00000000
v 80.51617392 271.78463085 90.00000000
v 80.50495896 274.58960843 90.00000000
v 61.70510922 274.51444222 90.00000000
v 61.71632418 271.70946464 210.00000000
v 80.51617392 271.78463085 210.00000000
v 80.50495896 274.58960843 210.00000000
v 61.70510922 274.51444222 210.00000000
v 87.24545191 271.81153608 90.00000000
v 97.13537286 271.85107831 90.00000000
v 97.12415790 274.65605589 90.00000000
v 87.23423695 274.61651366 90.00000000
v 87.24545191 271.81153608 210.00000000
v 97.13537286 271.85107831 210.00000000
v 97.12415790 274.65605589 210.00000000
v 87.23423695 274.61651366 210.00000000
v 113.61755421 271.91697793 0.00000000
v 128.94743168 271.97827038 0.00000000
v 128.93621672 274.78324796 0.00000000
v 113.60633925 274.72195551 0.00000000
v 113.61755421 271.91697793 210.00000000
v 128.94743168 271.97827038 210.00000000
v 128.93621672 274.78324796 210.00000000
v 113.60633925 274.72195551 210.00000000
v 140.87371207 272.02595445 90.00000000
v 146.49366715 272.04842434 90.00000000
v 146.48245220 274.85340192 90.00000000
v 140.86249711 274.83093203 90.00000000
v 140.87371207 272.02595445 210.00000000
v 146.49366715 272.04842434 210.00000000
v 146.48245220 274.85340192 210.00000000
v 140.86249711 274.83093203 210.00000000
v 127.50882968 246.88564838 0.00000000
v 115.12889047 246.84685195 0.00000000
v 115.13515807 244.84686177 0.00000000
v 127.51509728 244.88565820 0.00000000
v 127.50882968 246.88564838 210.00000000
v 115.12889047 246.84685195 210.00000000
v 115.13515807 244.84686177 210.00000000
v 127.51509728 244.88565820 210.00000000
v 40.16679372 170.44001114 90.00000000
v 40.16327580 189.68001082 90.00000000
v 37.86827584 189.67959119 90.00000000
v 37.87179376 170.43959151 90.00000000
v 40.16679372 170.44001114 210.00000000
v 40.16327580 189.68001082 210.00000000
v 37.86827584 189.67959119 210.00000000
v 37.87179376 170.43959151 210.00000000
v 72.30049733 83.38664871 90.00000000
v 90.24024433 83.48192369 90.00000000
v 90.22611772 86.14188618 90.00000000
v 72.28637071 86.04661120 90.00000000
v 72.30049733 83.38664871 210.00000000
v 90.24024433 83.48192369 210.00000000
v 90.22611772 86.14188618 210.00000000
v 72.28637071 86.04661120 210.00000000
v 97.16926842 83.51872257 90.00000000
v 114.59902262 83.61128907 90.00000000
v 114.58489600 86.27125156 90.00000000
v 97.15514180 86.17868506 90.00000000
v 97.16926842 83.51872257 210.00000000
v 114.59902262 83.61128907 210.00000000
v 114.58489600 86.27125156 210.00000000
v 97.15514180 86.17868506 210.00000000
v 137.64551695 83.73368513 0.00000000
v 153.71529033 83.81902899 0.00000000
v 153.70116372 86.47899148 0.00000000
v 137.63139034 86.39364762 0.00000000
v 137.64551695 83.73368513 210.00000000
v 153.71529033 83.81902899 210.00000000
v 153.70116372 86.47899148 210.00000000
v 137.63139034 86.39364762 210.00000000
v 168.56377165 83.89788678 0.00000000
v 184.20355109 83.98094702 0.00000000
v 184.18942448 86.64090951 0.00000000
v 168.54964504 86.55784927 0.00000000
v 168.56377165 83.89788678 210.00000000
v 184.20355109 83.98094702 210.00000000
v 184.18942448 86.64090951 210.00000000
v 168.54964504 86.55784927 210.00000000
v 190.20346648 84.01281156 90.00000000
v 218.98404592 84.16566038 90.00000000
v 218.96991930 86.82562287 90.00000000
v 190.18933986 86.67277405 90.00000000
v 190.20346648 84.01281156 210.00000000
v 218.98404592 84.16566038 210.00000000
v 218.96991930 86.82562287 210.00000000
v 190.18933986 86.67277405 210.00000000
v 163.00000000 223.29000000 0.00000000
v 163.00000000 241.56000000 0.00000000
v 161.00000000 241.56000000 0.00000000
v 161.00000000 223.29000000 0.00000000
v 163.00000000 223.29000000 210.00000000
v 163.00000000 241.56000000 210.00000000
v 161.00000000 241.56000000 210.00000000
v 161.00000000 223.29000000 210.00000000
v 226.36701339 161.97582445 90.00000000
v 226.42862817 168.45553151 90.00000000
v 224.15873079 168.47711570 90.00000000
v 224.09711600 161.99740864 90.00000000
v 226.36701339 161.97582445 210.00000000
v 226.42862817 168.45553151 210.00000000
v 224.15873079 168.47711570 210.00000000
v 224.09711600 161.99740864 210.00000000
v 226.63363782 190.01533085 0.00000000
v 226.76694636 204.03469706 0.00000000
v 224.49704897 204.05628125 0.00000000
v 224.36374044 190.03691505 0.00000000
v 226.63363782 190.01533085 210.00000000
v 226.76694636 204.03469706 210.00000000
v 224.49704897 204.05628125 210.00000000
v 224.36374044 190.03691505 210.00000000
v 226.90920548 218.99534993 90.00000000
v 227.10165661 239.23443496 90.00000000
v 224.83175922 239.25601915 90.00000000
v 224.63930810 219.01693413 90.00000000
v 226.90920548 218.99534993 210.00000000
v 227.10165661 239.23443496 210.00000000
v 224.83175922 239.25601915 210.00000000
v 224.63930810 219.01693413 210.00000000
v 133.00000000 252.13000000 0.00000000
v 133.00000000 261.75000000 0.00000000
v 131.00000000 261.75000000 0.00000000
v 131.00000000 252.13000000 0.00000000
v 133.00000000 252.13000000 210.00000000
v 133.00000000 261.75000000 210.00000000
v 131.00000000 261.75000000 210.00000000
v 131.00000000 252.13000000 210.00000000
f 1 2 3
f 1 3 4
f 5 7 6
f 5 8 7
f 1 5 6
f 1 6 2
f 2 6 7
f 2 7 3
f 3 7 8
f 3 8 4
f 4 8 5
f 4 5 1
f 9 10 11
f 9 11 12
f 13 15 14
f 13 16 15
f 9 13 14
f 9 14 10
f 10 14 15
f 10 15 11
f 11 15 16
f 11 16 12
f 12 16 13
f 12 13 9
f 17 18 19
f 17 19 20
f 21 23 22
f 21 24 23
f 17 21 22
f 17 22 18
f 18 22 23
f 18 23 19
f 19 23 24
f 19 24 20
f 20 24 21
f 20 21 17
f 25 26 27
f 25 27 28
f 29 31 30
f 29 32 31
f 25 29 30
f 25 30 26
f 26 30 31
f 26 31 27
f 27 31 32
f 27 32 28
f 28 32 29
f 28 29 25
f 33 34 35
f 33 35 36
f 37 39 38
f 37 40 39
f 33 37 38
f 33 38 34
f 34 38 39
f 34 39 35
f 35 39 40
f 35 40 36
f 36 40 37
f 36 37 33
f 41 42 43
f 41 43 44
f 45 47 46
f 45 48 47
f 41 45 46
f 41 46 42
f 42 46 47
f 42 47 43
f 43 47 48
f 43 48 44
f 44 48 45
f 44 45 41
f 49 50 51
f 49 51 52
f 53 55 54
f 53 56 55
f 49 53 54
f 49 54 50
f 50 54 55
f 50 55 51
f 51 55 56
f 51 56 52
f 52 56 53
f 52 53 49
f 57 58 59
f 57 59 60
f 61 63 62
f 61 64 63
f 57 61 62
f 57 62 58
f 58 62 63
f 58 63 59
f 59 63 64
f 59 64 60
f 60 64 61
f 60 61 57
f 65 66 67
f 65 67 68
f 69 71 70
f 69 72 71
f 65 69 70
f 65 70 66
f 66 70 71
f 66 71 67
f 67 71 72
f 67 72 68
f 68 72 69
f 68 69 65
f 73 74 75
f 73 75 76
f 77 79 78
f 77 80 79
f 73 77 78
f 73 78 74
f 74 78 79
f 74 79 75
f 75 79 80
f 75 80 76
f 76 80 77
f 76 77 73
f 81 82 83
f 81 83 84
f 85 87 86
f 85 88 87
f 81 85 86
f 81 86 82
f 82 86 87
f 82 87 83
f 83 87 88
f 83 88 84
f 84 88 85
f 84 85 81
f 89 90 91
f 89 91 92
f 93 95 94
f 93 96 95
f 89 93 94
f 89 94 90
f 90 94 95
f 90 95 91
f 91 95 96
f 91 96 92
f 92 96 93
f 92 93 89
f 97 98 99
f 97 99 100
f 101 103 102
f 101 104 103
f 97 101 102
f 97 102 98
f 98 102 103
f 98 103 99
f 99 103 104
f 99 104 100
f 100 104 101
f 100 101 97
f 105 106 107
f 105 107 108
f 109 111 110
f 109 112 111
f 105 109 110
f 105 110 106
f 106 110 111
f 106 111 107
f 107 111 112
f 107 112 108
f 108 112 109
f 108 109 105
f 113 114 115
f 113 115 116
f 117 119 118
f 117 120 119
f 113 117 118
f 113 118 114
f 114 118 119
f 114 119 115
f 115 119 120
f 115 120 116
f 116 120 117
f 116 117 113
f 121 122 123
f 121 123 124
f 125 127 126
f 125 128 127
f 121 125 126
f 121 126 122
f 122 126 127
f 122 127 123
f 123 127 128
f 123 128 124
f 124 128 125
f 124 125 121
f 129 130 131
f 129 131 132
f 133 135 134
f 133 136 135
f 129 133 134
f 129 134 130
f 130 134 135
f 130 135 131
f 131 135 136
f 131 136 132
f 132 136 133
f 132 133 129
f 137 138 139
f 137 139 140
f 141 143 142
f 141 144 143
f 137 141 142
f 137 142 138
f 138 142 143
f 138 143 139
f 139 143 144
f 139 144 140
f 140 144 141
f 140 141 137
f 145 146 147
f 145 147 148
f 149 151 150
f 149 152 151
f 145 149 150
f 145 150 146
f 146 150 151
f 146 151 147
f 147 151 152
f 147 152 148
f 148 152 149
f 148 149 145
f 153 154 155
f 153 155 156
f 157 159 158
f 157 160 159
f 153 157 158
f 153 158 154
f 154 158 159
f 154 159 155
f 155 159 160
f 155 160 156
f 156 160 157
f 156 157 153

