# https://github.com/mikedh/trimesh
v 162.03000000 208.00000000 0.00000000
v 225.19000000 208.00000000 0.00000000
v 225.19000000 212.00000000 0.00000000
v 162.03000000 212.00000000 0.00000000
v 162.03000000 208.00000000 260.00000000
v 225.19000000 208.00000000 260.00000000
v 225.19000000 212.00000000 260.00000000
v 162.03000000 212.00000000 260.00000000
v 156.21682328 208.51441039 0.00000000
v 158.51682328 199.51441039 0.00000000
v 170.14317672 202.48558961 0.00000000
v 167.84317672 211.48558961 0.00000000
v 156.21682328 208.51441039 260.00000000
v 158.51682328 199.51441039 260.00000000
v 170.14317672 202.48558961 260.00000000
v 167.84317672 211.48558961 260.00000000
v 168.02103656 209.67215717 0.00000000
v 168.31764274 215.09237166 0.00000000
v 156.33556962 215.74805732 0.00000000
v 156.03896344 210.32784283 0.00000000
v 168.02103656 209.67215717 260.00000000
v 168.31764274 215.09237166 260.00000000
v 156.33556962 215.74805732 260.00000000
v 156.03896344 210.32784283 260.00000000
v 168.31764274 215.09237166 210.00000000
v 169.32138822 233.43492859 210.00000000
v 157.33931510 234.09061426 210.00000000
v 156.33556962 215.74805732 210.00000000
v 168.31764274 215.09237166 260.00000000
v 169.32138822 233.43492859 260.00000000
v 157.33931510 234.09061426 260.00000000
v 156.33556962 215.74805732 260.00000000
v 169.32138822 233.43492859 0.00000000
v 169.99103656 245.67215717 0.00000000
v 158.00896344 246.32784283 0.00000000
v 157.33931510 234.09061426 0.00000000
v 169.32138822 233.43492859 260.00000000
v 169.99103656 245.67215717 260.00000000
v 158.00896344 246.32784283 260.00000000
v 157.33931510 234.09061426 260.00000000
v 161.80000000 124.00000000 0.00000000
v 178.77500000 124.00000000 0.00000000
v 178.77500000 128.00000000 0.00000000
v 161.80000000 128.00000000 0.00000000
v 161.80000000 124.00000000 260.00000000
v 178.77500000 124.00000000 260.00000000
v 178.77500000 128.00000000 260.00000000
v 161.80000000 128.00000000 260.00000000
v 178.77500000 124.00000000 210.00000000
v 195.53500000 124.00000000 210.00000000
v 195.53500000 128.00000000 210.00000000
v 178.77500000 128.00000000 210.00000000
v 178.77500000 124.00000000 260.00000000
v 195.53500000 124.00000000 260.00000000
v 195.53500000 128.00000000 260.00000000
v 178.77500000 128.00000000 260.00000000
v 195.53500000 124.00000000 0.00000000
v 224.88000000 124.00000000 0.00000000
v 224.88000000 128.00000000 0.00000000
v 195.53500000 128.00000000 0.00000000
v 195.53500000 124.00000000 260.00000000
v 224.88000000 124.00000000 260.00000000
v 224.88000000 128.00000000 260.00000000
v 195.53500000 128.00000000 260.00000000
v 155.80007156 125.97069632 0.00000000
v 155.85247921 115.24022922 0.00000000
v 167.85233609 115.29883658 0.00000000
v 167.79992844 126.02930368 0.00000000
v 155.80007156 125.97069632 260.00000000
v 155.85247921 115.24022922 260.00000000
v 167.85233609 115.29883658 260.00000000
v 167.79992844 126.02930368 260.00000000
v 155.85247921 115.24022922 210.00000000
v 155.94029257 97.26044366 210.00000000
v 167.94014945 97.31905102 210.00000000
v 167.85233609 115.29883658 210.00000000
v 155.85247921 115.24022922 260.00000000
v 155.94029257 97.26044366 260.00000000
v 167.94014945 97.31905102 260.00000000
v 167.85233609 115.29883658 260.00000000
v 155.94029257 97.26044366 0.00000000
v 156.00007156 85.02069632 0.00000000
v 167.99992844 85.07930368 0.00000000
v 167.94014945 97.31905102 0.00000000
v 155.94029257 97.26044366 260.00000000
v 156.00007156 85.02069632 260.00000000
v 167.99992844 85.07930368 260.00000000
v 167.94014945 97.31905102 260.00000000
v 230.87276104 125.70535592 0.00000000
v 232.05276104 149.70535592 0.00000000
v 220.06723896 150.29464408 0.00000000
v 218.88723896 126.29464408 0.00000000
v 230.87276104 125.70535592 260.00000000
v 232.05276104 149.70535592 260.00000000
v 220.06723896 150.29464408 260.00000000
v 218.88723896 126.29464408 260.00000000
v 218.88025750 126.05558748 0.00000000
v 218.86121522 124.00029045 0.00000000
v 230.86070021 123.88911548 0.00000000
v 230.87974250 125.94441252 0.00000000
v 218.88025750 126.05558748 90.00000000
v 218.86121522 124.00029045 90.00000000
v 230.86070021 123.88911548 90.00000000
v 230.87974250 125.94441252 90.00000000
v 218.88025750 126.05558748 210.00000000
v 218.86121522 124.00029045 210.00000000
v 230.86070021 123.88911548 210.00000000
v 230.87974250 125.94441252 210.00000000
v 218.88025750 126.05558748 260.00000000
v 218.86121522 124.00029045 260.00000000
v 230.86070021 123.88911548 260.00000000
v 230.87974250 125.94441252 260.00000000
v 218.86121522 124.00029045 0.00000000
v 218.85621636 123.46074689 0.00000000
v 230.85570136 123.34957192 0.00000000
v 230.86070021 123.88911548 0.00000000
v 218.86121522 124.00029045 260.00000000
v 218.85621636 123.46074689 260.00000000
v 230.85570136 123.34957192 260.00000000
v 230.86070021 123.88911548 260.00000000
v 218.85621636 123.46074689 0.00000000
v 218.71956379 108.71137992 0.00000000
v 230.71904879 108.60020495 0.00000000
v 230.85570136 123.34957192 0.00000000
v 218.85621636 123.46074689 90.00000000
v 218.71956379 108.71137992 90.00000000
v 230.71904879 108.60020495 90.00000000
v 230.85570136 123.34957192 90.00000000
v 218.85621636 123.46074689 210.00000000
v 218.71956379 108.71137992 210.00000000
v 230.71904879 108.60020495 210.00000000
v 230.85570136 123.34957192 210.00000000
v 218.85621636 123.46074689 260.00000000
v 218.71956379 108.71137992 260.00000000
v 230.71904879 108.60020495 260.00000000
v 230.85570136 123.34957192 260.00000000
v 218.71956379 108.71137992 0.00000000
v 218.50525750 85.58058748 0.00000000
v 230.50474250 85.46941252 0.00000000
v 230.71904879 108.60020495 0.00000000
v 218.71956379 108.71137992 260.00000000
v 218.50525750 85.58058748 260.00000000
v 230.50474250 85.46941252 260.00000000
v 230.71904879 108.60020495 260.00000000
v 33.72121496 270.19502242 0.00000000
v 58.72195564 270.29498124 0.00000000
v 58.69952572 275.90493641 0.00000000
v 33.69878504 275.80497758 0.00000000
v 33.72121496 270.19502242 260.00000000
v 58.72195564 270.29498124 260.00000000
v 58.69952572 275.90493641 260.00000000
v 33.69878504 275.80497758 260.00000000
v 58.72195564 270.29498124 0.00000000
v 83.52175742 270.39413667 0.00000000
v 83.49932750 276.00409183 0.00000000
v 58.69952572 275.90493641 0.00000000
v 58.72195564 270.29498124 90.00000000
v 83.52175742 270.39413667 90.00000000
v 83.49932750 276.00409183 90.00000000
v 58.69952572 275.90493641 90.00000000
v 58.72195564 270.29498124 210.00000000
v 83.52175742 270.39413667 210.00000000
v 83.49932750 276.00409183 210.00000000
v 58.69952572 275.90493641 210.00000000
v 58.72195564 270.29498124 260.00000000
v 83.52175742 270.39413667 260.00000000
v 83.49932750 276.00409183 260.00000000
v 58.69952572 275.90493641 260.00000000
v 83.52175742 270.39413667 0.00000000
v 84.25108336 270.39705269 0.00000000
v 84.22865345 276.00700785 0.00000000
v 83.49932750 276.00409183 0.00000000
v 83.52175742 270.39413667 260.00000000
v 84.25108336 270.39705269 260.00000000
v 84.22865345 276.00700785 260.00000000
v 83.49932750 276.00409183 260.00000000
v 84.25108336 270.39705269 0.00000000
v 100.14095636 270.46058412 0.00000000
v 100.11852644 276.07053928 0.00000000
v 84.22865345 276.00700785 0.00000000
v 84.25108336 270.39705269 90.00000000
v 100.14095636 270.46058412 90.00000000
v 100.11852644 276.07053928 90.00000000
v 84.22865345 276.00700785 90.00000000
v 84.25108336 270.39705269 210.00000000
v 100.14095636 270.46058412 210.00000000
v 100.11852644 276.07053928 210.00000000
v 84.22865345 276.00700785 210.00000000
v 84.25108336 270.39705269 260.00000000
v 100.14095636 270.46058412 260.00000000
v 100.11852644 276.07053928 260.00000000
v 84.22865345 276.00700785 260.00000000
v 100.14095636 270.46058412 0.00000000
v 110.62318567 270.50249454 0.00000000
v 110.60075575 276.11244970 0.00000000
v 100.11852644 276.07053928 0.00000000
v 100.14095636 270.46058412 260.00000000
v 110.62318567 270.50249454 260.00000000
v 110.60075575 276.11244970 260.00000000
v 100.11852644 276.07053928 260.00000000
v 110.62318567 270.50249454 210.00000000
v 131.95301518 270.58777620 210.00000000
v 131.93058527 276.19773136 210.00000000
v 110.60075575 276.11244970 210.00000000
v 110.62318567 270.50249454 260.00000000
v 131.95301518 270.58777620 260.00000000
v 131.93058527 276.19773136 260.00000000
v 110.60075575 276.11244970 260.00000000
v 131.95301518 270.58777620 0.00000000
v 137.87934353 270.61147105 0.00000000
v 137.85691361 276.22142621 0.00000000
v 131.93058527 276.19773136 0.00000000
v 131.95301518 270.58777620 260.00000000
v 137.87934353 270.61147105 260.00000000
v 137.85691361 276.22142621 260.00000000
v 131.93058527 276.19773136 260.00000000
v 137.87934353 270.61147105 0.00000000
v 149.49925065 270.65793016 0.00000000
v 149.47682074 276.26788532 0.00000000
v 137.85691361 276.22142621 0.00000000
v 137.87934353 270.61147105 90.00000000
v 149.49925065 270.65793016 90.00000000
v 149.47682074 276.26788532 90.00000000
v 137.85691361 276.22142621 90.00000000
v 137.87934353 270.61147105 210.00000000
v 149.49925065 270.65793016 210.00000000
v 149.47682074 276.26788532 210.00000000
v 137.85691361 276.22142621 210.00000000
v 137.87934353 270.61147105 260.00000000
v 149.49925065 270.65793016 260.00000000
v 149.47682074 276.26788532 260.00000000
v 137.85691361 276.22142621 260.00000000
v 149.49925065 270.65793016 0.00000000
v 226.30621496 270.96502242 0.00000000
v 226.28378504 276.57497758 0.00000000
v 149.47682074 276.26788532 0.00000000
v 149.49925065 270.65793016 260.00000000
v 226.30621496 270.96502242 260.00000000
v 226.28378504 276.57497758 260.00000000
v 149.47682074 276.26788532 260.00000000
v 164.27079485 202.99912350 0.00000000
v 134.44412818 202.11579016 0.00000000
v 134.56253849 198.11754317 0.00000000
v 164.38920515 199.00087650 0.00000000
v 164.27079485 202.99912350 260.00000000
v 134.44412818 202.11579016 260.00000000
v 134.56253849 198.11754317 260.00000000
v 164.38920515 199.00087650 260.00000000
v 163.99373240 247.99999018 0.00000000
v 130.50568115 247.89504486 0.00000000
v 130.51821634 243.89506450 0.00000000
v 164.00626760 244.00000982 0.00000000
v 163.99373240 247.99999018 260.00000000
v 130.50568115 247.89504486 260.00000000
v 130.51821634 243.89506450 260.00000000
v 164.00626760 244.00000982 260.00000000
v 130.50568115 247.89504486 210.00000000
v 112.12577140 247.83744564 210.00000000
v 112.13830660 243.83746529 210.00000000
v 130.51821634 243.89506450 210.00000000
v 130.50568115 247.89504486 260.00000000
v 112.12577140 247.83744564 260.00000000
v 112.13830660 243.83746529 260.00000000
v 130.51821634 243.89506450 260.00000000
v 112.12577140 247.83744564 0.00000000
v 100.17373240 247.79999018 0.00000000
v 100.18626760 243.80000982 0.00000000
v 112.13830660 243.83746529 0.00000000
v 112.12577140 247.83744564 260.00000000
v 100.17373240 247.79999018 260.00000000
v 100.18626760 243.80000982 260.00000000
v 112.13830660 243.83746529 260.00000000
v 169.98467597 246.42854823 0.00000000
v 167.89543022 275.60486507 0.00000000
v 155.92607829 274.74776862 0.00000000
v 158.01532403 245.57145177 0.00000000
v 169.98467597 246.42854823 260.00000000
v 167.89543022 275.60486507 260.00000000
v 155.92607829 274.74776862 260.00000000
v 158.01532403 245.57145177 260.00000000
v 158.92000000 148.00000000 0.00000000
v 226.06000000 148.00000000 0.00000000
v 226.06000000 152.00000000 0.00000000
v 158.92000000 152.00000000 0.00000000
v 158.92000000 148.00000000 260.00000000
v 226.06000000 148.00000000 260.00000000
v 226.06000000 152.00000000 260.00000000
v 158.92000000 152.00000000 260.00000000
v 41.32999996 84.54041963 0.00000000
v 41.31484223 167.44022100 0.00000000
v 36.72484231 167.43938175 0.00000000
v 36.74000004 84.53958037 0.00000000
v 41.32999996 84.54041963 260.00000000
v 41.31484223 167.44022100 260.00000000
v 36.72484231 167.43938175 260.00000000
v 36.74000004 84.53958037 260.00000000
v 41.31484223 167.44022100 0.00000000
v 41.31022725 192.68022058 0.00000000
v 36.72022732 192.67938133 0.00000000
v 36.72484231 167.43938175 0.00000000
v 41.31484223 167.44022100 90.00000000
v 41.31022725 192.68022058 90.00000000
v 36.72022732 192.67938133 90.00000000
v 36.72484231 167.43938175 90.00000000
v 41.31484223 167.44022100 210.00000000
v 41.31022725 192.68022058 210.00000000
v 36.72022732 192.67938133 210.00000000
v 36.72484231 167.43938175 210.00000000
v 41.31484223 167.44022100 260.00000000
v 41.31022725 192.68022058 260.00000000
v 36.72022732 192.67938133 260.00000000
v 36.72484231 167.43938175 260.00000000
v 41.31022725 192.68022058 0.00000000
v 41.29499996 275.96041963 0.00000000
v 36.70500004 275.95958037 0.00000000
v 36.72022732 192.67938133 0.00000000
v 41.31022725 192.68022058 260.00000000
v 41.29499996 275.96041963 260.00000000
v 36.70500004 275.95958037 260.00000000
v 36.72022732 192.67938133 260.00000000
v 39.04912661 81.88003751 0.00000000
v 69.30760294 82.04073519 0.00000000
v 69.27934971 87.36066017 0.00000000
v 39.02087339 87.19996249 0.00000000
v 39.04912661 81.88003751 260.00000000
v 69.30760294 82.04073519 260.00000000
v 69.27934971 87.36066017 260.00000000
v 39.02087339 87.19996249 260.00000000
v 69.30760294 82.04073519 0.00000000
v 93.24726534 82.16787472 0.00000000
v 93.21901211 87.48779969 0.00000000
v 69.27934971 87.36066017 0.00000000
v 69.30760294 82.04073519 90.00000000
v 93.24726534 82.16787472 90.00000000
v 93.21901211 87.48779969 90.00000000
v 69.27934971 87.36066017 90.00000000
v 69.30760294 82.04073519 210.00000000
v 93.24726534 82.16787472 210.00000000
v 93.21901211 87.48779969 210.00000000
v 69.27934971 87.36066017 210.00000000
v 69.30760294 82.04073519 260.00000000
v 93.24726534 82.16787472 260.00000000
v 93.21901211 87.48779969 260.00000000
v 69.27934971 87.36066017 260.00000000
v 93.24726534 82.16787472 0.00000000
v 94.17637403 82.17280906 0.00000000
v 94.14812080 87.49273403 0.00000000
v 93.21901211 87.48779969 0.00000000
v 93.24726534 82.16787472 260.00000000
v 94.17637403 82.17280906 260.00000000
v 94.14812080 87.49273403 260.00000000
v 93.21901211 87.48779969 260.00000000
v 94.17637403 82.17280906 0.00000000
v 117.60604362 82.29724010 0.00000000
v 117.57779039 87.61716507 0.00000000
v 94.14812080 87.49273403 0.00000000
v 94.17637403 82.17280906 90.00000000
v 117.60604362 82.29724010 90.00000000
v 117.57779039 87.61716507 90.00000000
v 94.14812080 87.49273403 90.00000000
v 94.17637403 82.17280906 210.00000000
v 117.60604362 82.29724010 210.00000000
v 117.57779039 87.61716507 210.00000000
v 94.14812080 87.49273403 210.00000000
v 94.17637403 82.17280906 260.00000000
v 117.60604362 82.29724010 260.00000000
v 117.57779039 87.61716507 260.00000000
v 94.14812080 87.49273403 260.00000000
v 117.60604362 82.29724010 0.00000000
v 134.65262257 82.38777161 0.00000000
v 134.62436934 87.70769659 0.00000000
v 117.57779039 87.61716507 0.00000000
v 117.60604362 82.29724010 260.00000000
v 134.65262257 82.38777161 260.00000000
v 134.62436934 87.70769659 260.00000000
v 117.57779039 87.61716507 260.00000000
v 134.65262257 82.38777161 210.00000000
v 156.72231133 82.50498002 210.00000000
v 156.69405810 87.82490500 210.00000000
v 134.62436934 87.70769659 210.00000000
v 134.65262257 82.38777161 260.00000000
v 156.72231133 82.50498002 260.00000000
v 156.69405810 87.82490500 260.00000000
v 134.62436934 87.70769659 260.00000000
v 156.72231133 82.50498002 0.00000000
v 165.57087726 82.55197327 0.00000000
v 165.54262404 87.87189824 0.00000000
v 156.69405810 87.82490500 0.00000000
v 156.72231133 82.50498002 260.00000000
v 165.57087726 82.55197327 260.00000000
v 165.54262404 87.87189824 260.00000000
v 156.69405810 87.82490500 260.00000000
v 165.57087726 82.55197327 210.00000000
v 187.21057209 82.66689805 210.00000000
v 187.18231886 87.98682303 210.00000000
v 165.54262404 87.87189824 210.00000000
v 165.57087726 82.55197327 260.00000000
v 187.21057209 82.66689805 260.00000000
v 187.18231886 87.98682303 260.00000000
v 165.54262404 87.87189824 260.00000000
v 187.21057209 82.66689805 0.00000000
v 221.99106692 82.85161141 0.00000000
v 221.96281369 88.17153639 0.00000000
v 187.18231886 87.98682303 0.00000000
v 187.21057209 82.66689805 90.00000000
v 221.99106692 82.85161141 90.00000000
v 221.96281369 88.17153639 90.00000000
v 187.18231886 87.98682303 90.00000000
v 187.21057209 82.66689805 210.00000000
v 221.99106692 82.85161141 210.00000000
v 221.96281369 88.17153639 210.00000000
v 187.18231886 87.98682303 210.00000000
v 187.21057209 82.66689805 260.00000000
v 221.99106692 82.85161141 260.00000000
v 221.96281369 88.17153639 260.00000000
v 187.18231886 87.98682303 260.00000000
v 221.99106692 82.85161141 0.00000000
v 224.51912661 82.86503751 0.00000000
v 224.49087339 88.18496249 0.00000000
v 221.96281369 88.17153639 0.00000000
v 221.99106692 82.85161141 260.00000000
v 224.51912661 82.86503751 260.00000000
v 224.49087339 88.18496249 260.00000000
v 221.96281369 88.17153639 260.00000000
v 102.17652639 245.68217646 0.00000000
v 103.77887765 272.83410660 0.00000000
v 99.78582487 273.06975368 0.00000000
v 98.18347361 245.91782354 0.00000000
v 102.17652639 245.68217646 260.00000000
v 103.77887765 272.83410660 260.00000000
v 99.78582487 273.06975368 260.00000000
v 98.18347361 245.91782354 260.00000000
v 103.77887765 272.83410660 210.00000000
v 103.99652639 276.52217646 210.00000000
v 100.00347361 276.75782354 210.00000000
v 99.78582487 273.06975368 210.00000000
v 103.77887765 272.83410660 260.00000000
v 103.99652639 276.52217646 260.00000000
v 100.00347361 276.75782354 260.00000000
v 99.78582487 273.06975368 260.00000000
v 164.00000000 85.05000000 0.00000000
v 164.00000000 220.29000000 0.00000000
v 160.00000000 220.29000000 0.00000000
v 160.00000000 85.05000000 0.00000000
v 164.00000000 85.05000000 260.00000000
v 164.00000000 220.29000000 260.00000000
v 160.00000000 220.29000000 260.00000000
v 160.00000000 85.05000000 260.00000000
v 164.00000000 220.29000000 210.00000000
v 164.00000000 244.56000000 210.00000000
v 160.00000000 244.56000000 210.00000000
v 160.00000000 220.29000000 210.00000000
v 164.00000000 220.29000000 260.00000000
v 164.00000000 244.56000000 260.00000000
v 160.00000000 244.56000000 260.00000000
v 160.00000000 220.29000000 260.00000000
v 164.00000000 244.56000000 210.00000000
v 164.00000000 244.95000000 210.00000000
v 160.00000000 244.95000000 210.00000000
v 160.00000000 244.56000000 210.00000000
v 164.00000000 244.56000000 260.00000000
v 164.00000000 244.95000000 260.00000000
v 160.00000000 244.95000000 260.00000000
v 160.00000000 244.56000000 260.00000000
v 164.00000000 244.95000000 0.00000000
v 164.00000000 273.93000000 0.00000000
v 160.00000000 273.93000000 0.00000000
v 160.00000000 244.95000000 0.00000000
v 164.00000000 244.95000000 260.00000000
v 164.00000000 273.93000000 260.00000000
v 160.00000000 273.93000000 260.00000000
v 160.00000000 244.95000000 260.00000000
v 162.13596508 279.92845926 0.00000000
v 132.13596508 280.60845926 0.00000000
v 131.86403492 268.61154074 0.00000000
v 161.86403492 267.93154074 0.00000000
v 162.13596508 279.92845926 260.00000000
v 132.13596508 280.60845926 260.00000000
v 131.86403492 268.61154074 260.00000000
v 161.86403492 267.93154074 260.00000000
v 230.99920109 55.29290981 0.00000000
v 230.50420109 85.62290981 0.00000000
v 218.50579891 85.42709019 0.00000000
v 219.00079891 55.09709019 0.00000000
v 230.99920109 55.29290981 260.00000000
v 230.50420109 85.62290981 260.00000000
v 218.50579891 85.42709019 260.00000000
v 219.00079891 55.09709019 260.00000000
v 226.77489738 85.50341581 0.00000000
v 227.47343671 158.96516797 0.00000000
v 222.93364195 159.00833635 0.00000000
v 222.23510262 85.54658419 0.00000000
v 226.77489738 85.50341581 260.00000000
v 227.47343671 158.96516797 260.00000000
v 222.93364195 159.00833635 260.00000000
v 222.23510262 85.54658419 260.00000000
v 227.47343671 158.96516797 0.00000000
v 227.59210223 171.44460379 0.00000000
v 223.05230747 171.48777218 0.00000000
v 222.93364195 159.00833635 0.00000000
v 227.47343671 158.96516797 90.00000000
v 227.59210223 171.44460379 90.00000000
v 223.05230747 171.48777218 90.00000000
v 222.93364195 159.00833635 90.00000000
v 227.47343671 158.96516797 210.00000000
v 227.59210223 171.44460379 210.00000000
v 223.05230747 171.48777218 210.00000000
v 222.93364195 159.00833635 210.00000000
v 227.47343671 158.96516797 260.00000000
v 227.59210223 171.44460379 260.00000000
v 223.05230747 171.48777218 260.00000000
v 222.93364195 159.00833635 260.00000000
v 227.59210223 171.44460379 0.00000000
v 227.74006115 187.00467438 0.00000000
v 223.20026638 187.04784276 0.00000000
v 223.05230747 171.48777218 0.00000000
v 227.59210223 171.44460379 260.00000000
v 227.74006115 187.00467438 260.00000000
v 223.20026638 187.04784276 260.00000000
v 223.05230747 171.48777218 260.00000000
v 227.74006115 187.00467438 210.00000000
v 227.93042041 207.02376934 210.00000000
v 223.39062565 207.06693773 210.00000000
v 223.20026638 187.04784276 210.00000000
v 227.74006115 187.00467438 260.00000000
v 227.93042041 207.02376934 260.00000000
v 223.39062565 207.06693773 260.00000000
v 223.20026638 187.04784276 260.00000000
v 227.93042041 207.02376934 0.00000000
v 227.93879170 207.90413398 0.00000000
v 223.39899693 207.94730237 0.00000000
v 223.39062565 207.06693773 0.00000000
v 227.93042041 207.02376934 90.00000000
v 227.93879170 207.90413398 90.00000000
v 223.39899693 207.94730237 90.00000000
v 223.39062565 207.06693773 90.00000000
v 227.93042041 207.02376934 210.00000000
v 227.93879170 207.90413398 210.00000000
v 223.39899693 207.94730237 210.00000000
v 223.39062565 207.06693773 210.00000000
v 227.93042041 207.02376934 260.00000000
v 227.93879170 207.90413398 260.00000000
v 223.39899693 207.94730237 260.00000000
v 223.39062565 207.06693773 260.00000000
v 227.93879170 207.90413398 0.00000000
v 228.01562881 215.98469346 0.00000000
v 223.47583404 216.02786184 0.00000000
v 223.39899693 207.94730237 0.00000000
v 227.93879170 207.90413398 260.00000000
v 228.01562881 215.98469346 260.00000000
v 223.47583404 216.02786184 260.00000000
v 223.39899693 207.94730237 260.00000000
v 228.01562881 215.98469346 0.00000000
v 228.26513066 242.22350724 0.00000000
v 223.72533590 242.26667563 0.00000000
v 223.47583404 216.02786184 0.00000000
v 228.01562881 215.98469346 90.00000000
v 228.26513066 242.22350724 90.00000000
v 223.72533590 242.26667563 90.00000000
v 223.47583404 216.02786184 90.00000000
v 228.01562881 215.98469346 210.00000000
v 228.26513066 242.22350724 210.00000000
v 223.72533590 242.26667563 210.00000000
v 223.47583404 216.02786184 210.00000000
v 228.01562881 215.98469346 260.00000000
v 228.26513066 242.22350724 260.00000000
v 223.72533590 242.26667563 260.00000000
v 223.47583404 216.02786184 260.00000000
v 228.26513066 242.22350724 0.00000000
v 228.56489738 273.74841581 0.00000000
v 224.02510262 273.79158419 0.00000000
v 223.72533590 242.26667563 0.00000000
v 228.26513066 242.22350724 260.00000000
v 228.56489738 273.74841581 260.00000000
v 224.02510262 273.79158419 260.00000000
v 223.72533590 242.26667563 260.00000000
v 134.00000000 244.60000000 0.00000000
v 134.00000000 249.13000000 0.00000000
v 130.00000000 249.13000000 0.00000000
v 130.00000000 244.60000000 0.00000000
v 134.00000000 244.60000000 260.00000000
v 134.00000000 249.13000000 260.00000000
v 130.00000000 249.13000000 260.00000000
v 130.00000000 244.60000000 260.00000000
v 134.00000000 249.13000000 210.00000000
v 134.00000000 264.75000000 210.00000000
v 130.00000000 264.75000000 210.00000000
v 130.00000000 249.13000000 210.00000000
v 134.00000000 249.13000000 260.00000000
v 134.00000000 264.75000000 260.00000000
v 130.00000000 264.75000000 260.00000000
v 130.00000000 249.13000000 260.00000000
v 134.00000000 264.75000000 0.00000000
v 134.00000000 274.61000000 0.00000000
v 130.00000000 274.61000000 0.00000000
v 130.00000000 264.75000000 0.00000000
v 134.00000000 264.75000000 260.00000000
v 134.00000000 274.61000000 260.00000000
v 130.00000000 274.61000000 260.00000000
v 130.00000000 264.75000000 260.00000000
f 1 2 3
f 1 3 4
f 5 7 6
f 5 8 7
f 1 5 6
f 1 6 2
f 2 6 7
f 2 7 3
f 3 7 8
f 3 8 4
f 4 8 5
f 4 5 1
f 9 10 11
f 9 11 12
f 13 15 14
f 13 16 15
f 9 13 14
f 9 14 10
f 10 14 15
f 10 15 11
f 11 15 16
f 11 16 12
f 12 16 13
f 12 13 9
f 17 18 19
f 17 19 20
f 21 23 22
f 21 24 23
f 17 21 22
f 17 22 18
f 18 22 23
f 18 23 19
f 19 23 24
f 19 24 20
f 20 24 21
f 20 21 17
f 25 26 27
f 25 27 28
f 29 31 30
f 29 32 31
f 25 29 30
f 25 30 26
f 26 30 31
f 26 31 27
f 27 31 32
f 27 32 28
f 28 32 29
f 28 29 25
f 33 34 35
f 33 35 36
f 37 39 38
f 37 40 39
f 33 37 38
f 33 38 34
f 34 38 39
f 34 39 35
f 35 39 40
f 35 40 36
f 36 40 37
f 36 37 33
f 41 42 43
f 41 43 44
f 45 47 46
f 45 48 47
f 41 45 46
f 41 46 42
f 42 46 47
f 42 47 43
f 43 47 48
f 43 48 44
f 44 48 45
f 44 45 41
f 49 50 51
f 49 51 52
f 53 55 54
f 53 56 55
f 49 53 54
f 49 54 50
f 50 54 55
f 50 55 51
f 51 55 56
f 51 56 52
f 52 56 53
f 52 53 49
f 57 58 59
f 57 59 60
f 61 63 62
f 61 64 63
f 57 61 62
f 57 62 58
f 58 62 63
f 58 63 59
f 59 63 64
f 59 64 60
f 60 64 61
f 60 61 57
f 65 66 67
f 65 67 68
f 69 71 70
f 69 72 71
f 65 69 70
f 65 70 66
f 66 70 71
f 66 71 67
f 67 71 72
f 67 72 68
f 68 72 69
f 68 69 65
f 73 74 75
f 73 75 76
f 77 79 78
f 77 80 79
f 73 77 78
f 73 78 74
f 74 78 79
f 74 79 75
f 75 79 80
f 75 80 76
f 76 80 77
f 76 77 73
f 81 82 83
f 81 83 84
f 85 87 86
f 85 88 87
f 81 85 86
f 81 86 82
f 82 86 87
f 82 87 83
f 83 87 88
f 83 88 84
f 84 88 85
f 84 85 81
f 89 90 91
f 89 91 92
f 93 95 94
f 93 96 95
f 89 93 94
f 89 94 90
f 90 94 95
f 90 95 91
f 91 95 96
f 91 96 92
f 92 96 93
f 92 93 89
f 97 98 99
f 97 99 100
f 101 103 102
f 101 104 103
f 97 101 102
f 97 102 98
f 98 102 103
f 98 103 99
f 99 103 104
f 99 104 100
f 100 104 101
f 100 101 97
f 105 106 107
f 105 107 108
f 109 111 110
f 109 112 111
f 105 109 110
f 105 110 106
f 106 110 111
f 106 111 107
f 107 111 112
f 107 112 108
f 108 112 109
f 108 109 105
f 113 114 115
f 113 115 116
f 117 119 118
f 117 120 119
f 113 117 118
f 113 118 114
f 114 118 119
f 114 119 115
f 115 119 120
f 115 120 116
f 116 120 117
f 116 117 113
f 121 122 123
f 121 123 124
f 125 127 126
f 125 128 127
f 121 125 126
f 121 126 122
f 122 126 127
f 122 127 123
f 123 127 128
f 123 128 124
f 124 128 125
f 124 125 121
f 129 130 131
f 129 131 132
f 133 135 134
f 133 136 135
f 129 133 134
f 129 134 130
f 130 134 135
f 130 135 131
f 131 135 136
f 131 136 132
f 132 136 133
f 132 133 129
f 137 138 139
f 137 139 140
f 141 143 142
f 141 144 143
f 137 141 142
f 137 142 138
f 138 142 143
f 138 143 139
f 139 143 144
f 139 144 140
f 140 144 141
f 140 141 137
f 145 146 147
f 145 147 148
f 149 151 150
f 149 152 151
f 145 149 150
f 145 150 146
f 146 150 151
f 146 151 147
f 147 151 152
f 147 152 148
f 148 152 149
f 148 149 145
f 153 154 155
f 153 155 156
f 157 159 158
f 157 160 159
f 153 157 158
f 153 158 154
f 154 158 159
f 154 159 155
f 155 159 160
f 155 160 156
f 156 160 157
f 156 157 153
f 161 162 163
f 161 163 164
f 165 167 166
f 165 168 167
f 161 165 166
f 161 166 162
f 162 166 167
f 162 167 163
f 163 167 168
f 163 168 164
f 164 168 165
f 164 165 161
f 169 170 171
f 169 171 172
f 173 175 174
f 173 176 175
f 169 173 174
f 169 174 170
f 170 174 175
f 170 175 171
f 171 175 176
f 171 176 172
f 172 176 173
f 172 173 169
f 177 178 179
f 177 179 180
f 181 183 182
f 181 184 183
f 177 181 182
f 177 182 178
f 178 182 183
f 178 183 179
f 179 183 184
f 179 184 180
f 180 184 181
f 180 181 177
f 185 186 187
f 185 187 188
f 189 191 190
f 189 192 191
f 185 189 190
f 185 190 186
f 186 190 191
f 186 191 187
f 187 191 192
f 187 192 188
f 188 192 189
f 188 189 185
f 193 194 195
f 193 195 196
f 197 199 198
f 197 200 199
f 193 197 198
f 193 198 194
f 194 198 199
f 194 199 195
f 195 199 200
f 195 200 196
f 196 200 197
f 196 197 193
f 201 202 203
f 201 203 204
f 205 207 206
f 205 208 207
f 201 205 206
f 201 206 202
f 202 206 207
f 202 207 203
f 203 207 208
f 203 208 204
f 204 208 205
f 204 205 201
f 209 210 211
f 209 211 212
f 213 215 214
f 213 216 215
f 209 213 214
f 209 214 210
f 210 214 215
f 210 215 211
f 211 215 216
f 211 216 212
f 212 216 213
f 212 213 209
f 217 218 219
f 217 219 220
f 221 223 222
f 221 224 223
f 217 221 222
f 217 222 218
f 218 222 223
f 218 223 219
f 219 223 224
f 219 224 220
f 220 224 221
f 220 221 217
f 225 226 227
f 225 227 228
f 229 231 230
f 229 232 231
f 225 229 230
f 225 230 226
f 226 230 231
f 226 231 227
f 227 231 232
f 227 232 228
f 228 232 229
f 228 229 225
f 233 234 235
f 233 235 236
f 237 239 238
f 237 240 239
f 233 237 238
f 233 238 234
f 234 238 239
f 234 239 235
f 235 239 240
f 235 240 236
f 236 240 237
f 236 237 233
f 241 242 243
f 241 243 244
f 245 247 246
f 245 248 247
f 241 245 246
f 241 246 242
f 242 246 247
f 242 247 243
f 243 247 248
f 243 248 244
f 244 248 245
f 244 245 241
f 249 250 251
f 249 251 252
f 253 255 254
f 253 256 255
f 249 253 254
f 249 254 250
f 250 254 255
f 250 255 251
f 251 255 256
f 251 256 252
f 252 256 253
f 252 253 249
f 257 258 259
f 257 259 260
f 261 263 262
f 261 264 263
f 257 261 262
f 257 262 258
f 258 262 263
f 258 263 259
f 259 263 264
f 259 264 260
f 260 264 261
f 260 261 257
f 265 266 267
f 265 267 268
f 269 271 270
f 269 272 271
f 265 269 270
f 265 270 266
f 266 270 271
f 266 271 267
f 267 271 272
f 267 272 268
f 268 272 269
f 268 269 265
f 273 274 275
f 273 275 276
f 277 279 278
f 277 280 279
f 273 277 278
f 273 278 274
f 274 278 279
f 274 279 275
f 275 279 280
f 275 280 276
f 276 280 277
f 276 277 273
f 281 282 283
f 281 283 284
f 285 287 286
f 285 288 287
f 281 285 286
f 281 286 282
f 282 286 287
f 282 287 283
f 283 287 288
f 283 288 284
f 284 288 285
f 284 285 281
f 289 290 291
f 289 291 292
f 293 295 294
f 293 296 295
f 289 293 294
f 289 294 290
f 290 294 295
f 290 295 291
f 291 295 296
f 291 296 292
f 292 296 293
f 292 293 289
f 297 298 299
f 297 299 300
f 301 303 302
f 301 304 303
f 297 301 302
f 297 302 298
f 298 302 303
f 298 303 299
f 299 303 304
f 299 304 300
f 300 304 301
f 300 301 297
f 305 306 307
f 305 307 308
f 309 311 310
f 309 312 311
f 305 309 310
f 305 310 306
f 306 310 311
f 306 311 307
f 307 311 312
f 307 312 308
f 308 312 309
f 308 309 305
f 313 314 315
f 313 315 316
f 317 319 318
f 317 320 319
f 313 317 318
f 313 318 314
f 314 318 319
f 314 319 315
f 315 319 320
f 315 320 316
f 316 320 317
f 316 317 313
f 321 322 323
f 321 323 324
f 325 327 326
f 325 328 327
f 321 325 326
f 321 326 322
f 322 326 327
f 322 327 323
f 323 327 328
f 323 328 324
f 324 328 325
f 324 325 321
f 329 330 331
f 329 331 332
f 333 335 334
f 333 336 335
f 329 333 334
f 329 334 330
f 330 334 335
f 330 335 331
f 331 335 336
f 331 336 332
f 332 336 333
f 332 333 329
f 337 338 339
f 337 339 340
f 341 343 342
f 341 344 343
f 337 341 342
f 337 342 338
f 338 342 343
f 338 343 339
f 339 343 344
f 339 344 340
f 340 344 341
f 340 341 337
f 345 346 347
f 345 347 348
f 349 351 350
f 349 352 351
f 345 349 350
f 345 350 346
f 346 350 351
f 346 351 347
f 347 351 352
f 347 352 348
f 348 352 349
f 348 349 345
f 353 354 355
f 353 355 356
f 357 359 358
f 357 360 359
f 353 357 358
f 353 358 354
f 354 358 359
f 354 359 355
f 355 359 360
f 355 360 356
f 356 360 357
f 356 357 353
f 361 362 363
f 361 363 364
f 365 367 366
f 365 368 367
f 361 365 366
f 361 366 362
f 362 366 367
f 362 367 363
f 363 367 368
f 363 368 364
f 364 368 365
f 364 365 361
f 369 370 371
f 369 371 372
f 373 375 374
f 373 376 375
f 369 373 374
f 369 374 370
f 370 374 375
f 370 375 371
f 371 375 376
f 371 376 372
f 372 376 373
f 372 373 369
f 377 378 379
f 377 379 380
f 381 383 382
f 381 384 383
f 377 381 382
f 377 382 378
f 378 382 383
f 378 383 379
f 379 383 384
f 379 384 380
f 380 384 381
f 380 381 377
f 385 386 387
f 385 387 388
f 389 391 390
f 389 392 391
f 385 389 390
f 385 390 386
f 386 390 391
f 386 391 387
f 387 391 392
f 387 392 388
f 388 392 389
f 388 389 385
f 393 394 395
f 393 395 396
f 397 399 398
f 397 400 399
f 393 397 398
f 393 398 394
f 394 398 399
f 394 399 395
f 395 399 400
f 395 400 396
f 396 400 397
f 396 397 393
f 401 402 403
f 401 403 404
f 405 407 406
f 405 408 407
f 401 405 406
f 401 406 402
f 402 406 407
f 402 407 403
f 403 407 408
f 403 408 404
f 404 408 405
f 404 405 401
f 409 410 411
f 409 411 412
f 413 415 414
f 413 416 415
f 409 413 414
f 409 414 410
f 410 414 415
f 410 415 411
f 411 415 416
f 411 416 412
f 412 416 413
f 412 413 409
f 417 418 419
f 417 419 420
f 421 423 422
f 421 424 423
f 417 421 422
f 417 422 418
f 418 422 423
f 418 423 419
f 419 423 424
f 419 424 420
f 420 424 421
f 420 421 417
f 425 426 427
f 425 427 428
f 429 431 430
f 429 432 431
f 425 429 430
f 425 430 426
f 426 430 431
f 426 431 427
f 427 431 432
f 427 432 428
f 428 432 429
f 428 429 425
f 433 434 435
f 433 435 436
f 437 439 438
f 437 440 439
f 433 437 438
f 433 438 434
f 434 438 439
f 434 439 435
f 435 439 440
f 435 440 436
f 436 440 437
f 436 437 433
f 441 442 443
f 441 443 444
f 445 447 446
f 445 448 447
f 441 445 446
f 441 446 442
f 442 446 447
f 442 447 443
f 443 447 448
f 443 448 444
f 444 448 445
f 444 445 441
f 449 450 451
f 449 451 452
f 453 455 454
f 453 456 455
f 449 453 454
f 449 454 450
f 450 454 455
f 450 455 451
f 451 455 456
f 451 456 452
f 452 456 453
f 452 453 449
f 457 458 459
f 457 459 460
f 461 463 462
f 461 464 463
f 457 461 462
f 457 462 458
f 458 462 463
f 458 463 459
f 459 463 464
f 459 464 460
f 460 464 461
f 460 461 457
f 465 466 467
f 465 467 468
f 469 471 470
f 469 472 471
f 465 469 470
f 465 470 466
f 466 470 471
f 466 471 467
f 467 471 472
f 467 472 468
f 468 472 469
f 468 469 465
f 473 474 475
f 473 475 476
f 477 479 478
f 477 480 479
f 473 477 478
f 473 478 474
f 474 478 479
f 474 479 475
f 475 479 480
f 475 480 476
f 476 480 477
f 476 477 473
f 481 482 483
f 481 483 484
f 485 487 486
f 485 488 487
f 481 485 486
f 481 486 482
f 482 486 487
f 482 487 483
f 483 487 488
f 483 488 484
f 484 488 485
f 484 485 481
f 489 490 491
f 489 491 492
f 493 495 494
f 493 496 495
f 489 493 494
f 489 494 490
f 490 494 495
f 490 495 491
f 491 495 496
f 491 496 492
f 492 496 493
f 492 493 489
f 497 498 499
f 497 499 500
f 501 503 502
f 501 504 503
f 497 501 502
f 497 502 498
f 498 502 503
f 498 503 499
f 499 503 504
f 499 504 500
f 500 504 501
f 500 501 497
f 505 506 507
f 505 507 508
f 509 511 510
f 509 512 511
f 505 509 510
f 505 510 506
f 506 510 511
f 506 511 507
f 507 511 512
f 507 512 508
f 508 512 509
f 508 509 505
f 513 514 515
f 513 515 516
f 517 519 518
f 517 520 519
f 513 517 518
f 513 518 514
f 514 518 519
f 514 519 515
f 515 519 520
f 515 520 516
f 516 520 517
f 516 517 513
f 521 522 523
f 521 523 524
f 525 527 526
f 525 528 527
f 521 525 526
f 521 526 522
f 522 526 527
f 522 527 523
f 523 527 528
f 523 528 524
f 524 528 525
f 524 525 521
f 529 530 531
f 529 531 532
f 533 535 534
f 533 536 535
f 529 533 534
f 529 534 530
f 530 534 535
f 530 535 531
f 531 535 536
f 531 536 532
f 532 536 533
f 532 533 529
f 537 538 539
f 537 539 540
f 541 543 542
f 541 544 543
f 537 541 542
f 537 542 538
f 538 542 543
f 538 543 539
f 539 543 544
f 539 544 540
f 540 544 541
f 540 541 537
f 545 546 547
f 545 547 548
f 549 551 550
f 549 552 551
f 545 549 550
f 545 550 546
f 546 550 551
f 546 551 547
f 547 551 552
f 547 552 548
f 548 552 549
f 548 549 545
f 553 554 555
f 553 555 556
f 557 559 558
f 557 560 559
f 553 557 558
f 553 558 554
f 554 558 559
f 554 559 555
f 555 559 560
f 555 560 556
f 556 560 557
f 556 557 553
f 561 562 563
f 561 563 564
f 565 567 566
f 565 568 567
f 561 565 566
f 561 566 562
f 562 566 567
f 562 567 563
f 563 567 568
f 563 568 564
f 564 568 565
f 564 565 561
f 569 570 571
f 569 571 572
f 573 575 574
f 573 576 575
f 569 573 574
f 569 574 570
f 570 574 575
f 570 575 571
f 571 575 576
f 571 576 572
f 572 576 573
f 572 573 569
f 577 578 579
f 577 579 580
f 581 583 582
f 581 584 583
f 577 581 582
f 577 582 578
f 578 582 583
f 578 583 579
f 579 583 584
f 579 584 580
f 580 584 581
f 580 581 577
f 585 586 587
f 585 587 588
f 589 591 590
f 589 592 591
f 585 589 590
f 585 590 586
f 586 590 591
f 586 591 587
f 587 591 592
f 587 592 588
f 588 592 589
f 588 589 585
f 593 594 595
f 593 595 596
f 597 599 598
f 597 600 599
f 593 597 598
f 593 598 594
f 594 598 599
f 594 599 595
f 595 599 600
f 595 600 596
f 596 600 597
f 596 597 593

