# https://github.com/mikedh/trimesh
v 278.24863465 2154.10576769 0.00000000
v 462.18369670 2146.38247288 0.00000000
v 463.68642739 2182.17093750 0.00000000
v 279.75136535 2189.89423231 0.00000000
v 278.24863465 2154.10576769 260.00000000
v 462.18369670 2146.38247288 260.00000000
v 463.68642739 2182.17093750 260.00000000
v 279.75136535 2189.89423231 260.00000000
v 462.18369670 2146.38247288 0.00000000
v 638.66818559 2138.97202203 0.00000000
v 640.17091628 2174.76048665 0.00000000
v 463.68642739 2182.17093750 0.00000000
v 462.18369670 2146.38247288 90.00000000
v 638.66818559 2138.97202203 90.00000000
v 640.17091628 2174.76048665 90.00000000
v 463.68642739 2182.17093750 90.00000000
v 462.18369670 2146.38247288 210.00000000
v 638.66818559 2138.97202203 210.00000000
v 640.17091628 2174.76048665 210.00000000
v 463.68642739 2182.17093750 210.00000000
v 462.18369670 2146.38247288 260.00000000
v 638.66818559 2138.97202203 260.00000000
v 640.17091628 2174.76048665 260.00000000
v 463.68642739 2182.17093750 260.00000000
v 638.66818559 2138.97202203 0.00000000
v 1766.24863465 2091.62576769 0.00000000
v 1767.75136535 2127.41423231 0.00000000
v 640.17091628 2174.76048665 0.00000000
v 638.66818559 2138.97202203 260.00000000
v 1766.24863465 2091.62576769 260.00000000
v 1767.75136535 2127.41423231 260.00000000
v 640.17091628 2174.76048665 260.00000000
v 256.95504582 2172.04494746 0.00000000
v 253.91504582 681.04494746 0.00000000
v 298.00495418 680.95505254 0.00000000
v 301.04495418 2171.95505254 0.00000000
v 256.95504582 2172.04494746 260.00000000
v 253.91504582 681.04494746 260.00000000
v 298.00495418 680.95505254 260.00000000
v 301.04495418 2171.95505254 260.00000000
v 1744.86500000 2109.52000000 0.00000000
v 1744.86500000 963.43000000 0.00000000
v 1789.13500000 963.43000000 0.00000000
v 1789.13500000 2109.52000000 0.00000000
v 1744.86500000 2109.52000000 260.00000000
v 1744.86500000 963.43000000 260.00000000
v 1789.13500000 963.43000000 260.00000000
v 1789.13500000 2109.52000000 260.00000000
v 1744.86500000 963.43000000 0.00000000
v 1744.86500000 832.83000000 0.00000000
v 1789.13500000 832.83000000 0.00000000
v 1789.13500000 963.43000000 0.00000000
v 1744.86500000 963.43000000 90.00000000
v 1744.86500000 832.83000000 90.00000000
v 1789.13500000 832.83000000 90.00000000
v 1789.13500000 963.43000000 90.00000000
v 1744.86500000 963.43000000 210.00000000
v 1744.86500000 832.83000000 210.00000000
v 1789.13500000 832.83000000 210.00000000
v 1789.13500000 963.43000000 210.00000000
v 1744.86500000 963.43000000 260.00000000
v 1744.86500000 832.83000000 260.00000000
v 1789.13500000 832.83000000 260.00000000
v 1789.13500000 963.43000000 260.00000000
v 1744.86500000 832.83000000 0.00000000
v 1744.86500000 681.00000000 0.00000000
v 1789.13500000 681.00000000 0.00000000
v 1789.13500000 832.83000000 0.00000000
v 1744.86500000 832.83000000 260.00000000
v 1744.86500000 681.00000000 260.00000000
v 1789.13500000 681.00000000 260.00000000
v 1789.13500000 832.83000000 260.00000000
v 1761.01854305 2109.04864799 0.00000000
v 1764.01854305 2070.97864799 0.00000000
v 1775.98145695 2071.92135201 0.00000000
v 1772.98145695 2109.99135201 0.00000000
v 1761.01854305 2109.04864799 260.00000000
v 1764.01854305 2070.97864799 260.00000000
v 1775.98145695 2071.92135201 260.00000000
v 1772.98145695 2109.99135201 260.00000000
v 3821.48105278 2174.67850811 0.00000000
v 3816.99105278 2165.67850811 0.00000000
v 3827.72894722 2160.32149189 0.00000000
v 3832.21894722 2169.32149189 0.00000000
v 3821.48105278 2174.67850811 260.00000000
v 3816.99105278 2165.67850811 260.00000000
v 3827.72894722 2160.32149189 260.00000000
v 3832.21894722 2169.32149189 260.00000000
v 3826.85000000 2184.47500000 0.00000000
v 3550.79000000 2184.47500000 0.00000000
v 3550.79000000 2159.52500000 0.00000000
v 3826.85000000 2159.52500000 0.00000000
v 3826.85000000 2184.47500000 260.00000000
v 3550.79000000 2184.47500000 260.00000000
v 3550.79000000 2159.52500000 260.00000000
v 3826.85000000 2159.52500000 260.00000000
v 275.96000000 660.86000000 0.00000000
v 542.32000000 660.86000000 0.00000000
v 542.32000000 701.14000000 0.00000000
v 275.96000000 701.14000000 0.00000000
v 275.96000000 660.86000000 260.00000000
v 542.32000000 660.86000000 260.00000000
v 542.32000000 701.14000000 260.00000000
v 275.96000000 701.14000000 260.00000000
v 542.32000000 660.86000000 0.00000000
v 729.42000000 660.86000000 0.00000000
v 729.42000000 701.14000000 0.00000000
v 542.32000000 701.14000000 0.00000000
v 542.32000000 660.86000000 90.00000000
v 729.42000000 660.86000000 90.00000000
v 729.42000000 701.14000000 90.00000000
v 542.32000000 701.14000000 90.00000000
v 542.32000000 660.86000000 210.00000000
v 729.42000000 660.86000000 210.00000000
v 729.42000000 701.14000000 210.00000000
v 542.32000000 701.14000000 210.00000000
v 542.32000000 660.86000000 260.00000000
v 729.42000000 660.86000000 260.00000000
v 729.42000000 701.14000000 260.00000000
v 542.32000000 701.14000000 260.00000000
v 729.42000000 660.86000000 0.00000000
v 731.71000000 660.86000000 0.00000000
v 731.71000000 701.14000000 0.00000000
v 729.42000000 701.14000000 0.00000000
v 729.42000000 660.86000000 260.00000000
v 731.71000000 660.86000000 260.00000000
v 731.71000000 701.14000000 260.00000000
v 729.42000000 701.14000000 260.00000000
v 731.71000000 660.86000000 0.00000000
v 926.10000000 660.86000000 0.00000000
v 926.10000000 701.14000000 0.00000000
v 731.71000000 701.14000000 0.00000000
v 731.71000000 660.86000000 90.00000000
v 926.10000000 660.86000000 90.00000000
v 926.10000000 701.14000000 90.00000000
v 731.71000000 701.14000000 90.00000000
v 731.71000000 660.86000000 210.00000000
v 926.10000000 660.86000000 210.00000000
v 926.10000000 701.14000000 210.00000000
v 731.71000000 701.14000000 210.00000000
v 731.71000000 660.86000000 260.00000000
v 926.10000000 660.86000000 260.00000000
v 926.10000000 701.14000000 260.00000000
v 731.71000000 701.14000000 260.00000000
v 926.10000000 660.86000000 0.00000000
v 1058.67500000 660.86000000 0.00000000
v 1058.67500000 701.14000000 0.00000000
v 926.10000000 701.14000000 0.00000000
v 926.10000000 660.86000000 260.00000000
v 1058.67500000 660.86000000 260.00000000
v 1058.67500000 701.14000000 260.00000000
v 926.10000000 701.14000000 260.00000000
v 1058.67500000 660.86000000 210.00000000
v 1237.50500000 660.86000000 210.00000000
v 1237.50500000 701.14000000 210.00000000
v 1058.67500000 701.14000000 210.00000000
v 1058.67500000 660.86000000 260.00000000
v 1237.50500000 660.86000000 260.00000000
v 1237.50500000 701.14000000 260.00000000
v 1058.67500000 701.14000000 260.00000000
v 1237.50500000 660.86000000 0.00000000
v 1315.02500000 660.86000000 0.00000000
v 1315.02500000 701.14000000 0.00000000
v 1237.50500000 701.14000000 0.00000000
v 1237.50500000 660.86000000 260.00000000
v 1315.02500000 660.86000000 260.00000000
v 1315.02500000 701.14000000 260.00000000
v 1237.50500000 701.14000000 260.00000000
v 1315.02500000 660.86000000 210.00000000
v 1484.78500000 660.86000000 210.00000000
v 1484.78500000 701.14000000 210.00000000
v 1315.02500000 701.14000000 210.00000000
v 1315.02500000 660.86000000 260.00000000
v 1484.78500000 660.86000000 260.00000000
v 1484.78500000 701.14000000 260.00000000
v 1315.02500000 701.14000000 260.00000000
v 1484.78500000 660.86000000 0.00000000
v 1773.06000000 660.86000000 0.00000000
v 1773.06000000 701.14000000 0.00000000
v 1484.78500000 701.14000000 0.00000000
v 1484.78500000 660.86000000 260.00000000
v 1773.06000000 660.86000000 260.00000000
v 1773.06000000 701.14000000 260.00000000
v 1484.78500000 701.14000000 260.00000000
v 275.96000000 675.00000000 0.00000000
v 300.00000000 675.00000000 0.00000000
v 300.00000000 687.00000000 0.00000000
v 275.96000000 687.00000000 0.00000000
v 275.96000000 675.00000000 260.00000000
v 300.00000000 675.00000000 260.00000000
v 300.00000000 687.00000000 260.00000000
v 275.96000000 687.00000000 260.00000000
v 1273.61000000 1172.05500000 0.00000000
v 1786.98000000 1172.05500000 0.00000000
v 1786.98000000 1191.94500000 0.00000000
v 1273.61000000 1191.94500000 0.00000000
v 1273.61000000 1172.05500000 260.00000000
v 1786.98000000 1172.05500000 260.00000000
v 1786.98000000 1191.94500000 260.00000000
v 1273.61000000 1191.94500000 260.00000000
v 1268.02007267 1184.18007166 0.00000000
v 1265.68007267 1178.18007166 0.00000000
v 1276.85992733 1173.81992834 0.00000000
v 1279.19992733 1179.81992834 0.00000000
v 1268.02007267 1184.18007166 260.00000000
v 1265.68007267 1178.18007166 260.00000000
v 1276.85992733 1173.81992834 260.00000000
v 1279.19992733 1179.81992834 260.00000000
v 1279.48187466 1180.76667605 0.00000000
v 1292.87187466 1244.51667605 0.00000000
v 1281.12812534 1246.98332395 0.00000000
v 1267.73812534 1183.23332395 0.00000000
v 1279.48187466 1180.76667605 260.00000000
v 1292.87187466 1244.51667605 260.00000000
v 1281.12812534 1246.98332395 260.00000000
v 1267.73812534 1183.23332395 260.00000000
v 1278.95000000 1660.56000000 0.00000000
v 1773.00000000 1660.56000000 0.00000000
v 1773.00000000 1687.44000000 0.00000000
v 1278.95000000 1687.44000000 0.00000000
v 1278.95000000 1660.56000000 260.00000000
v 1773.00000000 1660.56000000 260.00000000
v 1773.00000000 1687.44000000 260.00000000
v 1278.95000000 1687.44000000 260.00000000
v 1272.98971458 1673.31079918 0.00000000
v 1283.04971458 1586.31079918 0.00000000
v 1294.97028542 1587.68920082 0.00000000
v 1284.91028542 1674.68920082 0.00000000
v 1272.98971458 1673.31079918 260.00000000
v 1283.04971458 1586.31079918 260.00000000
v 1294.97028542 1587.68920082 260.00000000
v 1284.91028542 1674.68920082 260.00000000
v 2334.00000000 661.94500000 0.00000000
v 2803.41000000 661.94500000 0.00000000
v 2803.41000000 694.05500000 0.00000000
v 2334.00000000 694.05500000 0.00000000
v 2334.00000000 661.94500000 260.00000000
v 2803.41000000 661.94500000 260.00000000
v 2803.41000000 694.05500000 260.00000000
v 2334.00000000 694.05500000 260.00000000
v 2803.41000000 661.94500000 0.00000000
v 2939.54000000 661.94500000 0.00000000
v 2939.54000000 694.05500000 0.00000000
v 2803.41000000 694.05500000 0.00000000
v 2803.41000000 661.94500000 90.00000000
v 2939.54000000 661.94500000 90.00000000
v 2939.54000000 694.05500000 90.00000000
v 2803.41000000 694.05500000 90.00000000
v 2803.41000000 661.94500000 210.00000000
v 2939.54000000 661.94500000 210.00000000
v 2939.54000000 694.05500000 210.00000000
v 2803.41000000 694.05500000 210.00000000
v 2803.41000000 661.94500000 260.00000000
v 2939.54000000 661.94500000 260.00000000
v 2939.54000000 694.05500000 260.00000000
v 2803.41000000 694.05500000 260.00000000
v 2939.54000000 661.94500000 0.00000000
v 3094.13000000 661.94500000 0.00000000
v 3094.13000000 694.05500000 0.00000000
v 2939.54000000 694.05500000 0.00000000
v 2939.54000000 661.94500000 260.00000000
v 3094.13000000 661.94500000 260.00000000
v 3094.13000000 694.05500000 260.00000000
v 2939.54000000 694.05500000 260.00000000
v 3094.13000000 661.94500000 210.00000000
v 3262.92000000 661.94500000 210.00000000
v 3262.92000000 694.05500000 210.00000000
v 3094.13000000 694.05500000 210.00000000
v 3094.13000000 661.94500000 260.00000000
v 3262.92000000 661.94500000 260.00000000
v 3262.92000000 694.05500000 260.00000000
v 3094.13000000 694.05500000 260.00000000
v 3262.92000000 661.94500000 0.00000000
v 3584.29000000 661.94500000 0.00000000
v 3584.29000000 694.05500000 0.00000000
v 3262.92000000 694.05500000 0.00000000
v 3262.92000000 661.94500000 260.00000000
v 3584.29000000 661.94500000 260.00000000
v 3584.29000000 694.05500000 260.00000000
v 3262.92000000 694.05500000 260.00000000
v 2328.00000000 678.00000000 0.00000000
v 2328.00000000 661.75000000 0.00000000
v 2340.00000000 661.75000000 0.00000000
v 2340.00000000 678.00000000 0.00000000
v 2328.00000000 678.00000000 260.00000000
v 2328.00000000 661.75000000 260.00000000
v 2340.00000000 661.75000000 260.00000000
v 2340.00000000 678.00000000 260.00000000
v 3584.96028998 683.96244173 0.00000000
v 3552.67028998 687.59244173 0.00000000
v 3551.32971002 675.66755827 0.00000000
v 3583.61971002 672.03755827 0.00000000
v 3584.96028998 683.96244173 260.00000000
v 3552.67028998 687.59244173 260.00000000
v 3551.32971002 675.66755827 260.00000000
v 3583.61971002 672.03755827 260.00000000
v 3554.50563852 670.11328278 0.00000000
v 3557.69563852 679.74328278 0.00000000
v 3546.30436148 683.51671722 0.00000000
v 3543.11436148 673.88671722 0.00000000
v 3554.50563852 670.11328278 260.00000000
v 3557.69563852 679.74328278 260.00000000
v 3546.30436148 683.51671722 260.00000000
v 3543.11436148 673.88671722 260.00000000
v 3548.80552629 660.93000090 0.00000000
v 3820.99552629 660.82000090 0.00000000
v 3821.00447371 682.95999910 0.00000000
v 3548.81447371 683.06999910 0.00000000
v 3548.80552629 660.93000090 260.00000000
v 3820.99552629 660.82000090 260.00000000
v 3821.00447371 682.95999910 260.00000000
v 3548.81447371 683.06999910 260.00000000
v 1267.20000000 975.23000000 0.00000000
v 1429.66000000 975.23000000 0.00000000
v 1429.66000000 992.77000000 0.00000000
v 1267.20000000 992.77000000 0.00000000
v 1267.20000000 975.23000000 260.00000000
v 1429.66000000 975.23000000 260.00000000
v 1429.66000000 992.77000000 260.00000000
v 1267.20000000 992.77000000 260.00000000
v 1429.66000000 975.23000000 210.00000000
v 1534.73000000 975.23000000 210.00000000
v 1534.73000000 992.77000000 210.00000000
v 1429.66000000 992.77000000 210.00000000
v 1429.66000000 975.23000000 260.00000000
v 1534.73000000 975.23000000 260.00000000
v 1534.73000000 992.77000000 260.00000000
v 1429.66000000 992.77000000 260.00000000
v 1534.73000000 975.23000000 0.00000000
v 1782.14000000 975.23000000 0.00000000
v 1782.14000000 992.77000000 0.00000000
v 1534.73000000 992.77000000 0.00000000
v 1534.73000000 975.23000000 260.00000000
v 1782.14000000 975.23000000 260.00000000
v 1782.14000000 992.77000000 260.00000000
v 1534.73000000 992.77000000 260.00000000
v 1273.09812149 982.89901732 0.00000000
v 1274.77812149 991.89901732 0.00000000
v 1262.98187851 994.10098268 0.00000000
v 1261.30187851 985.10098268 0.00000000
v 1273.09812149 982.89901732 260.00000000
v 1274.77812149 991.89901732 260.00000000
v 1262.98187851 994.10098268 260.00000000
v 1261.30187851 985.10098268 260.00000000
v 1776.17953979 984.68768753 0.00000000
v 1767.03953979 905.46768753 0.00000000
v 1778.96046021 904.09231247 0.00000000
v 1788.10046021 983.31231247 0.00000000
v 1776.17953979 984.68768753 260.00000000
v 1767.03953979 905.46768753 260.00000000
v 1778.96046021 904.09231247 260.00000000
v 1788.10046021 983.31231247 260.00000000
v 1065.00000000 1576.45000000 0.00000000
v 1289.01000000 1576.45000000 0.00000000
v 1289.01000000 1597.55000000 0.00000000
v 1065.00000000 1597.55000000 0.00000000
v 1065.00000000 1576.45000000 260.00000000
v 1289.01000000 1576.45000000 260.00000000
v 1289.01000000 1597.55000000 260.00000000
v 1065.00000000 1597.55000000 260.00000000
v 1052.99500000 1587.00000000 0.00000000
v 1052.99500000 1579.91000000 0.00000000
v 1077.00500000 1579.91000000 0.00000000
v 1077.00500000 1587.00000000 0.00000000
v 1052.99500000 1587.00000000 260.00000000
v 1052.99500000 1579.91000000 260.00000000
v 1077.00500000 1579.91000000 260.00000000
v 1077.00500000 1587.00000000 260.00000000
v 1283.15005218 1588.28880236 0.00000000
v 1275.14005218 1551.86880236 0.00000000
v 1286.85994782 1549.29119764 0.00000000
v 1294.86994782 1585.71119764 0.00000000
v 1283.15005218 1588.28880236 260.00000000
v 1275.14005218 1551.86880236 260.00000000
v 1286.85994782 1549.29119764 260.00000000
v 1294.86994782 1585.71119764 260.00000000
v 788.97158473 1940.53004263 0.00000000
v 1288.87658473 1939.03004263 0.00000000
v 1288.93341527 1957.96995737 0.00000000
v 789.02841527 1959.46995737 0.00000000
v 788.97158473 1940.53004263 260.00000000
v 1288.87658473 1939.03004263 260.00000000
v 1288.93341527 1957.96995737 260.00000000
v 789.02841527 1959.46995737 260.00000000
v 783.00000000 1950.00000000 0.00000000
v 783.00000000 1942.97000000 0.00000000
v 795.00000000 1942.97000000 0.00000000
v 795.00000000 1950.00000000 0.00000000
v 783.00000000 1950.00000000 260.00000000
v 783.00000000 1942.97000000 260.00000000
v 795.00000000 1942.97000000 260.00000000
v 795.00000000 1950.00000000 260.00000000
v 1356.22083417 1461.49007243 0.00000000
v 1779.02583417 1462.99007243 0.00000000
v 1778.94416583 1486.00992757 0.00000000
v 1356.13916583 1484.50992757 0.00000000
v 1356.22083417 1461.49007243 260.00000000
v 1779.02583417 1462.99007243 260.00000000
v 1778.94416583 1486.00992757 260.00000000
v 1356.13916583 1484.50992757 260.00000000
v 1271.27000000 1161.68500000 0.00000000
v 1782.20000000 1161.68500000 0.00000000
v 1782.20000000 1190.31500000 0.00000000
v 1271.27000000 1190.31500000 0.00000000
v 1271.27000000 1161.68500000 260.00000000
v 1782.20000000 1161.68500000 260.00000000
v 1782.20000000 1190.31500000 260.00000000
v 1271.27000000 1190.31500000 260.00000000
v 1269.10683041 1170.40351027 0.00000000
v 1284.83683041 1164.32351027 0.00000000
v 1289.16316959 1175.51648973 0.00000000
v 1273.43316959 1181.59648973 0.00000000
v 1269.10683041 1170.40351027 260.00000000
v 1284.83683041 1164.32351027 260.00000000
v 1289.16316959 1175.51648973 260.00000000
v 1273.43316959 1181.59648973 260.00000000
v 1776.46632942 1177.76777309 0.00000000
v 1764.26632942 1138.19777309 0.00000000
v 1775.73367058 1134.66222691 0.00000000
v 1787.93367058 1174.23222691 0.00000000
v 1776.46632942 1177.76777309 260.00000000
v 1764.26632942 1138.19777309 260.00000000
v 1775.73367058 1134.66222691 260.00000000
v 1787.93367058 1174.23222691 260.00000000
v 1779.04651346 1484.73481515 0.00000000
v 1279.89651346 1487.73481515 0.00000000
v 1279.77348654 1467.26518485 0.00000000
v 1778.92348654 1464.26518485 0.00000000
v 1779.04651346 1484.73481515 260.00000000
v 1279.89651346 1487.73481515 260.00000000
v 1279.77348654 1467.26518485 260.00000000
v 1778.92348654 1464.26518485 260.00000000
v 849.81642231 1939.26504513 0.00000000
v 1143.63056746 1940.26870298 0.00000000
v 1143.57772284 1955.73861272 0.00000000
v 849.76357769 1954.73495487 0.00000000
v 849.81642231 1939.26504513 260.00000000
v 1143.63056746 1940.26870298 260.00000000
v 1143.57772284 1955.73861272 260.00000000
v 849.76357769 1954.73495487 260.00000000
v 1143.63056746 1940.26870298 210.00000000
v 1274.08980631 1940.71434674 210.00000000
v 1274.03696169 1956.18425648 210.00000000
v 1143.57772284 1955.73861272 210.00000000
v 1143.63056746 1940.26870298 260.00000000
v 1274.08980631 1940.71434674 260.00000000
v 1274.03696169 1956.18425648 260.00000000
v 1143.57772284 1955.73861272 260.00000000
v 1274.08980631 1940.71434674 0.00000000
v 1288.93142231 1940.76504513 0.00000000
v 1288.87857769 1956.23495487 0.00000000
v 1274.03696169 1956.18425648 0.00000000
v 1274.08980631 1940.71434674 260.00000000
v 1288.93142231 1940.76504513 260.00000000
v 1288.87857769 1956.23495487 260.00000000
v 1274.03696169 1956.18425648 260.00000000
v 1282.90883868 1948.71459116 0.00000000
v 1281.00383868 1895.48459116 0.00000000
v 1292.99616132 1895.05540884 0.00000000
v 1294.90116132 1948.28540884 0.00000000
v 1282.90883868 1948.71459116 260.00000000
v 1281.00383868 1895.48459116 260.00000000
v 1292.99616132 1895.05540884 260.00000000
v 1294.90116132 1948.28540884 260.00000000
v 2496.62656402 2158.05069449 0.00000000
v 3004.32207266 2153.45470925 0.00000000
v 3004.62894462 2187.35332028 0.00000000
v 2496.93343598 2191.94930551 0.00000000
v 2496.62656402 2158.05069449 260.00000000
v 3004.32207266 2153.45470925 260.00000000
v 3004.62894462 2187.35332028 260.00000000
v 2496.93343598 2191.94930551 260.00000000
v 3004.32207266 2153.45470925 0.00000000
v 3142.13642582 2152.20712538 0.00000000
v 3142.44329778 2186.10573640 0.00000000
v 3004.62894462 2187.35332028 0.00000000
v 3004.32207266 2153.45470925 90.00000000
v 3142.13642582 2152.20712538 90.00000000
v 3142.44329778 2186.10573640 90.00000000
v 3004.62894462 2187.35332028 90.00000000
v 3004.32207266 2153.45470925 210.00000000
v 3142.13642582 2152.20712538 210.00000000
v 3142.44329778 2186.10573640 210.00000000
v 3004.62894462 2187.35332028 210.00000000
v 3004.32207266 2153.45470925 260.00000000
v 3142.13642582 2152.20712538 260.00000000
v 3142.44329778 2186.10573640 260.00000000
v 3004.62894462 2187.35332028 260.00000000
v 3142.13642582 2152.20712538 0.00000000
v 3822.20656402 2146.05069449 0.00000000
v 3822.51343598 2179.94930551 0.00000000
v 3142.44329778 2186.10573640 0.00000000
v 3142.13642582 2152.20712538 260.00000000
v 3822.20656402 2146.05069449 260.00000000
v 3822.51343598 2179.94930551 260.00000000
v 3142.44329778 2186.10573640 260.00000000
v 1268.88000000 979.74500000 0.00000000
v 1785.80000000 979.74500000 0.00000000
v 1785.80000000 1006.25500000 0.00000000
v 1268.88000000 1006.25500000 0.00000000
v 1268.88000000 979.74500000 260.00000000
v 1785.80000000 979.74500000 260.00000000
v 1785.80000000 1006.25500000 260.00000000
v 1268.88000000 1006.25500000 260.00000000
v 1279.86148581 1468.61003945 0.00000000
v 1783.33648581 1470.11003945 0.00000000
v 1783.28351419 1487.88996055 0.00000000
v 1279.80851419 1486.38996055 0.00000000
v 1279.86148581 1468.61003945 260.00000000
v 1783.33648581 1470.11003945 260.00000000
v 1783.28351419 1487.88996055 260.00000000
v 1279.80851419 1486.38996055 260.00000000
v 1285.83423776 1477.40436355 0.00000000
v 1286.99923776 1550.48436355 0.00000000
v 1275.00076224 1550.67563645 0.00000000
v 1273.83576224 1477.59563645 0.00000000
v 1285.83423776 1477.40436355 260.00000000
v 1286.99923776 1550.48436355 260.00000000
v 1275.00076224 1550.67563645 260.00000000
v 1273.83576224 1477.59563645 260.00000000
v 2324.95000000 2160.20000000 0.00000000
v 2589.21000000 2160.20000000 0.00000000
v 2589.21000000 2189.80000000 0.00000000
v 2324.95000000 2189.80000000 0.00000000
v 2324.95000000 2160.20000000 260.00000000
v 2589.21000000 2160.20000000 260.00000000
v 2589.21000000 2189.80000000 260.00000000
v 2324.95000000 2189.80000000 260.00000000
v 2324.95000000 2169.00000000 0.00000000
v 2334.00000000 2169.00000000 0.00000000
v 2334.00000000 2181.00000000 0.00000000
v 2324.95000000 2181.00000000 0.00000000
v 2324.95000000 2169.00000000 260.00000000
v 2334.00000000 2169.00000000 260.00000000
v 2334.00000000 2181.00000000 260.00000000
v 2324.95000000 2181.00000000 260.00000000
v 3569.03499439 681.64383035 0.00000000
v 3567.82499439 2172.01383035 0.00000000
v 3533.75500561 2171.98616965 0.00000000
v 3534.96500561 681.61616965 0.00000000
v 3569.03499439 681.64383035 260.00000000
v 3567.82499439 2172.01383035 260.00000000
v 3533.75500561 2171.98616965 260.00000000
v 3534.96500561 681.61616965 260.00000000
v 799.99973281 1943.04666934 0.00000000
v 798.55220660 2150.72293374 0.00000000
v 776.55274098 2150.56959507 0.00000000
v 778.00026719 1942.89333066 0.00000000
v 799.99973281 1943.04666934 260.00000000
v 798.55220660 2150.72293374 260.00000000
v 776.55274098 2150.56959507 260.00000000
v 778.00026719 1942.89333066 260.00000000
v 2351.53000000 661.75000000 0.00000000
v 2351.53000000 2175.00000000 0.00000000
v 2316.47000000 2175.00000000 0.00000000
v 2316.47000000 661.75000000 0.00000000
v 2351.53000000 661.75000000 260.00000000
v 2351.53000000 2175.00000000 260.00000000
v 2316.47000000 2175.00000000 260.00000000
v 2316.47000000 661.75000000 260.00000000
v 2329.44170749 657.84846576 0.00000000
v 2335.44170749 650.83846576 0.00000000
v 2344.55829251 658.64153424 0.00000000
v 2338.55829251 665.65153424 0.00000000
v 2329.44170749 657.84846576 260.00000000
v 2335.44170749 650.83846576 260.00000000
v 2344.55829251 658.64153424 260.00000000
v 2338.55829251 665.65153424 260.00000000
v 1791.27500000 1136.43000000 0.00000000
v 1791.27500000 2071.45000000 0.00000000
v 1748.72500000 2071.45000000 0.00000000
v 1748.72500000 1136.43000000 0.00000000
v 1791.27500000 1136.43000000 260.00000000
v 1791.27500000 2071.45000000 260.00000000
v 1748.72500000 2071.45000000 260.00000000
v 1748.72500000 1136.43000000 260.00000000
v 3186.33000000 938.40000000 0.00000000
v 3186.33000000 1597.84000000 0.00000000
v 3167.67000000 1597.84000000 0.00000000
v 3167.67000000 938.40000000 0.00000000
v 3186.33000000 938.40000000 260.00000000
v 3186.33000000 1597.84000000 260.00000000
v 3167.67000000 1597.84000000 260.00000000
v 3167.67000000 938.40000000 260.00000000
v 3811.26000234 2186.22709224 0.00000000
v 3810.26000234 671.89709224 0.00000000
v 3831.73999766 671.88290776 0.00000000
v 3832.73999766 2186.21290776 0.00000000
v 3811.26000234 2186.22709224 260.00000000
v 3810.26000234 671.89709224 260.00000000
v 3831.73999766 671.88290776 260.00000000
v 3832.73999766 2186.21290776 260.00000000
v 3816.57496637 2188.78300802 0.00000000
v 3813.57496637 2182.43300802 0.00000000
v 3824.42503363 2177.30699198 0.00000000
v 3827.42503363 2183.65699198 0.00000000
v 3816.57496637 2188.78300802 260.00000000
v 3813.57496637 2182.43300802 260.00000000
v 3824.42503363 2177.30699198 260.00000000
v 3827.42503363 2183.65699198 260.00000000
v 3080.83500000 417.94000000 0.00000000
v 3080.83500000 676.66000000 0.00000000
v 3057.16500000 676.66000000 0.00000000
v 3057.16500000 417.94000000 0.00000000
v 3080.83500000 417.94000000 260.00000000
v 3080.83500000 676.66000000 260.00000000
v 3057.16500000 676.66000000 260.00000000
v 3057.16500000 417.94000000 260.00000000
v 1299.83500000 1169.92000000 0.00000000
v 1299.83500000 1702.88500000 0.00000000
v 1274.16500000 1702.88500000 0.00000000
v 1274.16500000 1169.92000000 0.00000000
v 1299.83500000 1169.92000000 260.00000000
v 1299.83500000 1702.88500000 260.00000000
v 1274.16500000 1702.88500000 260.00000000
v 1274.16500000 1169.92000000 260.00000000
v 1299.83500000 1702.88500000 210.00000000
v 1299.83500000 1850.42500000 210.00000000
v 1274.16500000 1850.42500000 210.00000000
v 1274.16500000 1702.88500000 210.00000000
v 1299.83500000 1702.88500000 260.00000000
v 1299.83500000 1850.42500000 260.00000000
v 1274.16500000 1850.42500000 260.00000000
v 1274.16500000 1702.88500000 260.00000000
v 1299.83500000 1850.42500000 0.00000000
v 1299.83500000 1895.27000000 0.00000000
v 1274.16500000 1895.27000000 0.00000000
v 1274.16500000 1850.42500000 0.00000000
v 1299.83500000 1850.42500000 260.00000000
v 1299.83500000 1895.27000000 260.00000000
v 1274.16500000 1895.27000000 260.00000000
v 1274.16500000 1850.42500000 260.00000000
v 312.66819788 681.21368753 0.00000000
v 310.88800901 786.74995969 0.00000000
v 285.55161324 786.32258464 0.00000000
v 287.33180212 680.78631247 0.00000000
v 312.66819788 681.21368753 260.00000000
v 310.88800901 786.74995969 260.00000000
v 285.55161324 786.32258464 260.00000000
v 287.33180212 680.78631247 260.00000000
v 310.88800901 786.74995969 0.00000000
v 304.36252829 1173.60492761 0.00000000
v 279.02613252 1173.17755255 0.00000000
v 285.55161324 786.32258464 0.00000000
v 310.88800901 786.74995969 90.00000000
v 304.36252829 1173.60492761 90.00000000
v 279.02613252 1173.17755255 90.00000000
v 285.55161324 786.32258464 90.00000000
v 310.88800901 786.74995969 210.00000000
v 304.36252829 1173.60492761 210.00000000
v 279.02613252 1173.17755255 210.00000000
v 285.55161324 786.32258464 210.00000000
v 310.88800901 786.74995969 260.00000000
v 304.36252829 1173.60492761 260.00000000
v 279.02613252 1173.17755255 260.00000000
v 285.55161324 786.32258464 260.00000000
v 304.36252829 1173.60492761 0.00000000
v 301.68611557 1332.27270966 0.00000000
v 276.34971981 1331.84533461 0.00000000
v 279.02613252 1173.17755255 0.00000000
v 304.36252829 1173.60492761 260.00000000
v 301.68611557 1332.27270966 260.00000000
v 276.34971981 1331.84533461 260.00000000
v 279.02613252 1173.17755255 260.00000000
v 301.68611557 1332.27270966 0.00000000
v 298.66767386 1511.21725389 0.00000000
v 273.33127809 1510.78987884 0.00000000
v 276.34971981 1331.84533461 0.00000000
v 301.68611557 1332.27270966 90.00000000
v 298.66767386 1511.21725389 90.00000000
v 273.33127809 1510.78987884 90.00000000
v 276.34971981 1331.84533461 90.00000000
v 301.68611557 1332.27270966 210.00000000
v 298.66767386 1511.21725389 210.00000000
v 273.33127809 1510.78987884 210.00000000
v 276.34971981 1331.84533461 210.00000000
v 301.68611557 1332.27270966 260.00000000
v 298.66767386 1511.21725389 260.00000000
v 273.33127809 1510.78987884 260.00000000
v 276.34971981 1331.84533461 260.00000000
v 298.66767386 1511.21725389 0.00000000
v 288.66819788 2104.02368753 0.00000000
v 263.33180212 2103.59631247 0.00000000
v 273.33127809 1510.78987884 0.00000000
v 298.66767386 1511.21725389 260.00000000
v 288.66819788 2104.02368753 260.00000000
v 263.33180212 2103.59631247 260.00000000
v 273.33127809 1510.78987884 260.00000000
v 2362.13000000 654.74000000 0.00000000
v 2362.13000000 2157.58000000 0.00000000
v 2317.87000000 2157.58000000 0.00000000
v 2317.87000000 654.74000000 0.00000000
v 2362.13000000 654.74000000 260.00000000
v 2362.13000000 2157.58000000 260.00000000
v 2317.87000000 2157.58000000 260.00000000
v 2317.87000000 654.74000000 260.00000000
v 1455.60000000 1182.00000000 0.00000000
v 1455.60000000 1488.34000000 0.00000000
v 1436.40000000 1488.34000000 0.00000000
v 1436.40000000 1182.00000000 0.00000000
v 1455.60000000 1182.00000000 260.00000000
v 1455.60000000 1488.34000000 260.00000000
v 1436.40000000 1488.34000000 260.00000000
v 1436.40000000 1182.00000000 260.00000000
v 1286.87236431 676.03981847 0.00000000
v 1288.80099256 767.56287224 0.00000000
v 1265.05626395 768.06323529 0.00000000
v 1263.12763569 676.54018153 0.00000000
v 1286.87236431 676.03981847 260.00000000
v 1288.80099256 767.56287224 260.00000000
v 1265.05626395 768.06323529 260.00000000
v 1263.12763569 676.54018153 260.00000000
v 1288.80099256 767.56287224 210.00000000
v 1291.61440232 901.07323260 210.00000000
v 1267.86967371 901.57359565 210.00000000
v 1265.05626395 768.06323529 210.00000000
v 1288.80099256 767.56287224 260.00000000
v 1291.61440232 901.07323260 260.00000000
v 1267.86967371 901.57359565 260.00000000
v 1265.05626395 768.06323529 260.00000000
v 1291.61440232 901.07323260 0.00000000
v 1298.87236431 1245.49981847 0.00000000
v 1275.12763569 1246.00018153 0.00000000
v 1267.86967371 901.57359565 0.00000000
v 1291.61440232 901.07323260 260.00000000
v 1298.87236431 1245.49981847 260.00000000
v 1275.12763569 1246.00018153 260.00000000
v 1267.86967371 901.57359565 260.00000000
v 3831.90957395 425.61511659 0.00000000
v 3833.90957395 671.78511659 0.00000000
v 3808.09042605 671.99488341 0.00000000
v 3806.09042605 425.82488341 0.00000000
v 3831.90957395 425.61511659 260.00000000
v 3833.90957395 671.78511659 260.00000000
v 3808.09042605 671.99488341 260.00000000
v 3806.09042605 425.82488341 260.00000000
v 3830.50000000 701.68000000 0.00000000
v 3830.50000000 2179.87000000 0.00000000
v 3807.50000000 2179.87000000 0.00000000
v 3807.50000000 701.68000000 0.00000000
v 3830.50000000 701.68000000 260.00000000
v 3830.50000000 2179.87000000 260.00000000
v 3807.50000000 2179.87000000 260.00000000
v 3807.50000000 701.68000000 260.00000000
v 1791.76000000 904.78000000 0.00000000
v 1791.76000000 1475.26500000 0.00000000
v 1754.24000000 1475.26500000 0.00000000
v 1754.24000000 904.78000000 0.00000000
v 1791.76000000 904.78000000 260.00000000
v 1791.76000000 1475.26500000 260.00000000
v 1754.24000000 1475.26500000 260.00000000
v 1754.24000000 904.78000000 260.00000000
v 1791.76000000 1475.26500000 210.00000000
v 1791.76000000 1654.29500000 210.00000000
v 1754.24000000 1654.29500000 210.00000000
v 1754.24000000 1475.26500000 210.00000000
v 1791.76000000 1475.26500000 260.00000000
v 1791.76000000 1654.29500000 260.00000000
v 1754.24000000 1654.29500000 260.00000000
v 1754.24000000 1475.26500000 260.00000000
v 1791.76000000 1654.29500000 0.00000000
v 1791.76000000 1702.44000000 0.00000000
v 1754.24000000 1702.44000000 0.00000000
v 1754.24000000 1654.29500000 0.00000000
v 1791.76000000 1654.29500000 260.00000000
v 1791.76000000 1702.44000000 260.00000000
v 1754.24000000 1702.44000000 260.00000000
v 1754.24000000 1654.29500000 260.00000000
v 1791.76000000 1702.44000000 0.00000000
v 1791.76000000 1872.31000000 0.00000000
v 1754.24000000 1872.31000000 0.00000000
v 1754.24000000 1702.44000000 0.00000000
v 1791.76000000 1702.44000000 90.00000000
v 1791.76000000 1872.31000000 90.00000000
v 1754.24000000 1872.31000000 90.00000000
v 1754.24000000 1702.44000000 90.00000000
v 1791.76000000 1702.44000000 210.00000000
v 1791.76000000 1872.31000000 210.00000000
v 1754.24000000 1872.31000000 210.00000000
v 1754.24000000 1702.44000000 210.00000000
v 1791.76000000 1702.44000000 260.00000000
v 1791.76000000 1872.31000000 260.00000000
v 1754.24000000 1872.31000000 260.00000000
v 1754.24000000 1702.44000000 260.00000000
v 1292.11000000 1550.58000000 0.00000000
v 1292.11000000 2122.62000000 0.00000000
v 1269.89000000 2122.62000000 0.00000000
v 1269.89000000 1550.58000000 0.00000000
v 1292.11000000 1550.58000000 260.00000000
v 1292.11000000 2122.62000000 260.00000000
v 1269.89000000 2122.62000000 260.00000000
v 1269.89000000 1550.58000000 260.00000000
f 1 2 3
f 1 3 4
f 5 7 6
f 5 8 7
f 1 5 6
f 1 6 2
f 2 6 7
f 2 7 3
f 3 7 8
f 3 8 4
f 4 8 5
f 4 5 1
f 9 10 11
f 9 11 12
f 13 15 14
f 13 16 15
f 9 13 14
f 9 14 10
f 10 14 15
f 10 15 11
f 11 15 16
f 11 16 12
f 12 16 13
f 12 13 9
f 17 18 19
f 17 19 20
f 21 23 22
f 21 24 23
f 17 21 22
f 17 22 18
f 18 22 23
f 18 23 19
f 19 23 24
f 19 24 20
f 20 24 21
f 20 21 17
f 25 26 27
f 25 27 28
f 29 31 30
f 29 32 31
f 25 29 30
f 25 30 26
f 26 30 31
f 26 31 27
f 27 31 32
f 27 32 28
f 28 32 29
f 28 29 25
f 33 34 35
f 33 35 36
f 37 39 38
f 37 40 39
f 33 37 38
f 33 38 34
f 34 38 39
f 34 39 35
f 35 39 40
f 35 40 36
f 36 40 37
f 36 37 33
f 41 42 43
f 41 43 44
f 45 47 46
f 45 48 47
f 41 45 46
f 41 46 42
f 42 46 47
f 42 47 43
f 43 47 48
f 43 48 44
f 44 48 45
f 44 45 41
f 49 50 51
f 49 51 52
f 53 55 54
f 53 56 55
f 49 53 54
f 49 54 50
f 50 54 55
f 50 55 51
f 51 55 56
f 51 56 52
f 52 56 53
f 52 53 49
f 57 58 59
f 57 59 60
f 61 63 62
f 61 64 63
f 57 61 62
f 57 62 58
f 58 62 63
f 58 63 59
f 59 63 64
f 59 64 60
f 60 64 61
f 60 61 57
f 65 66 67
f 65 67 68
f 69 71 70
f 69 72 71
f 65 69 70
f 65 70 66
f 66 70 71
f 66 71 67
f 67 71 72
f 67 72 68
f 68 72 69
f 68 69 65
f 73 74 75
f 73 75 76
f 77 79 78
f 77 80 79
f 73 77 78
f 73 78 74
f 74 78 79
f 74 79 75
f 75 79 80
f 75 80 76
f 76 80 77
f 76 77 73
f 81 82 83
f 81 83 84
f 85 87 86
f 85 88 87
f 81 85 86
f 81 86 82
f 82 86 87
f 82 87 83
f 83 87 88
f 83 88 84
f 84 88 85
f 84 85 81
f 89 90 91
f 89 91 92
f 93 95 94
f 93 96 95
f 89 93 94
f 89 94 90
f 90 94 95
f 90 95 91
f 91 95 96
f 91 96 92
f 92 96 93
f 92 93 89
f 97 98 99
f 97 99 100
f 101 103 102
f 101 104 103
f 97 101 102
f 97 102 98
f 98 102 103
f 98 103 99
f 99 103 104
f 99 104 100
f 100 104 101
f 100 101 97
f 105 106 107
f 105 107 108
f 109 111 110
f 109 112 111
f 105 109 110
f 105 110 106
f 106 110 111
f 106 111 107
f 107 111 112
f 107 112 108
f 108 112 109
f 108 109 105
f 113 114 115
f 113 115 116
f 117 119 118
f 117 120 119
f 113 117 118
f 113 118 114
f 114 118 119
f 114 119 115
f 115 119 120
f 115 120 116
f 116 120 117
f 116 117 113
f 121 122 123
f 121 123 124
f 125 127 126
f 125 128 127
f 121 125 126
f 121 126 122
f 122 126 127
f 122 127 123
f 123 127 128
f 123 128 124
f 124 128 125
f 124 125 121
f 129 130 131
f 129 131 132
f 133 135 134
f 133 136 135
f 129 133 134
f 129 134 130
f 130 134 135
f 130 135 131
f 131 135 136
f 131 136 132
f 132 136 133
f 132 133 129
f 137 138 139
f 137 139 140
f 141 143 142
f 141 144 143
f 137 141 142
f 137 142 138
f 138 142 143
f 138 143 139
f 139 143 144
f 139 144 140
f 140 144 141
f 140 141 137
f 145 146 147
f 145 147 148
f 149 151 150
f 149 152 151
f 145 149 150
f 145 150 146
f 146 150 151
f 146 151 147
f 147 151 152
f 147 152 148
f 148 152 149
f 148 149 145
f 153 154 155
f 153 155 156
f 157 159 158
f 157 160 159
f 153 157 158
f 153 158 154
f 154 158 159
f 154 159 155
f 155 159 160
f 155 160 156
f 156 160 157
f 156 157 153
f 161 162 163
f 161 163 164
f 165 167 166
f 165 168 167
f 161 165 166
f 161 166 162
f 162 166 167
f 162 167 163
f 163 167 168
f 163 168 164
f 164 168 165
f 164 165 161
f 169 170 171
f 169 171 172
f 173 175 174
f 173 176 175
f 169 173 174
f 169 174 170
f 170 174 175
f 170 175 171
f 171 175 176
f 171 176 172
f 172 176 173
f 172 173 169
f 177 178 179
f 177 179 180
f 181 183 182
f 181 184 183
f 177 181 182
f 177 182 178
f 178 182 183
f 178 183 179
f 179 183 184
f 179 184 180
f 180 184 181
f 180 181 177
f 185 186 187
f 185 187 188
f 189 191 190
f 189 192 191
f 185 189 190
f 185 190 186
f 186 190 191
f 186 191 187
f 187 191 192
f 187 192 188
f 188 192 189
f 188 189 185
f 193 194 195
f 193 195 196
f 197 199 198
f 197 200 199
f 193 197 198
f 193 198 194
f 194 198 199
f 194 199 195
f 195 199 200
f 195 200 196
f 196 200 197
f 196 197 193
f 201 202 203
f 201 203 204
f 205 207 206
f 205 208 207
f 201 205 206
f 201 206 202
f 202 206 207
f 202 207 203
f 203 207 208
f 203 208 204
f 204 208 205
f 204 205 201
f 209 210 211
f 209 211 212
f 213 215 214
f 213 216 215
f 209 213 214
f 209 214 210
f 210 214 215
f 210 215 211
f 211 215 216
f 211 216 212
f 212 216 213
f 212 213 209
f 217 218 219
f 217 219 220
f 221 223 222
f 221 224 223
f 217 221 222
f 217 222 218
f 218 222 223
f 218 223 219
f 219 223 224
f 219 224 220
f 220 224 221
f 220 221 217
f 225 226 227
f 225 227 228
f 229 231 230
f 229 232 231
f 225 229 230
f 225 230 226
f 226 230 231
f 226 231 227
f 227 231 232
f 227 232 228
f 228 232 229
f 228 229 225
f 233 234 235
f 233 235 236
f 237 239 238
f 237 240 239
f 233 237 238
f 233 238 234
f 234 238 239
f 234 239 235
f 235 239 240
f 235 240 236
f 236 240 237
f 236 237 233
f 241 242 243
f 241 243 244
f 245 247 246
f 245 248 247
f 241 245 246
f 241 246 242
f 242 246 247
f 242 247 243
f 243 247 248
f 243 248 244
f 244 248 245
f 244 245 241
f 249 250 251
f 249 251 252
f 253 255 254
f 253 256 255
f 249 253 254
f 249 254 250
f 250 254 255
f 250 255 251
f 251 255 256
f 251 256 252
f 252 256 253
f 252 253 249
f 257 258 259
f 257 259 260
f 261 263 262
f 261 264 263
f 257 261 262
f 257 262 258
f 258 262 263
f 258 263 259
f 259 263 264
f 259 264 260
f 260 264 261
f 260 261 257
f 265 266 267
f 265 267 268
f 269 271 270
f 269 272 271
f 265 269 270
f 265 270 266
f 266 270 271
f 266 271 267
f 267 271 272
f 267 272 268
f 268 272 269
f 268 269 265
f 273 274 275
f 273 275 276
f 277 279 278
f 277 280 279
f 273 277 278
f 273 278 274
f 274 278 279
f 274 279 275
f 275 279 280
f 275 280 276
f 276 280 277
f 276 277 273
f 281 282 283
f 281 283 284
f 285 287 286
f 285 288 287
f 281 285 286
f 281 286 282
f 282 286 287
f 282 287 283
f 283 287 288
f 283 288 284
f 284 288 285
f 284 285 281
f 289 290 291
f 289 291 292
f 293 295 294
f 293 296 295
f 289 293 294
f 289 294 290
f 290 294 295
f 290 295 291
f 291 295 296
f 291 296 292
f 292 296 293
f 292 293 289
f 297 298 299
f 297 299 300
f 301 303 302
f 301 304 303
f 297 301 302
f 297 302 298
f 298 302 303
f 298 303 299
f 299 303 304
f 299 304 300
f 300 304 301
f 300 301 297
f 305 306 307
f 305 307 308
f 309 311 310
f 309 312 311
f 305 309 310
f 305 310 306
f 306 310 311
f 306 311 307
f 307 311 312
f 307 312 308
f 308 312 309
f 308 309 305
f 313 314 315
f 313 315 316
f 317 319 318
f 317 320 319
f 313 317 318
f 313 318 314
f 314 318 319
f 314 319 315
f 315 319 320
f 315 320 316
f 316 320 317
f 316 317 313
f 321 322 323
f 321 323 324
f 325 327 326
f 325 328 327
f 321 325 326
f 321 326 322
f 322 326 327
f 322 327 323
f 323 327 328
f 323 328 324
f 324 328 325
f 324 325 321
f 329 330 331
f 329 331 332
f 333 335 334
f 333 336 335
f 329 333 334
f 329 334 330
f 330 334 335
f 330 335 331
f 331 335 336
f 331 336 332
f 332 336 333
f 332 333 329
f 337 338 339
f 337 339 340
f 341 343 342
f 341 344 343
f 337 341 342
f 337 342 338
f 338 342 343
f 338 343 339
f 339 343 344
f 339 344 340
f 340 344 341
f 340 341 337
f 345 346 347
f 345 347 348
f 349 351 350
f 349 352 351
f 345 349 350
f 345 350 346
f 346 350 351
f 346 351 347
f 347 351 352
f 347 352 348
f 348 352 349
f 348 349 345
f 353 354 355
f 353 355 356
f 357 359 358
f 357 360 359
f 353 357 358
f 353 358 354
f 354 358 359
f 354 359 355
f 355 359 360
f 355 360 356
f 356 360 357
f 356 357 353
f 361 362 363
f 361 363 364
f 365 367 366
f 365 368 367
f 361 365 366
f 361 366 362
f 362 366 367
f 362 367 363
f 363 367 368
f 363 368 364
f 364 368 365
f 364 365 361
f 369 370 371
f 369 371 372
f 373 375 374
f 373 376 375
f 369 373 374
f 369 374 370
f 370 374 375
f 370 375 371
f 371 375 376
f 371 376 372
f 372 376 373
f 372 373 369
f 377 378 379
f 377 379 380
f 381 383 382
f 381 384 383
f 377 381 382
f 377 382 378
f 378 382 383
f 378 383 379
f 379 383 384
f 379 384 380
f 380 384 381
f 380 381 377
f 385 386 387
f 385 387 388
f 389 391 390
f 389 392 391
f 385 389 390
f 385 390 386
f 386 390 391
f 386 391 387
f 387 391 392
f 387 392 388
f 388 392 389
f 388 389 385
f 393 394 395
f 393 395 396
f 397 399 398
f 397 400 399
f 393 397 398
f 393 398 394
f 394 398 399
f 394 399 395
f 395 399 400
f 395 400 396
f 396 400 397
f 396 397 393
f 401 402 403
f 401 403 404
f 405 407 406
f 405 408 407
f 401 405 406
f 401 406 402
f 402 406 407
f 402 407 403
f 403 407 408
f 403 408 404
f 404 408 405
f 404 405 401
f 409 410 411
f 409 411 412
f 413 415 414
f 413 416 415
f 409 413 414
f 409 414 410
f 410 414 415
f 410 415 411
f 411 415 416
f 411 416 412
f 412 416 413
f 412 413 409
f 417 418 419
f 417 419 420
f 421 423 422
f 421 424 423
f 417 421 422
f 417 422 418
f 418 422 423
f 418 423 419
f 419 423 424
f 419 424 420
f 420 424 421
f 420 421 417
f 425 426 427
f 425 427 428
f 429 431 430
f 429 432 431
f 425 429 430
f 425 430 426
f 426 430 431
f 426 431 427
f 427 431 432
f 427 432 428
f 428 432 429
f 428 429 425
f 433 434 435
f 433 435 436
f 437 439 438
f 437 440 439
f 433 437 438
f 433 438 434
f 434 438 439
f 434 439 435
f 435 439 440
f 435 440 436
f 436 440 437
f 436 437 433
f 441 442 443
f 441 443 444
f 445 447 446
f 445 448 447
f 441 445 446
f 441 446 442
f 442 446 447
f 442 447 443
f 443 447 448
f 443 448 444
f 444 448 445
f 444 445 441
f 449 450 451
f 449 451 452
f 453 455 454
f 453 456 455
f 449 453 454
f 449 454 450
f 450 454 455
f 450 455 451
f 451 455 456
f 451 456 452
f 452 456 453
f 452 453 449
f 457 458 459
f 457 459 460
f 461 463 462
f 461 464 463
f 457 461 462
f 457 462 458
f 458 462 463
f 458 463 459
f 459 463 464
f 459 464 460
f 460 464 461
f 460 461 457
f 465 466 467
f 465 467 468
f 469 471 470
f 469 472 471
f 465 469 470
f 465 470 466
f 466 470 471
f 466 471 467
f 467 471 472
f 467 472 468
f 468 472 469
f 468 469 465
f 473 474 475
f 473 475 476
f 477 479 478
f 477 480 479
f 473 477 478
f 473 478 474
f 474 478 479
f 474 479 475
f 475 479 480
f 475 480 476
f 476 480 477
f 476 477 473
f 481 482 483
f 481 483 484
f 485 487 486
f 485 488 487
f 481 485 486
f 481 486 482
f 482 486 487
f 482 487 483
f 483 487 488
f 483 488 484
f 484 488 485
f 484 485 481
f 489 490 491
f 489 491 492
f 493 495 494
f 493 496 495
f 489 493 494
f 489 494 490
f 490 494 495
f 490 495 491
f 491 495 496
f 491 496 492
f 492 496 493
f 492 493 489
f 497 498 499
f 497 499 500
f 501 503 502
f 501 504 503
f 497 501 502
f 497 502 498
f 498 502 503
f 498 503 499
f 499 503 504
f 499 504 500
f 500 504 501
f 500 501 497
f 505 506 507
f 505 507 508
f 509 511 510
f 509 512 511
f 505 509 510
f 505 510 506
f 506 510 511
f 506 511 507
f 507 511 512
f 507 512 508
f 508 512 509
f 508 509 505
f 513 514 515
f 513 515 516
f 517 519 518
f 517 520 519
f 513 517 518
f 513 518 514
f 514 518 519
f 514 519 515
f 515 519 520
f 515 520 516
f 516 520 517
f 516 517 513
f 521 522 523
f 521 523 524
f 525 527 526
f 525 528 527
f 521 525 526
f 521 526 522
f 522 526 527
f 522 527 523
f 523 527 528
f 523 528 524
f 524 528 525
f 524 525 521
f 529 530 531
f 529 531 532
f 533 535 534
f 533 536 535
f 529 533 534
f 529 534 530
f 530 534 535
f 530 535 531
f 531 535 536
f 531 536 532
f 532 536 533
f 532 533 529
f 537 538 539
f 537 539 540
f 541 543 542
f 541 544 543
f 537 541 542
f 537 542 538
f 538 542 543
f 538 543 539
f 539 543 544
f 539 544 540
f 540 544 541
f 540 541 537
f 545 546 547
f 545 547 548
f 549 551 550
f 549 552 551
f 545 549 550
f 545 550 546
f 546 550 551
f 546 551 547
f 547 551 552
f 547 552 548
f 548 552 549
f 548 549 545
f 553 554 555
f 553 555 556
f 557 559 558
f 557 560 559
f 553 557 558
f 553 558 554
f 554 558 559
f 554 559 555
f 555 559 560
f 555 560 556
f 556 560 557
f 556 557 553
f 561 562 563
f 561 563 564
f 565 567 566
f 565 568 567
f 561 565 566
f 561 566 562
f 562 566 567
f 562 567 563
f 563 567 568
f 563 568 564
f 564 568 565
f 564 565 561
f 569 570 571
f 569 571 572
f 573 575 574
f 573 576 575
f 569 573 574
f 569 574 570
f 570 574 575
f 570 575 571
f 571 575 576
f 571 576 572
f 572 576 573
f 572 573 569
f 577 578 579
f 577 579 580
f 581 583 582
f 581 584 583
f 577 581 582
f 577 582 578
f 578 582 583
f 578 583 579
f 579 583 584
f 579 584 580
f 580 584 581
f 580 581 577
f 585 586 587
f 585 587 588
f 589 591 590
f 589 592 591
f 585 589 590
f 585 590 586
f 586 590 591
f 586 591 587
f 587 591 592
f 587 592 588
f 588 592 589
f 588 589 585
f 593 594 595
f 593 595 596
f 597 599 598
f 597 600 599
f 593 597 598
f 593 598 594
f 594 598 599
f 594 599 595
f 595 599 600
f 595 600 596
f 596 600 597
f 596 597 593
f 601 602 603
f 601 603 604
f 605 607 606
f 605 608 607
f 601 605 606
f 601 606 602
f 602 606 607
f 602 607 603
f 603 607 608
f 603 608 604
f 604 608 605
f 604 605 601
f 609 610 611
f 609 611 612
f 613 615 614
f 613 616 615
f 609 613 614
f 609 614 610
f 610 614 615
f 610 615 611
f 611 615 616
f 611 616 612
f 612 616 613
f 612 613 609
f 617 618 619
f 617 619 620
f 621 623 622
f 621 624 623
f 617 621 622
f 617 622 618
f 618 622 623
f 618 623 619
f 619 623 624
f 619 624 620
f 620 624 621
f 620 621 617
f 625 626 627
f 625 627 628
f 629 631 630
f 629 632 631
f 625 629 630
f 625 630 626
f 626 630 631
f 626 631 627
f 627 631 632
f 627 632 628
f 628 632 629
f 628 629 625
f 633 634 635
f 633 635 636
f 637 639 638
f 637 640 639
f 633 637 638
f 633 638 634
f 634 638 639
f 634 639 635
f 635 639 640
f 635 640 636
f 636 640 637
f 636 637 633
f 641 642 643
f 641 643 644
f 645 647 646
f 645 648 647
f 641 645 646
f 641 646 642
f 642 646 647
f 642 647 643
f 643 647 648
f 643 648 644
f 644 648 645
f 644 645 641
f 649 650 651
f 649 651 652
f 653 655 654
f 653 656 655
f 649 653 654
f 649 654 650
f 650 654 655
f 650 655 651
f 651 655 656
f 651 656 652
f 652 656 653
f 652 653 649
f 657 658 659
f 657 659 660
f 661 663 662
f 661 664 663
f 657 661 662
f 657 662 658
f 658 662 663
f 658 663 659
f 659 663 664
f 659 664 660
f 660 664 661
f 660 661 657
f 665 666 667
f 665 667 668
f 669 671 670
f 669 672 671
f 665 669 670
f 665 670 666
f 666 670 671
f 666 671 667
f 667 671 672
f 667 672 668
f 668 672 669
f 668 669 665
f 673 674 675
f 673 675 676
f 677 679 678
f 677 680 679
f 673 677 678
f 673 678 674
f 674 678 679
f 674 679 675
f 675 679 680
f 675 680 676
f 676 680 677
f 676 677 673
f 681 682 683
f 681 683 684
f 685 687 686
f 685 688 687
f 681 685 686
f 681 686 682
f 682 686 687
f 682 687 683
f 683 687 688
f 683 688 684
f 684 688 685
f 684 685 681
f 689 690 691
f 689 691 692
f 693 695 694
f 693 696 695
f 689 693 694
f 689 694 690
f 690 694 695
f 690 695 691
f 691 695 696
f 691 696 692
f 692 696 693
f 692 693 689
f 697 698 699
f 697 699 700
f 701 703 702
f 701 704 703
f 697 701 702
f 697 702 698
f 698 702 703
f 698 703 699
f 699 703 704
f 699 704 700
f 700 704 701
f 700 701 697
f 705 706 707
f 705 707 708
f 709 711 710
f 709 712 711
f 705 709 710
f 705 710 706
f 706 710 711
f 706 711 707
f 707 711 712
f 707 712 708
f 708 712 709
f 708 709 705
f 713 714 715
f 713 715 716
f 717 719 718
f 717 720 719
f 713 717 718
f 713 718 714
f 714 718 719
f 714 719 715
f 715 719 720
f 715 720 716
f 716 720 717
f 716 717 713
f 721 722 723
f 721 723 724
f 725 727 726
f 725 728 727
f 721 725 726
f 721 726 722
f 722 726 727
f 722 727 723
f 723 727 728
f 723 728 724
f 724 728 725
f 724 725 721
f 729 730 731
f 729 731 732
f 733 735 734
f 733 736 735
f 729 733 734
f 729 734 730
f 730 734 735
f 730 735 731
f 731 735 736
f 731 736 732
f 732 736 733
f 732 733 729
f 737 738 739
f 737 739 740
f 741 743 742
f 741 744 743
f 737 741 742
f 737 742 738
f 738 742 743
f 738 743 739
f 739 743 744
f 739 744 740
f 740 744 741
f 740 741 737
f 745 746 747
f 745 747 748
f 749 751 750
f 749 752 751
f 745 749 750
f 745 750 746
f 746 750 751
f 746 751 747
f 747 751 752
f 747 752 748
f 748 752 749
f 748 749 745
f 753 754 755
f 753 755 756
f 757 759 758
f 757 760 759
f 753 757 758
f 753 758 754
f 754 758 759
f 754 759 755
f 755 759 760
f 755 760 756
f 756 760 757
f 756 757 753
f 761 762 763
f 761 763 764
f 765 767 766
f 765 768 767
f 761 765 766
f 761 766 762
f 762 766 767
f 762 767 763
f 763 767 768
f 763 768 764
f 764 768 765
f 764 765 761
f 769 770 771
f 769 771 772
f 773 775 774
f 773 776 775
f 769 773 774
f 769 774 770
f 770 774 775
f 770 775 771
f 771 775 776
f 771 776 772
f 772 776 773
f 772 773 769
f 777 778 779
f 777 779 780
f 781 783 782
f 781 784 783
f 777 781 782
f 777 782 778
f 778 782 783
f 778 783 779
f 779 783 784
f 779 784 780
f 780 784 781
f 780 781 777
f 785 786 787
f 785 787 788
f 789 791 790
f 789 792 791
f 785 789 790
f 785 790 786
f 786 790 791
f 786 791 787
f 787 791 792
f 787 792 788
f 788 792 789
f 788 789 785

