# https://github.com/mikedh/trimesh
v 310.10000000 1581.27000000 0.00000000
v 310.10000000 697.63000000 0.00000000
v 1269.80000000 697.63000000 0.00000000
v 310.10000000 1581.27000000 0.00000000
v 1269.80000000 697.63000000 0.00000000
v 1269.80000000 1581.27000000 0.00000000
v 307.18000000 1681.30000000 0.00000000
v 307.18000000 122.52000000 0.00000000
v 2217.13000000 122.52000000 0.00000000
v 307.18000000 1681.30000000 0.00000000
v 2217.13000000 122.52000000 0.00000000
v 2217.13000000 1681.30000000 0.00000000
v 1287.70000000 2153.68000000 0.00000000
v 1287.70000000 1681.63000000 0.00000000
v 1765.13000000 1681.63000000 0.00000000
v 1287.70000000 2153.68000000 0.00000000
v 1765.13000000 1681.63000000 0.00000000
v 1765.13000000 2153.68000000 0.00000000
v 1295.56000000 1464.99000000 0.00000000
v 1295.56000000 1190.16000000 0.00000000
v 1751.82000000 1190.16000000 0.00000000
v 1295.56000000 1464.99000000 0.00000000
v 1751.82000000 1190.16000000 0.00000000
v 1751.82000000 1464.99000000 0.00000000
v 1296.75000000 1659.11000000 0.00000000
v 1296.75000000 1483.21000000 0.00000000
v 1753.18000000 1483.21000000 0.00000000
v 1296.75000000 1659.11000000 0.00000000
v 1753.18000000 1483.21000000 0.00000000
v 1753.18000000 1659.11000000 0.00000000
v 793.95000000 2155.89000000 0.00000000
v 793.95000000 1956.24000000 0.00000000
v 1024.60000000 1956.24000000 0.00000000
v 793.95000000 2155.89000000 0.00000000
v 1024.60000000 1956.24000000 0.00000000
v 1024.60000000 2155.89000000 0.00000000
v 2351.75000000 2161.58000000 0.00000000
v 2351.75000000 692.89000000 0.00000000
v 3554.60000000 692.89000000 0.00000000
v 2351.75000000 2161.58000000 0.00000000
v 3554.60000000 692.89000000 0.00000000
v 3554.60000000 2161.58000000 0.00000000
v 1286.80000000 977.67000000 0.00000000
v 1286.80000000 697.40000000 0.00000000
v 1745.11000000 697.40000000 0.00000000
v 1286.80000000 977.67000000 0.00000000
v 1745.11000000 697.40000000 0.00000000
v 1745.11000000 977.67000000 0.00000000
v 3074.93000000 661.04000000 0.00000000
v 3074.93000000 434.55000000 0.00000000
v 3801.31000000 434.55000000 0.00000000
v 3074.93000000 661.04000000 0.00000000
v 3801.31000000 434.55000000 0.00000000
v 3801.31000000 661.04000000 0.00000000
v 1025.33000000 660.11000000 0.00000000
v 1025.33000000 411.36000000 0.00000000
v 1765.24000000 411.36000000 0.00000000
v 1025.33000000 660.11000000 0.00000000
v 1765.24000000 411.36000000 0.00000000
v 1765.24000000 660.11000000 0.00000000
v 1036.96000000 2151.78000000 0.00000000
v 1036.96000000 1953.35000000 0.00000000
v 1271.44000000 1953.35000000 0.00000000
v 1036.96000000 2151.78000000 0.00000000
v 1271.44000000 1953.35000000 0.00000000
v 1271.44000000 2151.78000000 0.00000000
v 1285.20000000 1171.85000000 0.00000000
v 1285.20000000 993.46000000 0.00000000
v 1758.35000000 993.46000000 0.00000000
v 1285.20000000 1171.85000000 0.00000000
v 1758.35000000 993.46000000 0.00000000
v 1758.35000000 1171.85000000 0.00000000
v 309.08000000 2162.45000000 0.00000000
v 309.08000000 1601.05000000 0.00000000
v 783.87000000 1601.05000000 0.00000000
v 309.08000000 2162.45000000 0.00000000
v 783.87000000 1601.05000000 0.00000000
v 783.87000000 2162.45000000 0.00000000
v 782.18000000 1942.13000000 0.00000000
v 782.18000000 1580.14000000 0.00000000
v 1269.04000000 1580.14000000 0.00000000
v 782.18000000 1942.13000000 0.00000000
v 1269.04000000 1580.14000000 0.00000000
v 1269.04000000 1942.13000000 0.00000000
v 796.66000000 2364.94000000 0.00000000
v 796.66000000 2182.36000000 0.00000000
v 1281.32000000 2182.36000000 0.00000000
v 796.66000000 2364.94000000 0.00000000
v 1281.32000000 2182.36000000 0.00000000
v 1281.32000000 2364.94000000 0.00000000
v 1791.86000000 1667.93000000 0.00000000
v 1791.86000000 1000.92000000 0.00000000
v 2192.80000000 1000.92000000 0.00000000
v 1791.86000000 1667.93000000 0.00000000
v 2192.80000000 1000.92000000 0.00000000
v 2192.80000000 1667.93000000 0.00000000
v 3566.79000000 2176.93000000 0.00000000
v 3566.79000000 694.80000000 0.00000000
v 3814.05000000 694.80000000 0.00000000
v 3566.79000000 2176.93000000 0.00000000
v 3814.05000000 694.80000000 0.00000000
v 3814.05000000 2176.93000000 0.00000000
v 310.95000000 2167.48000000 0.00000000
v 310.95000000 1570.45000000 0.00000000
v 1270.54000000 1570.45000000 0.00000000
v 310.95000000 2167.48000000 0.00000000
v 1270.54000000 1570.45000000 0.00000000
v 1270.54000000 2167.48000000 0.00000000
v 1286.58000000 1178.56000000 0.00000000
v 1286.58000000 991.64000000 0.00000000
v 1533.45000000 991.64000000 0.00000000
v 1286.58000000 1178.56000000 0.00000000
v 1533.45000000 991.64000000 0.00000000
v 1533.45000000 1178.56000000 0.00000000
v 1286.28000000 1486.31000000 0.00000000
v 1286.28000000 1187.52000000 0.00000000
v 1434.96000000 1187.52000000 0.00000000
v 1286.28000000 1486.31000000 0.00000000
v 1434.96000000 1187.52000000 0.00000000
v 1434.96000000 1486.31000000 0.00000000
v 303.48000000 658.44000000 0.00000000
v 303.48000000 134.09000000 0.00000000
v 1774.73000000 658.44000000 0.00000000
v 1774.73000000 658.44000000 0.00000000
v 303.48000000 134.09000000 0.00000000
v 1774.73000000 134.09000000 0.00000000
v 298.33000000 824.07000000 0.00000000
v 298.33000000 127.97000000 0.00000000
v 2230.02000000 127.97000000 0.00000000
v 298.33000000 824.07000000 0.00000000
v 2230.02000000 127.97000000 0.00000000
v 2230.02000000 824.07000000 0.00000000
f 1 2 3
f 4 5 6
f 7 8 9
f 10 11 12
f 13 14 15
f 16 17 18
f 19 20 21
f 22 23 24
f 25 26 27
f 28 29 30
f 31 32 33
f 34 35 36
f 37 38 39
f 40 41 42
f 43 44 45
f 46 47 48
f 49 50 51
f 52 53 54
f 55 56 57
f 58 59 60
f 61 62 63
f 64 65 66
f 67 68 69
f 70 71 72
f 73 74 75
f 76 77 78
f 79 80 81
f 82 83 84
f 85 86 87
f 88 89 90
f 91 92 93
f 94 95 96
f 97 98 99
f 100 101 102
f 103 104 105
f 106 107 108
f 109 110 111
f 112 113 114
f 115 116 117
f 118 119 120
f 121 122 123
f 124 125 126
f 127 128 129
f 130 131 132

