# https://github.com/mikedh/trimesh
v 1188.62000000 1283.41500000 0.00000000
v 1513.47000000 1283.41500000 0.00000000
v 1513.47000000 1308.58500000 0.00000000
v 1188.62000000 1308.58500000 0.00000000
v 1188.62000000 1283.41500000 260.00000000
v 1513.47000000 1283.41500000 260.00000000
v 1513.47000000 1308.58500000 260.00000000
v 1188.62000000 1308.58500000 260.00000000
v 1193.51452815 1292.52961181 0.00000000
v 1204.89452815 1308.57961181 0.00000000
v 1195.10547185 1315.52038819 0.00000000
v 1183.72547185 1299.47038819 0.00000000
v 1193.51452815 1292.52961181 260.00000000
v 1204.89452815 1308.57961181 260.00000000
v 1195.10547185 1315.52038819 260.00000000
v 1183.72547185 1299.47038819 260.00000000
v 1509.76581574 1300.72006557 0.00000000
v 1492.29581574 1287.01006557 0.00000000
v 1499.70418426 1277.56993443 0.00000000
v 1517.17418426 1291.27993443 0.00000000
v 1509.76581574 1300.72006557 260.00000000
v 1492.29581574 1287.01006557 260.00000000
v 1499.70418426 1277.56993443 260.00000000
v 1517.17418426 1291.27993443 260.00000000
v 807.80000000 1028.48500000 0.00000000
v 834.36000000 1028.48500000 0.00000000
v 834.36000000 1051.51500000 0.00000000
v 807.80000000 1051.51500000 0.00000000
v 807.80000000 1028.48500000 260.00000000
v 834.36000000 1028.48500000 260.00000000
v 834.36000000 1051.51500000 260.00000000
v 807.80000000 1051.51500000 260.00000000
v 834.36000000 1028.48500000 210.00000000
v 923.99000000 1028.48500000 210.00000000
v 923.99000000 1051.51500000 210.00000000
v 834.36000000 1051.51500000 210.00000000
v 834.36000000 1028.48500000 260.00000000
v 923.99000000 1028.48500000 260.00000000
v 923.99000000 1051.51500000 260.00000000
v 834.36000000 1051.51500000 260.00000000
v 923.99000000 1028.48500000 0.00000000
v 1209.66000000 1028.48500000 0.00000000
v 1209.66000000 1051.51500000 0.00000000
v 923.99000000 1051.51500000 0.00000000
v 923.99000000 1028.48500000 260.00000000
v 1209.66000000 1028.48500000 260.00000000
v 1209.66000000 1051.51500000 260.00000000
v 923.99000000 1051.51500000 260.00000000
v 810.63622631 1034.71267362 0.00000000
v 826.83622631 1043.40267362 0.00000000
v 821.16377369 1053.97732638 0.00000000
v 804.96377369 1045.28732638 0.00000000
v 810.63622631 1034.71267362 260.00000000
v 826.83622631 1043.40267362 260.00000000
v 821.16377369 1053.97732638 260.00000000
v 804.96377369 1045.28732638 260.00000000
v 197.83400769 364.86008692 0.00000000
v 823.07900769 367.33008692 0.00000000
v 822.99099231 389.60991308 0.00000000
v 197.74599231 387.13991308 0.00000000
v 197.83400769 364.86008692 260.00000000
v 823.07900769 367.33008692 260.00000000
v 822.99099231 389.60991308 260.00000000
v 197.74599231 387.13991308 260.00000000
v 194.76518166 370.81825570 0.00000000
v 212.97518166 360.18825570 0.00000000
v 219.02481834 370.55174430 0.00000000
v 200.81481834 381.18174430 0.00000000
v 194.76518166 370.81825570 260.00000000
v 212.97518166 360.18825570 260.00000000
v 219.02481834 370.55174430 260.00000000
v 200.81481834 381.18174430 260.00000000
v 229.20000000 643.65000000 0.00000000
v 824.37000000 643.65000000 0.00000000
v 824.37000000 668.35000000 0.00000000
v 229.20000000 668.35000000 0.00000000
v 229.20000000 643.65000000 260.00000000
v 824.37000000 643.65000000 260.00000000
v 824.37000000 668.35000000 260.00000000
v 229.20000000 668.35000000 260.00000000
v 234.14342461 659.40037545 0.00000000
v 220.94342461 678.59037545 0.00000000
v 211.05657539 671.78962455 0.00000000
v 224.25657539 652.59962455 0.00000000
v 234.14342461 659.40037545 260.00000000
v 220.94342461 678.59037545 260.00000000
v 211.05657539 671.78962455 260.00000000
v 224.25657539 652.59962455 260.00000000
v 661.22000000 554.53500000 0.00000000
v 688.92000000 554.53500000 0.00000000
v 688.92000000 565.46500000 0.00000000
v 661.22000000 565.46500000 0.00000000
v 661.22000000 554.53500000 260.00000000
v 688.92000000 554.53500000 260.00000000
v 688.92000000 565.46500000 260.00000000
v 661.22000000 565.46500000 260.00000000
v 688.92000000 554.53500000 210.00000000
v 746.87000000 554.53500000 210.00000000
v 746.87000000 565.46500000 210.00000000
v 688.92000000 565.46500000 210.00000000
v 688.92000000 554.53500000 260.00000000
v 746.87000000 554.53500000 260.00000000
v 746.87000000 565.46500000 260.00000000
v 688.92000000 565.46500000 260.00000000
v 746.87000000 554.53500000 0.00000000
v 828.16000000 554.53500000 0.00000000
v 828.16000000 565.46500000 0.00000000
v 746.87000000 565.46500000 0.00000000
v 746.87000000 554.53500000 260.00000000
v 828.16000000 554.53500000 260.00000000
v 828.16000000 565.46500000 260.00000000
v 746.87000000 565.46500000 260.00000000
v 666.92339054 558.13684774 0.00000000
v 669.70339054 566.64684774 0.00000000
v 658.29660946 570.37315226 0.00000000
v 655.51660946 561.86315226 0.00000000
v 666.92339054 558.13684774 260.00000000
v 669.70339054 566.64684774 260.00000000
v 658.29660946 570.37315226 260.00000000
v 655.51660946 561.86315226 260.00000000
v 661.96000000 65.41500000 0.00000000
v 801.94000000 65.41500000 0.00000000
v 801.94000000 78.58500000 0.00000000
v 661.96000000 78.58500000 0.00000000
v 661.96000000 65.41500000 260.00000000
v 801.94000000 65.41500000 260.00000000
v 801.94000000 78.58500000 260.00000000
v 661.96000000 78.58500000 260.00000000
v 798.51854494 67.07114158 0.00000000
v 812.57854494 57.31114158 0.00000000
v 819.42145506 67.16885842 0.00000000
v 805.36145506 76.92885842 0.00000000
v 798.51854494 67.07114158 260.00000000
v 812.57854494 57.31114158 260.00000000
v 819.42145506 67.16885842 260.00000000
v 805.36145506 76.92885842 260.00000000
v 867.80000000 61.50000000 0.00000000
v 938.63000000 61.50000000 0.00000000
v 938.63000000 82.50000000 0.00000000
v 867.80000000 82.50000000 0.00000000
v 867.80000000 61.50000000 90.00000000
v 938.63000000 61.50000000 90.00000000
v 938.63000000 82.50000000 90.00000000
v 867.80000000 82.50000000 90.00000000
v 867.80000000 61.50000000 210.00000000
v 938.63000000 61.50000000 210.00000000
v 938.63000000 82.50000000 210.00000000
v 867.80000000 82.50000000 210.00000000
v 867.80000000 61.50000000 260.00000000
v 938.63000000 61.50000000 260.00000000
v 938.63000000 82.50000000 260.00000000
v 867.80000000 82.50000000 260.00000000
v 938.63000000 61.50000000 0.00000000
v 1204.70000000 61.50000000 0.00000000
v 1204.70000000 82.50000000 0.00000000
v 938.63000000 82.50000000 0.00000000
v 938.63000000 61.50000000 260.00000000
v 1204.70000000 61.50000000 260.00000000
v 1204.70000000 82.50000000 260.00000000
v 938.63000000 82.50000000 260.00000000
v 1204.70000000 61.50000000 0.00000000
v 1389.04000000 61.50000000 0.00000000
v 1389.04000000 82.50000000 0.00000000
v 1204.70000000 82.50000000 0.00000000
v 1204.70000000 61.50000000 90.00000000
v 1389.04000000 61.50000000 90.00000000
v 1389.04000000 82.50000000 90.00000000
v 1204.70000000 82.50000000 90.00000000
v 1204.70000000 61.50000000 210.00000000
v 1389.04000000 61.50000000 210.00000000
v 1389.04000000 82.50000000 210.00000000
v 1204.70000000 82.50000000 210.00000000
v 1204.70000000 61.50000000 260.00000000
v 1389.04000000 61.50000000 260.00000000
v 1389.04000000 82.50000000 260.00000000
v 1204.70000000 82.50000000 260.00000000
v 1389.04000000 61.50000000 0.00000000
v 1452.46000000 61.50000000 0.00000000
v 1452.46000000 82.50000000 0.00000000
v 1389.04000000 82.50000000 0.00000000
v 1389.04000000 61.50000000 260.00000000
v 1452.46000000 61.50000000 260.00000000
v 1452.46000000 82.50000000 260.00000000
v 1389.04000000 82.50000000 260.00000000
v 866.68904606 77.89625146 0.00000000
v 814.88904606 68.13625146 0.00000000
v 817.11095394 56.34374854 0.00000000
v 868.91095394 66.10374854 0.00000000
v 866.68904606 77.89625146 260.00000000
v 814.88904606 68.13625146 260.00000000
v 817.11095394 56.34374854 260.00000000
v 868.91095394 66.10374854 260.00000000
v 1450.99912616 66.18056295 0.00000000
v 1494.53912616 55.25056295 0.00000000
v 1497.46087384 66.88943705 0.00000000
v 1453.92087384 77.81943705 0.00000000
v 1450.99912616 66.18056295 260.00000000
v 1494.53912616 55.25056295 260.00000000
v 1497.46087384 66.88943705 260.00000000
v 1453.92087384 77.81943705 260.00000000
v 922.98000000 657.16000000 0.00000000
v 994.04000000 657.16000000 0.00000000
v 994.04000000 702.84000000 0.00000000
v 922.98000000 702.84000000 0.00000000
v 922.98000000 657.16000000 260.00000000
v 994.04000000 657.16000000 260.00000000
v 994.04000000 702.84000000 260.00000000
v 922.98000000 702.84000000 260.00000000
v 919.96591450 674.81200534 0.00000000
v 947.50591450 658.81200534 0.00000000
v 953.53408550 669.18799466 0.00000000
v 925.99408550 685.18799466 0.00000000
v 919.96591450 674.81200534 260.00000000
v 947.50591450 658.81200534 260.00000000
v 953.53408550 669.18799466 260.00000000
v 925.99408550 685.18799466 260.00000000
v 988.07121786 680.61126082 0.00000000
v 986.03121786 660.69126082 0.00000000
v 997.96878214 659.46873918 0.00000000
v 1000.00878214 679.38873918 0.00000000
v 988.07121786 680.61126082 260.00000000
v 986.03121786 660.69126082 260.00000000
v 997.96878214 659.46873918 260.00000000
v 1000.00878214 679.38873918 260.00000000
v 950.52000000 657.75500000 0.00000000
v 1205.08000000 657.75500000 0.00000000
v 1205.08000000 670.24500000 0.00000000
v 950.52000000 670.24500000 0.00000000
v 950.52000000 657.75500000 260.00000000
v 1205.08000000 657.75500000 260.00000000
v 1205.08000000 670.24500000 260.00000000
v 950.52000000 670.24500000 260.00000000
v 1200.25319409 667.56397878 0.00000000
v 1195.17319409 660.68397878 0.00000000
v 1204.82680591 653.55602122 0.00000000
v 1209.90680591 660.43602122 0.00000000
v 1200.25319409 667.56397878 260.00000000
v 1195.17319409 660.68397878 260.00000000
v 1204.82680591 653.55602122 260.00000000
v 1209.90680591 660.43602122 260.00000000
v 1193.52000000 504.84500000 0.00000000
v 1504.94000000 504.84500000 0.00000000
v 1504.94000000 519.15500000 0.00000000
v 1193.52000000 519.15500000 0.00000000
v 1193.52000000 504.84500000 260.00000000
v 1504.94000000 504.84500000 260.00000000
v 1504.94000000 519.15500000 260.00000000
v 1193.52000000 519.15500000 260.00000000
v 1196.20990082 506.63675159 0.00000000
v 1202.68990082 509.88675159 0.00000000
v 1197.31009918 520.61324841 0.00000000
v 1190.83009918 517.36324841 0.00000000
v 1196.20990082 506.63675159 260.00000000
v 1202.68990082 509.88675159 260.00000000
v 1197.31009918 520.61324841 260.00000000
v 1190.83009918 517.36324841 260.00000000
v 1498.95215515 512.38172511 0.00000000
v 1498.44215515 504.38172511 0.00000000
v 1510.41784485 503.61827489 0.00000000
v 1510.92784485 511.61827489 0.00000000
v 1498.95215515 512.38172511 260.00000000
v 1498.44215515 504.38172511 260.00000000
v 1510.41784485 503.61827489 260.00000000
v 1510.92784485 511.61827489 260.00000000
v 987.30000000 816.64000000 0.00000000
v 1209.10000000 816.64000000 0.00000000
v 1209.10000000 831.36000000 0.00000000
v 987.30000000 831.36000000 0.00000000
v 987.30000000 816.64000000 260.00000000
v 1209.10000000 816.64000000 260.00000000
v 1209.10000000 831.36000000 260.00000000
v 987.30000000 831.36000000 260.00000000
v 1207.80459637 829.85849208 0.00000000
v 1182.70459637 824.30849208 0.00000000
v 1185.29540363 812.59150792 0.00000000
v 1210.39540363 818.14150792 0.00000000
v 1207.80459637 829.85849208 260.00000000
v 1182.70459637 824.30849208 260.00000000
v 1185.29540363 812.59150792 260.00000000
v 1210.39540363 818.14150792 260.00000000
v 984.86000000 922.43500000 0.00000000
v 1040.85500000 922.43500000 0.00000000
v 1040.85500000 933.56500000 0.00000000
v 984.86000000 933.56500000 0.00000000
v 984.86000000 922.43500000 260.00000000
v 1040.85500000 922.43500000 260.00000000
v 1040.85500000 933.56500000 260.00000000
v 984.86000000 933.56500000 260.00000000
v 1040.85500000 922.43500000 210.00000000
v 1100.42500000 922.43500000 210.00000000
v 1100.42500000 933.56500000 210.00000000
v 1040.85500000 933.56500000 210.00000000
v 1040.85500000 922.43500000 260.00000000
v 1100.42500000 922.43500000 260.00000000
v 1100.42500000 933.56500000 260.00000000
v 1040.85500000 933.56500000 260.00000000
v 1100.42500000 922.43500000 0.00000000
v 1510.19000000 922.43500000 0.00000000
v 1510.19000000 933.56500000 0.00000000
v 1100.42500000 933.56500000 0.00000000
v 1100.42500000 922.43500000 260.00000000
v 1510.19000000 922.43500000 260.00000000
v 1510.19000000 933.56500000 260.00000000
v 1100.42500000 933.56500000 260.00000000
v 985.27914161 922.01465788 0.00000000
v 992.41914161 922.51465788 0.00000000
v 991.58085839 934.48534212 0.00000000
v 984.44085839 933.98534212 0.00000000
v 985.27914161 922.01465788 260.00000000
v 992.41914161 922.51465788 260.00000000
v 991.58085839 934.48534212 260.00000000
v 984.44085839 933.98534212 260.00000000
v 1504.21482477 927.45476526 0.00000000
v 1504.94482477 919.45476526 0.00000000
v 1516.89517523 920.54523474 0.00000000
v 1516.16517523 928.54523474 0.00000000
v 1504.21482477 927.45476526 260.00000000
v 1504.94482477 919.45476526 260.00000000
v 1516.89517523 920.54523474 260.00000000
v 1516.16517523 928.54523474 260.00000000
v 1126.74000000 914.12000000 0.00000000
v 1510.92000000 914.12000000 0.00000000
v 1510.92000000 925.88000000 0.00000000
v 1126.74000000 925.88000000 0.00000000
v 1126.74000000 914.12000000 260.00000000
v 1510.92000000 914.12000000 260.00000000
v 1510.92000000 925.88000000 260.00000000
v 1126.74000000 925.88000000 260.00000000
v 1127.22668992 914.01977150 0.00000000
v 1184.48668992 918.67977150 0.00000000
v 1183.51331008 930.64022850 0.00000000
v 1126.25331008 925.98022850 0.00000000
v 1127.22668992 914.01977150 260.00000000
v 1184.48668992 918.67977150 260.00000000
v 1183.51331008 930.64022850 260.00000000
v 1126.25331008 925.98022850 260.00000000
v 1202.06000000 496.03500000 0.00000000
v 1210.94000000 496.03500000 0.00000000
v 1210.94000000 511.96500000 0.00000000
v 1202.06000000 511.96500000 0.00000000
v 1202.06000000 496.03500000 260.00000000
v 1210.94000000 496.03500000 260.00000000
v 1210.94000000 511.96500000 260.00000000
v 1202.06000000 511.96500000 260.00000000
v 1210.94000000 496.03500000 210.00000000
v 1286.67000000 496.03500000 210.00000000
v 1286.67000000 511.96500000 210.00000000
v 1210.94000000 511.96500000 210.00000000
v 1210.94000000 496.03500000 260.00000000
v 1286.67000000 496.03500000 260.00000000
v 1286.67000000 511.96500000 260.00000000
v 1210.94000000 511.96500000 260.00000000
v 1286.67000000 496.03500000 0.00000000
v 1504.43000000 496.03500000 0.00000000
v 1504.43000000 511.96500000 0.00000000
v 1286.67000000 511.96500000 0.00000000
v 1286.67000000 496.03500000 260.00000000
v 1504.43000000 496.03500000 260.00000000
v 1504.43000000 511.96500000 260.00000000
v 1286.67000000 511.96500000 260.00000000
v 835.41998716 378.45216778 0.00000000
v 835.68344506 561.43118760 0.00000000
v 810.91347074 561.46685204 0.00000000
v 810.65001284 378.48783222 0.00000000
v 835.41998716 378.45216778 260.00000000
v 835.68344506 561.43118760 260.00000000
v 810.91347074 561.46685204 260.00000000
v 810.65001284 378.48783222 260.00000000
v 835.68344506 561.43118760 210.00000000
v 835.79639927 639.88110628 210.00000000
v 811.02642495 639.91677072 210.00000000
v 810.91347074 561.46685204 210.00000000
v 835.68344506 561.43118760 260.00000000
v 835.79639927 639.88110628 260.00000000
v 811.02642495 639.91677072 260.00000000
v 810.91347074 561.46685204 260.00000000
v 835.79639927 639.88110628 0.00000000
v 836.38498716 1048.67216778 0.00000000
v 811.61501284 1048.70783222 0.00000000
v 811.02642495 639.91677072 0.00000000
v 835.79639927 639.88110628 260.00000000
v 836.38498716 1048.67216778 260.00000000
v 811.61501284 1048.70783222 260.00000000
v 811.02642495 639.91677072 260.00000000
v 825.12201099 384.09533422 0.00000000
v 818.08701099 386.70533422 0.00000000
v 813.91298901 375.45466578 0.00000000
v 820.94798901 372.84466578 0.00000000
v 825.12201099 384.09533422 260.00000000
v 818.08701099 386.70533422 260.00000000
v 813.91298901 375.45466578 260.00000000
v 820.94798901 372.84466578 260.00000000
v 229.08000000 365.37000000 0.00000000
v 229.08000000 438.91000000 0.00000000
v 202.92000000 438.91000000 0.00000000
v 202.92000000 365.37000000 0.00000000
v 229.08000000 365.37000000 260.00000000
v 229.08000000 438.91000000 260.00000000
v 202.92000000 438.91000000 260.00000000
v 202.92000000 365.37000000 260.00000000
v 229.08000000 438.91000000 0.00000000
v 229.08000000 594.18000000 0.00000000
v 202.92000000 594.18000000 0.00000000
v 202.92000000 438.91000000 0.00000000
v 229.08000000 438.91000000 90.00000000
v 229.08000000 594.18000000 90.00000000
v 202.92000000 594.18000000 90.00000000
v 202.92000000 438.91000000 90.00000000
v 229.08000000 438.91000000 210.00000000
v 229.08000000 594.18000000 210.00000000
v 202.92000000 594.18000000 210.00000000
v 202.92000000 438.91000000 210.00000000
v 229.08000000 438.91000000 260.00000000
v 229.08000000 594.18000000 260.00000000
v 202.92000000 594.18000000 260.00000000
v 202.92000000 438.91000000 260.00000000
v 229.08000000 594.18000000 0.00000000
v 229.08000000 675.19000000 0.00000000
v 202.92000000 675.19000000 0.00000000
v 202.92000000 594.18000000 0.00000000
v 229.08000000 594.18000000 260.00000000
v 229.08000000 675.19000000 260.00000000
v 202.92000000 675.19000000 260.00000000
v 202.92000000 594.18000000 260.00000000
v 1206.10500000 65.65000000 0.00000000
v 1206.10500000 515.25000000 0.00000000
v 1193.89500000 515.25000000 0.00000000
v 1193.89500000 65.65000000 0.00000000
v 1206.10500000 65.65000000 260.00000000
v 1206.10500000 515.25000000 260.00000000
v 1193.89500000 515.25000000 260.00000000
v 1193.89500000 65.65000000 260.00000000
v 1211.89000000 657.12000000 0.00000000
v 1211.89000000 706.99500000 0.00000000
v 1188.11000000 706.99500000 0.00000000
v 1188.11000000 657.12000000 0.00000000
v 1211.89000000 657.12000000 260.00000000
v 1211.89000000 706.99500000 260.00000000
v 1188.11000000 706.99500000 260.00000000
v 1188.11000000 657.12000000 260.00000000
v 1211.89000000 706.99500000 210.00000000
v 1211.89000000 769.00500000 210.00000000
v 1188.11000000 769.00500000 210.00000000
v 1188.11000000 706.99500000 210.00000000
v 1211.89000000 706.99500000 260.00000000
v 1211.89000000 769.00500000 260.00000000
v 1188.11000000 769.00500000 260.00000000
v 1188.11000000 706.99500000 260.00000000
v 1211.89000000 769.00500000 0.00000000
v 1211.89000000 943.95500000 0.00000000
v 1188.11000000 943.95500000 0.00000000
v 1188.11000000 769.00500000 0.00000000
v 1211.89000000 769.00500000 260.00000000
v 1211.89000000 943.95500000 260.00000000
v 1188.11000000 943.95500000 260.00000000
v 1188.11000000 769.00500000 260.00000000
v 1211.89000000 943.95500000 210.00000000
v 1211.89000000 1019.61500000 210.00000000
v 1188.11000000 1019.61500000 210.00000000
v 1188.11000000 943.95500000 210.00000000
v 1211.89000000 943.95500000 260.00000000
v 1211.89000000 1019.61500000 260.00000000
v 1188.11000000 1019.61500000 260.00000000
v 1188.11000000 943.95500000 260.00000000
v 1211.89000000 1019.61500000 0.00000000
v 1211.89000000 1312.05000000 0.00000000
v 1188.11000000 1312.05000000 0.00000000
v 1188.11000000 1019.61500000 0.00000000
v 1211.89000000 1019.61500000 260.00000000
v 1211.89000000 1312.05000000 260.00000000
v 1188.11000000 1312.05000000 260.00000000
v 1188.11000000 1019.61500000 260.00000000
v 828.38000000 62.24000000 0.00000000
v 828.38000000 83.88000000 0.00000000
v 803.62000000 83.88000000 0.00000000
v 803.62000000 62.24000000 0.00000000
v 828.38000000 62.24000000 260.00000000
v 828.38000000 83.88000000 260.00000000
v 803.62000000 83.88000000 260.00000000
v 803.62000000 62.24000000 260.00000000
v 828.38000000 83.88000000 0.00000000
v 828.38000000 271.80000000 0.00000000
v 803.62000000 271.80000000 0.00000000
v 803.62000000 83.88000000 0.00000000
v 828.38000000 83.88000000 90.00000000
v 828.38000000 271.80000000 90.00000000
v 803.62000000 271.80000000 90.00000000
v 803.62000000 83.88000000 90.00000000
v 828.38000000 83.88000000 210.00000000
v 828.38000000 271.80000000 210.00000000
v 803.62000000 271.80000000 210.00000000
v 803.62000000 83.88000000 210.00000000
v 828.38000000 83.88000000 260.00000000
v 828.38000000 271.80000000 260.00000000
v 803.62000000 271.80000000 260.00000000
v 803.62000000 83.88000000 260.00000000
v 828.38000000 271.80000000 210.00000000
v 828.38000000 362.84500000 210.00000000
v 803.62000000 362.84500000 210.00000000
v 803.62000000 271.80000000 210.00000000
v 828.38000000 271.80000000 260.00000000
v 828.38000000 362.84500000 260.00000000
v 803.62000000 362.84500000 260.00000000
v 803.62000000 271.80000000 260.00000000
v 828.38000000 362.84500000 0.00000000
v 828.38000000 381.08000000 0.00000000
v 803.62000000 381.08000000 0.00000000
v 803.62000000 362.84500000 0.00000000
v 828.38000000 362.84500000 260.00000000
v 828.38000000 381.08000000 260.00000000
v 803.62000000 381.08000000 260.00000000
v 803.62000000 362.84500000 260.00000000
v 1508.78500000 61.07000000 0.00000000
v 1508.78500000 573.21000000 0.00000000
v 1483.21500000 573.21000000 0.00000000
v 1483.21500000 61.07000000 0.00000000
v 1508.78500000 61.07000000 260.00000000
v 1508.78500000 573.21000000 260.00000000
v 1483.21500000 573.21000000 260.00000000
v 1483.21500000 61.07000000 260.00000000
v 1508.78500000 573.21000000 0.00000000
v 1508.78500000 704.23000000 0.00000000
v 1483.21500000 704.23000000 0.00000000
v 1483.21500000 573.21000000 0.00000000
v 1508.78500000 573.21000000 90.00000000
v 1508.78500000 704.23000000 90.00000000
v 1483.21500000 704.23000000 90.00000000
v 1483.21500000 573.21000000 90.00000000
v 1508.78500000 573.21000000 210.00000000
v 1508.78500000 704.23000000 210.00000000
v 1483.21500000 704.23000000 210.00000000
v 1483.21500000 573.21000000 210.00000000
v 1508.78500000 573.21000000 260.00000000
v 1508.78500000 704.23000000 260.00000000
v 1483.21500000 704.23000000 260.00000000
v 1483.21500000 573.21000000 260.00000000
v 1508.78500000 704.23000000 0.00000000
v 1508.78500000 765.20000000 0.00000000
v 1483.21500000 765.20000000 0.00000000
v 1483.21500000 704.23000000 0.00000000
v 1508.78500000 704.23000000 260.00000000
v 1508.78500000 765.20000000 260.00000000
v 1483.21500000 765.20000000 260.00000000
v 1483.21500000 704.23000000 260.00000000
v 1508.78500000 765.20000000 0.00000000
v 1508.78500000 861.69000000 0.00000000
v 1483.21500000 861.69000000 0.00000000
v 1483.21500000 765.20000000 0.00000000
v 1508.78500000 765.20000000 90.00000000
v 1508.78500000 861.69000000 90.00000000
v 1483.21500000 861.69000000 90.00000000
v 1483.21500000 765.20000000 90.00000000
v 1508.78500000 765.20000000 210.00000000
v 1508.78500000 861.69000000 210.00000000
v 1483.21500000 861.69000000 210.00000000
v 1483.21500000 765.20000000 210.00000000
v 1508.78500000 765.20000000 260.00000000
v 1508.78500000 861.69000000 260.00000000
v 1483.21500000 861.69000000 260.00000000
v 1483.21500000 765.20000000 260.00000000
v 1508.78500000 861.69000000 0.00000000
v 1508.78500000 1023.47000000 0.00000000
v 1483.21500000 1023.47000000 0.00000000
v 1483.21500000 861.69000000 0.00000000
v 1508.78500000 861.69000000 260.00000000
v 1508.78500000 1023.47000000 260.00000000
v 1483.21500000 1023.47000000 260.00000000
v 1483.21500000 861.69000000 260.00000000
v 1508.78500000 1023.47000000 0.00000000
v 1508.78500000 1209.11000000 0.00000000
v 1483.21500000 1209.11000000 0.00000000
v 1483.21500000 1023.47000000 0.00000000
v 1508.78500000 1023.47000000 90.00000000
v 1508.78500000 1209.11000000 90.00000000
v 1483.21500000 1209.11000000 90.00000000
v 1483.21500000 1023.47000000 90.00000000
v 1508.78500000 1023.47000000 210.00000000
v 1508.78500000 1209.11000000 210.00000000
v 1483.21500000 1209.11000000 210.00000000
v 1483.21500000 1023.47000000 210.00000000
v 1508.78500000 1023.47000000 260.00000000
v 1508.78500000 1209.11000000 260.00000000
v 1483.21500000 1209.11000000 260.00000000
v 1483.21500000 1023.47000000 260.00000000
v 1508.78500000 1209.11000000 0.00000000
v 1508.78500000 1282.29000000 0.00000000
v 1483.21500000 1282.29000000 0.00000000
v 1483.21500000 1209.11000000 0.00000000
v 1508.78500000 1209.11000000 260.00000000
v 1508.78500000 1282.29000000 260.00000000
v 1483.21500000 1282.29000000 260.00000000
v 1483.21500000 1209.11000000 260.00000000
v 997.53500000 660.08000000 0.00000000
v 997.53500000 666.38500000 0.00000000
v 986.46500000 666.38500000 0.00000000
v 986.46500000 660.08000000 0.00000000
v 997.53500000 660.08000000 260.00000000
v 997.53500000 666.38500000 260.00000000
v 986.46500000 666.38500000 260.00000000
v 986.46500000 660.08000000 260.00000000
v 997.53500000 666.38500000 210.00000000
v 997.53500000 742.13500000 210.00000000
v 986.46500000 742.13500000 210.00000000
v 986.46500000 666.38500000 210.00000000
v 997.53500000 666.38500000 260.00000000
v 997.53500000 742.13500000 260.00000000
v 986.46500000 742.13500000 260.00000000
v 986.46500000 666.38500000 260.00000000
v 997.53500000 742.13500000 0.00000000
v 997.53500000 928.50000000 0.00000000
v 986.46500000 928.50000000 0.00000000
v 986.46500000 742.13500000 0.00000000
v 997.53500000 742.13500000 260.00000000
v 997.53500000 928.50000000 260.00000000
v 986.46500000 928.50000000 260.00000000
v 986.46500000 742.13500000 260.00000000
v 1210.93500000 818.45000000 0.00000000
v 1210.93500000 924.66000000 0.00000000
v 1157.06500000 924.66000000 0.00000000
v 1157.06500000 818.45000000 0.00000000
v 1210.93500000 818.45000000 260.00000000
v 1210.93500000 924.66000000 260.00000000
v 1157.06500000 924.66000000 260.00000000
v 1157.06500000 818.45000000 260.00000000
v 670.05500000 371.38000000 0.00000000
v 670.05500000 568.51000000 0.00000000
v 657.94500000 568.51000000 0.00000000
v 657.94500000 371.38000000 0.00000000
v 670.05500000 371.38000000 260.00000000
v 670.05500000 568.51000000 260.00000000
v 657.94500000 568.51000000 260.00000000
v 657.94500000 371.38000000 260.00000000
f 1 2 3
f 1 3 4
f 5 7 6
f 5 8 7
f 1 5 6
f 1 6 2
f 2 6 7
f 2 7 3
f 3 7 8
f 3 8 4
f 4 8 5
f 4 5 1
f 9 10 11
f 9 11 12
f 13 15 14
f 13 16 15
f 9 13 14
f 9 14 10
f 10 14 15
f 10 15 11
f 11 15 16
f 11 16 12
f 12 16 13
f 12 13 9
f 17 18 19
f 17 19 20
f 21 23 22
f 21 24 23
f 17 21 22
f 17 22 18
f 18 22 23
f 18 23 19
f 19 23 24
f 19 24 20
f 20 24 21
f 20 21 17
f 25 26 27
f 25 27 28
f 29 31 30
f 29 32 31
f 25 29 30
f 25 30 26
f 26 30 31
f 26 31 27
f 27 31 32
f 27 32 28
f 28 32 29
f 28 29 25
f 33 34 35
f 33 35 36
f 37 39 38
f 37 40 39
f 33 37 38
f 33 38 34
f 34 38 39
f 34 39 35
f 35 39 40
f 35 40 36
f 36 40 37
f 36 37 33
f 41 42 43
f 41 43 44
f 45 47 46
f 45 48 47
f 41 45 46
f 41 46 42
f 42 46 47
f 42 47 43
f 43 47 48
f 43 48 44
f 44 48 45
f 44 45 41
f 49 50 51
f 49 51 52
f 53 55 54
f 53 56 55
f 49 53 54
f 49 54 50
f 50 54 55
f 50 55 51
f 51 55 56
f 51 56 52
f 52 56 53
f 52 53 49
f 57 58 59
f 57 59 60
f 61 63 62
f 61 64 63
f 57 61 62
f 57 62 58
f 58 62 63
f 58 63 59
f 59 63 64
f 59 64 60
f 60 64 61
f 60 61 57
f 65 66 67
f 65 67 68
f 69 71 70
f 69 72 71
f 65 69 70
f 65 70 66
f 66 70 71
f 66 71 67
f 67 71 72
f 67 72 68
f 68 72 69
f 68 69 65
f 73 74 75
f 73 75 76
f 77 79 78
f 77 80 79
f 73 77 78
f 73 78 74
f 74 78 79
f 74 79 75
f 75 79 80
f 75 80 76
f 76 80 77
f 76 77 73
f 81 82 83
f 81 83 84
f 85 87 86
f 85 88 87
f 81 85 86
f 81 86 82
f 82 86 87
f 82 87 83
f 83 87 88
f 83 88 84
f 84 88 85
f 84 85 81
f 89 90 91
f 89 91 92
f 93 95 94
f 93 96 95
f 89 93 94
f 89 94 90
f 90 94 95
f 90 95 91
f 91 95 96
f 91 96 92
f 92 96 93
f 92 93 89
f 97 98 99
f 97 99 100
f 101 103 102
f 101 104 103
f 97 101 102
f 97 102 98
f 98 102 103
f 98 103 99
f 99 103 104
f 99 104 100
f 100 104 101
f 100 101 97
f 105 106 107
f 105 107 108
f 109 111 110
f 109 112 111
f 105 109 110
f 105 110 106
f 106 110 111
f 106 111 107
f 107 111 112
f 107 112 108
f 108 112 109
f 108 109 105
f 113 114 115
f 113 115 116
f 117 119 118
f 117 120 119
f 113 117 118
f 113 118 114
f 114 118 119
f 114 119 115
f 115 119 120
f 115 120 116
f 116 120 117
f 116 117 113
f 121 122 123
f 121 123 124
f 125 127 126
f 125 128 127
f 121 125 126
f 121 126 122
f 122 126 127
f 122 127 123
f 123 127 128
f 123 128 124
f 124 128 125
f 124 125 121
f 129 130 131
f 129 131 132
f 133 135 134
f 133 136 135
f 129 133 134
f 129 134 130
f 130 134 135
f 130 135 131
f 131 135 136
f 131 136 132
f 132 136 133
f 132 133 129
f 137 138 139
f 137 139 140
f 141 143 142
f 141 144 143
f 137 141 142
f 137 142 138
f 138 142 143
f 138 143 139
f 139 143 144
f 139 144 140
f 140 144 141
f 140 141 137
f 145 146 147
f 145 147 148
f 149 151 150
f 149 152 151
f 145 149 150
f 145 150 146
f 146 150 151
f 146 151 147
f 147 151 152
f 147 152 148
f 148 152 149
f 148 149 145
f 153 154 155
f 153 155 156
f 157 159 158
f 157 160 159
f 153 157 158
f 153 158 154
f 154 158 159
f 154 159 155
f 155 159 160
f 155 160 156
f 156 160 157
f 156 157 153
f 161 162 163
f 161 163 164
f 165 167 166
f 165 168 167
f 161 165 166
f 161 166 162
f 162 166 167
f 162 167 163
f 163 167 168
f 163 168 164
f 164 168 165
f 164 165 161
f 169 170 171
f 169 171 172
f 173 175 174
f 173 176 175
f 169 173 174
f 169 174 170
f 170 174 175
f 170 175 171
f 171 175 176
f 171 176 172
f 172 176 173
f 172 173 169
f 177 178 179
f 177 179 180
f 181 183 182
f 181 184 183
f 177 181 182
f 177 182 178
f 178 182 183
f 178 183 179
f 179 183 184
f 179 184 180
f 180 184 181
f 180 181 177
f 185 186 187
f 185 187 188
f 189 191 190
f 189 192 191
f 185 189 190
f 185 190 186
f 186 190 191
f 186 191 187
f 187 191 192
f 187 192 188
f 188 192 189
f 188 189 185
f 193 194 195
f 193 195 196
f 197 199 198
f 197 200 199
f 193 197 198
f 193 198 194
f 194 198 199
f 194 199 195
f 195 199 200
f 195 200 196
f 196 200 197
f 196 197 193
f 201 202 203
f 201 203 204
f 205 207 206
f 205 208 207
f 201 205 206
f 201 206 202
f 202 206 207
f 202 207 203
f 203 207 208
f 203 208 204
f 204 208 205
f 204 205 201
f 209 210 211
f 209 211 212
f 213 215 214
f 213 216 215
f 209 213 214
f 209 214 210
f 210 214 215
f 210 215 211
f 211 215 216
f 211 216 212
f 212 216 213
f 212 213 209
f 217 218 219
f 217 219 220
f 221 223 222
f 221 224 223
f 217 221 222
f 217 222 218
f 218 222 223
f 218 223 219
f 219 223 224
f 219 224 220
f 220 224 221
f 220 221 217
f 225 226 227
f 225 227 228
f 229 231 230
f 229 232 231
f 225 229 230
f 225 230 226
f 226 230 231
f 226 231 227
f 227 231 232
f 227 232 228
f 228 232 229
f 228 229 225
f 233 234 235
f 233 235 236
f 237 239 238
f 237 240 239
f 233 237 238
f 233 238 234
f 234 238 239
f 234 239 235
f 235 239 240
f 235 240 236
f 236 240 237
f 236 237 233
f 241 242 243
f 241 243 244
f 245 247 246
f 245 248 247
f 241 245 246
f 241 246 242
f 242 246 247
f 242 247 243
f 243 247 248
f 243 248 244
f 244 248 245
f 244 245 241
f 249 250 251
f 249 251 252
f 253 255 254
f 253 256 255
f 249 253 254
f 249 254 250
f 250 254 255
f 250 255 251
f 251 255 256
f 251 256 252
f 252 256 253
f 252 253 249
f 257 258 259
f 257 259 260
f 261 263 262
f 261 264 263
f 257 261 262
f 257 262 258
f 258 262 263
f 258 263 259
f 259 263 264
f 259 264 260
f 260 264 261
f 260 261 257
f 265 266 267
f 265 267 268
f 269 271 270
f 269 272 271
f 265 269 270
f 265 270 266
f 266 270 271
f 266 271 267
f 267 271 272
f 267 272 268
f 268 272 269
f 268 269 265
f 273 274 275
f 273 275 276
f 277 279 278
f 277 280 279
f 273 277 278
f 273 278 274
f 274 278 279
f 274 279 275
f 275 279 280
f 275 280 276
f 276 280 277
f 276 277 273
f 281 282 283
f 281 283 284
f 285 287 286
f 285 288 287
f 281 285 286
f 281 286 282
f 282 286 287
f 282 287 283
f 283 287 288
f 283 288 284
f 284 288 285
f 284 285 281
f 289 290 291
f 289 291 292
f 293 295 294
f 293 296 295
f 289 293 294
f 289 294 290
f 290 294 295
f 290 295 291
f 291 295 296
f 291 296 292
f 292 296 293
f 292 293 289
f 297 298 299
f 297 299 300
f 301 303 302
f 301 304 303
f 297 301 302
f 297 302 298
f 298 302 303
f 298 303 299
f 299 303 304
f 299 304 300
f 300 304 301
f 300 301 297
f 305 306 307
f 305 307 308
f 309 311 310
f 309 312 311
f 305 309 310
f 305 310 306
f 306 310 311
f 306 311 307
f 307 311 312
f 307 312 308
f 308 312 309
f 308 309 305
f 313 314 315
f 313 315 316
f 317 319 318
f 317 320 319
f 313 317 318
f 313 318 314
f 314 318 319
f 314 319 315
f 315 319 320
f 315 320 316
f 316 320 317
f 316 317 313
f 321 322 323
f 321 323 324
f 325 327 326
f 325 328 327
f 321 325 326
f 321 326 322
f 322 326 327
f 322 327 323
f 323 327 328
f 323 328 324
f 324 328 325
f 324 325 321
f 329 330 331
f 329 331 332
f 333 335 334
f 333 336 335
f 329 333 334
f 329 334 330
f 330 334 335
f 330 335 331
f 331 335 336
f 331 336 332
f 332 336 333
f 332 333 329
f 337 338 339
f 337 339 340
f 341 343 342
f 341 344 343
f 337 341 342
f 337 342 338
f 338 342 343
f 338 343 339
f 339 343 344
f 339 344 340
f 340 344 341
f 340 341 337
f 345 346 347
f 345 347 348
f 349 351 350
f 349 352 351
f 345 349 350
f 345 350 346
f 346 350 351
f 346 351 347
f 347 351 352
f 347 352 348
f 348 352 349
f 348 349 345
f 353 354 355
f 353 355 356
f 357 359 358
f 357 360 359
f 353 357 358
f 353 358 354
f 354 358 359
f 354 359 355
f 355 359 360
f 355 360 356
f 356 360 357
f 356 357 353
f 361 362 363
f 361 363 364
f 365 367 366
f 365 368 367
f 361 365 366
f 361 366 362
f 362 366 367
f 362 367 363
f 363 367 368
f 363 368 364
f 364 368 365
f 364 365 361
f 369 370 371
f 369 371 372
f 373 375 374
f 373 376 375
f 369 373 374
f 369 374 370
f 370 374 375
f 370 375 371
f 371 375 376
f 371 376 372
f 372 376 373
f 372 373 369
f 377 378 379
f 377 379 380
f 381 383 382
f 381 384 383
f 377 381 382
f 377 382 378
f 378 382 383
f 378 383 379
f 379 383 384
f 379 384 380
f 380 384 381
f 380 381 377
f 385 386 387
f 385 387 388
f 389 391 390
f 389 392 391
f 385 389 390
f 385 390 386
f 386 390 391
f 386 391 387
f 387 391 392
f 387 392 388
f 388 392 389
f 388 389 385
f 393 394 395
f 393 395 396
f 397 399 398
f 397 400 399
f 393 397 398
f 393 398 394
f 394 398 399
f 394 399 395
f 395 399 400
f 395 400 396
f 396 400 397
f 396 397 393
f 401 402 403
f 401 403 404
f 405 407 406
f 405 408 407
f 401 405 406
f 401 406 402
f 402 406 407
f 402 407 403
f 403 407 408
f 403 408 404
f 404 408 405
f 404 405 401
f 409 410 411
f 409 411 412
f 413 415 414
f 413 416 415
f 409 413 414
f 409 414 410
f 410 414 415
f 410 415 411
f 411 415 416
f 411 416 412
f 412 416 413
f 412 413 409
f 417 418 419
f 417 419 420
f 421 423 422
f 421 424 423
f 417 421 422
f 417 422 418
f 418 422 423
f 418 423 419
f 419 423 424
f 419 424 420
f 420 424 421
f 420 421 417
f 425 426 427
f 425 427 428
f 429 431 430
f 429 432 431
f 425 429 430
f 425 430 426
f 426 430 431
f 426 431 427
f 427 431 432
f 427 432 428
f 428 432 429
f 428 429 425
f 433 434 435
f 433 435 436
f 437 439 438
f 437 440 439
f 433 437 438
f 433 438 434
f 434 438 439
f 434 439 435
f 435 439 440
f 435 440 436
f 436 440 437
f 436 437 433
f 441 442 443
f 441 443 444
f 445 447 446
f 445 448 447
f 441 445 446
f 441 446 442
f 442 446 447
f 442 447 443
f 443 447 448
f 443 448 444
f 444 448 445
f 444 445 441
f 449 450 451
f 449 451 452
f 453 455 454
f 453 456 455
f 449 453 454
f 449 454 450
f 450 454 455
f 450 455 451
f 451 455 456
f 451 456 452
f 452 456 453
f 452 453 449
f 457 458 459
f 457 459 460
f 461 463 462
f 461 464 463
f 457 461 462
f 457 462 458
f 458 462 463
f 458 463 459
f 459 463 464
f 459 464 460
f 460 464 461
f 460 461 457
f 465 466 467
f 465 467 468
f 469 471 470
f 469 472 471
f 465 469 470
f 465 470 466
f 466 470 471
f 466 471 467
f 467 471 472
f 467 472 468
f 468 472 469
f 468 469 465
f 473 474 475
f 473 475 476
f 477 479 478
f 477 480 479
f 473 477 478
f 473 478 474
f 474 478 479
f 474 479 475
f 475 479 480
f 475 480 476
f 476 480 477
f 476 477 473
f 481 482 483
f 481 483 484
f 485 487 486
f 485 488 487
f 481 485 486
f 481 486 482
f 482 486 487
f 482 487 483
f 483 487 488
f 483 488 484
f 484 488 485
f 484 485 481
f 489 490 491
f 489 491 492
f 493 495 494
f 493 496 495
f 489 493 494
f 489 494 490
f 490 494 495
f 490 495 491
f 491 495 496
f 491 496 492
f 492 496 493
f 492 493 489
f 497 498 499
f 497 499 500
f 501 503 502
f 501 504 503
f 497 501 502
f 497 502 498
f 498 502 503
f 498 503 499
f 499 503 504
f 499 504 500
f 500 504 501
f 500 501 497
f 505 506 507
f 505 507 508
f 509 511 510
f 509 512 511
f 505 509 510
f 505 510 506
f 506 510 511
f 506 511 507
f 507 511 512
f 507 512 508
f 508 512 509
f 508 509 505
f 513 514 515
f 513 515 516
f 517 519 518
f 517 520 519
f 513 517 518
f 513 518 514
f 514 518 519
f 514 519 515
f 515 519 520
f 515 520 516
f 516 520 517
f 516 517 513
f 521 522 523
f 521 523 524
f 525 527 526
f 525 528 527
f 521 525 526
f 521 526 522
f 522 526 527
f 522 527 523
f 523 527 528
f 523 528 524
f 524 528 525
f 524 525 521
f 529 530 531
f 529 531 532
f 533 535 534
f 533 536 535
f 529 533 534
f 529 534 530
f 530 534 535
f 530 535 531
f 531 535 536
f 531 536 532
f 532 536 533
f 532 533 529
f 537 538 539
f 537 539 540
f 541 543 542
f 541 544 543
f 537 541 542
f 537 542 538
f 538 542 543
f 538 543 539
f 539 543 544
f 539 544 540
f 540 544 541
f 540 541 537
f 545 546 547
f 545 547 548
f 549 551 550
f 549 552 551
f 545 549 550
f 545 550 546
f 546 550 551
f 546 551 547
f 547 551 552
f 547 552 548
f 548 552 549
f 548 549 545
f 553 554 555
f 553 555 556
f 557 559 558
f 557 560 559
f 553 557 558
f 553 558 554
f 554 558 559
f 554 559 555
f 555 559 560
f 555 560 556
f 556 560 557
f 556 557 553
f 561 562 563
f 561 563 564
f 565 567 566
f 565 568 567
f 561 565 566
f 561 566 562
f 562 566 567
f 562 567 563
f 563 567 568
f 563 568 564
f 564 568 565
f 564 565 561
f 569 570 571
f 569 571 572
f 573 575 574
f 573 576 575
f 569 573 574
f 569 574 570
f 570 574 575
f 570 575 571
f 571 575 576
f 571 576 572
f 572 576 573
f 572 573 569
f 577 578 579
f 577 579 580
f 581 583 582
f 581 584 583
f 577 581 582
f 577 582 578
f 578 582 583
f 578 583 579
f 579 583 584
f 579 584 580
f 580 584 581
f 580 581 577
f 585 586 587
f 585 587 588
f 589 591 590
f 589 592 591
f 585 589 590
f 585 590 586
f 586 590 591
f 586 591 587
f 587 591 592
f 587 592 588
f 588 592 589
f 588 589 585
f 593 594 595
f 593 595 596
f 597 599 598
f 597 600 599
f 593 597 598
f 593 598 594
f 594 598 599
f 594 599 595
f 595 599 600
f 595 600 596
f 596 600 597
f 596 597 593
f 601 602 603
f 601 603 604
f 605 607 606
f 605 608 607
f 601 605 606
f 601 606 602
f 602 606 607
f 602 607 603
f 603 607 608
f 603 608 604
f 604 608 605
f 604 605 601
f 609 610 611
f 609 611 612
f 613 615 614
f 613 616 615
f 609 613 614
f 609 614 610
f 610 614 615
f 610 615 611
f 611 615 616
f 611 616 612
f 612 616 613
f 612 613 609
f 617 618 619
f 617 619 620
f 621 623 622
f 621 624 623
f 617 621 622
f 617 622 618
f 618 622 623
f 618 623 619
f 619 623 624
f 619 624 620
f 620 624 621
f 620 621 617
f 625 626 627
f 625 627 628
f 629 631 630
f 629 632 631
f 625 629 630
f 625 630 626
f 626 630 631
f 626 631 627
f 627 631 632
f 627 632 628
f 628 632 629
f 628 629 625

