# https://github.com/mikedh/trimesh
v 1208.71000000 1286.76000000 0.00000000
v 1208.71000000 930.05000000 0.00000000
v 1489.45000000 930.05000000 0.00000000
v 1208.71000000 1286.76000000 0.00000000
v 1489.45000000 930.05000000 0.00000000
v 1489.45000000 1286.76000000 0.00000000
v 225.52000000 648.65000000 0.00000000
v 225.52000000 386.26000000 0.00000000
v 820.26000000 386.26000000 0.00000000
v 225.52000000 648.65000000 0.00000000
v 820.26000000 386.26000000 0.00000000
v 820.26000000 648.65000000 0.00000000
v 1202.51000000 501.47000000 0.00000000
v 1202.51000000 82.38000000 0.00000000
v 1482.47000000 82.38000000 0.00000000
v 1202.51000000 501.47000000 0.00000000
v 1482.47000000 82.38000000 0.00000000
v 1482.47000000 501.47000000 0.00000000
v 830.98000000 655.48000000 0.00000000
v 830.98000000 83.64000000 0.00000000
v 1195.48000000 83.64000000 0.00000000
v 830.98000000 655.48000000 0.00000000
v 1195.48000000 83.64000000 0.00000000
v 1195.48000000 655.48000000 0.00000000
v 833.54000000 1025.69000000 0.00000000
v 833.54000000 659.41000000 0.00000000
v 1204.07000000 659.41000000 0.00000000
v 833.54000000 1025.69000000 0.00000000
v 1204.07000000 659.41000000 0.00000000
v 1204.07000000 1025.69000000 0.00000000
v 995.68000000 819.78000000 0.00000000
v 995.68000000 666.98000000 0.00000000
v 1195.31000000 819.78000000 0.00000000
v 1195.31000000 819.78000000 0.00000000
v 995.68000000 666.98000000 0.00000000
v 1195.31000000 666.98000000 0.00000000
v 671.82000000 362.89000000 0.00000000
v 671.82000000 75.22000000 0.00000000
v 805.22000000 75.22000000 0.00000000
v 671.82000000 362.89000000 0.00000000
v 805.22000000 75.22000000 0.00000000
v 805.22000000 362.89000000 0.00000000
v 996.50000000 919.15000000 0.00000000
v 996.50000000 830.70000000 0.00000000
v 1152.82000000 830.70000000 0.00000000
v 996.50000000 919.15000000 0.00000000
v 1152.82000000 830.70000000 0.00000000
v 1152.82000000 919.15000000 0.00000000
v 1207.86000000 919.08000000 0.00000000
v 1207.86000000 694.43000000 0.00000000
v 1486.67000000 919.08000000 0.00000000
v 1486.67000000 919.08000000 0.00000000
v 1207.86000000 694.43000000 0.00000000
v 1486.67000000 694.43000000 0.00000000
v 1198.76000000 699.14000000 0.00000000
v 1198.76000000 511.15000000 0.00000000
v 1484.80000000 511.15000000 0.00000000
v 1198.76000000 699.14000000 0.00000000
v 1484.80000000 511.15000000 0.00000000
v 1484.80000000 699.14000000 0.00000000
v 1199.29000000 921.58000000 0.00000000
v 1199.29000000 510.13000000 0.00000000
v 1484.65000000 921.58000000 0.00000000
v 1484.65000000 921.58000000 0.00000000
v 1199.29000000 510.13000000 0.00000000
v 1484.65000000 510.13000000 0.00000000
f 1 2 3
f 4 5 6
f 7 8 9
f 10 11 12
f 13 14 15
f 16 17 18
f 19 20 21
f 22 23 24
f 25 26 27
f 28 29 30
f 31 32 33
f 34 35 36
f 37 38 39
f 40 41 42
f 43 44 45
f 46 47 48
f 49 50 51
f 52 53 54
f 55 56 57
f 58 59 60
f 61 62 63
f 64 65 66

