# https://github.com/mikedh/trimesh

o floor
v 1208.71000000 1286.76000000 0.00000000
v 1208.71000000 930.05000000 0.00000000
v 1489.45000000 930.05000000 0.00000000
v 1208.71000000 1286.76000000 0.00000000
v 1489.45000000 930.05000000 0.00000000
v 1489.45000000 1286.76000000 0.00000000
v 225.52000000 648.65000000 0.00000000
v 225.52000000 386.26000000 0.00000000
v 820.26000000 386.26000000 0.00000000
v 225.52000000 648.65000000 0.00000000
v 820.26000000 386.26000000 0.00000000
v 820.26000000 648.65000000 0.00000000
v 1202.51000000 501.47000000 0.00000000
v 1202.51000000 82.38000000 0.00000000
v 1482.47000000 82.38000000 0.00000000
v 1202.51000000 501.47000000 0.00000000
v 1482.47000000 82.38000000 0.00000000
v 1482.47000000 501.47000000 0.00000000
v 830.98000000 655.48000000 0.00000000
v 830.98000000 83.64000000 0.00000000
v 1195.48000000 83.64000000 0.00000000
v 830.98000000 655.48000000 0.00000000
v 1195.48000000 83.64000000 0.00000000
v 1195.48000000 655.48000000 0.00000000
v 833.54000000 1025.69000000 0.00000000
v 833.54000000 659.41000000 0.00000000
v 1204.07000000 659.41000000 0.00000000
v 833.54000000 1025.69000000 0.00000000
v 1204.07000000 659.41000000 0.00000000
v 1204.07000000 1025.69000000 0.00000000
v 995.68000000 819.78000000 0.00000000
v 995.68000000 666.98000000 0.00000000
v 1195.31000000 819.78000000 0.00000000
v 1195.31000000 819.78000000 0.00000000
v 995.68000000 666.98000000 0.00000000
v 1195.31000000 666.98000000 0.00000000
v 671.82000000 362.89000000 0.00000000
v 671.82000000 75.22000000 0.00000000
v 805.22000000 75.22000000 0.00000000
v 671.82000000 362.89000000 0.00000000
v 805.22000000 75.22000000 0.00000000
v 805.22000000 362.89000000 0.00000000
v 996.50000000 919.15000000 0.00000000
v 996.50000000 830.70000000 0.00000000
v 1152.82000000 830.70000000 0.00000000
v 996.50000000 919.15000000 0.00000000
v 1152.82000000 830.70000000 0.00000000
v 1152.82000000 919.15000000 0.00000000
v 1207.86000000 919.08000000 0.00000000
v 1207.86000000 694.43000000 0.00000000
v 1486.67000000 919.08000000 0.00000000
v 1486.67000000 919.08000000 0.00000000
v 1207.86000000 694.43000000 0.00000000
v 1486.67000000 694.43000000 0.00000000
v 1198.76000000 699.14000000 0.00000000
v 1198.76000000 511.15000000 0.00000000
v 1484.80000000 511.15000000 0.00000000
v 1198.76000000 699.14000000 0.00000000
v 1484.80000000 511.15000000 0.00000000
v 1484.80000000 699.14000000 0.00000000
v 1199.29000000 921.58000000 0.00000000
v 1199.29000000 510.13000000 0.00000000
v 1484.65000000 921.58000000 0.00000000
v 1484.65000000 921.58000000 0.00000000
v 1199.29000000 510.13000000 0.00000000
v 1484.65000000 510.13000000 0.00000000
f 1 2 3
f 4 5 6
f 7 8 9
f 10 11 12
f 13 14 15
f 16 17 18
f 19 20 21
f 22 23 24
f 25 26 27
f 28 29 30
f 31 32 33
f 34 35 36
f 37 38 39
f 40 41 42
f 43 44 45
f 46 47 48
f 49 50 51
f 52 53 54
f 55 56 57
f 58 59 60
f 61 62 63
f 64 65 66

o walls
v 1188.62000000 1283.41500000 0.00000000
v 1513.47000000 1283.41500000 0.00000000
v 1513.47000000 1308.58500000 0.00000000
v 1188.62000000 1308.58500000 0.00000000
v 1188.62000000 1283.41500000 260.00000000
v 1513.47000000 1283.41500000 260.00000000
v 1513.47000000 1308.58500000 260.00000000
v 1188.62000000 1308.58500000 260.00000000
v 1193.51452815 1292.52961181 0.00000000
v 1204.89452815 1308.57961181 0.00000000
v 1195.10547185 1315.52038819 0.00000000
v 1183.72547185 1299.47038819 0.00000000
v 1193.51452815 1292.52961181 260.00000000
v 1204.89452815 1308.57961181 260.00000000
v 1195.10547185 1315.52038819 260.00000000
v 1183.72547185 1299.47038819 260.00000000
v 1509.76581574 1300.72006557 0.00000000
v 1492.29581574 1287.01006557 0.00000000
v 1499.70418426 1277.56993443 0.00000000
v 1517.17418426 1291.27993443 0.00000000
v 1509.76581574 1300.72006557 260.00000000
v 1492.29581574 1287.01006557 260.00000000
v 1499.70418426 1277.56993443 260.00000000
v 1517.17418426 1291.27993443 260.00000000
v 807.80000000 1028.48500000 0.00000000
v 834.36000000 1028.48500000 0.00000000
v 834.36000000 1051.51500000 0.00000000
v 807.80000000 1051.51500000 0.00000000
v 807.80000000 1028.48500000 260.00000000
v 834.36000000 1028.48500000 260.00000000
v 834.36000000 1051.51500000 260.00000000
v 807.80000000 1051.51500000 260.00000000
v 834.36000000 1028.48500000 210.00000000
v 923.99000000 1028.48500000 210.00000000
v 923.99000000 1051.51500000 210.00000000
v 834.36000000 1051.51500000 210.00000000
v 834.36000000 1028.48500000 260.00000000
v 923.99000000 1028.48500000 260.00000000
v 923.99000000 1051.51500000 260.00000000
v 834.36000000 1051.51500000 260.00000000
v 923.99000000 1028.48500000 0.00000000
v 1209.66000000 1028.48500000 0.00000000
v 1209.66000000 1051.51500000 0.00000000
v 923.99000000 1051.51500000 0.00000000
v 923.99000000 1028.48500000 260.00000000
v 1209.66000000 1028.48500000 260.00000000
v 1209.66000000 1051.51500000 260.00000000
v 923.99000000 1051.51500000 260.00000000
v 810.63622631 1034.71267362 0.00000000
v 826.83622631 1043.40267362 0.00000000
v 821.16377369 1053.97732638 0.00000000
v 804.96377369 1045.28732638 0.00000000
v 810.63622631 1034.71267362 260.00000000
v 826.83622631 1043.40267362 260.00000000
v 821.16377369 1053.97732638 260.00000000
v 804.96377369 1045.28732638 260.00000000
v 197.83400769 364.86008692 0.00000000
v 823.07900769 367.33008692 0.00000000
v 822.99099231 389.60991308 0.00000000
v 197.74599231 387.13991308 0.00000000
v 197.83400769 364.86008692 260.00000000
v 823.07900769 367.33008692 260.00000000
v 822.99099231 389.60991308 260.00000000
v 197.74599231 387.13991308 260.00000000
v 194.76518166 370.81825570 0.00000000
v 212.97518166 360.18825570 0.00000000
v 219.02481834 370.55174430 0.00000000
v 200.81481834 381.18174430 0.00000000
v 194.76518166 370.81825570 260.00000000
v 212.97518166 360.18825570 260.00000000
v 219.02481834 370.55174430 260.00000000
v 200.81481834 381.18174430 260.00000000
v 229.20000000 643.65000000 0.00000000
v 824.37000000 643.65000000 0.00000000
v 824.37000000 668.35000000 0.00000000
v 229.20000000 668.35000000 0.00000000
v 229.20000000 643.65000000 260.00000000
v 824.37000000 643.65000000 260.00000000
v 824.37000000 668.35000000 260.00000000
v 229.20000000 668.35000000 260.00000000
v 234.14342461 659.40037545 0.00000000
v 220.94342461 678.59037545 0.00000000
v 211.05657539 671.78962455 0.00000000
v 224.25657539 652.59962455 0.00000000
v 234.14342461 659.40037545 260.00000000
v 220.94342461 678.59037545 260.00000000
v 211.05657539 671.78962455 260.00000000
v 224.25657539 652.59962455 260.00000000
v 661.22000000 554.53500000 0.00000000
v 688.92000000 554.53500000 0.00000000
v 688.92000000 565.46500000 0.00000000
v 661.22000000 565.46500000 0.00000000
v 661.22000000 554.53500000 260.00000000
v 688.92000000 554.53500000 260.00000000
v 688.92000000 565.46500000 260.00000000
v 661.22000000 565.46500000 260.00000000
v 688.92000000 554.53500000 210.00000000
v 746.87000000 554.53500000 210.00000000
v 746.87000000 565.46500000 210.00000000
v 688.92000000 565.46500000 210.00000000
v 688.92000000 554.53500000 260.00000000
v 746.87000000 554.53500000 260.00000000
v 746.87000000 565.46500000 260.00000000
v 688.92000000 565.46500000 260.00000000
v 746.87000000 554.53500000 0.00000000
v 828.16000000 554.53500000 0.00000000
v 828.16000000 565.46500000 0.00000000
v 746.87000000 565.46500000 0.00000000
v 746.87000000 554.53500000 260.00000000
v 828.16000000 554.53500000 260.00000000
v 828.16000000 565.46500000 260.00000000
v 746.87000000 565.46500000 260.00000000
v 666.92339054 558.13684774 0.00000000
v 669.70339054 566.64684774 0.00000000
v 658.29660946 570.37315226 0.00000000
v 655.51660946 561.86315226 0.00000000
v 666.92339054 558.13684774 260.00000000
v 669.70339054 566.64684774 260.00000000
v 658.29660946 570.37315226 260.00000000
v 655.51660946 561.86315226 260.00000000
v 661.96000000 65.41500000 0.00000000
v 801.94000000 65.41500000 0.00000000
v 801.94000000 78.58500000 0.00000000
v 661.96000000 78.58500000 0.00000000
v 661.96000000 65.41500000 260.00000000
v 801.94000000 65.41500000 260.00000000
v 801.94000000 78.58500000 260.00000000
v 661.96000000 78.58500000 260.00000000
v 798.51854494 67.07114158 0.00000000
v 812.57854494 57.31114158 0.00000000
v 819.42145506 67.16885842 0.00000000
v 805.36145506 76.92885842 0.00000000
v 798.51854494 67.07114158 260.00000000
v 812.57854494 57.31114158 260.00000000
v 819.42145506 67.16885842 260.00000000
v 805.36145506 76.92885842 260.00000000
v 867.80000000 61.50000000 0.00000000
v 938.63000000 61.50000000 0.00000000
v 938.63000000 82.50000000 0.00000000
v 867.80000000 82.50000000 0.00000000
v 867.80000000 61.50000000 90.00000000
v 938.63000000 61.50000000 90.00000000
v 938.63000000 82.50000000 90.00000000
v 867.80000000 82.50000000 90.00000000
v 867.80000000 61.50000000 210.00000000
v 938.63000000 61.50000000 210.00000000
v 938.63000000 82.50000000 210.00000000
v 867.80000000 82.50000000 210.00000000
v 867.80000000 61.50000000 260.00000000
v 938.63000000 61.50000000 260.00000000
v 938.63000000 82.50000000 260.00000000
v 867.80000000 82.50000000 260.00000000
v 938.63000000 61.50000000 0.00000000
v 1204.70000000 61.50000000 0.00000000
v 1204.70000000 82.50000000 0.00000000
v 938.63000000 82.50000000 0.00000000
v 938.63000000 61.50000000 260.00000000
v 1204.70000000 61.50000000 260.00000000
v 1204.70000000 82.50000000 260.00000000
v 938.63000000 82.50000000 260.00000000
v 1204.70000000 61.50000000 0.00000000
v 1389.04000000 61.50000000 0.00000000
v 1389.04000000 82.50000000 0.00000000
v 1204.70000000 82.50000000 0.00000000
v 1204.70000000 61.50000000 90.00000000
v 1389.04000000 61.50000000 90.00000000
v 1389.04000000 82.50000000 90.00000000
v 1204.70000000 82.50000000 90.00000000
v 1204.70000000 61.50000000 210.00000000
v 1389.04000000 61.50000000 210.00000000
v 1389.04000000 82.50000000 210.00000000
v 1204.70000000 82.50000000 210.00000000
v 1204.70000000 61.50000000 260.00000000
v 1389.04000000 61.50000000 260.00000000
v 1389.04000000 82.50000000 260.00000000
v 1204.70000000 82.50000000 260.00000000
v 1389.04000000 61.50000000 0.00000000
v 1452.46000000 61.50000000 0.00000000
v 1452.46000000 82.50000000 0.00000000
v 1389.04000000 82.50000000 0.00000000
v 1389.04000000 61.50000000 260.00000000
v 1452.46000000 61.50000000 260.00000000
v 1452.46000000 82.50000000 260.00000000
v 1389.04000000 82.50000000 260.00000000
v 866.68904606 77.89625146 0.00000000
v 814.88904606 68.13625146 0.00000000
v 817.11095394 56.34374854 0.00000000
v 868.91095394 66.10374854 0.00000000
v 866.68904606 77.89625146 260.00000000
v 814.88904606 68.13625146 260.00000000
v 817.11095394 56.34374854 260.00000000
v 868.91095394 66.10374854 260.00000000
v 1450.99912616 66.18056295 0.00000000
v 1494.53912616 55.25056295 0.00000000
v 1497.46087384 66.88943705 0.00000000
v 1453.92087384 77.81943705 0.00000000
v 1450.99912616 66.18056295 260.00000000
v 1494.53912616 55.25056295 260.00000000
v 1497.46087384 66.88943705 260.00000000
v 1453.92087384 77.81943705 260.00000000
v 922.98000000 657.16000000 0.00000000
v 994.04000000 657.16000000 0.00000000
v 994.04000000 702.84000000 0.00000000
v 922.98000000 702.84000000 0.00000000
v 922.98000000 657.16000000 260.00000000
v 994.04000000 657.16000000 260.00000000
v 994.04000000 702.84000000 260.00000000
v 922.98000000 702.84000000 260.00000000
v 919.96591450 674.81200534 0.00000000
v 947.50591450 658.81200534 0.00000000
v 953.53408550 669.18799466 0.00000000
v 925.99408550 685.18799466 0.00000000
v 919.96591450 674.81200534 260.00000000
v 947.50591450 658.81200534 260.00000000
v 953.53408550 669.18799466 260.00000000
v 925.99408550 685.18799466 260.00000000
v 988.07121786 680.61126082 0.00000000
v 986.03121786 660.69126082 0.00000000
v 997.96878214 659.46873918 0.00000000
v 1000.00878214 679.38873918 0.00000000
v 988.07121786 680.61126082 260.00000000
v 986.03121786 660.69126082 260.00000000
v 997.96878214 659.46873918 260.00000000
v 1000.00878214 679.38873918 260.00000000
v 950.52000000 657.75500000 0.00000000
v 1205.08000000 657.75500000 0.00000000
v 1205.08000000 670.24500000 0.00000000
v 950.52000000 670.24500000 0.00000000
v 950.52000000 657.75500000 260.00000000
v 1205.08000000 657.75500000 260.00000000
v 1205.08000000 670.24500000 260.00000000
v 950.52000000 670.24500000 260.00000000
v 1200.25319409 667.56397878 0.00000000
v 1195.17319409 660.68397878 0.00000000
v 1204.82680591 653.55602122 0.00000000
v 1209.90680591 660.43602122 0.00000000
v 1200.25319409 667.56397878 260.00000000
v 1195.17319409 660.68397878 260.00000000
v 1204.82680591 653.55602122 260.00000000
v 1209.90680591 660.43602122 260.00000000
v 1193.52000000 504.84500000 0.00000000
v 1504.94000000 504.84500000 0.00000000
v 1504.94000000 519.15500000 0.00000000
v 1193.52000000 519.15500000 0.00000000
v 1193.52000000 504.84500000 260.00000000
v 1504.94000000 504.84500000 260.00000000
v 1504.94000000 519.15500000 260.00000000
v 1193.52000000 519.15500000 260.00000000
v 1196.20990082 506.63675159 0.00000000
v 1202.68990082 509.88675159 0.00000000
v 1197.31009918 520.61324841 0.00000000
v 1190.83009918 517.36324841 0.00000000
v 1196.20990082 506.63675159 260.00000000
v 1202.68990082 509.88675159 260.00000000
v 1197.31009918 520.61324841 260.00000000
v 1190.83009918 517.36324841 260.00000000
v 1498.95215515 512.38172511 0.00000000
v 1498.44215515 504.38172511 0.00000000
v 1510.41784485 503.61827489 0.00000000
v 1510.92784485 511.61827489 0.00000000
v 1498.95215515 512.38172511 260.00000000
v 1498.44215515 504.38172511 260.00000000
v 1510.41784485 503.61827489 260.00000000
v 1510.92784485 511.61827489 260.00000000
v 987.30000000 816.64000000 0.00000000
v 1209.10000000 816.64000000 0.00000000
v 1209.10000000 831.36000000 0.00000000
v 987.30000000 831.36000000 0.00000000
v 987.30000000 816.64000000 260.00000000
v 1209.10000000 816.64000000 260.00000000
v 1209.10000000 831.36000000 260.00000000
v 987.30000000 831.36000000 260.00000000
v 1207.80459637 829.85849208 0.00000000
v 1182.70459637 824.30849208 0.00000000
v 1185.29540363 812.59150792 0.00000000
v 1210.39540363 818.14150792 0.00000000
v 1207.80459637 829.85849208 260.00000000
v 1182.70459637 824.30849208 260.00000000
v 1185.29540363 812.59150792 260.00000000
v 1210.39540363 818.14150792 260.00000000
v 984.86000000 922.43500000 0.00000000
v 1040.85500000 922.43500000 0.00000000
v 1040.85500000 933.56500000 0.00000000
v 984.86000000 933.56500000 0.00000000
v 984.86000000 922.43500000 260.00000000
v 1040.85500000 922.43500000 260.00000000
v 1040.85500000 933.56500000 260.00000000
v 984.86000000 933.56500000 260.00000000
v 1040.85500000 922.43500000 210.00000000
v 1100.42500000 922.43500000 210.00000000
v 1100.42500000 933.56500000 210.00000000
v 1040.85500000 933.56500000 210.00000000
v 1040.85500000 922.43500000 260.00000000
v 1100.42500000 922.43500000 260.00000000
v 1100.42500000 933.56500000 260.00000000
v 1040.85500000 933.56500000 260.00000000
v 1100.42500000 922.43500000 0.00000000
v 1510.19000000 922.43500000 0.00000000
v 1510.19000000 933.56500000 0.00000000
v 1100.42500000 933.56500000 0.00000000
v 1100.42500000 922.43500000 260.00000000
v 1510.19000000 922.43500000 260.00000000
v 1510.19000000 933.56500000 260.00000000
v 1100.42500000 933.56500000 260.00000000
v 985.27914161 922.01465788 0.00000000
v 992.41914161 922.51465788 0.00000000
v 991.58085839 934.48534212 0.00000000
v 984.44085839 933.98534212 0.00000000
v 985.27914161 922.01465788 260.00000000
v 992.41914161 922.51465788 260.00000000
v 991.58085839 934.48534212 260.00000000
v 984.44085839 933.98534212 260.00000000
v 1504.21482477 927.45476526 0.00000000
v 1504.94482477 919.45476526 0.00000000
v 1516.89517523 920.54523474 0.00000000
v 1516.16517523 928.54523474 0.00000000
v 1504.21482477 927.45476526 260.00000000
v 1504.94482477 919.45476526 260.00000000
v 1516.89517523 920.54523474 260.00000000
v 1516.16517523 928.54523474 260.00000000
v 1126.74000000 914.12000000 0.00000000
v 1510.92000000 914.12000000 0.00000000
v 1510.92000000 925.88000000 0.00000000
v 1126.74000000 925.88000000 0.00000000
v 1126.74000000 914.12000000 260.00000000
v 1510.92000000 914.12000000 260.00000000
v 1510.92000000 925.88000000 260.00000000
v 1126.74000000 925.88000000 260.00000000
v 1127.22668992 914.01977150 0.00000000
v 1184.48668992 918.67977150 0.00000000
v 1183.51331008 930.64022850 0.00000000
v 1126.25331008 925.98022850 0.00000000
v 1127.22668992 914.01977150 260.00000000
v 1184.48668992 918.67977150 260.00000000
v 1183.51331008 930.64022850 260.00000000
v 1126.25331008 925.98022850 260.00000000
v 1202.06000000 496.03500000 0.00000000
v 1210.94000000 496.03500000 0.00000000
v 1210.94000000 511.96500000 0.00000000
v 1202.06000000 511.96500000 0.00000000
v 1202.06000000 496.03500000 260.00000000
v 1210.94000000 496.03500000 260.00000000
v 1210.94000000 511.96500000 260.00000000
v 1202.06000000 511.96500000 260.00000000
v 1210.94000000 496.03500000 210.00000000
v 1286.67000000 496.03500000 210.00000000
v 1286.67000000 511.96500000 210.00000000
v 1210.94000000 511.96500000 210.00000000
v 1210.94000000 496.03500000 260.00000000
v 1286.67000000 496.03500000 260.00000000
v 1286.67000000 511.96500000 260.00000000
v 1210.94000000 511.96500000 260.00000000
v 1286.67000000 496.03500000 0.00000000
v 1504.43000000 496.03500000 0.00000000
v 1504.43000000 511.96500000 0.00000000
v 1286.67000000 511.96500000 0.00000000
v 1286.67000000 496.03500000 260.00000000
v 1504.43000000 496.03500000 260.00000000
v 1504.43000000 511.96500000 260.00000000
v 1286.67000000 511.96500000 260.00000000
v 835.41998716 378.45216778 0.00000000
v 835.68344506 561.43118760 0.00000000
v 810.91347074 561.46685204 0.00000000
v 810.65001284 378.48783222 0.00000000
v 835.41998716 378.45216778 260.00000000
v 835.68344506 561.43118760 260.00000000
v 810.91347074 561.46685204 260.00000000
v 810.65001284 378.48783222 260.00000000
v 835.68344506 561.43118760 210.00000000
v 835.79639927 639.88110628 210.00000000
v 811.02642495 639.91677072 210.00000000
v 810.91347074 561.46685204 210.00000000
v 835.68344506 561.43118760 260.00000000
v 835.79639927 639.88110628 260.00000000
v 811.02642495 639.91677072 260.00000000
v 810.91347074 561.46685204 260.00000000
v 835.79639927 639.88110628 0.00000000
v 836.38498716 1048.67216778 0.00000000
v 811.61501284 1048.70783222 0.00000000
v 811.02642495 639.91677072 0.00000000
v 835.79639927 639.88110628 260.00000000
v 836.38498716 1048.67216778 260.00000000
v 811.61501284 1048.70783222 260.00000000
v 811.02642495 639.91677072 260.00000000
v 825.12201099 384.09533422 0.00000000
v 818.08701099 386.70533422 0.00000000
v 813.91298901 375.45466578 0.00000000
v 820.94798901 372.84466578 0.00000000
v 825.12201099 384.09533422 260.00000000
v 818.08701099 386.70533422 260.00000000
v 813.91298901 375.45466578 260.00000000
v 820.94798901 372.84466578 260.00000000
v 229.08000000 365.37000000 0.00000000
v 229.08000000 438.91000000 0.00000000
v 202.92000000 438.91000000 0.00000000
v 202.92000000 365.37000000 0.00000000
v 229.08000000 365.37000000 260.00000000
v 229.08000000 438.91000000 260.00000000
v 202.92000000 438.91000000 260.00000000
v 202.92000000 365.37000000 260.00000000
v 229.08000000 438.91000000 0.00000000
v 229.08000000 594.18000000 0.00000000
v 202.92000000 594.18000000 0.00000000
v 202.92000000 438.91000000 0.00000000
v 229.08000000 438.91000000 90.00000000
v 229.08000000 594.18000000 90.00000000
v 202.92000000 594.18000000 90.00000000
v 202.92000000 438.91000000 90.00000000
v 229.08000000 438.91000000 210.00000000
v 229.08000000 594.18000000 210.00000000
v 202.92000000 594.18000000 210.00000000
v 202.92000000 438.91000000 210.00000000
v 229.08000000 438.91000000 260.00000000
v 229.08000000 594.18000000 260.00000000
v 202.92000000 594.18000000 260.00000000
v 202.92000000 438.91000000 260.00000000
v 229.08000000 594.18000000 0.00000000
v 229.08000000 675.19000000 0.00000000
v 202.92000000 675.19000000 0.00000000
v 202.92000000 594.18000000 0.00000000
v 229.08000000 594.18000000 260.00000000
v 229.08000000 675.19000000 260.00000000
v 202.92000000 675.19000000 260.00000000
v 202.92000000 594.18000000 260.00000000
v 1206.10500000 65.65000000 0.00000000
v 1206.10500000 515.25000000 0.00000000
v 1193.89500000 515.25000000 0.00000000
v 1193.89500000 65.65000000 0.00000000
v 1206.10500000 65.65000000 260.00000000
v 1206.10500000 515.25000000 260.00000000
v 1193.89500000 515.25000000 260.00000000
v 1193.89500000 65.65000000 260.00000000
v 1211.89000000 657.12000000 0.00000000
v 1211.89000000 706.99500000 0.00000000
v 1188.11000000 706.99500000 0.00000000
v 1188.11000000 657.12000000 0.00000000
v 1211.89000000 657.12000000 260.00000000
v 1211.89000000 706.99500000 260.00000000
v 1188.11000000 706.99500000 260.00000000
v 1188.11000000 657.12000000 260.00000000
v 1211.89000000 706.99500000 210.00000000
v 1211.89000000 769.00500000 210.00000000
v 1188.11000000 769.00500000 210.00000000
v 1188.11000000 706.99500000 210.00000000
v 1211.89000000 706.99500000 260.00000000
v 1211.89000000 769.00500000 260.00000000
v 1188.11000000 769.00500000 260.00000000
v 1188.11000000 706.99500000 260.00000000
v 1211.89000000 769.00500000 0.00000000
v 1211.89000000 943.95500000 0.00000000
v 1188.11000000 943.95500000 0.00000000
v 1188.11000000 769.00500000 0.00000000
v 1211.89000000 769.00500000 260.00000000
v 1211.89000000 943.95500000 260.00000000
v 1188.11000000 943.95500000 260.00000000
v 1188.11000000 769.00500000 260.00000000
v 1211.89000000 943.95500000 210.00000000
v 1211.89000000 1019.61500000 210.00000000
v 1188.11000000 1019.61500000 210.00000000
v 1188.11000000 943.95500000 210.00000000
v 1211.89000000 943.95500000 260.00000000
v 1211.89000000 1019.61500000 260.00000000
v 1188.11000000 1019.61500000 260.00000000
v 1188.11000000 943.95500000 260.00000000
v 1211.89000000 1019.61500000 0.00000000
v 1211.89000000 1312.05000000 0.00000000
v 1188.11000000 1312.05000000 0.00000000
v 1188.11000000 1019.61500000 0.00000000
v 1211.89000000 1019.61500000 260.00000000
v 1211.89000000 1312.05000000 260.00000000
v 1188.11000000 1312.05000000 260.00000000
v 1188.11000000 1019.61500000 260.00000000
v 828.38000000 62.24000000 0.00000000
v 828.38000000 83.88000000 0.00000000
v 803.62000000 83.88000000 0.00000000
v 803.62000000 62.24000000 0.00000000
v 828.38000000 62.24000000 260.00000000
v 828.38000000 83.88000000 260.00000000
v 803.62000000 83.88000000 260.00000000
v 803.62000000 62.24000000 260.00000000
v 828.38000000 83.88000000 0.00000000
v 828.38000000 271.80000000 0.00000000
v 803.62000000 271.80000000 0.00000000
v 803.62000000 83.88000000 0.00000000
v 828.38000000 83.88000000 90.00000000
v 828.38000000 271.80000000 90.00000000
v 803.62000000 271.80000000 90.00000000
v 803.62000000 83.88000000 90.00000000
v 828.38000000 83.88000000 210.00000000
v 828.38000000 271.80000000 210.00000000
v 803.62000000 271.80000000 210.00000000
v 803.62000000 83.88000000 210.00000000
v 828.38000000 83.88000000 260.00000000
v 828.38000000 271.80000000 260.00000000
v 803.62000000 271.80000000 260.00000000
v 803.62000000 83.88000000 260.00000000
v 828.38000000 271.80000000 210.00000000
v 828.38000000 362.84500000 210.00000000
v 803.62000000 362.84500000 210.00000000
v 803.62000000 271.80000000 210.00000000
v 828.38000000 271.80000000 260.00000000
v 828.38000000 362.84500000 260.00000000
v 803.62000000 362.84500000 260.00000000
v 803.62000000 271.80000000 260.00000000
v 828.38000000 362.84500000 0.00000000
v 828.38000000 381.08000000 0.00000000
v 803.62000000 381.08000000 0.00000000
v 803.62000000 362.84500000 0.00000000
v 828.38000000 362.84500000 260.00000000
v 828.38000000 381.08000000 260.00000000
v 803.62000000 381.08000000 260.00000000
v 803.62000000 362.84500000 260.00000000
v 1508.78500000 61.07000000 0.00000000
v 1508.78500000 573.21000000 0.00000000
v 1483.21500000 573.21000000 0.00000000
v 1483.21500000 61.07000000 0.00000000
v 1508.78500000 61.07000000 260.00000000
v 1508.78500000 573.21000000 260.00000000
v 1483.21500000 573.21000000 260.00000000
v 1483.21500000 61.07000000 260.00000000
v 1508.78500000 573.21000000 0.00000000
v 1508.78500000 704.23000000 0.00000000
v 1483.21500000 704.23000000 0.00000000
v 1483.21500000 573.21000000 0.00000000
v 1508.78500000 573.21000000 90.00000000
v 1508.78500000 704.23000000 90.00000000
v 1483.21500000 704.23000000 90.00000000
v 1483.21500000 573.21000000 90.00000000
v 1508.78500000 573.21000000 210.00000000
v 1508.78500000 704.23000000 210.00000000
v 1483.21500000 704.23000000 210.00000000
v 1483.21500000 573.21000000 210.00000000
v 1508.78500000 573.21000000 260.00000000
v 1508.78500000 704.23000000 260.00000000
v 1483.21500000 704.23000000 260.00000000
v 1483.21500000 573.21000000 260.00000000
v 1508.78500000 704.23000000 0.00000000
v 1508.78500000 765.20000000 0.00000000
v 1483.21500000 765.20000000 0.00000000
v 1483.21500000 704.23000000 0.00000000
v 1508.78500000 704.23000000 260.00000000
v 1508.78500000 765.20000000 260.00000000
v 1483.21500000 765.20000000 260.00000000
v 1483.21500000 704.23000000 260.00000000
v 1508.78500000 765.20000000 0.00000000
v 1508.78500000 861.69000000 0.00000000
v 1483.21500000 861.69000000 0.00000000
v 1483.21500000 765.20000000 0.00000000
v 1508.78500000 765.20000000 90.00000000
v 1508.78500000 861.69000000 90.00000000
v 1483.21500000 861.69000000 90.00000000
v 1483.21500000 765.20000000 90.00000000
v 1508.78500000 765.20000000 210.00000000
v 1508.78500000 861.69000000 210.00000000
v 1483.21500000 861.69000000 210.00000000
v 1483.21500000 765.20000000 210.00000000
v 1508.78500000 765.20000000 260.00000000
v 1508.78500000 861.69000000 260.00000000
v 1483.21500000 861.69000000 260.00000000
v 1483.21500000 765.20000000 260.00000000
v 1508.78500000 861.69000000 0.00000000
v 1508.78500000 1023.47000000 0.00000000
v 1483.21500000 1023.47000000 0.00000000
v 1483.21500000 861.69000000 0.00000000
v 1508.78500000 861.69000000 260.00000000
v 1508.78500000 1023.47000000 260.00000000
v 1483.21500000 1023.47000000 260.00000000
v 1483.21500000 861.69000000 260.00000000
v 1508.78500000 1023.47000000 0.00000000
v 1508.78500000 1209.11000000 0.00000000
v 1483.21500000 1209.11000000 0.00000000
v 1483.21500000 1023.47000000 0.00000000
v 1508.78500000 1023.47000000 90.00000000
v 1508.78500000 1209.11000000 90.00000000
v 1483.21500000 1209.11000000 90.00000000
v 1483.21500000 1023.47000000 90.00000000
v 1508.78500000 1023.47000000 210.00000000
v 1508.78500000 1209.11000000 210.00000000
v 1483.21500000 1209.11000000 210.00000000
v 1483.21500000 1023.47000000 210.00000000
v 1508.78500000 1023.47000000 260.00000000
v 1508.78500000 1209.11000000 260.00000000
v 1483.21500000 1209.11000000 260.00000000
v 1483.21500000 1023.47000000 260.00000000
v 1508.78500000 1209.11000000 0.00000000
v 1508.78500000 1282.29000000 0.00000000
v 1483.21500000 1282.29000000 0.00000000
v 1483.21500000 1209.11000000 0.00000000
v 1508.78500000 1209.11000000 260.00000000
v 1508.78500000 1282.29000000 260.00000000
v 1483.21500000 1282.29000000 260.00000000
v 1483.21500000 1209.11000000 260.00000000
v 997.53500000 660.08000000 0.00000000
v 997.53500000 666.38500000 0.00000000
v 986.46500000 666.38500000 0.00000000
v 986.46500000 660.08000000 0.00000000
v 997.53500000 660.08000000 260.00000000
v 997.53500000 666.38500000 260.00000000
v 986.46500000 666.38500000 260.00000000
v 986.46500000 660.08000000 260.00000000
v 997.53500000 666.38500000 210.00000000
v 997.53500000 742.13500000 210.00000000
v 986.46500000 742.13500000 210.00000000
v 986.46500000 666.38500000 210.00000000
v 997.53500000 666.38500000 260.00000000
v 997.53500000 742.13500000 260.00000000
v 986.46500000 742.13500000 260.00000000
v 986.46500000 666.38500000 260.00000000
v 997.53500000 742.13500000 0.00000000
v 997.53500000 928.50000000 0.00000000
v 986.46500000 928.50000000 0.00000000
v 986.46500000 742.13500000 0.00000000
v 997.53500000 742.13500000 260.00000000
v 997.53500000 928.50000000 260.00000000
v 986.46500000 928.50000000 260.00000000
v 986.46500000 742.13500000 260.00000000
v 1210.93500000 818.45000000 0.00000000
v 1210.93500000 924.66000000 0.00000000
v 1157.06500000 924.66000000 0.00000000
v 1157.06500000 818.45000000 0.00000000
v 1210.93500000 818.45000000 260.00000000
v 1210.93500000 924.66000000 260.00000000
v 1157.06500000 924.66000000 260.00000000
v 1157.06500000 818.45000000 260.00000000
v 670.05500000 371.38000000 0.00000000
v 670.05500000 568.51000000 0.00000000
v 657.94500000 568.51000000 0.00000000
v 657.94500000 371.38000000 0.00000000
v 670.05500000 371.38000000 260.00000000
v 670.05500000 568.51000000 260.00000000
v 657.94500000 568.51000000 260.00000000
v 657.94500000 371.38000000 260.00000000
f 67 68 69
f 67 69 70
f 71 73 72
f 71 74 73
f 67 71 72
f 67 72 68
f 68 72 73
f 68 73 69
f 69 73 74
f 69 74 70
f 70 74 71
f 70 71 67
f 75 76 77
f 75 77 78
f 79 81 80
f 79 82 81
f 75 79 80
f 75 80 76
f 76 80 81
f 76 81 77
f 77 81 82
f 77 82 78
f 78 82 79
f 78 79 75
f 83 84 85
f 83 85 86
f 87 89 88
f 87 90 89
f 83 87 88
f 83 88 84
f 84 88 89
f 84 89 85
f 85 89 90
f 85 90 86
f 86 90 87
f 86 87 83
f 91 92 93
f 91 93 94
f 95 97 96
f 95 98 97
f 91 95 96
f 91 96 92
f 92 96 97
f 92 97 93
f 93 97 98
f 93 98 94
f 94 98 95
f 94 95 91
f 99 100 101
f 99 101 102
f 103 105 104
f 103 106 105
f 99 103 104
f 99 104 100
f 100 104 105
f 100 105 101
f 101 105 106
f 101 106 102
f 102 106 103
f 102 103 99
f 107 108 109
f 107 109 110
f 111 113 112
f 111 114 113
f 107 111 112
f 107 112 108
f 108 112 113
f 108 113 109
f 109 113 114
f 109 114 110
f 110 114 111
f 110 111 107
f 115 116 117
f 115 117 118
f 119 121 120
f 119 122 121
f 115 119 120
f 115 120 116
f 116 120 121
f 116 121 117
f 117 121 122
f 117 122 118
f 118 122 119
f 118 119 115
f 123 124 125
f 123 125 126
f 127 129 128
f 127 130 129
f 123 127 128
f 123 128 124
f 124 128 129
f 124 129 125
f 125 129 130
f 125 130 126
f 126 130 127
f 126 127 123
f 131 132 133
f 131 133 134
f 135 137 136
f 135 138 137
f 131 135 136
f 131 136 132
f 132 136 137
f 132 137 133
f 133 137 138
f 133 138 134
f 134 138 135
f 134 135 131
f 139 140 141
f 139 141 142
f 143 145 144
f 143 146 145
f 139 143 144
f 139 144 140
f 140 144 145
f 140 145 141
f 141 145 146
f 141 146 142
f 142 146 143
f 142 143 139
f 147 148 149
f 147 149 150
f 151 153 152
f 151 154 153
f 147 151 152
f 147 152 148
f 148 152 153
f 148 153 149
f 149 153 154
f 149 154 150
f 150 154 151
f 150 151 147
f 155 156 157
f 155 157 158
f 159 161 160
f 159 162 161
f 155 159 160
f 155 160 156
f 156 160 161
f 156 161 157
f 157 161 162
f 157 162 158
f 158 162 159
f 158 159 155
f 163 164 165
f 163 165 166
f 167 169 168
f 167 170 169
f 163 167 168
f 163 168 164
f 164 168 169
f 164 169 165
f 165 169 170
f 165 170 166
f 166 170 167
f 166 167 163
f 171 172 173
f 171 173 174
f 175 177 176
f 175 178 177
f 171 175 176
f 171 176 172
f 172 176 177
f 172 177 173
f 173 177 178
f 173 178 174
f 174 178 175
f 174 175 171
f 179 180 181
f 179 181 182
f 183 185 184
f 183 186 185
f 179 183 184
f 179 184 180
f 180 184 185
f 180 185 181
f 181 185 186
f 181 186 182
f 182 186 183
f 182 183 179
f 187 188 189
f 187 189 190
f 191 193 192
f 191 194 193
f 187 191 192
f 187 192 188
f 188 192 193
f 188 193 189
f 189 193 194
f 189 194 190
f 190 194 191
f 190 191 187
f 195 196 197
f 195 197 198
f 199 201 200
f 199 202 201
f 195 199 200
f 195 200 196
f 196 200 201
f 196 201 197
f 197 201 202
f 197 202 198
f 198 202 199
f 198 199 195
f 203 204 205
f 203 205 206
f 207 209 208
f 207 210 209
f 203 207 208
f 203 208 204
f 204 208 209
f 204 209 205
f 205 209 210
f 205 210 206
f 206 210 207
f 206 207 203
f 211 212 213
f 211 213 214
f 215 217 216
f 215 218 217
f 211 215 216
f 211 216 212
f 212 216 217
f 212 217 213
f 213 217 218
f 213 218 214
f 214 218 215
f 214 215 211
f 219 220 221
f 219 221 222
f 223 225 224
f 223 226 225
f 219 223 224
f 219 224 220
f 220 224 225
f 220 225 221
f 221 225 226
f 221 226 222
f 222 226 223
f 222 223 219
f 227 228 229
f 227 229 230
f 231 233 232
f 231 234 233
f 227 231 232
f 227 232 228
f 228 232 233
f 228 233 229
f 229 233 234
f 229 234 230
f 230 234 231
f 230 231 227
f 235 236 237
f 235 237 238
f 239 241 240
f 239 242 241
f 235 239 240
f 235 240 236
f 236 240 241
f 236 241 237
f 237 241 242
f 237 242 238
f 238 242 239
f 238 239 235
f 243 244 245
f 243 245 246
f 247 249 248
f 247 250 249
f 243 247 248
f 243 248 244
f 244 248 249
f 244 249 245
f 245 249 250
f 245 250 246
f 246 250 247
f 246 247 243
f 251 252 253
f 251 253 254
f 255 257 256
f 255 258 257
f 251 255 256
f 251 256 252
f 252 256 257
f 252 257 253
f 253 257 258
f 253 258 254
f 254 258 255
f 254 255 251
f 259 260 261
f 259 261 262
f 263 265 264
f 263 266 265
f 259 263 264
f 259 264 260
f 260 264 265
f 260 265 261
f 261 265 266
f 261 266 262
f 262 266 263
f 262 263 259
f 267 268 269
f 267 269 270
f 271 273 272
f 271 274 273
f 267 271 272
f 267 272 268
f 268 272 273
f 268 273 269
f 269 273 274
f 269 274 270
f 270 274 271
f 270 271 267
f 275 276 277
f 275 277 278
f 279 281 280
f 279 282 281
f 275 279 280
f 275 280 276
f 276 280 281
f 276 281 277
f 277 281 282
f 277 282 278
f 278 282 279
f 278 279 275
f 283 284 285
f 283 285 286
f 287 289 288
f 287 290 289
f 283 287 288
f 283 288 284
f 284 288 289
f 284 289 285
f 285 289 290
f 285 290 286
f 286 290 287
f 286 287 283
f 291 292 293
f 291 293 294
f 295 297 296
f 295 298 297
f 291 295 296
f 291 296 292
f 292 296 297
f 292 297 293
f 293 297 298
f 293 298 294
f 294 298 295
f 294 295 291
f 299 300 301
f 299 301 302
f 303 305 304
f 303 306 305
f 299 303 304
f 299 304 300
f 300 304 305
f 300 305 301
f 301 305 306
f 301 306 302
f 302 306 303
f 302 303 299
f 307 308 309
f 307 309 310
f 311 313 312
f 311 314 313
f 307 311 312
f 307 312 308
f 308 312 313
f 308 313 309
f 309 313 314
f 309 314 310
f 310 314 311
f 310 311 307
f 315 316 317
f 315 317 318
f 319 321 320
f 319 322 321
f 315 319 320
f 315 320 316
f 316 320 321
f 316 321 317
f 317 321 322
f 317 322 318
f 318 322 319
f 318 319 315
f 323 324 325
f 323 325 326
f 327 329 328
f 327 330 329
f 323 327 328
f 323 328 324
f 324 328 329
f 324 329 325
f 325 329 330
f 325 330 326
f 326 330 327
f 326 327 323
f 331 332 333
f 331 333 334
f 335 337 336
f 335 338 337
f 331 335 336
f 331 336 332
f 332 336 337
f 332 337 333
f 333 337 338
f 333 338 334
f 334 338 335
f 334 335 331
f 339 340 341
f 339 341 342
f 343 345 344
f 343 346 345
f 339 343 344
f 339 344 340
f 340 344 345
f 340 345 341
f 341 345 346
f 341 346 342
f 342 346 343
f 342 343 339
f 347 348 349
f 347 349 350
f 351 353 352
f 351 354 353
f 347 351 352
f 347 352 348
f 348 352 353
f 348 353 349
f 349 353 354
f 349 354 350
f 350 354 351
f 350 351 347
f 355 356 357
f 355 357 358
f 359 361 360
f 359 362 361
f 355 359 360
f 355 360 356
f 356 360 361
f 356 361 357
f 357 361 362
f 357 362 358
f 358 362 359
f 358 359 355
f 363 364 365
f 363 365 366
f 367 369 368
f 367 370 369
f 363 367 368
f 363 368 364
f 364 368 369
f 364 369 365
f 365 369 370
f 365 370 366
f 366 370 367
f 366 367 363
f 371 372 373
f 371 373 374
f 375 377 376
f 375 378 377
f 371 375 376
f 371 376 372
f 372 376 377
f 372 377 373
f 373 377 378
f 373 378 374
f 374 378 375
f 374 375 371
f 379 380 381
f 379 381 382
f 383 385 384
f 383 386 385
f 379 383 384
f 379 384 380
f 380 384 385
f 380 385 381
f 381 385 386
f 381 386 382
f 382 386 383
f 382 383 379
f 387 388 389
f 387 389 390
f 391 393 392
f 391 394 393
f 387 391 392
f 387 392 388
f 388 392 393
f 388 393 389
f 389 393 394
f 389 394 390
f 390 394 391
f 390 391 387
f 395 396 397
f 395 397 398
f 399 401 400
f 399 402 401
f 395 399 400
f 395 400 396
f 396 400 401
f 396 401 397
f 397 401 402
f 397 402 398
f 398 402 399
f 398 399 395
f 403 404 405
f 403 405 406
f 407 409 408
f 407 410 409
f 403 407 408
f 403 408 404
f 404 408 409
f 404 409 405
f 405 409 410
f 405 410 406
f 406 410 407
f 406 407 403
f 411 412 413
f 411 413 414
f 415 417 416
f 415 418 417
f 411 415 416
f 411 416 412
f 412 416 417
f 412 417 413
f 413 417 418
f 413 418 414
f 414 418 415
f 414 415 411
f 419 420 421
f 419 421 422
f 423 425 424
f 423 426 425
f 419 423 424
f 419 424 420
f 420 424 425
f 420 425 421
f 421 425 426
f 421 426 422
f 422 426 423
f 422 423 419
f 427 428 429
f 427 429 430
f 431 433 432
f 431 434 433
f 427 431 432
f 427 432 428
f 428 432 433
f 428 433 429
f 429 433 434
f 429 434 430
f 430 434 431
f 430 431 427
f 435 436 437
f 435 437 438
f 439 441 440
f 439 442 441
f 435 439 440
f 435 440 436
f 436 440 441
f 436 441 437
f 437 441 442
f 437 442 438
f 438 442 439
f 438 439 435
f 443 444 445
f 443 445 446
f 447 449 448
f 447 450 449
f 443 447 448
f 443 448 444
f 444 448 449
f 444 449 445
f 445 449 450
f 445 450 446
f 446 450 447
f 446 447 443
f 451 452 453
f 451 453 454
f 455 457 456
f 455 458 457
f 451 455 456
f 451 456 452
f 452 456 457
f 452 457 453
f 453 457 458
f 453 458 454
f 454 458 455
f 454 455 451
f 459 460 461
f 459 461 462
f 463 465 464
f 463 466 465
f 459 463 464
f 459 464 460
f 460 464 465
f 460 465 461
f 461 465 466
f 461 466 462
f 462 466 463
f 462 463 459
f 467 468 469
f 467 469 470
f 471 473 472
f 471 474 473
f 467 471 472
f 467 472 468
f 468 472 473
f 468 473 469
f 469 473 474
f 469 474 470
f 470 474 471
f 470 471 467
f 475 476 477
f 475 477 478
f 479 481 480
f 479 482 481
f 475 479 480
f 475 480 476
f 476 480 481
f 476 481 477
f 477 481 482
f 477 482 478
f 478 482 479
f 478 479 475
f 483 484 485
f 483 485 486
f 487 489 488
f 487 490 489
f 483 487 488
f 483 488 484
f 484 488 489
f 484 489 485
f 485 489 490
f 485 490 486
f 486 490 487
f 486 487 483
f 491 492 493
f 491 493 494
f 495 497 496
f 495 498 497
f 491 495 496
f 491 496 492
f 492 496 497
f 492 497 493
f 493 497 498
f 493 498 494
f 494 498 495
f 494 495 491
f 499 500 501
f 499 501 502
f 503 505 504
f 503 506 505
f 499 503 504
f 499 504 500
f 500 504 505
f 500 505 501
f 501 505 506
f 501 506 502
f 502 506 503
f 502 503 499
f 507 508 509
f 507 509 510
f 511 513 512
f 511 514 513
f 507 511 512
f 507 512 508
f 508 512 513
f 508 513 509
f 509 513 514
f 509 514 510
f 510 514 511
f 510 511 507
f 515 516 517
f 515 517 518
f 519 521 520
f 519 522 521
f 515 519 520
f 515 520 516
f 516 520 521
f 516 521 517
f 517 521 522
f 517 522 518
f 518 522 519
f 518 519 515
f 523 524 525
f 523 525 526
f 527 529 528
f 527 530 529
f 523 527 528
f 523 528 524
f 524 528 529
f 524 529 525
f 525 529 530
f 525 530 526
f 526 530 527
f 526 527 523
f 531 532 533
f 531 533 534
f 535 537 536
f 535 538 537
f 531 535 536
f 531 536 532
f 532 536 537
f 532 537 533
f 533 537 538
f 533 538 534
f 534 538 535
f 534 535 531
f 539 540 541
f 539 541 542
f 543 545 544
f 543 546 545
f 539 543 544
f 539 544 540
f 540 544 545
f 540 545 541
f 541 545 546
f 541 546 542
f 542 546 543
f 542 543 539
f 547 548 549
f 547 549 550
f 551 553 552
f 551 554 553
f 547 551 552
f 547 552 548
f 548 552 553
f 548 553 549
f 549 553 554
f 549 554 550
f 550 554 551
f 550 551 547
f 555 556 557
f 555 557 558
f 559 561 560
f 559 562 561
f 555 559 560
f 555 560 556
f 556 560 561
f 556 561 557
f 557 561 562
f 557 562 558
f 558 562 559
f 558 559 555
f 563 564 565
f 563 565 566
f 567 569 568
f 567 570 569
f 563 567 568
f 563 568 564
f 564 568 569
f 564 569 565
f 565 569 570
f 565 570 566
f 566 570 567
f 566 567 563
f 571 572 573
f 571 573 574
f 575 577 576
f 575 578 577
f 571 575 576
f 571 576 572
f 572 576 577
f 572 577 573
f 573 577 578
f 573 578 574
f 574 578 575
f 574 575 571
f 579 580 581
f 579 581 582
f 583 585 584
f 583 586 585
f 579 583 584
f 579 584 580
f 580 584 585
f 580 585 581
f 581 585 586
f 581 586 582
f 582 586 583
f 582 583 579
f 587 588 589
f 587 589 590
f 591 593 592
f 591 594 593
f 587 591 592
f 587 592 588
f 588 592 593
f 588 593 589
f 589 593 594
f 589 594 590
f 590 594 591
f 590 591 587
f 595 596 597
f 595 597 598
f 599 601 600
f 599 602 601
f 595 599 600
f 595 600 596
f 596 600 601
f 596 601 597
f 597 601 602
f 597 602 598
f 598 602 599
f 598 599 595
f 603 604 605
f 603 605 606
f 607 609 608
f 607 610 609
f 603 607 608
f 603 608 604
f 604 608 609
f 604 609 605
f 605 609 610
f 605 610 606
f 606 610 607
f 606 607 603
f 611 612 613
f 611 613 614
f 615 617 616
f 615 618 617
f 611 615 616
f 611 616 612
f 612 616 617
f 612 617 613
f 613 617 618
f 613 618 614
f 614 618 615
f 614 615 611
f 619 620 621
f 619 621 622
f 623 625 624
f 623 626 625
f 619 623 624
f 619 624 620
f 620 624 625
f 620 625 621
f 621 625 626
f 621 626 622
f 622 626 623
f 622 623 619
f 627 628 629
f 627 629 630
f 631 633 632
f 631 634 633
f 627 631 632
f 627 632 628
f 628 632 633
f 628 633 629
f 629 633 634
f 629 634 630
f 630 634 631
f 630 631 627
f 635 636 637
f 635 637 638
f 639 641 640
f 639 642 641
f 635 639 640
f 635 640 636
f 636 640 641
f 636 641 637
f 637 641 642
f 637 642 638
f 638 642 639
f 638 639 635
f 643 644 645
f 643 645 646
f 647 649 648
f 647 650 649
f 643 647 648
f 643 648 644
f 644 648 649
f 644 649 645
f 645 649 650
f 645 650 646
f 646 650 647
f 646 647 643
f 651 652 653
f 651 653 654
f 655 657 656
f 655 658 657
f 651 655 656
f 651 656 652
f 652 656 657
f 652 657 653
f 653 657 658
f 653 658 654
f 654 658 655
f 654 655 651
f 659 660 661
f 659 661 662
f 663 665 664
f 663 666 665
f 659 663 664
f 659 664 660
f 660 664 665
f 660 665 661
f 661 665 666
f 661 666 662
f 662 666 663
f 662 663 659
f 667 668 669
f 667 669 670
f 671 673 672
f 671 674 673
f 667 671 672
f 667 672 668
f 668 672 673
f 668 673 669
f 669 673 674
f 669 674 670
f 670 674 671
f 670 671 667
f 675 676 677
f 675 677 678
f 679 681 680
f 679 682 681
f 675 679 680
f 675 680 676
f 676 680 681
f 676 681 677
f 677 681 682
f 677 682 678
f 678 682 679
f 678 679 675
f 683 684 685
f 683 685 686
f 687 689 688
f 687 690 689
f 683 687 688
f 683 688 684
f 684 688 689
f 684 689 685
f 685 689 690
f 685 690 686
f 686 690 687
f 686 687 683
f 691 692 693
f 691 693 694
f 695 697 696
f 695 698 697
f 691 695 696
f 691 696 692
f 692 696 697
f 692 697 693
f 693 697 698
f 693 698 694
f 694 698 695
f 694 695 691

o doors_windows
v 837.36000000 1034.24250000 0.00000000
v 920.99000000 1034.24250000 0.00000000
v 920.99000000 1045.75750000 0.00000000
v 837.36000000 1045.75750000 0.00000000
v 837.36000000 1034.24250000 210.00000000
v 920.99000000 1034.24250000 210.00000000
v 920.99000000 1045.75750000 210.00000000
v 837.36000000 1045.75750000 210.00000000
v 691.92000000 557.26750000 0.00000000
v 743.87000000 557.26750000 0.00000000
v 743.87000000 562.73250000 0.00000000
v 691.92000000 562.73250000 0.00000000
v 691.92000000 557.26750000 210.00000000
v 743.87000000 557.26750000 210.00000000
v 743.87000000 562.73250000 210.00000000
v 691.92000000 562.73250000 210.00000000
v 870.80000000 66.75000000 90.00000000
v 935.63000000 66.75000000 90.00000000
v 935.63000000 77.25000000 90.00000000
v 870.80000000 77.25000000 90.00000000
v 870.80000000 66.75000000 210.00000000
v 935.63000000 66.75000000 210.00000000
v 935.63000000 77.25000000 210.00000000
v 870.80000000 77.25000000 210.00000000
v 1207.70000000 66.75000000 90.00000000
v 1386.04000000 66.75000000 90.00000000
v 1386.04000000 77.25000000 90.00000000
v 1207.70000000 77.25000000 90.00000000
v 1207.70000000 66.75000000 210.00000000
v 1386.04000000 66.75000000 210.00000000
v 1386.04000000 77.25000000 210.00000000
v 1207.70000000 77.25000000 210.00000000
v 1043.85500000 925.21750000 0.00000000
v 1097.42500000 925.21750000 0.00000000
v 1097.42500000 930.78250000 0.00000000
v 1043.85500000 930.78250000 0.00000000
v 1043.85500000 925.21750000 210.00000000
v 1097.42500000 925.21750000 210.00000000
v 1097.42500000 930.78250000 210.00000000
v 1043.85500000 930.78250000 210.00000000
v 1213.94000000 500.01750000 0.00000000
v 1283.67000000 500.01750000 0.00000000
v 1283.67000000 507.98250000 0.00000000
v 1213.94000000 507.98250000 0.00000000
v 1213.94000000 500.01750000 210.00000000
v 1283.67000000 500.01750000 210.00000000
v 1283.67000000 507.98250000 210.00000000
v 1213.94000000 507.98250000 210.00000000
v 829.49527095 564.44010060 0.00000000
v 829.59958622 636.89002550 0.00000000
v 817.21459906 636.90785772 0.00000000
v 817.11028379 564.45793282 0.00000000
v 829.49527095 564.44010060 210.00000000
v 829.59958622 636.89002550 210.00000000
v 817.21459906 636.90785772 210.00000000
v 817.11028379 564.45793282 210.00000000
v 222.54000000 441.91000000 90.00000000
v 222.54000000 591.18000000 90.00000000
v 209.46000000 591.18000000 90.00000000
v 209.46000000 441.91000000 90.00000000
v 222.54000000 441.91000000 210.00000000
v 222.54000000 591.18000000 210.00000000
v 209.46000000 591.18000000 210.00000000
v 209.46000000 441.91000000 210.00000000
v 1205.94500000 709.99500000 0.00000000
v 1205.94500000 766.00500000 0.00000000
v 1194.05500000 766.00500000 0.00000000
v 1194.05500000 709.99500000 0.00000000
v 1205.94500000 709.99500000 210.00000000
v 1205.94500000 766.00500000 210.00000000
v 1194.05500000 766.00500000 210.00000000
v 1194.05500000 709.99500000 210.00000000
v 1205.94500000 946.95500000 0.00000000
v 1205.94500000 1016.61500000 0.00000000
v 1194.05500000 1016.61500000 0.00000000
v 1194.05500000 946.95500000 0.00000000
v 1205.94500000 946.95500000 210.00000000
v 1205.94500000 1016.61500000 210.00000000
v 1194.05500000 1016.61500000 210.00000000
v 1194.05500000 946.95500000 210.00000000
v 822.19000000 86.88000000 90.00000000
v 822.19000000 268.80000000 90.00000000
v 809.81000000 268.80000000 90.00000000
v 809.81000000 86.88000000 90.00000000
v 822.19000000 86.88000000 210.00000000
v 822.19000000 268.80000000 210.00000000
v 809.81000000 268.80000000 210.00000000
v 809.81000000 86.88000000 210.00000000
v 822.19000000 274.80000000 0.00000000
v 822.19000000 359.84500000 0.00000000
v 809.81000000 359.84500000 0.00000000
v 809.81000000 274.80000000 0.00000000
v 822.19000000 274.80000000 210.00000000
v 822.19000000 359.84500000 210.00000000
v 809.81000000 359.84500000 210.00000000
v 809.81000000 274.80000000 210.00000000
v 1502.39250000 576.21000000 90.00000000
v 1502.39250000 701.23000000 90.00000000
v 1489.60750000 701.23000000 90.00000000
v 1489.60750000 576.21000000 90.00000000
v 1502.39250000 576.21000000 210.00000000
v 1502.39250000 701.23000000 210.00000000
v 1489.60750000 701.23000000 210.00000000
v 1489.60750000 576.21000000 210.00000000
v 1502.39250000 768.20000000 90.00000000
v 1502.39250000 858.69000000 90.00000000
v 1489.60750000 858.69000000 90.00000000
v 1489.60750000 768.20000000 90.00000000
v 1502.39250000 768.20000000 210.00000000
v 1502.39250000 858.69000000 210.00000000
v 1489.60750000 858.69000000 210.00000000
v 1489.60750000 768.20000000 210.00000000
v 1502.39250000 1026.47000000 90.00000000
v 1502.39250000 1206.11000000 90.00000000
v 1489.60750000 1206.11000000 90.00000000
v 1489.60750000 1026.47000000 90.00000000
v 1502.39250000 1026.47000000 210.00000000
v 1502.39250000 1206.11000000 210.00000000
v 1489.60750000 1206.11000000 210.00000000
v 1489.60750000 1026.47000000 210.00000000
v 994.76750000 669.38500000 0.00000000
v 994.76750000 739.13500000 0.00000000
v 989.23250000 739.13500000 0.00000000
v 989.23250000 669.38500000 0.00000000
v 994.76750000 669.38500000 210.00000000
v 994.76750000 739.13500000 210.00000000
v 989.23250000 739.13500000 210.00000000
v 989.23250000 669.38500000 210.00000000
f 699 700 701
f 699 701 702
f 703 705 704
f 703 706 705
f 699 703 704
f 699 704 700
f 700 704 705
f 700 705 701
f 701 705 706
f 701 706 702
f 702 706 703
f 702 703 699
f 707 708 709
f 707 709 710
f 711 713 712
f 711 714 713
f 707 711 712
f 707 712 708
f 708 712 713
f 708 713 709
f 709 713 714
f 709 714 710
f 710 714 711
f 710 711 707
f 715 716 717
f 715 717 718
f 719 721 720
f 719 722 721
f 715 719 720
f 715 720 716
f 716 720 721
f 716 721 717
f 717 721 722
f 717 722 718
f 718 722 719
f 718 719 715
f 723 724 725
f 723 725 726
f 727 729 728
f 727 730 729
f 723 727 728
f 723 728 724
f 724 728 729
f 724 729 725
f 725 729 730
f 725 730 726
f 726 730 727
f 726 727 723
f 731 732 733
f 731 733 734
f 735 737 736
f 735 738 737
f 731 735 736
f 731 736 732
f 732 736 737
f 732 737 733
f 733 737 738
f 733 738 734
f 734 738 735
f 734 735 731
f 739 740 741
f 739 741 742
f 743 745 744
f 743 746 745
f 739 743 744
f 739 744 740
f 740 744 745
f 740 745 741
f 741 745 746
f 741 746 742
f 742 746 743
f 742 743 739
f 747 748 749
f 747 749 750
f 751 753 752
f 751 754 753
f 747 751 752
f 747 752 748
f 748 752 753
f 748 753 749
f 749 753 754
f 749 754 750
f 750 754 751
f 750 751 747
f 755 756 757
f 755 757 758
f 759 761 760
f 759 762 761
f 755 759 760
f 755 760 756
f 756 760 761
f 756 761 757
f 757 761 762
f 757 762 758
f 758 762 759
f 758 759 755
f 763 764 765
f 763 765 766
f 767 769 768
f 767 770 769
f 763 767 768
f 763 768 764
f 764 768 769
f 764 769 765
f 765 769 770
f 765 770 766
f 766 770 767
f 766 767 763
f 771 772 773
f 771 773 774
f 775 777 776
f 775 778 777
f 771 775 776
f 771 776 772
f 772 776 777
f 772 777 773
f 773 777 778
f 773 778 774
f 774 778 775
f 774 775 771
f 779 780 781
f 779 781 782
f 783 785 784
f 783 786 785
f 779 783 784
f 779 784 780
f 780 784 785
f 780 785 781
f 781 785 786
f 781 786 782
f 782 786 783
f 782 783 779
f 787 788 789
f 787 789 790
f 791 793 792
f 791 794 793
f 787 791 792
f 787 792 788
f 788 792 793
f 788 793 789
f 789 793 794
f 789 794 790
f 790 794 791
f 790 791 787
f 795 796 797
f 795 797 798
f 799 801 800
f 799 802 801
f 795 799 800
f 795 800 796
f 796 800 801
f 796 801 797
f 797 801 802
f 797 802 798
f 798 802 799
f 798 799 795
f 803 804 805
f 803 805 806
f 807 809 808
f 807 810 809
f 803 807 808
f 803 808 804
f 804 808 809
f 804 809 805
f 805 809 810
f 805 810 806
f 806 810 807
f 806 807 803
f 811 812 813
f 811 813 814
f 815 817 816
f 815 818 817
f 811 815 816
f 811 816 812
f 812 816 817
f 812 817 813
f 813 817 818
f 813 818 814
f 814 818 815
f 814 815 811
f 819 820 821
f 819 821 822
f 823 825 824
f 823 826 825
f 819 823 824
f 819 824 820
f 820 824 825
f 820 825 821
f 821 825 826
f 821 826 822
f 822 826 823
f 822 823 819

