# https://github.com/mikedh/trimesh
v 41.28000000 198.17000000 0.00000000
v 41.28000000 89.81000000 0.00000000
v 160.57000000 89.81000000 0.00000000
v 41.28000000 198.17000000 0.00000000
v 160.57000000 89.81000000 0.00000000
v 160.57000000 198.17000000 0.00000000
v 163.29000000 125.46000000 0.00000000
v 163.29000000 89.92000000 0.00000000
v 220.49000000 89.92000000 0.00000000
v 163.29000000 125.46000000 0.00000000
v 220.49000000 89.92000000 0.00000000
v 220.49000000 125.46000000 0.00000000
v 102.03000000 270.29000000 0.00000000
v 102.03000000 247.20000000 0.00000000
v 131.23000000 247.20000000 0.00000000
v 102.03000000 270.29000000 0.00000000
v 131.23000000 247.20000000 0.00000000
v 131.23000000 270.29000000 0.00000000
v 163.65000000 270.67000000 0.00000000
v 163.65000000 213.02000000 0.00000000
v 222.27000000 270.67000000 0.00000000
v 222.27000000 270.67000000 0.00000000
v 163.65000000 213.02000000 0.00000000
v 222.27000000 213.02000000 0.00000000
v 164.20000000 209.11000000 0.00000000
v 164.20000000 151.29000000 0.00000000
v 221.94000000 151.29000000 0.00000000
v 164.20000000 209.11000000 0.00000000
v 221.94000000 151.29000000 0.00000000
v 221.94000000 209.11000000 0.00000000
v 134.38000000 270.35000000 0.00000000
v 134.38000000 247.24000000 0.00000000
v 161.35000000 247.24000000 0.00000000
v 134.38000000 270.35000000 0.00000000
v 161.35000000 247.24000000 0.00000000
v 161.35000000 270.35000000 0.00000000
v 163.75000000 148.55000000 0.00000000
v 163.75000000 128.39000000 0.00000000
v 220.13000000 128.39000000 0.00000000
v 163.75000000 148.55000000 0.00000000
v 220.13000000 128.39000000 0.00000000
v 220.13000000 148.55000000 0.00000000
v 40.05000000 84.99000000 0.00000000
v 40.05000000 21.18000000 0.00000000
v 224.32000000 84.99000000 0.00000000
v 224.32000000 84.99000000 0.00000000
v 40.05000000 21.18000000 0.00000000
v 224.32000000 21.18000000 0.00000000
v 42.65000000 271.11000000 0.00000000
v 42.65000000 200.23000000 0.00000000
v 100.63000000 200.23000000 0.00000000
v 42.65000000 271.11000000 0.00000000
v 100.63000000 200.23000000 0.00000000
v 100.63000000 271.11000000 0.00000000
v 100.95000000 244.98000000 0.00000000
v 100.95000000 199.82000000 0.00000000
v 161.03000000 244.98000000 0.00000000
v 161.03000000 244.98000000 0.00000000
v 100.95000000 199.82000000 0.00000000
v 161.03000000 199.82000000 0.00000000
v 102.26000000 297.84000000 0.00000000
v 102.26000000 275.76000000 0.00000000
v 162.52000000 275.76000000 0.00000000
v 102.26000000 297.84000000 0.00000000
v 162.52000000 275.76000000 0.00000000
v 162.52000000 297.84000000 0.00000000
v 38.59000000 85.22000000 0.00000000
v 38.59000000 53.67000000 0.00000000
v 224.80000000 53.67000000 0.00000000
v 38.59000000 85.22000000 0.00000000
v 224.80000000 53.67000000 0.00000000
v 224.80000000 85.22000000 0.00000000
f 1 2 3
f 4 5 6
f 7 8 9
f 10 11 12
f 13 14 15
f 16 17 18
f 19 20 21
f 22 23 24
f 25 26 27
f 28 29 30
f 31 32 33
f 34 35 36
f 37 38 39
f 40 41 42
f 43 44 45
f 46 47 48
f 49 50 51
f 52 53 54
f 55 56 57
f 58 59 60
f 61 62 63
f 64 65 66
f 67 68 69
f 70 71 72

