# https://github.com/mikedh/trimesh
v 165.31715929 218.12256398 0.00000000
v 165.66647243 230.48763092 0.00000000
v 159.66886518 230.65706332 0.00000000
v 159.31955204 218.29199639 0.00000000
v 165.31715929 218.12256398 210.00000000
v 165.66647243 230.48763092 210.00000000
v 159.66886518 230.65706332 210.00000000
v 159.31955204 218.29199639 210.00000000
v 181.77500000 127.00000000 0.00000000
v 192.53500000 127.00000000 0.00000000
v 192.53500000 129.00000000 0.00000000
v 181.77500000 129.00000000 0.00000000
v 181.77500000 127.00000000 210.00000000
v 192.53500000 127.00000000 210.00000000
v 192.53500000 129.00000000 210.00000000
v 181.77500000 129.00000000 210.00000000
v 61.72650415 270.78270484 90.00000000
v 80.52609326 270.90700126 90.00000000
v 80.50754796 273.71193996 90.00000000
v 61.70795886 273.58764354 90.00000000
v 61.72650415 270.78270484 210.00000000
v 80.52609326 270.90700126 210.00000000
v 80.50754796 273.71193996 210.00000000
v 61.70795886 273.58764354 210.00000000
v 113.64726484 271.12598707 0.00000000
v 128.97692978 271.22734154 0.00000000
v 128.95838449 274.03228024 0.00000000
v 113.62871955 273.93092576 0.00000000
v 113.64726484 271.12598707 210.00000000
v 128.97692978 271.22734154 210.00000000
v 128.95838449 274.03228024 210.00000000
v 113.62871955 273.93092576 210.00000000
v 140.88087396 271.30604633 90.00000000
v 146.50075112 271.34320303 90.00000000
v 146.48220583 274.14814172 90.00000000
v 140.86232867 274.11098502 90.00000000
v 140.88087396 271.30604633 210.00000000
v 146.50075112 271.34320303 210.00000000
v 146.48220583 274.14814172 210.00000000
v 140.86232867 274.11098502 210.00000000
v 115.10500000 247.00000000 0.00000000
v 127.48500000 247.00000000 0.00000000
v 127.48500000 249.00000000 0.00000000
v 115.10500000 249.00000000 0.00000000
v 115.10500000 247.00000000 210.00000000
v 127.48500000 247.00000000 210.00000000
v 127.48500000 249.00000000 210.00000000
v 115.10500000 249.00000000 210.00000000
v 40.89049679 170.43805833 90.00000000
v 40.93735711 189.67800126 90.00000000
v 38.64236392 189.68359089 90.00000000
v 38.59550360 170.44364796 90.00000000
v 40.89049679 170.43805833 210.00000000
v 40.93735711 189.67800126 210.00000000
v 38.64236392 189.68359089 210.00000000
v 38.59550360 170.44364796 210.00000000
v 72.29794716 83.88492278 90.00000000
v 90.23769141 83.98071423 90.00000000
v 90.22348822 86.64067631 90.00000000
v 72.28374397 86.54488486 90.00000000
v 72.29794716 83.88492278 210.00000000
v 90.23769141 83.98071423 210.00000000
v 90.22348822 86.64067631 210.00000000
v 72.28374397 86.54488486 210.00000000
v 97.16670778 84.01771255 90.00000000
v 114.59645931 84.11078083 90.00000000
v 114.58225612 86.77074291 90.00000000
v 97.15250459 86.67767463 90.00000000
v 97.16670778 84.01771255 210.00000000
v 114.59645931 84.11078083 210.00000000
v 114.58225612 86.77074291 210.00000000
v 97.15250459 86.67767463 210.00000000
v 137.64271298 84.23383911 0.00000000
v 153.71248389 84.31964560 0.00000000
v 153.69828070 86.97960768 0.00000000
v 137.62850979 86.89380119 0.00000000
v 137.64271298 84.23383911 210.00000000
v 153.71248389 84.31964560 210.00000000
v 153.69828070 86.97960768 210.00000000
v 137.62850979 86.89380119 210.00000000
v 168.56095348 84.39893081 0.00000000
v 184.20073052 84.48244130 0.00000000
v 184.18652733 87.14240338 0.00000000
v 168.54675029 87.05889289 0.00000000
v 168.56095348 84.39893081 210.00000000
v 184.20073052 84.48244130 210.00000000
v 184.18652733 87.14240338 210.00000000
v 168.54675029 87.05889289 210.00000000
v 161.00000000 100.25000000 0.00000000
v 161.00000000 112.23000000 0.00000000
v 159.00000000 112.23000000 0.00000000
v 159.00000000 100.25000000 0.00000000
v 161.00000000 100.25000000 210.00000000
v 161.00000000 112.23000000 210.00000000
v 159.00000000 112.23000000 210.00000000
v 159.00000000 100.25000000 210.00000000
v 161.00000000 223.29000000 0.00000000
v 161.00000000 241.56000000 0.00000000
v 159.00000000 241.56000000 0.00000000
v 159.00000000 223.29000000 0.00000000
v 161.00000000 223.29000000 210.00000000
v 161.00000000 241.56000000 210.00000000
v 159.00000000 241.56000000 210.00000000
v 159.00000000 223.29000000 210.00000000
v 225.38500978 111.64910332 90.00000000
v 225.46865305 120.39870353 90.00000000
v 223.19875677 120.42040298 90.00000000
v 223.11511349 111.67080278 90.00000000
v 225.38500978 111.64910332 210.00000000
v 225.46865305 120.39870353 210.00000000
v 223.19875677 120.42040298 210.00000000
v 223.11511349 111.67080278 210.00000000
v 225.53116588 126.93792977 90.00000000
v 225.70122460 144.72711694 90.00000000
v 223.43132832 144.74881639 90.00000000
v 223.26126960 126.95962923 90.00000000
v 225.53116588 126.93792977 210.00000000
v 225.70122460 144.72711694 210.00000000
v 223.43132832 144.74881639 210.00000000
v 223.26126960 126.95962923 210.00000000
v 225.86616104 161.98048253 90.00000000
v 225.92810486 168.46018646 90.00000000
v 223.65820858 168.48188591 90.00000000
v 223.59626476 162.00218198 90.00000000
v 225.86616104 161.98048253 210.00000000
v 225.92810486 168.46018646 210.00000000
v 223.65820858 168.48188591 210.00000000
v 223.59626476 162.00218198 210.00000000
v 226.13421307 190.02037228 0.00000000
v 226.26823349 204.03973170 0.00000000
v 223.99833721 204.06143116 0.00000000
v 223.86431679 190.04207174 0.00000000
v 226.13421307 190.02037228 210.00000000
v 226.26823349 204.03973170 210.00000000
v 223.99833721 204.06143116 210.00000000
v 223.86431679 190.04207174 210.00000000
v 226.41124846 218.99997614 90.00000000
v 226.60472730 239.23905136 90.00000000
v 224.33483101 239.26075081 90.00000000
v 224.14135218 219.02167559 90.00000000
v 226.41124846 218.99997614 210.00000000
v 226.60472730 239.23905136 210.00000000
v 224.33483101 239.26075081 210.00000000
v 224.14135218 219.02167559 210.00000000
f 1 2 3
f 1 3 4
f 5 7 6
f 5 8 7
f 1 5 6
f 1 6 2
f 2 6 7
f 2 7 3
f 3 7 8
f 3 8 4
f 4 8 5
f 4 5 1
f 9 10 11
f 9 11 12
f 13 15 14
f 13 16 15
f 9 13 14
f 9 14 10
f 10 14 15
f 10 15 11
f 11 15 16
f 11 16 12
f 12 16 13
f 12 13 9
f 17 18 19
f 17 19 20
f 21 23 22
f 21 24 23
f 17 21 22
f 17 22 18
f 18 22 23
f 18 23 19
f 19 23 24
f 19 24 20
f 20 24 21
f 20 21 17
f 25 26 27
f 25 27 28
f 29 31 30
f 29 32 31
f 25 29 30
f 25 30 26
f 26 30 31
f 26 31 27
f 27 31 32
f 27 32 28
f 28 32 29
f 28 29 25
f 33 34 35
f 33 35 36
f 37 39 38
f 37 40 39
f 33 37 38
f 33 38 34
f 34 38 39
f 34 39 35
f 35 39 40
f 35 40 36
f 36 40 37
f 36 37 33
f 41 42 43
f 41 43 44
f 45 47 46
f 45 48 47
f 41 45 46
f 41 46 42
f 42 46 47
f 42 47 43
f 43 47 48
f 43 48 44
f 44 48 45
f 44 45 41
f 49 50 51
f 49 51 52
f 53 55 54
f 53 56 55
f 49 53 54
f 49 54 50
f 50 54 55
f 50 55 51
f 51 55 56
f 51 56 52
f 52 56 53
f 52 53 49
f 57 58 59
f 57 59 60
f 61 63 62
f 61 64 63
f 57 61 62
f 57 62 58
f 58 62 63
f 58 63 59
f 59 63 64
f 59 64 60
f 60 64 61
f 60 61 57
f 65 66 67
f 65 67 68
f 69 71 70
f 69 72 71
f 65 69 70
f 65 70 66
f 66 70 71
f 66 71 67
f 67 71 72
f 67 72 68
f 68 72 69
f 68 69 65
f 73 74 75
f 73 75 76
f 77 79 78
f 77 80 79
f 73 77 78
f 73 78 74
f 74 78 79
f 74 79 75
f 75 79 80
f 75 80 76
f 76 80 77
f 76 77 73
f 81 82 83
f 81 83 84
f 85 87 86
f 85 88 87
f 81 85 86
f 81 86 82
f 82 86 87
f 82 87 83
f 83 87 88
f 83 88 84
f 84 88 85
f 84 85 81
f 89 90 91
f 89 91 92
f 93 95 94
f 93 96 95
f 89 93 94
f 89 94 90
f 90 94 95
f 90 95 91
f 91 95 96
f 91 96 92
f 92 96 93
f 92 93 89
f 97 98 99
f 97 99 100
f 101 103 102
f 101 104 103
f 97 101 102
f 97 102 98
f 98 102 103
f 98 103 99
f 99 103 104
f 99 104 100
f 100 104 101
f 100 101 97
f 105 106 107
f 105 107 108
f 109 111 110
f 109 112 111
f 105 109 110
f 105 110 106
f 106 110 111
f 106 111 107
f 107 111 112
f 107 112 108
f 108 112 109
f 108 109 105
f 113 114 115
f 113 115 116
f 117 119 118
f 117 120 119
f 113 117 118
f 113 118 114
f 114 118 119
f 114 119 115
f 115 119 120
f 115 120 116
f 116 120 117
f 116 117 113
f 121 122 123
f 121 123 124
f 125 127 126
f 125 128 127
f 121 125 126
f 121 126 122
f 122 126 127
f 122 127 123
f 123 127 128
f 123 128 124
f 124 128 125
f 124 125 121
f 129 130 131
f 129 131 132
f 133 135 134
f 133 136 135
f 129 133 134
f 129 134 130
f 130 134 135
f 130 135 131
f 131 135 136
f 131 136 132
f 132 136 133
f 132 133 129
f 137 138 139
f 137 139 140
f 141 143 142
f 141 144 143
f 137 141 142
f 137 142 138
f 138 142 143
f 138 143 139
f 139 143 144
f 139 144 140
f 140 144 141
f 140 141 137

